<?xml version="1.0" encoding="UTF-8" standalone="no"?>
<!DOCTYPE svg  PUBLIC '-//W3C//DTD SVG 1.1//EN'  'http://www.w3.org/Graphics/SVG/1.1/DTD/svg11.dtd'>
<svg xmlns="http://www.w3.org/2000/svg">
<defs>
<font id="Pragmatica-Oblique" horiz-adv-x="580">
<font-face slope="-12" underline-position="-50" font-weight="400" descent="-200" panose-1="2 11 5 3 4 5 2 9 2 4" units-per-em="1000" unicode-range="U+0020-F6D4" bbox="-519 -242 1297 968" x-height="508" underline-thickness="50" font-family="Pragmatica" ascent="800" font-style="oblique" cap-height="700"/>
<missing-glyph horiz-adv-x="1000"/>
<glyph glyph-name=".notdef" horiz-adv-x="1000"/>
<glyph glyph-name=".null" horiz-adv-x="0"/>
<glyph glyph-name="nonmarkingreturn" horiz-adv-x="1000"/>
<glyph glyph-name="space" horiz-adv-x="233" unicode=" "/>
<glyph glyph-name="exclam" horiz-adv-x="310" unicode="!" d="M299 700l-57 -269l-73 -230h-49l23 230l57 269h99zM76 109h99l-24 -109h-99z"/>
<glyph glyph-name="quotedbl" horiz-adv-x="420" unicode='&quot;' d="M200 508h-53v192h133zM387 508h-53v192h133z"/>
<glyph glyph-name="numbersign" d="M329 10l26 168h-143l-26 -168h-68l26 168h-134l13 85h134l28 179h-134l13 85h134l26 167h68l-26 -167h143l26 167h68l-26 -167h134l-13 -85h-134l-28 -179h134l-13 -85h-134l-26 -168h-68zM396 442h-143l-28 -179h143z" unicode="#"/>
<glyph glyph-name="dollar" d="M118 208q-3 -14 -3 -27q0 -41 12.5 -65.5t30.5 -37.5t37.5 -17t33.5 -4l57 266q-36 12 -68.5 26t-57 34.5t-39 49.5t-14.5 71q0 33 12 68.5t41.5 66.5t79.5 51.5t126 23.5l14 65h53l-14 -65q27 0 55.5 -6.5t52.5 -22t39.5 -43.5t15.5 -72q0 -21 -3 -40h-86q1 5 1.5 10.5 t0.5 10.5q0 41 -23.5 67.5t-63.5 26.5h-3l-53 -246q40 -9 73.5 -23t58 -36t38.5 -53t14 -72t-17.5 -81.5t-52 -72.5t-85 -52t-116.5 -21l-17 -81h-53l17 81q-61 2 -98 20t-56.5 43.5t-26 54t-6.5 51.5v25q0 13 2 26h91zM279 57q33 0 62.5 11.5t52 31.5t36 46.5t13.5 56.5 q0 40 -24 69.5t-85 41.5zM354 645h-6q-42 0 -71 -14t-46 -35.5t-24 -45.5t-7 -40q0 -35 28 -62t76 -40z" unicode="$"/>
<glyph glyph-name="percent" horiz-adv-x="915" unicode="%" d="M738 700h79l-603 -700h-79zM97 508q10 54 32 92t49.5 62t57.5 35t56 11q10 0 33.5 -3.5t47.5 -18.5t42 -46t18 -85q0 -30 -10.5 -72.5t-34.5 -81.5t-62 -66t-93 -27q-54 0 -82.5 19.5t-41.5 45t-15 51t-2 37.5q0 22 5 47zM162 508q-5 -20 -5 -37v-24t6.5 -37t22 -34 t45.5 -15q35 0 60.5 19.5t42.5 47.5t25.5 60t8.5 57q0 31 -6.5 52.5t-17 34t-24 18t-27.5 5.5q-39 0 -76.5 -36t-54.5 -111zM525 192q6 27 19 61.5t36 65.5t57 52t82 21q71 0 106.5 -40t35.5 -113q0 -65 -20.5 -111.5t-50.5 -76.5t-65 -44.5t-65 -14.5q-11 0 -34 3.5 t-47 18.5t-42 46t-18 85q0 12 2 24t4 23zM590 192q-2 -9 -4 -18.5t-2 -18.5q0 -57 20 -83.5t54 -26.5q24 0 48.5 13t44.5 37t32.5 58t12.5 76q0 13 -1.5 32t-8.5 36.5t-22 29.5t-43 12q-26 0 -47.5 -12t-38 -32.5t-28 -47t-17.5 -55.5z"/>
<glyph glyph-name="ampersand" horiz-adv-x="688" unicode="&amp;" d="M633 306q-2 -4 -8.5 -21.5t-17.5 -41.5t-27.5 -51.5t-37.5 -51.5l88 -140h-105l-47 75q-44 -45 -100 -68.5t-129 -23.5q-58 0 -95.5 16.5t-59.5 41t-30.5 52.5t-8.5 50q0 53 17 93t46.5 71t70 54.5t88.5 43.5q-20 37 -30 62.5t-10 58.5q0 42 15.5 74.5t41 54.5t58.5 33.5 t69 11.5q29 0 54 -6t44 -19.5t29.5 -34t10.5 -48.5q0 -12 -3 -35t-19.5 -52t-51 -60.5t-96.5 -59.5l115 -182q10 14 23 37.5t27 65.5h79zM311 348q-43 -16 -74 -37t-51 -45t-29.5 -49.5t-9.5 -51.5q0 -9 3 -26.5t15 -35t35 -31t62 -13.5q50 0 98 19t82 57zM358 438 q24 8 45.5 21.5t38 31t26.5 38.5t10 45q0 20 -6.5 32t-16 18t-19.5 8t-17 2q-12 0 -28.5 -4.5t-32 -15.5t-26.5 -30t-11 -48q0 -27 11.5 -53.5t25.5 -44.5z"/>
<glyph glyph-name="quotesingle" horiz-adv-x="233" unicode="&apos;" d="M200 508h-53v192h133z"/>
<glyph glyph-name="parenleft" horiz-adv-x="381" unicode="(" d="M322 700q-48 -67 -90.5 -138t-74 -145.5t-50 -152t-18.5 -157.5q0 -30 3 -66.5t9 -75.5t14.5 -77.5t19.5 -72.5h-72q-30 72 -51.5 144t-21.5 148q0 83 18 160t51.5 149.5t80 143t103.5 140.5h79z"/>
<glyph glyph-name="parenright" horiz-adv-x="381" unicode=")" d="M249 700q30 -72 51.5 -144t21.5 -148q0 -83 -18 -160t-51.5 -149.5t-80 -143t-103.5 -140.5h-79q48 67 90.5 138t74 145.5t50 152t18.5 157.5q0 30 -3 66.5t-9 75.5t-14.5 77.5t-19.5 72.5h72z"/>
<glyph glyph-name="asterisk" horiz-adv-x="466" unicode="*" d="M199 413l-36 35l93 96l-118 58l22 44l119 -58l19 131l49 -4l-18 -130l133 26l10 -49l-132 -26l60 -109l-43 -23l-61 107z"/>
<glyph glyph-name="plus" horiz-adv-x="600" unicode="+" d="M282 386v219h62v-219h219v-62h-219v-219h-62v219h-219v62h219z"/>
<glyph glyph-name="comma" horiz-adv-x="318" unicode="," d="M74 109h99l-24 -114q-5 -25 -12.5 -47t-21.5 -40t-36.5 -32t-58.5 -24l11 55q20 4 32.5 14.5t20 23.5t11 26.5t5.5 23.5l1 5h-50z"/>
<glyph glyph-name="hyphen" horiz-adv-x="426" unicode="-" d="M91 310h264l-18 -85h-264z"/>
<glyph glyph-name="period" horiz-adv-x="319" unicode="." d="M75 109h99l-23 -109h-99z"/>
<glyph glyph-name="slash" horiz-adv-x="420" unicode="/" d="M454 700h63l-545 -885h-63z"/>
<glyph glyph-name="zero" d="M243 -21q-8 0 -25.5 1t-39.5 8.5t-45.5 23t-42.5 44t-31.5 72.5t-12.5 108q0 99 23 187t66 154.5t103.5 105t134.5 38.5q34 0 69.5 -9.5t64.5 -37t47.5 -78t18.5 -132.5q0 -49 -8 -104t-25 -108.5t-43 -103t-63 -87t-84.5 -60t-106.5 -22.5zM253 58q39 0 70.5 20t56 53.5 t42.5 76.5t30 89.5t17.5 93t5.5 86.5q0 54 -11 86.5t-28 50t-36.5 23t-36.5 5.5q-50 0 -90.5 -34.5t-69 -92t-44 -132.5t-15.5 -157q0 -14 2 -42t12 -56t32 -49t63 -21z" unicode="0"/>
<glyph glyph-name="one" d="M195 575h19q25 0 54 6.5t56 21.5t49 38.5t34 58.5h68l-151 -700h-94l112 526h-157z" unicode="1"/>
<glyph glyph-name="two" d="M476 0h-473q8 54 28.5 94.5t47.5 71t58.5 53t61.5 41.5q48 30 100 56.5t95 57.5t70.5 70.5t27.5 95.5q0 54 -33.5 78t-87.5 24q-10 0 -35 -3.5t-53 -19.5t-53 -49t-35 -93h-96q10 59 30.5 100t46.5 68t55.5 42t56.5 22.5t50 9.5t36 2q35 0 73 -6t70 -23t52.5 -49.5 t20.5 -84.5q0 -71 -28.5 -121.5t-71.5 -88.5t-94 -66t-95 -53q-73 -41 -114.5 -75.5t-63.5 -78.5h369z" unicode="2"/>
<glyph glyph-name="three" d="M114 213q-3 -17 -3 -35q0 -23 6.5 -44.5t22 -38t41 -27t64.5 -10.5q46 0 80.5 14.5t57 38t33.5 53t11 59.5q0 41 -16 62.5t-39.5 31t-50.5 10.5t-48 1h-26l15 75h28q4 0 19 0.5t35 4.5t42 12t40 23.5t30 39t12 57.5q0 48 -27.5 75t-91.5 27q-24 0 -49 -5.5t-47.5 -22 t-41.5 -47t-31 -80.5h-89q7 58 27.5 98.5t47.5 66.5t57 40t57 20.5t46.5 7.5t25.5 1q65 0 106.5 -15t65.5 -38t33 -50t9 -51q0 -37 -12 -70t-33 -59.5t-49 -44t-59 -23.5l-1 -5q60 -14 86.5 -46.5t26.5 -84.5q0 -29 -12.5 -72.5t-43.5 -84t-84.5 -69.5t-135.5 -29 q-31 0 -70.5 4.5t-75 22.5t-60 54.5t-24.5 100.5q0 12 1 25t3 27h91z" unicode="3"/>
<glyph glyph-name="four" d="M11 161l16 81l413 458h102l-97 -460h103l-16 -79h-103l-35 -161h-89l35 161h-329zM356 240l74 347l-307 -347h233z" unicode="4"/>
<glyph glyph-name="five" d="M118 179v-15q0 -50 35 -78t92 -28q64 0 103 25t59.5 59.5t27 70.5t6.5 57q0 25 -8.5 47t-25.5 38t-43 25.5t-61 9.5q-34 0 -68 -11t-69 -48h-88l128 369h378l-16 -79h-309l-71 -202q35 26 71.5 38t81.5 12q94 0 146 -54t52 -144q0 -73 -21 -123t-52.5 -82t-69 -50 t-71 -26t-58 -9.5t-29.5 -1.5q-25 0 -61 4t-69.5 20.5t-57.5 50t-24 91.5v17t1 17h91z" unicode="5"/>
<glyph glyph-name="six" d="M506 546q-1 13 -6 29.5t-18 31.5t-36.5 25t-61.5 10q-24 0 -55.5 -9t-62.5 -36t-59.5 -77.5t-46.5 -133.5h4q36 43 81.5 61t98.5 18q43 0 79 -12t62 -36.5t40.5 -60.5t14.5 -84q0 -41 -11.5 -91.5t-42.5 -95.5t-85 -75.5t-139 -30.5q-13 0 -35 1.5t-46 8t-49 21t-45 41 t-32.5 66.5t-12.5 99q0 30 5.5 79.5t20.5 105.5t40 113t64.5 103t94 75t128.5 29q12 0 31.5 -1t41 -6.5t43 -16.5t39 -30.5t29 -49t12.5 -71.5h-85zM143 221q-3 -21 -3 -42q0 -53 34.5 -87t100.5 -34q45 0 77 19t52 49t29 66.5t9 72.5t-10.5 59.5t-27.5 37t-40 19t-47 5.5 q-40 0 -70.5 -15t-52 -38.5t-34.5 -53t-17 -58.5z" unicode="6"/>
<glyph glyph-name="seven" d="M125 700h497l-13 -64q-92 -82 -157 -166t-104 -148q-52 -85 -86 -162t-59 -160h-100q10 37 25.5 77.5t35 81.5t41 81t44.5 76q20 32 44 66.5t54 72t68.5 79t88.5 87.5h-396z" unicode="7"/>
<glyph glyph-name="eight" d="M263 -21q-72 0 -118 17.5t-72 45t-35.5 61t-9.5 66.5q0 54 19 92t46.5 63t57.5 39.5t52 20.5q-41 17 -58.5 51.5t-17.5 72.5q0 44 17.5 82.5t50 67.5t78 46t102.5 17q60 0 98.5 -16.5t60 -41.5t30 -54.5t8.5 -54.5q0 -16 -5 -40.5t-20 -50t-42 -49.5t-72 -39 q50 -14 75.5 -56t25.5 -96q0 -60 -21.5 -105.5t-58.5 -76.5t-86.5 -46.5t-104.5 -15.5zM258 58q52 0 86.5 19t54.5 46.5t28.5 57.5t8.5 51q0 18 -5.5 37t-20 34t-39 24.5t-62.5 9.5q-37 0 -70.5 -10.5t-58.5 -30.5t-39.5 -49t-14.5 -65q0 -39 14.5 -63.5t35 -38t43 -18 t39.5 -4.5zM325 412q33 0 61.5 10.5t50 28.5t34 42.5t12.5 52.5q0 15 -4 31.5t-17 31t-36 24t-60 9.5q-39 0 -67.5 -13t-47 -32.5t-27 -43t-8.5 -45.5q0 -18 6 -35.5t18.5 -31t33.5 -21.5t51 -8z" unicode="8"/>
<glyph glyph-name="nine" d="M114 152q1 -18 8 -35t21.5 -30t37 -21t55.5 -8q53 0 91.5 25.5t64.5 63.5t42 82.5t25 82.5h-4q-21 -26 -44 -41.5t-46 -23.5t-43 -10.5t-35 -2.5q-51 0 -90 14t-65.5 39t-40 60.5t-13.5 78.5q0 22 4 52.5t15 63.5t30.5 65t50.5 57.5t75 41t104 15.5q14 0 36.5 -1t47 -7.5 t49 -20.5t44 -40t32 -65.5t12.5 -97.5q0 -30 -4.5 -79.5t-18 -106.5t-38 -114.5t-63.5 -104t-95.5 -76t-134.5 -29.5q-56 0 -93 14t-59.5 38t-32 55t-10.5 66h85zM477 477q3 21 3 42q0 56 -34.5 89.5t-100.5 33.5q-56 0 -89.5 -24.5t-51 -58.5t-23 -69t-5.5 -57 q0 -36 10.5 -59.5t28.5 -37t41 -18.5t47 -5q40 0 70.5 14.5t52 38t34 53t17.5 58.5z" unicode="9"/>
<glyph glyph-name="colon" horiz-adv-x="313" unicode=":" d="M159 508h99l-23 -109h-99zM75 109h99l-23 -109h-99z"/>
<glyph glyph-name="semicolon" horiz-adv-x="312" unicode=";" d="M158 508h99l-23 -109h-99zM74 109h99l-24 -114q-5 -25 -12.5 -47t-21.5 -40t-36.5 -32t-58.5 -24l11 55q20 4 32.5 14.5t20 23.5t11 26.5t5.5 23.5l1 5h-50z"/>
<glyph glyph-name="less" horiz-adv-x="669" unicode="&lt;" d="M598 87l-30 -54l-495 285v48l495 285l30 -54l-449 -255z"/>
<glyph glyph-name="equal" horiz-adv-x="600" unicode="=" d="M563 476v-62h-500v62h500zM563 276v-62h-500v62h500z"/>
<glyph glyph-name="greater" horiz-adv-x="669" unicode="&gt;" d="M97 597l30 54l495 -285v-48l-495 -285l-30 54l449 255z"/>
<glyph glyph-name="question" horiz-adv-x="551" unicode="?" d="M190 109h99l-24 -109h-99zM103 489q7 45 24 86t48 72.5t77 50.5t111 19q27 0 61.5 -4.5t65 -20.5t51 -45.5t20.5 -79.5q0 -35 -10 -64t-28.5 -54t-45.5 -47.5t-60 -46.5q-19 -14 -38 -27.5t-35.5 -31t-29 -40t-18.5 -53.5h-73q3 36 15 64t28 49.5t33.5 37t32.5 26.5 q22 16 46.5 34t44.5 39.5t33.5 46.5t13.5 57t-13 49.5t-30.5 26t-36 10.5t-30.5 2q-15 0 -39.5 -3.5t-50 -18.5t-48 -46.5t-32.5 -87.5h-87z"/>
<glyph glyph-name="at" horiz-adv-x="863" unicode="@" d="M630 29q-46 -27 -89.5 -38.5t-96.5 -11.5q-77 0 -144.5 24t-118 71.5t-79.5 117t-29 159.5q0 82 29 150.5t79 117t118 75.5t145 27q95 0 165 -29t116 -77.5t68.5 -111.5t22.5 -132q0 -39 -12 -79t-35 -72.5t-57 -52.5t-78 -20q-10 0 -22.5 1.5t-24.5 6.5t-23.5 14.5 t-18.5 25.5q-5 -10 -14 -20t-23 -17.5t-35 -12t-50 -4.5q-81 0 -127 53.5t-46 143.5q0 41 11 77t32.5 62.5t52.5 42t70 15.5q50 0 77 -16.5t41 -38.5h3v41h76v-252q0 -39 11.5 -48.5t26.5 -9.5q27 0 46.5 15t32 38.5t18 51.5t5.5 55q0 71 -24 126t-66 92.5t-98.5 56.5 t-120.5 19q-72 0 -129 -26t-96.5 -69.5t-61 -100.5t-21.5 -118q0 -83 27.5 -142.5t72 -97.5t99.5 -56.5t109 -18.5q57 0 95.5 15.5t61.5 30.5zM530 337q0 59 -23 95.5t-73 36.5q-27 0 -46 -11t-31 -29t-17.5 -42t-5.5 -50q0 -21 4 -44t15 -42.5t30.5 -32t49.5 -12.5 q31 0 50 13t29.5 33t14 42.5t3.5 42.5z"/>
<glyph glyph-name="A" horiz-adv-x="630" unicode="A" d="M50 0h-98l406 700h102l116 -700h-97l-28 181h-296zM442 260l-50 345l-195 -345h245z"/>
<glyph glyph-name="B" horiz-adv-x="693" unicode="B" d="M474 700q64 0 101 -16t56 -38t24.5 -46.5t5.5 -40.5q0 -32 -9.5 -61.5t-27 -54.5t-43 -44.5t-56.5 -31.5v-3q21 -5 39.5 -15t32.5 -26.5t22.5 -41t8.5 -58.5q0 -16 -3.5 -38.5t-14.5 -47.5t-31 -49.5t-52.5 -44t-80 -31.5t-112.5 -12h-303l148 700h295zM211 403h189 q39 0 69.5 10t51.5 28t31.5 42t10.5 51q0 19 -5.5 35t-19 27.5t-37 18t-59.5 6.5h-185zM142 79h195q51 0 88 11.5t60 31.5t34 46.5t11 56.5q0 16 -4.5 34t-19 32t-42.5 23.5t-75 9.5h-195z"/>
<glyph glyph-name="C" horiz-adv-x="715" unicode="C" d="M673 232q-5 -16 -14.5 -41.5t-26.5 -53.5t-42 -56t-60 -51t-81.5 -37t-106.5 -14q-17 0 -45 2t-60 10.5t-64.5 25.5t-58.5 47.5t-42.5 76t-16.5 110.5q0 102 30 188t83 149t126 98t160 35q16 0 42.5 -1.5t55.5 -8t59 -18.5t54 -33.5t39 -54t15 -78.5q0 -22 -3 -43h-95 q2 8 2 14v15q0 18 -6.5 40.5t-25 42t-52 33t-88.5 13.5q-58 0 -102.5 -19.5t-77.5 -51.5t-55 -72.5t-35.5 -82t-19 -80.5t-5.5 -68q0 -39 10.5 -76.5t34 -67.5t61 -48t91.5 -18q50 0 87.5 16t64.5 41t44 56t26 61h98z"/>
<glyph glyph-name="D" horiz-adv-x="718" unicode="D" d="M424 700q22 0 51.5 -2.5t61 -11.5t61.5 -26.5t54 -47.5t39 -75t15 -108q0 -101 -23.5 -172t-62 -118.5t-86.5 -75t-97 -41.5t-94.5 -18t-77.5 -4h-234l149 700h244zM142 79h137q26 0 60.5 4t70.5 17t71 36t62.5 61.5t44.5 93.5t17 132q0 18 -3 51t-21.5 66t-58.5 57 t-114 24h-151z"/>
<glyph glyph-name="E" horiz-adv-x="608" unicode="E" d="M577 401l-17 -79h-366l-52 -243h416l-16 -79h-511l149 700h499l-17 -79h-405l-47 -220h367z"/>
<glyph glyph-name="F" horiz-adv-x="563" unicode="F" d="M538 393l-17 -79h-329l-67 -314h-94l149 700h470l-18 -79h-375l-49 -228h330z"/>
<glyph glyph-name="G" horiz-adv-x="743" unicode="G" d="M708 365l-79 -365h-72l19 92h-2q-26 -31 -52 -52.5t-54.5 -35t-62 -19.5t-75.5 -6q-137 0 -206 78t-69 224q0 42 8.5 91t28.5 98t52 94t78.5 80t109 56t143.5 21q77 0 126 -19.5t77.5 -49.5t39.5 -65t11 -65v-15q0 -6 -1 -14h-98q1 8 1 14v15q0 25 -10.5 46.5t-31 38 t-51 26t-71.5 9.5q-68 0 -117.5 -21.5t-84 -55.5t-56 -75.5t-33.5 -81.5t-16 -73.5t-4 -51.5q0 -73 20 -117t50.5 -68t66 -32t65.5 -8q39 0 76.5 12t69.5 39t58 70.5t42 106.5h-200l17 79h287z"/>
<glyph glyph-name="H" horiz-adv-x="709" unicode="H" d="M125 0h-94l149 700h94l-62 -292h351l62 292h94l-149 -700h-94l70 329h-351z"/>
<glyph glyph-name="I" horiz-adv-x="264" unicode="I" d="M274 700l-149 -700h-94l149 700h94z"/>
<glyph glyph-name="J" horiz-adv-x="517" unicode="J" d="M114 232q-10 -39 -12 -56.5t-2 -23.5q0 -17 4.5 -34t15.5 -30.5t29.5 -21.5t45.5 -8q38 0 63.5 12t42.5 34.5t27.5 55t19.5 73.5l99 467h94l-97 -458q-14 -68 -32 -117.5t-46.5 -82t-70.5 -48t-103 -15.5t-98 15t-56.5 39t-25.5 53t-6 57q0 26 3.5 47.5t8.5 41.5h96z"/>
<glyph glyph-name="K" horiz-adv-x="659" unicode="K" d="M619 700h123l-355 -298l232 -402h-121l-191 347l-131 -107l-51 -240h-94l149 700h94l-73 -345z"/>
<glyph glyph-name="L" horiz-adv-x="531" unicode="L" d="M481 0h-450l149 700h94l-132 -621h357z"/>
<glyph glyph-name="M" horiz-adv-x="870" unicode="M" d="M239 568h-2l-3 -26l-116 -542h-87l149 700h119l109 -576l342 576h130l-149 -700h-87l116 542l7 26h-2l-341 -568h-79z"/>
<glyph glyph-name="N" horiz-adv-x="731" unicode="N" d="M125 0h-94l148 700h93l259 -548l116 548h94l-149 -700h-92l-259 548z"/>
<glyph glyph-name="O" horiz-adv-x="761" unicode="O" d="M347 -21q-72 0 -122 16.5t-82.5 42.5t-50.5 57.5t-27 62t-10.5 56t-1.5 38.5q0 90 25 174.5t75.5 150t125 105t173.5 39.5q58 0 111.5 -14.5t94 -46.5t64.5 -83.5t24 -125.5q0 -91 -24.5 -176t-74.5 -151t-125 -105.5t-175 -39.5zM358 58q53 0 95 17.5t74 47t54 68 t36.5 80.5t21 85t6.5 81q0 51 -13 86.5t-33 58t-44.5 35t-47 18t-40.5 6.5t-25 1q-52 0 -94 -17.5t-74 -47.5t-54.5 -68.5t-37 -80.5t-21.5 -84.5t-7 -79.5q0 -63 18.5 -103.5t48 -63t65.5 -31t72 -8.5z"/>
<glyph glyph-name="P" horiz-adv-x="685" unicode="P" d="M465 700q48 0 87.5 -7t67 -25t43 -47.5t15.5 -74.5q0 -59 -15 -101.5t-38.5 -72t-54 -48t-61 -28.5t-59 -13.5t-49.5 -3.5h-202l-59 -279h-94l149 700h270zM216 358h178q65 0 102.5 21t56 49t23 57t4.5 45q0 27 -10.5 44.5t-29 28t-45 14.5t-58.5 4h-165z"/>
<glyph glyph-name="Q" horiz-adv-x="761" unicode="Q" d="M633 -25l-63 -49l-60 89q-16 -9 -54 -22.5t-108 -13.5q-47 0 -99 9.5t-95.5 38.5t-72 82.5t-28.5 142.5q0 53 10 108.5t30.5 107.5t52.5 98t76 80.5t101.5 54.5t128.5 20t120.5 -16t82.5 -42t51 -58t27 -63t11 -58.5t2 -43.5q0 -54 -11 -109t-32 -105.5t-52 -94.5 t-71 -75zM528 126q32 27 54 65.5t36 81t20.5 85.5t6.5 79q0 51 -13 86.5t-32.5 58t-44 35t-47 18t-40.5 6.5t-26 1q-68 0 -121.5 -31t-90.5 -83.5t-56.5 -120.5t-19.5 -143q0 -64 18.5 -104t47.5 -62.5t65.5 -31t72.5 -8.5q37 0 62 7.5t43 17.5l-62 90l63 47z"/>
<glyph glyph-name="R" horiz-adv-x="678" unicode="R" d="M180 700h297q73 0 114 -18.5t61 -44t24 -52t4 -43.5q0 -37 -11 -69.5t-30 -59.5t-45.5 -46.5t-56.5 -29.5l-1 -3q32 -11 46.5 -37t14.5 -59q0 -35 -6.5 -62.5t-12.5 -56.5q-2 -9 -3.5 -20.5t-3 -22.5t-2.5 -20.5t-1 -14.5q0 -11 4 -21t10 -20h-99q-5 10 -8 19.5t-3 20.5 q0 26 7 55.5t13 67.5q2 11 4.5 30.5t2.5 28.5q0 22 -9 37t-24 23t-35 11.5t-42 3.5h-201l-63 -297h-94zM205 376h210q33 0 63.5 10t53.5 29t36.5 47.5t13.5 66.5q0 16 -4 32.5t-16.5 30t-35.5 21.5t-60 8h-209z"/>
<glyph glyph-name="S" horiz-adv-x="646" unicode="S" d="M135 222q-5 -18 -5 -45t14 -53q14 -27 48 -46.5t100 -19.5q48 0 86 12.5t64.5 33.5t40 48.5t13.5 57.5q0 34 -17 54t-46.5 31.5t-68.5 19t-83 17.5q-28 6 -58 15t-55.5 25.5t-42 45t-16.5 73.5q0 33 13 73.5t46 75t90 58t144 23.5q63 0 107.5 -12.5t72.5 -35t41 -52.5 t13 -66q0 -19 -3 -37h-91q1 5 1 11v11q0 9 -3 26t-17.5 34t-44.5 29.5t-83 12.5q-40 0 -74 -10t-58.5 -27.5t-38.5 -42t-14 -54.5q0 -26 11 -42.5t31.5 -27t48.5 -17t62 -13.5q40 -8 81.5 -17.5t75.5 -27t55.5 -46.5t21.5 -77q0 -42 -14 -88t-49.5 -84.5t-96 -63.5 t-153.5 -25q-26 0 -56.5 2.5t-61 11.5t-57.5 25t-45 43t-26 67q-3 18 -4 39q0 25 5 55h96z"/>
<glyph glyph-name="T" horiz-adv-x="569" unicode="T" d="M91 621l17 79h548l-17 -79h-227l-132 -621h-94l132 621h-227z"/>
<glyph glyph-name="U" horiz-adv-x="695" unicode="U" d="M259 700l-88 -417q-7 -32 -10 -52.5t-3 -36.5q0 -63 37.5 -99.5t111.5 -36.5q63 0 103 20t65.5 52.5t38.5 72.5t22 80l89 417h94l-91 -429q-21 -98 -56 -155.5t-78.5 -88t-92 -39.5t-95.5 -9q-35 0 -77 5.5t-79 25.5t-61.5 58.5t-24.5 105.5q0 22 2.5 48.5t7.5 48.5 l91 429h94z"/>
<glyph glyph-name="V" horiz-adv-x="583" unicode="V" d="M588 700h99l-380 -700h-119l-96 700h101l78 -604z"/>
<glyph glyph-name="W" horiz-adv-x="880" unicode="W" d="M259 0h-127l-40 700h103l25 -588l254 588h113l34 -588l254 588h109l-324 -700h-119l-32 589z"/>
<glyph glyph-name="X" horiz-adv-x="593" unicode="X" d="M61 0h-115l314 370l-164 330h112l130 -275l226 275h114l-296 -350l178 -350h-113l-140 295z"/>
<glyph glyph-name="Y" horiz-adv-x="590" unicode="Y" d="M583 700h111l-336 -408l-61 -292h-94l61 292l-172 408h105l129 -320z"/>
<glyph glyph-name="Z" horiz-adv-x="591" unicode="Z" d="M125 621l17 79h500l-16 -75l-514 -546h419l-18 -79h-540l18 86l505 535h-371z"/>
<glyph glyph-name="bracketleft" horiz-adv-x="367" unicode="[" d="M412 700l-13 -62h-122l-162 -761h122l-13 -62h-212l188 885h212z"/>
<glyph glyph-name="backslash" horiz-adv-x="420" unicode="\" d="M150 700l169 -885h-53l-169 885h53z"/>
<glyph glyph-name="bracketright" horiz-adv-x="370" unicode="]" d="M359 700l-188 -885h-212l13 62h122l162 761h-122l13 62h212z"/>
<glyph glyph-name="asciicircum" horiz-adv-x="442" unicode="^" d="M176 482h-70l120 218h90l120 -218h-70l-95 175z"/>
<glyph glyph-name="underscore" horiz-adv-x="497" unicode="_" d="M0 -133h497v-52h-497v52z"/>
<glyph glyph-name="grave" horiz-adv-x="312" unicode="`" d="M287 568h-77l-69 132h104z"/>
<glyph glyph-name="a" horiz-adv-x="561" unicode="a" d="M79 358q7 37 24 68.5t45.5 54t70 35t98.5 12.5q59 0 96 -12.5t57.5 -30.5t27.5 -39t7 -38q0 -13 -3 -25t-6 -26l-54 -235q-4 -19 -4 -30q0 -14 6 -22q6 -6 13.5 -6.5t14.5 -0.5q3 0 5.5 -0.5t5.5 -0.5l-14 -62q-17 -2 -26 -2.5t-12 -0.5q-25 0 -39 6t-21.5 14.5 t-9.5 17.5t-2 15v11q-42 -47 -85 -64t-94 -17q-49 0 -82 9.5t-53 26.5t-28.5 40.5t-8.5 51.5q0 65 31.5 102t78.5 55.5t102 25t102 10.5q22 2 39 5t28.5 11t17.5 25t6 48q0 27 -11 42t-26.5 22.5t-32 9.5t-26.5 2q-69 0 -107.5 -30.5t-46.5 -77.5h-84zM387 255 q-9 -7 -19.5 -10t-26.5 -5t-40.5 -4.5t-62.5 -6.5q-20 -3 -44 -8.5t-45 -17.5t-35 -32.5t-14 -51.5q0 -29 10.5 -44.5t25 -22.5t28.5 -8.5t20 -1.5q58 0 94.5 23.5t57.5 54t29.5 59t11.5 38.5z"/>
<glyph glyph-name="b" horiz-adv-x="599" unicode="b" d="M255 700l-51 -241q16 19 37 32.5t44.5 21.5t47.5 11.5t46 3.5q46 0 77 -12.5t52 -32t32.5 -42.5t17 -44.5t6.5 -38.5t1 -23q0 -65 -17.5 -128.5t-53 -114t-89 -81.5t-125.5 -31q-68 0 -106 27t-56 63h-3l-13 -70h-84l148 700h89zM155 257q-5 -20 -7.5 -39.5t-2.5 -39.5 q0 -39 10 -65.5t26 -42t37 -22t43 -6.5q58 0 98.5 28.5t66 71.5t37 91.5t11.5 89.5q0 26 -4.5 51.5t-17.5 46t-36 33t-60 12.5q-41 0 -74 -16t-58 -44t-42 -66.5t-27 -82.5z"/>
<glyph glyph-name="c" horiz-adv-x="551" unicode="c" d="M498 181q-8 -35 -26.5 -70.5t-49 -64.5t-74 -47.5t-101.5 -18.5q-52 0 -87.5 13t-59 33.5t-36.5 45t-19 47.5t-7.5 41t-1.5 26q0 66 19 127.5t56.5 109t93 76.5t127.5 29q55 0 92.5 -12.5t60.5 -34t33 -49t10 -57.5v-26h-84q0 42 -12.5 66t-29.5 35t-36.5 13.5t-32.5 2.5 q-38 0 -68 -14.5t-52.5 -38t-38.5 -53.5t-25.5 -62t-14 -62.5t-4.5 -54.5q0 -51 16.5 -79.5t38.5 -41.5t42.5 -15.5t29.5 -2.5q42 0 70.5 17t46.5 40t27.5 46t12.5 36h84z"/>
<glyph glyph-name="d" horiz-adv-x="597" unicode="d" d="M621 700l-148 -700h-83l11 55h-2q-35 -40 -78 -57.5t-98 -17.5q-27 0 -60 7t-62 29.5t-48.5 64.5t-19.5 111q0 85 25 148t66 105t93 62.5t106 20.5q24 0 48.5 -4t45.5 -14t36.5 -26.5t23.5 -41.5l55 258h89zM133 245q-6 -33 -6 -67q0 -65 31.5 -100.5t89.5 -35.5 q45 0 83 22t65 60.5t42 89.5t15 110q0 67 -30.5 104.5t-89.5 37.5q-49 0 -84.5 -22.5t-59 -55.5t-37 -71.5t-19.5 -71.5z"/>
<glyph glyph-name="e" horiz-adv-x="582" unicode="e" d="M506 147q-20 -60 -54 -93.5t-69.5 -50t-65.5 -20t-41 -3.5q-77 0 -124 19.5t-73 49t-35 65t-9 67.5q0 62 17 124t55.5 111.5t99.5 80.5t149 31q65 0 103 -19.5t57.5 -47.5t25 -59.5t5.5 -55.5t-3.5 -52t-13.5 -60h-397q-2 -8 -3 -16.5t-1 -16.5q0 -16 2 -43t14 -52.5 t38.5 -44.5t74.5 -19q27 0 52.5 6.5t47 20t37 33t21.5 45.5h90zM447 296q5 15 6.5 27.5t1.5 22.5q0 43 -14.5 67.5t-33 36t-37 14t-27.5 2.5q-50 0 -84.5 -17.5t-57 -43.5t-35 -55.5t-18.5 -53.5h299z"/>
<glyph glyph-name="f" horiz-adv-x="313" unicode="f" d="M345 446h-109l-94 -446h-89l94 446h-93l13 62h93l15 69q27 123 162 123q34 0 62 -7l-12 -60q-11 2 -31 3.5t-31 1.5q-19 0 -31 -8.5t-18.5 -20t-9.5 -23t-4 -17.5l-13 -61h109z"/>
<glyph glyph-name="g" horiz-adv-x="600" unicode="g" d="M100 -57q2 -26 15 -41t30.5 -22.5t37 -9.5t35.5 -2q46 0 77.5 16.5t51.5 41t30.5 52.5t14.5 50l7 37q-18 -23 -34.5 -39.5t-36 -26.5t-43.5 -14.5t-55 -4.5q-45 0 -77 13t-53.5 34t-33.5 46t-18 49.5t-7.5 44.5t-1.5 30q0 82 23.5 144t62 103.5t87.5 62.5t100 21 q25 0 51.5 -4.5t49.5 -15t41 -27.5t27 -43h3l13 70h84l-98 -466q-12 -58 -32 -98t-44.5 -66.5t-51 -40.5t-51.5 -21t-47.5 -8.5t-37.5 -1.5q-21 0 -54.5 1.5t-66 14t-56.5 40.5t-26 81h84zM257 42q44 0 75.5 17.5t53.5 44.5t35.5 60.5t20.5 66t9.5 60t2.5 42.5 q0 66 -32.5 99.5t-89.5 33.5q-50 0 -87.5 -25t-62.5 -63.5t-37 -86t-12 -92.5q0 -56 13.5 -87t32.5 -47t40.5 -19.5t37.5 -3.5z"/>
<glyph glyph-name="h" horiz-adv-x="577" unicode="h" d="M255 700l-53 -248q42 39 85.5 57.5t100.5 18.5q63 0 101 -33.5t38 -94.5q0 -14 -2.5 -31.5t-5.5 -30.5l-71 -338h-89l66 311q1 7 3.5 18t4 22l3 22t1.5 18q0 28 -11 43.5t-25.5 22.5t-29 8t-22.5 1q-55 0 -89 -23t-54 -54t-28.5 -63t-12.5 -49l-58 -277h-89l147 700h90z "/>
<glyph glyph-name="i" horiz-adv-x="228" unicode="i" d="M215 508l-108 -508h-89l108 508h89zM167 700h89l-20 -92h-89z"/>
<glyph glyph-name="j" horiz-adv-x="231" unicode="j" d="M217 508l-118 -555q-4 -20 -11.5 -44.5t-23.5 -46.5t-43.5 -36.5t-72.5 -14.5q-15 0 -32.5 1.5t-22.5 2.5l14 65q5 -1 14 -1q29 0 46 8.5t26 21.5t12.5 28t6.5 27l116 544h89zM169 700h89l-20 -92h-89z"/>
<glyph glyph-name="k" horiz-adv-x="522" unicode="k" d="M446 508h115l-239 -201l154 -307h-105l-123 257l-105 -84l-36 -173h-89l147 700h89l-89 -424z"/>
<glyph glyph-name="l" horiz-adv-x="231" unicode="l" d="M255 700l-148 -700h-89l148 700h89z"/>
<glyph glyph-name="m" horiz-adv-x="877" unicode="m" d="M210 508l-14 -61h3q28 39 70.5 60t89.5 21q60 0 94.5 -26t41.5 -68q30 46 82 70t110 24q37 0 63.5 -10t43 -27.5t24 -39.5t7.5 -46q0 -17 -3 -40t-6 -37l-69 -328h-89l68 322q4 17 6.5 32.5t2.5 31.5q0 31 -9.5 47.5t-22.5 23.5t-26 8t-20 1q-10 0 -32.5 -3.5t-48 -19.5 t-49 -47.5t-35.5 -88.5l-65 -307h-89l68 321q5 25 6 40.5t1 19.5q0 21 -6.5 40t-23.5 32t-48 13q-30 0 -57 -12.5t-48.5 -34.5t-36.5 -52t-22 -64l-64 -303h-89l107 508h85z"/>
<glyph glyph-name="n" horiz-adv-x="576" unicode="n" d="M211 508l-11 -56h3q39 39 84 57.5t101 18.5q25 0 50 -7t44.5 -22t31.5 -38t12 -56q0 -14 -2.5 -33t-5.5 -34l-71 -338h-89l66 311q8 37 10 53.5t2 26.5q0 8 -2.5 20.5t-12 24.5t-27 21t-47.5 9q-54 0 -87.5 -23t-53.5 -54t-28.5 -63t-12.5 -49l-58 -277h-89l107 508h86z "/>
<glyph glyph-name="o" horiz-adv-x="587" unicode="o" d="M42 268q6 31 22.5 75.5t50 85.5t87.5 70t136 29q100 0 156 -53t56 -161q0 -50 -15.5 -108.5t-51 -108.5t-93.5 -83.5t-143 -33.5q-51 0 -86.5 12.5t-59 32t-37 43.5t-20 47t-8 43t-1.5 31q0 20 1.5 39.5t5.5 39.5zM135 246q-2 -14 -4 -28.5t-2 -28.5q0 -77 35 -112 t89 -35q57 0 96 29t62.5 71t34 89t10.5 84q0 57 -16.5 87.5t-38.5 44.5t-42.5 16.5t-27.5 2.5q-14 0 -41 -5t-57 -27t-57.5 -66t-40.5 -122z"/>
<glyph glyph-name="p" horiz-adv-x="601" unicode="p" d="M210 508l-16 -69h2q43 47 87.5 68t105.5 21q46 0 79 -14.5t55 -40t32.5 -62t10.5 -79.5q0 -60 -18 -122.5t-53.5 -113.5t-88.5 -83.5t-123 -32.5q-11 0 -32.5 2t-46 11t-47.5 28t-36 52l-54 -258h-89l146 693h86zM154 252q-3 -17 -5.5 -33.5t-2.5 -33.5q0 -38 10 -65 t26.5 -44t38.5 -25.5t46 -8.5q50 0 88.5 26.5t64.5 68.5t39 94t13 103q0 17 -3.5 39.5t-16 43t-37.5 35t-68 14.5q-32 0 -61.5 -12.5t-55 -39t-45.5 -67t-31 -95.5z"/>
<glyph glyph-name="q" horiz-adv-x="599" unicode="q" d="M580 508l-146 -693h-89l51 241q-38 -38 -78 -57t-98 -19q-46 0 -78 13.5t-52.5 34.5t-31.5 46t-16 47.5t-6 39.5t-1 22q0 71 21 134t59 110t92 74t119 27q37 0 63.5 -9t44.5 -22t28.5 -29t16.5 -29h3l13 69h85zM137 255q-4 -20 -6 -39.5t-2 -39.5q0 -64 29.5 -99 t85.5 -35q42 0 80 22t67 60.5t46 91t17 114.5q0 63 -28 99.5t-88 36.5q-38 0 -67 -13t-50.5 -33t-36.5 -44.5t-25 -48t-15 -43t-7 -29.5z"/>
<glyph glyph-name="r" horiz-adv-x="368" unicode="r" d="M397 463q-12 3 -25 3q-61 0 -100.5 -27.5t-63.5 -65t-35.5 -76.5t-16.5 -63l-49 -234h-89l107 508h86l-18 -83h2q38 56 83 79.5t110 23.5h25z"/>
<glyph glyph-name="s" horiz-adv-x="501" unicode="s" d="M99 151q-1 -5 -1 -11q0 -14 4 -28q6 -20 20 -35.5t38 -25t60 -9.5q31 0 57 9t44.5 24t28.5 34.5t10 41.5q0 24 -10.5 37t-29.5 21t-46.5 13t-60.5 12q-30 6 -55 14t-42.5 20.5t-27.5 31t-10 46.5q0 11 2 29t9 38t21.5 40.5t38.5 37t60 27t87 10.5q62 0 99.5 -15.5 t56.5 -38.5q20 -24 25 -50q3 -17 3 -31q0 -9 -1 -18h-84v12q0 8 -2 21.5t-11.5 26t-29 22t-53.5 9.5q-57 0 -93 -27t-36 -72q0 -21 9.5 -32.5t26.5 -19t41 -12.5t53 -12q36 -8 64 -16.5t47.5 -21t30 -32t10.5 -50.5q0 -23 -7.5 -55.5t-32.5 -62.5t-71 -51.5t-122 -21.5 q-62 0 -103 15t-65.5 39t-33.5 54q-6 21 -6 43q0 10 1 20h87z"/>
<glyph glyph-name="t" horiz-adv-x="319" unicode="t" d="M156 508l32 150h89l-32 -150h110l-13 -62h-110l-68 -323q-2 -9 -3.5 -17t-1.5 -17q0 -5 0.5 -11.5t4.5 -13.5t13 -11.5t27 -4.5q14 0 30 3.5t27 6.5l-14 -62q-20 -7 -43 -11.5t-46 -4.5q-11 0 -26.5 1.5t-30.5 8.5t-25.5 22.5t-10.5 44.5q0 10 2 23.5t4 24.5l72 341h-89 l13 62h89z"/>
<glyph glyph-name="u" horiz-adv-x="574" unicode="u" d="M361 0l14 57h-3q-32 -34 -77 -55.5t-108 -21.5q-44 0 -71.5 13t-42.5 32.5t-20.5 42t-5.5 40.5q0 16 2.5 31t6.5 32l71 337h89l-67 -311q-3 -15 -6 -36t-3 -36q0 -42 25 -62.5t60 -20.5q52 0 85.5 21t53.5 51t29.5 62.5t14.5 54.5l58 277h89l-107 -508h-87z"/>
<glyph glyph-name="v" horiz-adv-x="469" unicode="v" d="M428 508h102l-291 -508h-106l-82 508h94l58 -420z"/>
<glyph glyph-name="w" horiz-adv-x="718" unicode="w" d="M208 0h-100l-57 508h91l37 -407l181 407h98l24 -407l199 407h98l-258 -508h-106l-23 407z"/>
<glyph glyph-name="x" horiz-adv-x="482" unicode="x" d="M413 508h111l-228 -250l134 -258h-99l-99 209l-174 -209h-112l246 272l-124 236h97l91 -191z"/>
<glyph glyph-name="y" horiz-adv-x="495" unicode="y" d="M11 -119q20 -3 29 -4t15 -1q37 0 59 25.5t40 60.5l20 38l-114 508h106l76 -398l212 398h98l-323 -568q-14 -25 -28 -48.5t-31.5 -41.5t-41.5 -28.5t-58 -10.5q-18 0 -37 0.5t-36 4.5z"/>
<glyph glyph-name="z" horiz-adv-x="467" unicode="z" d="M482 508l-14 -65l-370 -381h303l-13 -62h-415l13 62l378 384h-276l14 62h380z"/>
<glyph glyph-name="braceleft" horiz-adv-x="497" unicode="{" d="M129 328q40 4 63.5 27.5t37 54t18.5 61t8 47.5q6 40 17 78.5t33 69t58.5 50.5t92.5 23l-11 -53q-32 -8 -50 -24t-28 -36t-13.5 -43t-6.5 -45q-6 -42 -15.5 -77.5t-27.5 -65t-46.5 -53.5t-73.5 -43l-2 -7q48 -24 65 -55.5t17 -62.5t-6.5 -61.5t-14.5 -59.5 q-11 -37 -14 -57t-3 -35q0 -23 16 -37.5t37 -18.5l-12 -53q-20 1 -42 6t-40.5 17t-31 32t-12.5 52q0 31 6 58.5t14 55.5q12 45 15.5 69.5t3.5 39.5q0 33 -15 54.5t-51 25.5z"/>
<glyph glyph-name="bar" horiz-adv-x="481" unicode="|" d="M208 829h52v-1053h-52v1053z"/>
<glyph glyph-name="braceright" horiz-adv-x="497" unicode="}" d="M356 262q-38 -4 -61 -25t-36.5 -49.5t-19.5 -59.5t-10 -55q-6 -37 -16 -74.5t-31.5 -68.5t-58 -52.5t-96.5 -25.5l12 53q31 7 49.5 22.5t28 36.5t13.5 44t7 45q3 29 9.5 61.5t23 64.5t47.5 61t84 52l2 7q-51 26 -67 54.5t-16 63.5q0 38 6.5 66.5t14.5 54.5q16 52 16 91 q0 17 -11.5 33t-40.5 24l11 53q41 -2 66 -14.5t38.5 -29t17.5 -34.5t4 -31q0 -34 -6.5 -61.5t-12.5 -50.5q-16 -57 -18 -81t-2 -29q0 -21 6 -36t16 -24.5t21.5 -14t23.5 -5.5z"/>
<glyph glyph-name="asciitilde" horiz-adv-x="600" unicode="~" d="M63 304q7 19 18.5 41.5t28 42t38 32t48.5 12.5q23 0 45 -6t42 -17l103 -55q1 -1 16.5 -7t35.5 -6q7 0 18 3t22.5 11.5t23.5 24.5t22 42l39 -16q-7 -20 -18.5 -42t-28 -41.5t-38 -32t-48.5 -12.5q-23 0 -45 6t-42 17l-103 55q-11 5 -25.5 9t-27.5 4q-29 0 -51.5 -24.5 t-33.5 -56.5z"/>
<glyph glyph-name="uni00A0" horiz-adv-x="233" unicode=" "/>
<glyph glyph-name="exclamdown" horiz-adv-x="313" unicode="¡" d="M12 -185l56 262l74 231h49l-24 -231l-56 -262h-99zM235 399h-99l23 109h99z"/>
<glyph glyph-name="cent" d="M513 181q-11 -37 -31.5 -72.5t-50.5 -64t-68 -45t-83 -16.5h-5l-16 -75h-52l16 75q-32 3 -63 15.5t-55 36.5t-39 61.5t-15 89.5q0 72 22.5 134t59.5 107.5t85.5 71.5t101.5 26h18l15 69h53l-16 -69q31 -3 58.5 -14.5t48.5 -29t33 -40.5t12 -48v-44h-83v25q0 35 -24.5 60 t-57.5 28l-88 -416q28 4 51 16.5t40.5 31.5t29.5 41.5t18 45.5h85zM324 462q-50 -6 -84.5 -37t-55.5 -72.5t-30.5 -87t-9.5 -80.5q0 -51 19.5 -89t72.5 -50z" unicode="¢"/>
<glyph glyph-name="sterling" d="M507 46q-33 -25 -67 -42.5t-77 -17.5q-19 0 -45 4.5t-72 21.5q-8 3 -16 6.5t-17 6t-20.5 4.5t-27.5 2q-27 0 -55 -8.5t-60 -29.5l-32 65q30 19 56 39.5t45 44.5t29.5 53t10.5 64q0 12 -2 24t-4 21h-102l13 61h75q-5 14 -10.5 42t-5.5 57q0 42 14.5 86.5t46.5 80.5 t83 59.5t124 23.5q57 0 96.5 -12t63.5 -33t34.5 -48.5t10.5 -58.5q0 -20 -2 -41.5t-5 -38.5h-85q3 15 5 32.5t2 29.5q0 40 -17 61t-39.5 31t-44.5 11.5t-33 1.5q-36 0 -64.5 -14.5t-48.5 -39.5t-30.5 -59.5t-10.5 -74.5q0 -27 5 -48t11 -48h141l-13 -61h-117q1 -5 1 -11v-11 q0 -11 -2 -32.5t-11 -47t-26.5 -52.5t-48.5 -49l2 -5q16 3 21.5 4.5t12.5 2.5q5 1 10 1h10q28 0 46.5 -5t39.5 -13q27 -9 45.5 -14t32.5 -5q28 0 53 13t40 26z" unicode="£"/>
<glyph glyph-name="currency" horiz-adv-x="825" unicode="¤" d="M190 164q-29 41 -40.5 84t-11.5 82q0 30 9.5 75.5t42.5 90.5l-111 112l66 66l110 -112q43 33 87.5 45t82.5 12q36 0 64 -7t49.5 -16t35.5 -18.5t21 -15.5l111 112l66 -66l-111 -112q29 -40 41 -83t12 -83q0 -39 -12 -82t-41 -84l111 -111l-66 -66l-111 111 q-8 -6 -22 -15.5t-35 -18.5t-49 -15.5t-64 -6.5q-35 0 -63.5 6.5t-49.5 15.5t-35.5 18.5t-21.5 15.5l-110 -111l-66 66zM212 330q0 -44 16.5 -83t45.5 -68t68 -46t83 -17q45 0 84 17t68 46.5t46 68t17 82.5q0 43 -17 82.5t-46.5 68.5t-68.5 46.5t-83 17.5q-38 0 -76 -15 t-68.5 -42.5t-49.5 -67.5t-19 -90z"/>
<glyph glyph-name="yen" horiz-adv-x="591" unicode="¥" d="M584 700h111l-336 -408l-11 -53h92l-7 -44h-95l-6 -30h92l-7 -43h-94l-26 -122h-93l25 122h-94l10 43h93l7 30h-94l10 44h93l11 53l-173 408h106l129 -320z"/>
<glyph glyph-name="brokenbar" horiz-adv-x="478" unicode="¦" d="M270 206v-430h-62v430h62zM208 399v430h62v-430h-62z"/>
<glyph glyph-name="section" horiz-adv-x="585" unicode="§" d="M440 557q2 16 4 24t2 16q0 7 -2 17.5t-9 20.5t-20.5 17t-37.5 7q-41 0 -66 -23.5t-25 -61.5q0 -15 4 -27.5t14.5 -23.5t29.5 -22t49 -24q45 -20 73 -38.5t43.5 -37.5t21 -39t5.5 -43q0 -44 -14.5 -78.5t-37.5 -60t-51.5 -42t-57.5 -23.5q23 -11 33.5 -33t10.5 -44 q0 -33 -11 -65.5t-34 -58.5t-58.5 -42t-85.5 -16q-14 0 -40 3t-51 16.5t-43.5 41t-18.5 77.5q0 10 2 19.5t4 19.5l72 -1q-3 -17 -3 -34q0 -33 20 -54.5t58 -21.5q30 0 49 10t30 25t15.5 32t4.5 31q0 22 -18 36.5t-45 28t-59 28t-59 35.5t-45 51.5t-18 75.5q0 36 11.5 68.5 t31.5 59t48.5 45t63.5 25.5q-18 20 -26 40t-8 48q0 36 13 66t37 51.5t57.5 34t74.5 12.5q9 0 32 -2t48 -12.5t44 -32.5t19 -63q0 -11 -3 -28.5t-5 -29.5h-73zM311 150q32 10 56 27t39.5 38t23.5 44t8 45q0 47 -41 75t-113 57q-24 -7 -46 -20t-38.5 -31.5t-26.5 -41.5 t-10 -50q0 -30 9.5 -49t28 -34t46.5 -28.5t64 -31.5z"/>
<glyph glyph-name="dieresis" horiz-adv-x="422" unicode="¨" d="M147 700h89l-20 -92h-89zM381 700h89l-20 -92h-89z"/>
<glyph glyph-name="copyright" horiz-adv-x="806" unicode="©" d="M66 350q0 72 27.5 135.5t75 111.5t111 75.5t136.5 27.5q71 0 134.5 -27.5t111.5 -75t76 -111t28 -136.5t-28 -136.5t-76 -111t-111.5 -75t-134.5 -27.5q-73 0 -136.5 27.5t-111 75.5t-75 111.5t-27.5 135.5zM132 350q0 -61 21.5 -115t60 -94.5t90.5 -64t112 -23.5 q59 0 110.5 23t90 63.5t61 94.5t22.5 116t-22.5 116.5t-61 94.5t-90.5 63t-110 23q-60 0 -112 -23t-90 -63.5t-60 -94.5t-22 -116zM545 297q-4 -20 -14 -38.5t-23.5 -34t-29.5 -27t-31 -17.5q-13 -5 -27 -6.5t-28 -1.5q-31 0 -53.5 6t-38 14.5t-25 19t-15.5 19.5 q-17 28 -17 59q0 30 6.5 67t23 72.5t45 63.5t73.5 40q21 6 44 6q60 0 87 -18.5t36 -40.5q5 -14 6 -24.5t1 -16.5q0 -8 -1 -15h-63q2 7 2 14q0 11 -6 25t-30 22q-8 3 -17 3.5t-17 0.5q-32 0 -53 -14.5t-34.5 -36t-20.5 -45.5t-10 -43q-3 -23 -3 -45q0 -8 1.5 -19.5t7 -23 t16.5 -21.5t29 -16q7 -2 14 -2.5t15 -0.5q19 0 33.5 7t24.5 18t16.5 24.5t10.5 25.5h65z"/>
<glyph glyph-name="ordfeminine" horiz-adv-x="426" unicode="ª" d="M161 619q11 54 47 78t96 24q20 0 40 -4t36 -12.5t26 -22.5t10 -33q0 -8 -1.5 -15.5t-3.5 -15.5l-32 -141q-2 -9 -2.5 -21t12.5 -14h8q2 0 3 -0.5t3 -0.5l-8 -37q-5 -1 -10 -1.5t-13 -0.5q-19 0 -31 8t-12 24v7q-15 -17 -30.5 -27t-29.5 -15t-26 -6t-22 -1q-59 0 -81 21.5 t-22 55.5q0 39 18.5 61t47 33t61.5 14.5t62 6.5q16 1 26.5 4t16.5 9t8.5 15.5t2.5 25.5q0 25 -15.5 35.5t-41.5 10.5q-38 0 -63 -17.5t-30 -47.5h-50zM346 557q-5 -4 -10 -5.5t-14 -3t-24.5 -3t-40.5 -4.5q-14 -2 -29 -5.5t-27 -11t-20 -19.5t-8 -30q0 -16 11 -31t40 -15 q34 0 56 14.5t35 32.5t18 35t7 23zM100 324h298v-31h-298v31z"/>
<glyph glyph-name="guillemotleft" horiz-adv-x="477" unicode="«" d="M438 443l-19 -90l-121 -88l84 -87l-17 -80l-122 130l17 83zM253 443l-19 -90l-121 -88l84 -87l-17 -80l-122 130l17 83z"/>
<glyph glyph-name="logicalnot" horiz-adv-x="600" unicode="¬" d="M563 386v-202h-62v140h-438v62h500z"/>
<glyph glyph-name="uni00AD" horiz-adv-x="426" unicode="­" d="M91 310h264l-18 -85h-264z"/>
<glyph glyph-name="registered" horiz-adv-x="808" unicode="®" d="M74 350q0 72 27 135.5t74.5 111.5t111 75.5t137.5 27.5q71 0 134.5 -27.5t111.5 -75t76 -111.5t28 -136t-28 -136t-76 -111.5t-111.5 -75t-134.5 -27.5q-74 0 -137.5 27.5t-111 75.5t-74.5 111.5t-27 135.5zM140 350q0 -61 21.5 -115t60 -94.5t90.5 -64t112 -23.5 q58 0 109.5 23.5t90.5 63.5t61.5 94t22.5 116t-22.5 116.5t-61.5 94.5t-90.5 63t-109.5 23q-60 0 -112 -23t-90 -63.5t-60 -94.5t-22 -116zM334 528h123q16 0 38 -1.5t42.5 -9t35 -23.5t14.5 -46q0 -24 -16 -52.5t-64 -48.5v-2q11 -3 23.5 -13.5t12.5 -34.5q0 -9 -1 -18 t-3 -18q-4 -20 -6.5 -33t-3.5 -21.5t0.5 -15t6.5 -13.5h-67q-7 14 -7 24t3 20.5t6.5 24.5t3.5 37q0 27 -17 33t-49 6h-53l-31 -145h-65zM365 371h76q24 0 39.5 7.5t23.5 18.5t11 23t3 20q0 26 -18.5 33t-42.5 7h-68z"/>
<glyph glyph-name="macron" horiz-adv-x="416" unicode="¯" d="M141 673h316l-13 -60h-316z"/>
<glyph glyph-name="degree" horiz-adv-x="263" unicode="°" d="M111 605q0 40 28 68t68 28t68 -28t28 -68t-28 -68t-68 -28t-68 28t-28 68zM157 605q0 -20 15 -35t35 -15t35 15t15 35t-15 35t-35 15t-35 -15t-15 -35z"/>
<glyph glyph-name="plusminus" horiz-adv-x="600" unicode="±" d="M282 451v199h62v-199h219v-62h-219v-179h-62v179h-219v62h219zM563 142v-62h-500v62h500z"/>
<glyph glyph-name="twosuperior" horiz-adv-x="356" unicode="²" d="M289 280h-284q6 33 18 57t28 42t34.5 31.5t37.5 25.5q30 19 61 34.5t56.5 34t42 42t16.5 57.5q0 24 -10.5 37t-23 18t-24.5 5.5t-15 0.5q-27 0 -46.5 -9.5t-31.5 -24t-18.5 -32t-8.5 -33.5h-58q6 32 18 59t32 46.5t48.5 30.5t66.5 11q46 0 72 -12t39 -28t16 -32.5 t3 -25.5q0 -41 -15.5 -70.5t-40.5 -52t-56 -40t-62 -35.5q-20 -11 -36 -21t-28.5 -20.5t-23 -22.5t-19.5 -28h222z"/>
<glyph glyph-name="threesuperior" horiz-adv-x="350" unicode="³" d="M81 408q-2 -11 -2 -22q0 -5 1 -16t9.5 -24.5t25.5 -22t44 -8.5q48 0 78.5 26.5t30.5 72.5q0 35 -19.5 49t-72.5 14h-16l9 45h17q5 0 22.5 1.5t36 9t33.5 24t15 47.5q0 11 -3 22t-10.5 19.5t-21.5 14t-36 5.5q-9 0 -23.5 -2t-29.5 -11t-28.5 -27.5t-20.5 -52.5h-53 q3 23 12 48t27 45.5t46.5 34t70.5 13.5q67 0 98 -28.5t31 -64.5q0 -17 -5.5 -36t-17 -35.5t-28.5 -29.5t-41 -17l-1 -3q23 -5 36.5 -14.5t20.5 -21t9 -23t2 -20.5q0 -32 -12.5 -60t-35 -48.5t-52.5 -32.5t-65 -12q-48 0 -77 12.5t-43 33t-16 38.5t-2 28q0 14 2 29h55z"/>
<glyph glyph-name="acute" horiz-adv-x="312" unicode="´" d="M370 700l-124 -132h-86l98 132h112z"/>
<glyph glyph-name="mu" horiz-adv-x="597" unicode="µ" d="M129 508h89l-60 -277q-8 -40 -8 -60v-29q0 -14 7 -28t19 -25t28.5 -17.5t36.5 -6.5q42 0 69 19t44 45.5t25.5 55t12.5 46.5l60 277h89l-83 -386q-2 -8 -3 -15t-1 -15q0 -6 1.5 -11.5t6 -10t13.5 -6.5t24 1l-14 -65q-17 -2 -26.5 -3t-17.5 -1q-26 0 -42 4t-25 12 t-12.5 19.5t-3.5 27.5v13q-17 -24 -36 -39t-37 -23.5t-34 -11.5t-26 -3q-11 0 -24.5 3t-27.5 11.5t-27 23.5t-21 39l-55 -257h-89z"/>
<glyph glyph-name="paragraph" horiz-adv-x="511" unicode="¶" d="M225 370q-35 1 -65 13.5t-52 34.5t-35 51.5t-13 65.5q0 34 13 64.5t35.5 52.5t52.5 35t64 13h62v-885h-62v555zM382 700h62v-885h-62v885z"/>
<glyph glyph-name="periodcentered" horiz-adv-x="250" unicode="·" d="M87 323h99l-23 -110h-99z"/>
<glyph glyph-name="cedilla" horiz-adv-x="296" unicode="¸" d="M66 -169q16 -4 32 -5.5t27 -1.5q13 0 26.5 1.5t24 6t17 12t6.5 19.5q0 14 -12.5 24.5t-50.5 11.5h-18h-16l26 51h33q18 0 37.5 -5t36 -15.5t27.5 -27t11 -40.5q0 -34 -16.5 -53t-40 -28t-49 -11t-42.5 -2h-21t-16.5 1t-20.5 2.5t-31 4.5z"/>
<glyph glyph-name="onesuperior" horiz-adv-x="350" unicode="¹" d="M184 625h11q18 0 37 5t35 15t27.5 23.5t16.5 31.5h41l-91 -420h-56l67 316h-94z"/>
<glyph glyph-name="ordmasculine" horiz-adv-x="438" unicode="º" d="M123 565q4 19 13.5 46t29.5 51.5t52.5 41.5t82.5 17q34 0 58.5 -10.5t39.5 -28t22 -41t7 -49.5q0 -24 -7.5 -58t-28 -65.5t-56 -54t-90.5 -22.5q-46 0 -71.5 16t-38 37t-15 42t-2.5 30q0 12 1 24t3 24zM179 552q-2 -9 -3 -17.5t-1 -17.5q0 -15 3.5 -30.5t12 -28.5t23 -21 t36.5 -8q24 0 46 11.5t38.5 33t26.5 51.5t10 68q0 34 -10 52.5t-22.5 27t-25 10t-17.5 1.5q-34 0 -56 -17t-35 -39.5t-19 -44.5t-7 -31zM100 324h298v-31h-298v31z"/>
<glyph glyph-name="guillemotright" horiz-adv-x="475" unicode="»" d="M42 98l19 90l121 88l-84 87l17 80l122 -130l-17 -83zM227 98l19 90l121 88l-84 87l17 80l122 -130l-17 -83z"/>
<glyph glyph-name="onequarter" horiz-adv-x="775" unicode="¼" d="M387 97l10 48l248 275h61l-58 -276h62l-10 -47h-62l-21 -97h-54l21 97h-197zM594 144l45 208l-184 -208h139zM162 625h11q18 0 37 5t35 15t27.5 23.5t16.5 31.5h41l-91 -420h-56l67 316h-94zM724 700h63l-631 -700h-63z"/>
<glyph glyph-name="onehalf" horiz-adv-x="830" unicode="½" d="M162 625h11q18 0 37 5t35 15t27.5 23.5t16.5 31.5h41l-91 -420h-56l67 316h-94zM773 0h-284q6 33 18 57t28 42t34.5 31.5t37.5 25.5q30 19 61 34.5t56.5 34t42 42t16.5 57.5q0 24 -10.5 37t-23 18t-24.5 5.5t-15 0.5q-27 0 -46.5 -9.5t-31.5 -24t-18.5 -32t-8.5 -33.5 h-58q6 32 18 59t32 46.5t48.5 30.5t66.5 11q46 0 72 -12t39 -28t16 -32.5t3 -25.5q0 -41 -15.5 -70.5t-40.5 -52t-56 -40t-62 -35.5q-20 -11 -36 -21t-28.5 -20.5t-23 -22.5t-19.5 -28h222zM724 700h63l-631 -700h-63z"/>
<glyph glyph-name="threequarters" horiz-adv-x="843" unicode="¾" d="M792 700h63l-631 -700h-63zM150 408q-2 -6 -2 -13v-12q0 -23 8.5 -36.5t21 -20.5t26 -9t24.5 -2q48 0 78.5 26.5t30.5 72.5q0 35 -19.5 49t-72.5 14h-16l9 45h17q5 0 22.5 1.5t36 9t33.5 24t15 47.5q0 11 -3 22t-10.5 19.5t-21.5 14t-36 5.5q-9 0 -23.5 -2t-29.5 -11 t-28.5 -27.5t-20.5 -52.5h-53q3 23 12 48t27 45.5t46.5 34t70.5 13.5q67 0 98 -28.5t31 -64.5q0 -17 -5.5 -36t-17 -35.5t-28.5 -29.5t-41 -17l-1 -3q23 -5 36.5 -14.5t20.5 -21t9 -23t2 -20.5q0 -32 -12.5 -60t-35 -48.5t-52.5 -32.5t-65 -12q-20 0 -44 3t-45 14t-35 34 t-14 62q0 7 0.5 14t1.5 14h55zM455 97l10 48l248 275h61l-58 -276h62l-10 -47h-62l-21 -97h-54l21 97h-197zM662 144l45 208l-184 -208h139z"/>
<glyph glyph-name="questiondown" horiz-adv-x="558" unicode="¿" d="M451 26q-25 -115 -87 -171.5t-174 -56.5q-65 0 -104 15t-60 37t-27.5 47.5t-6.5 46.5q0 26 6 51.5t22.5 51.5t44 53t71.5 57q22 15 40.5 28t34 29t27.5 38t20 54h72q-7 -39 -17 -65t-23 -45.5t-30 -34.5t-39 -30q-23 -16 -47 -33t-44 -37t-33 -45.5t-13 -57.5 q0 -44 29.5 -66t78.5 -22q27 0 54 6.5t50 24t40.5 48t26.5 77.5h88zM358 399h-100l23 109h100z"/>
<glyph glyph-name="Agrave" horiz-adv-x="630" unicode="À" d="M50 0h-98l406 700h102l116 -700h-97l-28 181h-296zM442 260l-50 345l-195 -345h245zM514 772h-77l-69 132h104z"/>
<glyph glyph-name="Aacute" horiz-adv-x="630" unicode="Á" d="M50 0h-98l406 700h102l116 -700h-97l-28 181h-296zM442 260l-50 345l-195 -345h245zM546 904l-124 -132h-86l98 132h112z"/>
<glyph glyph-name="Acircumflex" horiz-adv-x="630" unicode="Â" d="M50 0h-98l406 700h102l116 -700h-97l-28 181h-296zM442 260l-50 345l-195 -345h245zM521 904l91 -132h-89l-75 99l-112 -99h-94l141 132h138z"/>
<glyph glyph-name="Atilde" horiz-adv-x="630" unicode="Ã" d="M50 0h-98l406 700h102l116 -700h-97l-28 181h-296zM442 260l-50 345l-195 -345h245zM633 874q-3 -10 -11 -27.5t-22.5 -34t-35.5 -28.5t-50 -12q-26 0 -47 8.5t-37 16.5q-14 8 -31.5 16t-36.5 8q-14 0 -32.5 -7t-27.5 -32h-58q5 16 14.5 33.5t24.5 32t35 24t46 9.5 q27 0 44.5 -7.5t34.5 -16.5q12 -7 31.5 -16t39.5 -9q16 0 33 9.5t28 32.5h58z"/>
<glyph glyph-name="Adieresis" horiz-adv-x="630" unicode="Ä" d="M50 0h-98l406 700h102l116 -700h-97l-28 181h-296zM442 260l-50 345l-195 -345h245zM289 851h94l-17 -79h-94zM505 851h94l-17 -79h-94z"/>
<glyph glyph-name="Aring" horiz-adv-x="630" unicode="Å" d="M50 0h-98l406 700h102l116 -700h-97l-28 181h-296zM442 260l-50 345l-195 -345h245zM322 870q0 41 28.5 69.5t69.5 28.5t69.5 -28.5t28.5 -69.5t-28.5 -69.5t-69.5 -28.5t-69.5 28.5t-28.5 69.5zM364 870q0 -23 16.5 -39.5t39.5 -16.5t39.5 16.5t16.5 39.5t-16.5 39.5 t-39.5 16.5t-39.5 -16.5t-16.5 -39.5z"/>
<glyph glyph-name="AE" horiz-adv-x="992" unicode="Æ" d="M961 401l-17 -79h-366l-51 -243h415l-17 -79h-510l39 181h-264l-138 -181h-116l540 700h587l-17 -79h-404l-47 -220h366zM548 621h-28l-271 -361h222z"/>
<glyph glyph-name="Ccedilla" horiz-adv-x="715" unicode="Ç" d="M673 232q-5 -16 -14.5 -41.5t-26.5 -53.5t-42 -56t-60 -51t-81.5 -37t-106.5 -14q-17 0 -45 2t-60 10.5t-64.5 25.5t-58.5 47.5t-42.5 76t-16.5 110.5q0 102 30 188t83 149t126 98t160 35q16 0 42.5 -1.5t55.5 -8t59 -18.5t54 -33.5t39 -54t15 -78.5q0 -22 -3 -43h-95 q2 8 2 14v15q0 18 -6.5 40.5t-25 42t-52 33t-88.5 13.5q-58 0 -102.5 -19.5t-77.5 -51.5t-55 -72.5t-35.5 -82t-19 -80.5t-5.5 -68q0 -39 10.5 -76.5t34 -67.5t61 -48t91.5 -18q50 0 87.5 16t64.5 41t44 56t26 61h98zM236 -169q16 -4 32 -5.5t27 -1.5q13 0 26.5 1.5t24 6 t17 12t6.5 19.5q0 14 -12.5 24.5t-50.5 11.5h-18h-16l26 51h33q18 0 37.5 -5t36 -15.5t27.5 -27t11 -40.5q0 -34 -16.5 -53t-40 -28t-49 -11t-42.5 -2h-21t-16.5 1t-20.5 2.5t-31 4.5z"/>
<glyph glyph-name="Egrave" horiz-adv-x="608" unicode="È" d="M577 401l-17 -79h-366l-52 -243h416l-16 -79h-511l149 700h499l-17 -79h-405l-47 -220h367zM503 772h-77l-69 132h104z"/>
<glyph glyph-name="Eacute" horiz-adv-x="608" unicode="É" d="M577 401l-17 -79h-366l-52 -243h416l-16 -79h-511l149 700h499l-17 -79h-405l-47 -220h367zM535 904l-124 -132h-86l98 132h112z"/>
<glyph glyph-name="Ecircumflex" horiz-adv-x="608" unicode="Ê" d="M577 401l-17 -79h-366l-52 -243h416l-16 -79h-511l149 700h499l-17 -79h-405l-47 -220h367zM510 904l91 -132h-89l-75 99l-112 -99h-94l141 132h138z"/>
<glyph glyph-name="Edieresis" horiz-adv-x="608" unicode="Ë" d="M577 401l-17 -79h-366l-52 -243h416l-16 -79h-511l149 700h499l-17 -79h-405l-47 -220h367zM278 851h94l-17 -79h-94zM494 851h94l-17 -79h-94z"/>
<glyph glyph-name="Igrave" horiz-adv-x="264" unicode="Ì" d="M274 700l-149 -700h-94l149 700h94zM333 772h-77l-69 132h104z"/>
<glyph glyph-name="Iacute" horiz-adv-x="264" unicode="Í" d="M274 700l-149 -700h-94l149 700h94zM365 904l-124 -132h-86l98 132h112z"/>
<glyph glyph-name="Icircumflex" horiz-adv-x="264" unicode="Î" d="M274 700l-149 -700h-94l149 700h94zM340 904l91 -132h-89l-75 99l-112 -99h-94l141 132h138z"/>
<glyph glyph-name="Idieresis" horiz-adv-x="314" unicode="Ï" d="M331 700l-149 -700h-94l149 700h94zM196 851h94l-17 -79h-94zM342 851h94l-17 -79h-94z"/>
<glyph glyph-name="Eth" horiz-adv-x="742" unicode="Ð" d="M448 700q22 0 51.5 -2.5t61 -11.5t61.5 -26.5t54 -47.5t39 -75t15 -108q0 -101 -23.5 -172t-62 -118.5t-86.5 -75t-97 -41.5t-94.5 -18t-77.5 -4h-234l78 368h-102l14 60h101l58 272h244zM240 428h216l-14 -60h-215l-61 -289h137q26 0 60.5 4t70.5 17t71 36t62.5 61.5 t44.5 93.5t17 132q0 18 -3 51t-21.5 66t-58.5 57t-114 24h-151z"/>
<glyph glyph-name="Ntilde" horiz-adv-x="731" unicode="Ñ" d="M125 0h-94l148 700h93l259 -548l116 548h94l-149 -700h-92l-259 548zM684 874q-3 -10 -11 -27.5t-22.5 -34t-35.5 -28.5t-50 -12q-26 0 -47 8.5t-37 16.5q-14 8 -31.5 16t-36.5 8q-14 0 -32.5 -7t-27.5 -32h-58q5 16 14.5 33.5t24.5 32t35 24t46 9.5q27 0 44.5 -7.5 t34.5 -16.5q12 -7 31.5 -16t39.5 -9q16 0 33 9.5t28 32.5h58z"/>
<glyph glyph-name="Ograve" horiz-adv-x="761" unicode="Ò" d="M347 -21q-72 0 -122 16.5t-82.5 42.5t-50.5 57.5t-27 62t-10.5 56t-1.5 38.5q0 90 25 174.5t75.5 150t125 105t173.5 39.5q58 0 111.5 -14.5t94 -46.5t64.5 -83.5t24 -125.5q0 -91 -24.5 -176t-74.5 -151t-125 -105.5t-175 -39.5zM358 58q53 0 95 17.5t74 47t54 68 t36.5 80.5t21 85t6.5 81q0 51 -13 86.5t-33 58t-44.5 35t-47 18t-40.5 6.5t-25 1q-52 0 -94 -17.5t-74 -47.5t-54.5 -68.5t-37 -80.5t-21.5 -84.5t-7 -79.5q0 -63 18.5 -103.5t48 -63t65.5 -31t72 -8.5zM579 772h-77l-69 132h104z"/>
<glyph glyph-name="Oacute" horiz-adv-x="761" unicode="Ó" d="M347 -21q-72 0 -122 16.5t-82.5 42.5t-50.5 57.5t-27 62t-10.5 56t-1.5 38.5q0 90 25 174.5t75.5 150t125 105t173.5 39.5q58 0 111.5 -14.5t94 -46.5t64.5 -83.5t24 -125.5q0 -91 -24.5 -176t-74.5 -151t-125 -105.5t-175 -39.5zM358 58q53 0 95 17.5t74 47t54 68 t36.5 80.5t21 85t6.5 81q0 51 -13 86.5t-33 58t-44.5 35t-47 18t-40.5 6.5t-25 1q-52 0 -94 -17.5t-74 -47.5t-54.5 -68.5t-37 -80.5t-21.5 -84.5t-7 -79.5q0 -63 18.5 -103.5t48 -63t65.5 -31t72 -8.5zM611 904l-124 -132h-86l98 132h112z"/>
<glyph glyph-name="Ocircumflex" horiz-adv-x="761" unicode="Ô" d="M347 -21q-72 0 -122 16.5t-82.5 42.5t-50.5 57.5t-27 62t-10.5 56t-1.5 38.5q0 90 25 174.5t75.5 150t125 105t173.5 39.5q58 0 111.5 -14.5t94 -46.5t64.5 -83.5t24 -125.5q0 -91 -24.5 -176t-74.5 -151t-125 -105.5t-175 -39.5zM358 58q53 0 95 17.5t74 47t54 68 t36.5 80.5t21 85t6.5 81q0 51 -13 86.5t-33 58t-44.5 35t-47 18t-40.5 6.5t-25 1q-52 0 -94 -17.5t-74 -47.5t-54.5 -68.5t-37 -80.5t-21.5 -84.5t-7 -79.5q0 -63 18.5 -103.5t48 -63t65.5 -31t72 -8.5zM586 904l91 -132h-89l-75 99l-112 -99h-94l141 132h138z"/>
<glyph glyph-name="Otilde" horiz-adv-x="761" unicode="Õ" d="M347 -21q-72 0 -122 16.5t-82.5 42.5t-50.5 57.5t-27 62t-10.5 56t-1.5 38.5q0 90 25 174.5t75.5 150t125 105t173.5 39.5q58 0 111.5 -14.5t94 -46.5t64.5 -83.5t24 -125.5q0 -91 -24.5 -176t-74.5 -151t-125 -105.5t-175 -39.5zM358 58q53 0 95 17.5t74 47t54 68 t36.5 80.5t21 85t6.5 81q0 51 -13 86.5t-33 58t-44.5 35t-47 18t-40.5 6.5t-25 1q-52 0 -94 -17.5t-74 -47.5t-54.5 -68.5t-37 -80.5t-21.5 -84.5t-7 -79.5q0 -63 18.5 -103.5t48 -63t65.5 -31t72 -8.5zM699 874q-3 -10 -11 -27.5t-22.5 -34t-35.5 -28.5t-50 -12 q-26 0 -47 8.5t-37 16.5q-14 8 -31.5 16t-36.5 8q-14 0 -32.5 -7t-27.5 -32h-58q5 16 14.5 33.5t24.5 32t35 24t46 9.5q27 0 44.5 -7.5t34.5 -16.5q12 -7 31.5 -16t39.5 -9q16 0 33 9.5t28 32.5h58z"/>
<glyph glyph-name="Odieresis" horiz-adv-x="761" unicode="Ö" d="M347 -21q-72 0 -122 16.5t-82.5 42.5t-50.5 57.5t-27 62t-10.5 56t-1.5 38.5q0 90 25 174.5t75.5 150t125 105t173.5 39.5q58 0 111.5 -14.5t94 -46.5t64.5 -83.5t24 -125.5q0 -91 -24.5 -176t-74.5 -151t-125 -105.5t-175 -39.5zM358 58q53 0 95 17.5t74 47t54 68 t36.5 80.5t21 85t6.5 81q0 51 -13 86.5t-33 58t-44.5 35t-47 18t-40.5 6.5t-25 1q-52 0 -94 -17.5t-74 -47.5t-54.5 -68.5t-37 -80.5t-21.5 -84.5t-7 -79.5q0 -63 18.5 -103.5t48 -63t65.5 -31t72 -8.5zM354 851h94l-17 -79h-94zM570 851h94l-17 -79h-94z"/>
<glyph glyph-name="multiply" horiz-adv-x="600" unicode="×" d="M269 349l-191 191l44 44l191 -191l191 191l44 -44l-191 -191l191 -191l-44 -44l-191 191l-191 -191l-44 44z"/>
<glyph glyph-name="Oslash" horiz-adv-x="775" unicode="Ø" d="M715 606q25 -45 31.5 -82.5t6.5 -69.5q0 -47 -8 -100.5t-26 -106t-48 -101.5t-74 -86t-103.5 -59t-136.5 -22q-47 0 -82.5 6t-62.5 16t-46 23.5t-33 28.5l-100 -95l-41 42l105 100q-14 26 -24 61t-10 91q0 45 8 97t27 104t49 100.5t74.5 85.5t103.5 59.5t136 22.5 q17 0 43.5 -1.5t56.5 -8.5t60.5 -20.5t54.5 -38.5l114 106l41 -42zM207 123q25 -39 68.5 -52t91.5 -13q73 0 126.5 33.5t89 88t52.5 123t17 138.5q0 32 -4.5 54t-9.5 37zM607 585q-17 21 -39.5 32.5t-45 17t-42 6.5t-29.5 1q-52 0 -93.5 -18.5t-73.5 -49.5t-55 -70.5 t-37.5 -81.5t-21 -83.5t-6.5 -75.5q0 -13 3 -33t11 -54z"/>
<glyph glyph-name="Ugrave" horiz-adv-x="695" unicode="Ù" d="M259 700l-88 -417q-7 -32 -10 -52.5t-3 -36.5q0 -63 37.5 -99.5t111.5 -36.5q63 0 103 20t65.5 52.5t38.5 72.5t22 80l89 417h94l-91 -429q-21 -98 -56 -155.5t-78.5 -88t-92 -39.5t-95.5 -9q-35 0 -77 5.5t-79 25.5t-61.5 58.5t-24.5 105.5q0 22 2.5 48.5t7.5 48.5 l91 429h94zM546 772h-77l-69 132h104z"/>
<glyph glyph-name="Uacute" horiz-adv-x="695" unicode="Ú" d="M259 700l-88 -417q-7 -32 -10 -52.5t-3 -36.5q0 -63 37.5 -99.5t111.5 -36.5q63 0 103 20t65.5 52.5t38.5 72.5t22 80l89 417h94l-91 -429q-21 -98 -56 -155.5t-78.5 -88t-92 -39.5t-95.5 -9q-35 0 -77 5.5t-79 25.5t-61.5 58.5t-24.5 105.5q0 22 2.5 48.5t7.5 48.5 l91 429h94zM578 904l-124 -132h-86l98 132h112z"/>
<glyph glyph-name="Ucircumflex" horiz-adv-x="695" unicode="Û" d="M259 700l-88 -417q-7 -32 -10 -52.5t-3 -36.5q0 -63 37.5 -99.5t111.5 -36.5q63 0 103 20t65.5 52.5t38.5 72.5t22 80l89 417h94l-91 -429q-21 -98 -56 -155.5t-78.5 -88t-92 -39.5t-95.5 -9q-35 0 -77 5.5t-79 25.5t-61.5 58.5t-24.5 105.5q0 22 2.5 48.5t7.5 48.5 l91 429h94zM553 904l91 -132h-89l-75 99l-112 -99h-94l141 132h138z"/>
<glyph glyph-name="Udieresis" horiz-adv-x="695" unicode="Ü" d="M259 700l-88 -417q-7 -32 -10 -52.5t-3 -36.5q0 -63 37.5 -99.5t111.5 -36.5q63 0 103 20t65.5 52.5t38.5 72.5t22 80l89 417h94l-91 -429q-21 -98 -56 -155.5t-78.5 -88t-92 -39.5t-95.5 -9q-35 0 -77 5.5t-79 25.5t-61.5 58.5t-24.5 105.5q0 22 2.5 48.5t7.5 48.5 l91 429h94zM321 851h94l-17 -79h-94zM537 851h94l-17 -79h-94z"/>
<glyph glyph-name="Yacute" horiz-adv-x="590" unicode="Ý" d="M583 700h111l-336 -408l-61 -292h-94l61 292l-172 408h105l129 -320zM526 904l-124 -132h-86l98 132h112z"/>
<glyph glyph-name="Thorn" horiz-adv-x="608" unicode="Þ" d="M274 700l-30 -140h176q48 0 87.5 -7t67 -25t43 -47.5t15.5 -74.5q0 -58 -15 -101t-38.5 -72.5t-54 -48t-61 -28.5t-59 -13.5t-49.5 -3.5h-202l-29 -139h-94l149 700h94zM172 218h178q65 0 102.5 21t56 49t23 57t4.5 45q0 27 -10.5 44.5t-29 28t-45 14.5t-58.5 4h-165z "/>
<glyph glyph-name="germandbls" horiz-adv-x="561" unicode="ß" d="M114 455q9 43 22.5 87.5t40 81.5t70.5 60.5t114 23.5q54 0 88 -13.5t54 -34t27.5 -45.5t7.5 -49q0 -27 -8.5 -53t-24 -48.5t-37.5 -39.5t-48 -25v-3q44 -10 72 -46.5t28 -100.5q0 -45 -15 -90.5t-46 -82.5t-79 -60.5t-113 -23.5q-26 0 -48 2t-39 5l14 65q15 -6 28.5 -7.5 t29.5 -1.5q42 0 74.5 17t55 44.5t34 63t11.5 72.5q0 40 -18 61.5t-42 31t-48.5 11t-37.5 1.5h-24l12 61l31 -1q12 0 36.5 3t49 16.5t43.5 40t19 72.5q0 35 -11.5 54.5t-27 28.5t-30 11t-20.5 2q-28 0 -51 -6.5t-41.5 -26t-33.5 -54.5t-27 -91l-99 -468h-89z"/>
<glyph glyph-name="agrave" horiz-adv-x="561" unicode="à" d="M79 358q7 37 24 68.5t45.5 54t70 35t98.5 12.5q59 0 96 -12.5t57.5 -30.5t27.5 -39t7 -38q0 -13 -3 -25t-6 -26l-54 -235q-4 -19 -4 -30q0 -14 6 -22q6 -6 13.5 -6.5t14.5 -0.5q3 0 5.5 -0.5t5.5 -0.5l-14 -62q-17 -2 -26 -2.5t-12 -0.5q-25 0 -39 6t-21.5 14.5 t-9.5 17.5t-2 15v11q-42 -47 -85 -64t-94 -17q-49 0 -82 9.5t-53 26.5t-28.5 40.5t-8.5 51.5q0 65 31.5 102t78.5 55.5t102 25t102 10.5q22 2 39 5t28.5 11t17.5 25t6 48q0 27 -11 42t-26.5 22.5t-32 9.5t-26.5 2q-69 0 -107.5 -30.5t-46.5 -77.5h-84zM387 255 q-9 -7 -19.5 -10t-26.5 -5t-40.5 -4.5t-62.5 -6.5q-20 -3 -44 -8.5t-45 -17.5t-35 -32.5t-14 -51.5q0 -29 10.5 -44.5t25 -22.5t28.5 -8.5t20 -1.5q58 0 94.5 23.5t57.5 54t29.5 59t11.5 38.5zM411 568h-77l-69 132h104z"/>
<glyph glyph-name="aacute" horiz-adv-x="561" unicode="á" d="M79 358q7 37 24 68.5t45.5 54t70 35t98.5 12.5q59 0 96 -12.5t57.5 -30.5t27.5 -39t7 -38q0 -13 -3 -25t-6 -26l-54 -235q-4 -19 -4 -30q0 -14 6 -22q6 -6 13.5 -6.5t14.5 -0.5q3 0 5.5 -0.5t5.5 -0.5l-14 -62q-17 -2 -26 -2.5t-12 -0.5q-25 0 -39 6t-21.5 14.5 t-9.5 17.5t-2 15v11q-42 -47 -85 -64t-94 -17q-49 0 -82 9.5t-53 26.5t-28.5 40.5t-8.5 51.5q0 65 31.5 102t78.5 55.5t102 25t102 10.5q22 2 39 5t28.5 11t17.5 25t6 48q0 27 -11 42t-26.5 22.5t-32 9.5t-26.5 2q-69 0 -107.5 -30.5t-46.5 -77.5h-84zM387 255 q-9 -7 -19.5 -10t-26.5 -5t-40.5 -4.5t-62.5 -6.5q-20 -3 -44 -8.5t-45 -17.5t-35 -32.5t-14 -51.5q0 -29 10.5 -44.5t25 -22.5t28.5 -8.5t20 -1.5q58 0 94.5 23.5t57.5 54t29.5 59t11.5 38.5zM494 700l-124 -132h-86l98 132h112z"/>
<glyph glyph-name="acircumflex" horiz-adv-x="561" unicode="â" d="M79 358q7 37 24 68.5t45.5 54t70 35t98.5 12.5q59 0 96 -12.5t57.5 -30.5t27.5 -39t7 -38q0 -13 -3 -25t-6 -26l-54 -235q-4 -19 -4 -30q0 -14 6 -22q6 -6 13.5 -6.5t14.5 -0.5q3 0 5.5 -0.5t5.5 -0.5l-14 -62q-17 -2 -26 -2.5t-12 -0.5q-25 0 -39 6t-21.5 14.5 t-9.5 17.5t-2 15v11q-42 -47 -85 -64t-94 -17q-49 0 -82 9.5t-53 26.5t-28.5 40.5t-8.5 51.5q0 65 31.5 102t78.5 55.5t102 25t102 10.5q22 2 39 5t28.5 11t17.5 25t6 48q0 27 -11 42t-26.5 22.5t-32 9.5t-26.5 2q-69 0 -107.5 -30.5t-46.5 -77.5h-84zM387 255 q-9 -7 -19.5 -10t-26.5 -5t-40.5 -4.5t-62.5 -6.5q-20 -3 -44 -8.5t-45 -17.5t-35 -32.5t-14 -51.5q0 -29 10.5 -44.5t25 -22.5t28.5 -8.5t20 -1.5q58 0 94.5 23.5t57.5 54t29.5 59t11.5 38.5zM443 700l91 -132h-89l-75 99l-112 -99h-94l141 132h138z"/>
<glyph glyph-name="atilde" horiz-adv-x="561" unicode="ã" d="M79 358q7 37 24 68.5t45.5 54t70 35t98.5 12.5q59 0 96 -12.5t57.5 -30.5t27.5 -39t7 -38q0 -13 -3 -25t-6 -26l-54 -235q-4 -19 -4 -30q0 -14 6 -22q6 -6 13.5 -6.5t14.5 -0.5q3 0 5.5 -0.5t5.5 -0.5l-14 -62q-17 -2 -26 -2.5t-12 -0.5q-25 0 -39 6t-21.5 14.5 t-9.5 17.5t-2 15v11q-42 -47 -85 -64t-94 -17q-49 0 -82 9.5t-53 26.5t-28.5 40.5t-8.5 51.5q0 65 31.5 102t78.5 55.5t102 25t102 10.5q22 2 39 5t28.5 11t17.5 25t6 48q0 27 -11 42t-26.5 22.5t-32 9.5t-26.5 2q-69 0 -107.5 -30.5t-46.5 -77.5h-84zM387 255 q-9 -7 -19.5 -10t-26.5 -5t-40.5 -4.5t-62.5 -6.5q-20 -3 -44 -8.5t-45 -17.5t-35 -32.5t-14 -51.5q0 -29 10.5 -44.5t25 -22.5t28.5 -8.5t20 -1.5q58 0 94.5 23.5t57.5 54t29.5 59t11.5 38.5zM562 700q-3 -10 -11 -27.5t-22.5 -34t-35.5 -28.5t-50 -12q-25 0 -43.5 7.5 t-39.5 18.5q-20 10 -36 16.5t-33 6.5q-29 0 -42.5 -14t-18.5 -25h-58q6 19 17.5 37.5t27 32t35 22t41.5 8.5q27 0 44.5 -7t34.5 -17q13 -8 31.5 -17t39.5 -9q20 0 36 11.5t25 30.5h58z"/>
<glyph glyph-name="adieresis" horiz-adv-x="561" unicode="ä" d="M79 358q7 37 24 68.5t45.5 54t70 35t98.5 12.5q59 0 96 -12.5t57.5 -30.5t27.5 -39t7 -38q0 -13 -3 -25t-6 -26l-54 -235q-4 -19 -4 -30q0 -14 6 -22q6 -6 13.5 -6.5t14.5 -0.5q3 0 5.5 -0.5t5.5 -0.5l-14 -62q-17 -2 -26 -2.5t-12 -0.5q-25 0 -39 6t-21.5 14.5 t-9.5 17.5t-2 15v11q-42 -47 -85 -64t-94 -17q-49 0 -82 9.5t-53 26.5t-28.5 40.5t-8.5 51.5q0 65 31.5 102t78.5 55.5t102 25t102 10.5q22 2 39 5t28.5 11t17.5 25t6 48q0 27 -11 42t-26.5 22.5t-32 9.5t-26.5 2q-69 0 -107.5 -30.5t-46.5 -77.5h-84zM387 255 q-9 -7 -19.5 -10t-26.5 -5t-40.5 -4.5t-62.5 -6.5q-20 -3 -44 -8.5t-45 -17.5t-35 -32.5t-14 -51.5q0 -29 10.5 -44.5t25 -22.5t28.5 -8.5t20 -1.5q58 0 94.5 23.5t57.5 54t29.5 59t11.5 38.5zM216 700h89l-20 -92h-89zM450 700h89l-20 -92h-89z"/>
<glyph glyph-name="aring" horiz-adv-x="561" unicode="å" d="M79 358q7 37 24 68.5t45.5 54t70 35t98.5 12.5q59 0 96 -12.5t57.5 -30.5t27.5 -39t7 -38q0 -13 -3 -25t-6 -26l-54 -235q-4 -19 -4 -30q0 -14 6 -22q6 -6 13.5 -6.5t14.5 -0.5q3 0 5.5 -0.5t5.5 -0.5l-14 -62q-17 -2 -26 -2.5t-12 -0.5q-25 0 -39 6t-21.5 14.5 t-9.5 17.5t-2 15v11q-42 -47 -85 -64t-94 -17q-49 0 -82 9.5t-53 26.5t-28.5 40.5t-8.5 51.5q0 65 31.5 102t78.5 55.5t102 25t102 10.5q22 2 39 5t28.5 11t17.5 25t6 48q0 27 -11 42t-26.5 22.5t-32 9.5t-26.5 2q-69 0 -107.5 -30.5t-46.5 -77.5h-84zM387 255 q-9 -7 -19.5 -10t-26.5 -5t-40.5 -4.5t-62.5 -6.5q-20 -3 -44 -8.5t-45 -17.5t-35 -32.5t-14 -51.5q0 -29 10.5 -44.5t25 -22.5t28.5 -8.5t20 -1.5q58 0 94.5 23.5t57.5 54t29.5 59t11.5 38.5zM252 660q0 19 7 36t19.5 29.5t29.5 19.5t36 7t36 -7t29.5 -19.5t19.5 -29.5 t7 -36t-7 -36t-19.5 -29.5t-29.5 -19.5t-36 -7t-36 7t-29.5 19.5t-19.5 29.5t-7 36zM292 660q0 -22 15 -37t37 -15t37 15t15 37t-15 37t-37 15t-37 -15t-15 -37z"/>
<glyph glyph-name="ae" horiz-adv-x="909" unicode="æ" d="M839 147q-24 -60 -59 -93.5t-70.5 -50t-66 -20t-46.5 -3.5q-26 0 -54.5 3t-55.5 14t-50 32.5t-39 59.5q-27 -39 -57 -61t-59 -32.5t-53.5 -13t-39.5 -2.5q-59 0 -94.5 11t-55 28.5t-25.5 39.5t-6 43q0 26 5.5 56.5t31 58t77.5 48.5t145 29q40 3 67.5 5t45 10.5t25 26.5 t7.5 54q0 27 -11 42t-26.5 22.5t-32 9.5t-26.5 2q-67 0 -105.5 -29.5t-48.5 -78.5h-84q13 57 40.5 90.5t60.5 51t68.5 23t65.5 5.5q28 0 56 -4.5t51 -14.5t39.5 -26.5t22.5 -39.5q20 25 43 41.5t48 26t50 13.5t49 4q49 0 83 -10.5t56 -26.5t35 -36.5t19 -39.5t7.5 -35.5 t1.5 -25.5q0 -65 -12 -120h-393q-2 -8 -3 -15.5t-1 -15.5q0 -11 0.5 -37t11.5 -54t37 -49t76 -21q27 0 53 7.5t48.5 21t39 33t24.5 43.5h84zM388 260q-17 -10 -30.5 -13.5t-32 -5.5t-45.5 -4.5t-72 -11.5q-6 -1 -24 -6.5t-36.5 -18t-33 -35t-14.5 -56.5q0 -32 23.5 -49.5 t59.5 -17.5q38 0 67.5 11t50.5 28.5t35 38.5t23 40.5t13 35t6 21.5zM783 296q3 26 4 38t1 17q0 20 -5 40.5t-17.5 37t-34 27t-55.5 10.5q-48 0 -82.5 -17.5t-57 -43t-35 -55t-18.5 -54.5h300z"/>
<glyph glyph-name="ccedilla" horiz-adv-x="551" unicode="ç" d="M498 181q-8 -35 -26.5 -70.5t-49 -64.5t-74 -47.5t-101.5 -18.5q-52 0 -87.5 13t-59 33.5t-36.5 45t-19 47.5t-7.5 41t-1.5 26q0 66 19 127.5t56.5 109t93 76.5t127.5 29q55 0 92.5 -12.5t60.5 -34t33 -49t10 -57.5v-26h-84q0 42 -12.5 66t-29.5 35t-36.5 13.5t-32.5 2.5 q-38 0 -68 -14.5t-52.5 -38t-38.5 -53.5t-25.5 -62t-14 -62.5t-4.5 -54.5q0 -51 16.5 -79.5t38.5 -41.5t42.5 -15.5t29.5 -2.5q42 0 70.5 17t46.5 40t27.5 46t12.5 36h84zM136 -169q16 -4 32 -5.5t27 -1.5q13 0 26.5 1.5t24 6t17 12t6.5 19.5q0 14 -12.5 24.5t-50.5 11.5 h-18h-16l26 51h33q18 0 37.5 -5t36 -15.5t27.5 -27t11 -40.5q0 -34 -16.5 -53t-40 -28t-49 -11t-42.5 -2h-21t-16.5 1t-20.5 2.5t-31 4.5z"/>
<glyph glyph-name="egrave" horiz-adv-x="582" unicode="è" d="M506 147q-20 -60 -54 -93.5t-69.5 -50t-65.5 -20t-41 -3.5q-77 0 -124 19.5t-73 49t-35 65t-9 67.5q0 62 17 124t55.5 111.5t99.5 80.5t149 31q65 0 103 -19.5t57.5 -47.5t25 -59.5t5.5 -55.5t-3.5 -52t-13.5 -60h-397q-2 -8 -3 -16.5t-1 -16.5q0 -16 2 -43t14 -52.5 t38.5 -44.5t74.5 -19q27 0 52.5 6.5t47 20t37 33t21.5 45.5h90zM447 296q5 15 6.5 27.5t1.5 22.5q0 43 -14.5 67.5t-33 36t-37 14t-27.5 2.5q-50 0 -84.5 -17.5t-57 -43.5t-35 -55.5t-18.5 -53.5h299zM422 568h-77l-69 132h104z"/>
<glyph glyph-name="eacute" horiz-adv-x="582" unicode="é" d="M506 147q-20 -60 -54 -93.5t-69.5 -50t-65.5 -20t-41 -3.5q-77 0 -124 19.5t-73 49t-35 65t-9 67.5q0 62 17 124t55.5 111.5t99.5 80.5t149 31q65 0 103 -19.5t57.5 -47.5t25 -59.5t5.5 -55.5t-3.5 -52t-13.5 -60h-397q-2 -8 -3 -16.5t-1 -16.5q0 -16 2 -43t14 -52.5 t38.5 -44.5t74.5 -19q27 0 52.5 6.5t47 20t37 33t21.5 45.5h90zM447 296q5 15 6.5 27.5t1.5 22.5q0 43 -14.5 67.5t-33 36t-37 14t-27.5 2.5q-50 0 -84.5 -17.5t-57 -43.5t-35 -55.5t-18.5 -53.5h299zM505 700l-124 -132h-86l98 132h112z"/>
<glyph glyph-name="ecircumflex" horiz-adv-x="582" unicode="ê" d="M506 147q-20 -60 -54 -93.5t-69.5 -50t-65.5 -20t-41 -3.5q-77 0 -124 19.5t-73 49t-35 65t-9 67.5q0 62 17 124t55.5 111.5t99.5 80.5t149 31q65 0 103 -19.5t57.5 -47.5t25 -59.5t5.5 -55.5t-3.5 -52t-13.5 -60h-397q-2 -8 -3 -16.5t-1 -16.5q0 -16 2 -43t14 -52.5 t38.5 -44.5t74.5 -19q27 0 52.5 6.5t47 20t37 33t21.5 45.5h90zM447 296q5 15 6.5 27.5t1.5 22.5q0 43 -14.5 67.5t-33 36t-37 14t-27.5 2.5q-50 0 -84.5 -17.5t-57 -43.5t-35 -55.5t-18.5 -53.5h299zM454 700l91 -132h-89l-75 99l-112 -99h-94l141 132h138z"/>
<glyph glyph-name="edieresis" horiz-adv-x="582" unicode="ë" d="M506 147q-20 -60 -54 -93.5t-69.5 -50t-65.5 -20t-41 -3.5q-77 0 -124 19.5t-73 49t-35 65t-9 67.5q0 62 17 124t55.5 111.5t99.5 80.5t149 31q65 0 103 -19.5t57.5 -47.5t25 -59.5t5.5 -55.5t-3.5 -52t-13.5 -60h-397q-2 -8 -3 -16.5t-1 -16.5q0 -16 2 -43t14 -52.5 t38.5 -44.5t74.5 -19q27 0 52.5 6.5t47 20t37 33t21.5 45.5h90zM447 296q5 15 6.5 27.5t1.5 22.5q0 43 -14.5 67.5t-33 36t-37 14t-27.5 2.5q-50 0 -84.5 -17.5t-57 -43.5t-35 -55.5t-18.5 -53.5h299zM227 700h89l-20 -92h-89zM461 700h89l-20 -92h-89z"/>
<glyph glyph-name="igrave" horiz-adv-x="234" unicode="ì" d="M215 508l-108 -508h-89l108 508h89zM250 568h-77l-69 132h104z"/>
<glyph glyph-name="iacute" horiz-adv-x="234" unicode="í" d="M215 508l-108 -508h-89l108 508h89zM333 700l-124 -132h-86l98 132h112z"/>
<glyph glyph-name="icircumflex" horiz-adv-x="234" unicode="î" d="M215 508l-108 -508h-89l108 508h89zM282 700l91 -132h-89l-75 99l-112 -99h-94l141 132h138z"/>
<glyph glyph-name="idieresis" horiz-adv-x="234" unicode="ï" d="M215 508l-108 -508h-89l108 508h89zM55 700h89l-20 -92h-89zM289 700h89l-20 -92h-89z"/>
<glyph glyph-name="eth" horiz-adv-x="587" unicode="ð" d="M252 733q40 -7 82.5 -19t87.5 -32l96 51l19 -32l-76 -40q18 -9 38 -25t36.5 -41t27 -60.5t10.5 -83.5q0 -29 -3 -75.5t-14 -98.5t-32 -105t-57 -95.5t-90 -69.5t-130 -27q-51 0 -86.5 12t-59 30.5t-37 41.5t-20 45t-8 40.5t-1.5 29.5q0 63 20 122.5t58.5 105t95 73.5 t129.5 28q12 0 35.5 -2t49 -11t48 -28.5t31.5 -53.5h3v16q0 77 -27.5 126.5t-76.5 72.5l-156 -84l-20 32l135 72q-62 28 -124 38zM253 42q57 0 96 27.5t62.5 67.5t34 86t10.5 82q0 71 -33 106t-92 35q-57 0 -95.5 -27.5t-62.5 -68t-34 -87t-10 -84.5q0 -47 14 -74.5 t33.5 -41.5t41 -17.5t35.5 -3.5z"/>
<glyph glyph-name="ntilde" horiz-adv-x="576" unicode="ñ" d="M211 508l-11 -56h3q39 39 84 57.5t101 18.5q25 0 50 -7t44.5 -22t31.5 -38t12 -56q0 -14 -2.5 -33t-5.5 -34l-71 -338h-89l66 311q8 37 10 53.5t2 26.5q0 8 -2.5 20.5t-12 24.5t-27 21t-47.5 9q-54 0 -87.5 -23t-53.5 -54t-28.5 -63t-12.5 -49l-58 -277h-89l107 508h86z M570 700q-3 -10 -11 -27.5t-22.5 -34t-35.5 -28.5t-50 -12q-25 0 -43.5 7.5t-39.5 18.5q-20 10 -36 16.5t-33 6.5q-29 0 -42.5 -14t-18.5 -25h-58q6 19 17.5 37.5t27 32t35 22t41.5 8.5q27 0 44.5 -7t34.5 -17q13 -8 31.5 -17t39.5 -9q20 0 36 11.5t25 30.5h58z"/>
<glyph glyph-name="ograve" horiz-adv-x="587" unicode="ò" d="M42 268q6 31 22.5 75.5t50 85.5t87.5 70t136 29q100 0 156 -53t56 -161q0 -50 -15.5 -108.5t-51 -108.5t-93.5 -83.5t-143 -33.5q-51 0 -86.5 12.5t-59 32t-37 43.5t-20 47t-8 43t-1.5 31q0 20 1.5 39.5t5.5 39.5zM135 246q-2 -14 -4 -28.5t-2 -28.5q0 -77 35 -112 t89 -35q57 0 96 29t62.5 71t34 89t10.5 84q0 57 -16.5 87.5t-38.5 44.5t-42.5 16.5t-27.5 2.5q-14 0 -41 -5t-57 -27t-57.5 -66t-40.5 -122zM424 568h-77l-69 132h104z"/>
<glyph glyph-name="oacute" horiz-adv-x="587" unicode="ó" d="M42 268q6 31 22.5 75.5t50 85.5t87.5 70t136 29q100 0 156 -53t56 -161q0 -50 -15.5 -108.5t-51 -108.5t-93.5 -83.5t-143 -33.5q-51 0 -86.5 12.5t-59 32t-37 43.5t-20 47t-8 43t-1.5 31q0 20 1.5 39.5t5.5 39.5zM135 246q-2 -14 -4 -28.5t-2 -28.5q0 -77 35 -112 t89 -35q57 0 96 29t62.5 71t34 89t10.5 84q0 57 -16.5 87.5t-38.5 44.5t-42.5 16.5t-27.5 2.5q-14 0 -41 -5t-57 -27t-57.5 -66t-40.5 -122zM507 700l-124 -132h-86l98 132h112z"/>
<glyph glyph-name="ocircumflex" horiz-adv-x="587" unicode="ô" d="M42 268q6 31 22.5 75.5t50 85.5t87.5 70t136 29q100 0 156 -53t56 -161q0 -50 -15.5 -108.5t-51 -108.5t-93.5 -83.5t-143 -33.5q-51 0 -86.5 12.5t-59 32t-37 43.5t-20 47t-8 43t-1.5 31q0 20 1.5 39.5t5.5 39.5zM135 246q-2 -14 -4 -28.5t-2 -28.5q0 -77 35 -112 t89 -35q57 0 96 29t62.5 71t34 89t10.5 84q0 57 -16.5 87.5t-38.5 44.5t-42.5 16.5t-27.5 2.5q-14 0 -41 -5t-57 -27t-57.5 -66t-40.5 -122zM456 700l91 -132h-89l-75 99l-112 -99h-94l141 132h138z"/>
<glyph glyph-name="otilde" horiz-adv-x="587" unicode="õ" d="M42 268q6 31 22.5 75.5t50 85.5t87.5 70t136 29q100 0 156 -53t56 -161q0 -50 -15.5 -108.5t-51 -108.5t-93.5 -83.5t-143 -33.5q-51 0 -86.5 12.5t-59 32t-37 43.5t-20 47t-8 43t-1.5 31q0 20 1.5 39.5t5.5 39.5zM135 246q-2 -14 -4 -28.5t-2 -28.5q0 -77 35 -112 t89 -35q57 0 96 29t62.5 71t34 89t10.5 84q0 57 -16.5 87.5t-38.5 44.5t-42.5 16.5t-27.5 2.5q-14 0 -41 -5t-57 -27t-57.5 -66t-40.5 -122zM575 700q-3 -10 -11 -27.5t-22.5 -34t-35.5 -28.5t-50 -12q-25 0 -43.5 7.5t-39.5 18.5q-20 10 -36 16.5t-33 6.5q-29 0 -42.5 -14 t-18.5 -25h-58q6 19 17.5 37.5t27 32t35 22t41.5 8.5q27 0 44.5 -7t34.5 -17q13 -8 31.5 -17t39.5 -9q20 0 36 11.5t25 30.5h58z"/>
<glyph glyph-name="odieresis" horiz-adv-x="587" unicode="ö" d="M42 268q6 31 22.5 75.5t50 85.5t87.5 70t136 29q100 0 156 -53t56 -161q0 -50 -15.5 -108.5t-51 -108.5t-93.5 -83.5t-143 -33.5q-51 0 -86.5 12.5t-59 32t-37 43.5t-20 47t-8 43t-1.5 31q0 20 1.5 39.5t5.5 39.5zM135 246q-2 -14 -4 -28.5t-2 -28.5q0 -77 35 -112 t89 -35q57 0 96 29t62.5 71t34 89t10.5 84q0 57 -16.5 87.5t-38.5 44.5t-42.5 16.5t-27.5 2.5q-14 0 -41 -5t-57 -27t-57.5 -66t-40.5 -122zM229 700h89l-20 -92h-89zM463 700h89l-20 -92h-89z"/>
<glyph glyph-name="divide" horiz-adv-x="600" unicode="÷" d="M253 500q0 10 3.5 20.5t11 19.5t18.5 14.5t27 5.5t27 -5.5t18.5 -14.5t11 -19.5t3.5 -20.5t-3.5 -20.5t-11 -19.5t-18.5 -14.5t-27 -5.5t-27 5.5t-18.5 14.5t-11 19.5t-3.5 20.5zM253 151q0 10 3.5 20.5t11 19.5t18.5 14.5t27 5.5t27 -5.5t18.5 -14.5t11 -19.5t3.5 -20.5 t-3.5 -20.5t-11 -19.5t-18.5 -14.5t-27 -5.5t-27 5.5t-18.5 14.5t-11 19.5t-3.5 20.5zM63 357h500v-63h-500v63z"/>
<glyph glyph-name="oslash" horiz-adv-x="584" unicode="ø" d="M62 68q-17 28 -22.5 55t-5.5 66q0 68 20 129.5t58 108t94.5 74t130.5 27.5q49 0 85 -10.5t70 -40.5l73 69l37 -38l-77 -73q13 -26 18.5 -54.5t5.5 -66.5q0 -50 -15.5 -108.5t-51 -108.5t-93.5 -83.5t-143 -33.5q-49 0 -82.5 9.5t-67.5 38.5l-70 -66l-36 38zM430 418 q-8 16 -20.5 26t-26.5 14.5t-28 6t-25 1.5q-44 0 -76 -16.5t-54.5 -42.5t-36.5 -58.5t-21.5 -63t-10.5 -56.5t-3 -40q0 -31 5 -53zM156 86q2 -3 8 -10.5t17.5 -15t29 -13t41.5 -5.5q57 0 96 29t62.5 71t34 89t10.5 84q0 17 -1 29t-3 21z"/>
<glyph glyph-name="ugrave" horiz-adv-x="574" unicode="ù" d="M361 0l14 57h-3q-32 -34 -77 -55.5t-108 -21.5q-44 0 -71.5 13t-42.5 32.5t-20.5 42t-5.5 40.5q0 16 2.5 31t6.5 32l71 337h89l-67 -311q-3 -15 -6 -36t-3 -36q0 -42 25 -62.5t60 -20.5q52 0 85.5 21t53.5 51t29.5 62.5t14.5 54.5l58 277h89l-107 -508h-87zM418 568h-77 l-69 132h104z"/>
<glyph glyph-name="uacute" horiz-adv-x="574" unicode="ú" d="M361 0l14 57h-3q-32 -34 -77 -55.5t-108 -21.5q-44 0 -71.5 13t-42.5 32.5t-20.5 42t-5.5 40.5q0 16 2.5 31t6.5 32l71 337h89l-67 -311q-3 -15 -6 -36t-3 -36q0 -42 25 -62.5t60 -20.5q52 0 85.5 21t53.5 51t29.5 62.5t14.5 54.5l58 277h89l-107 -508h-87zM501 700 l-124 -132h-86l98 132h112z"/>
<glyph glyph-name="ucircumflex" horiz-adv-x="574" unicode="û" d="M361 0l14 57h-3q-32 -34 -77 -55.5t-108 -21.5q-44 0 -71.5 13t-42.5 32.5t-20.5 42t-5.5 40.5q0 16 2.5 31t6.5 32l71 337h89l-67 -311q-3 -15 -6 -36t-3 -36q0 -42 25 -62.5t60 -20.5q52 0 85.5 21t53.5 51t29.5 62.5t14.5 54.5l58 277h89l-107 -508h-87zM450 700 l91 -132h-89l-75 99l-112 -99h-94l141 132h138z"/>
<glyph glyph-name="udieresis" horiz-adv-x="574" unicode="ü" d="M361 0l14 57h-3q-32 -34 -77 -55.5t-108 -21.5q-44 0 -71.5 13t-42.5 32.5t-20.5 42t-5.5 40.5q0 16 2.5 31t6.5 32l71 337h89l-67 -311q-3 -15 -6 -36t-3 -36q0 -42 25 -62.5t60 -20.5q52 0 85.5 21t53.5 51t29.5 62.5t14.5 54.5l58 277h89l-107 -508h-87zM223 700h89 l-20 -92h-89zM457 700h89l-20 -92h-89z"/>
<glyph glyph-name="yacute" horiz-adv-x="495" unicode="ý" d="M11 -119q20 -3 29 -4t15 -1q37 0 59 25.5t40 60.5l20 38l-114 508h106l76 -398l212 398h98l-323 -568q-14 -25 -28 -48.5t-31.5 -41.5t-41.5 -28.5t-58 -10.5q-18 0 -37 0.5t-36 4.5zM461 700l-124 -132h-86l98 132h112z"/>
<glyph glyph-name="thorn" horiz-adv-x="601" unicode="þ" d="M253 700l-55 -261h2q33 47 84.5 68t104.5 21q46 0 79 -14.5t55 -40t32.5 -62t10.5 -79.5q0 -60 -18 -122.5t-53.5 -113.5t-88.5 -83.5t-123 -32.5q-11 0 -32.5 2t-46 11t-47.5 28t-36 52l-54 -258h-89l186 885h89zM154 252q-3 -17 -5.5 -33.5t-2.5 -33.5q0 -38 10 -65 t26.5 -44t38.5 -25.5t46 -8.5q50 0 88.5 26.5t64.5 68.5t39 94t13 103q0 17 -3.5 39.5t-16 43t-37.5 35t-68 14.5q-32 0 -61.5 -12.5t-55 -39t-45.5 -67t-31 -95.5z"/>
<glyph glyph-name="dotlessi" horiz-adv-x="234" unicode="ı" d="M215 508l-108 -508h-89l108 508h89z"/>
<glyph glyph-name="OE" horiz-adv-x="1137" unicode="Œ" d="M1208 700l-18 -79h-405l-46 -220h367l-17 -79h-367l-51 -243h416l-17 -79h-511l16 75q-15 -16 -36 -33t-50.5 -31t-68 -23t-87.5 -9q-140 0 -210 70.5t-70 209.5q0 90 26.5 173.5t78 147.5t128.5 102.5t178 38.5q23 0 54.5 -3t63 -14.5t60 -35t46.5 -64.5l20 96h500z M344 58q72 0 128 32.5t94 85.5t58 122t20 141q0 31 -6 67t-26 66t-57.5 50t-99.5 20q-59 0 -113 -25.5t-96 -72.5t-67 -115t-25 -152q0 -11 0.5 -31t6 -44.5t16.5 -50t32.5 -46t54 -34t80.5 -13.5z"/>
<glyph glyph-name="oe" horiz-adv-x="973" unicode="œ" d="M901 147q-5 -16 -18.5 -44t-40 -55.5t-68.5 -47.5t-104 -20q-36 0 -67.5 4.5t-58 16.5t-47.5 33.5t-35 54.5q-23 -39 -54.5 -61t-63 -32.5t-58.5 -13t-40 -2.5q-100 0 -155.5 54t-55.5 155q0 66 20 127t58.5 108.5t95 75.5t128.5 28q69 0 113.5 -24.5t68.5 -78.5 q27 36 58 56.5t62 31t59.5 13t51.5 2.5q64 0 101.5 -19.5t57 -47.5t24.5 -59.5t5 -55.5q0 -28 -4 -57t-10 -55h-393q-2 -8 -3 -15.5t-1 -15.5q0 -56 14.5 -88t34.5 -48.5t41 -20.5t35 -4q56 0 102 27t63 78h84zM253 42q57 0 96 29t62.5 71t34 89t10.5 84q0 57 -16.5 87.5 t-38.5 44.5t-42.5 16.5t-27.5 2.5q-57 0 -95.5 -29t-62.5 -71.5t-34 -90.5t-10 -86q0 -45 11.5 -73.5t29.5 -45t40 -22.5t43 -6zM840 296q2 9 4 22.5t2 27.5q0 43 -13.5 67.5t-32 36t-37.5 14t-29 2.5q-42 0 -74.5 -14t-56.5 -38t-39 -54.5t-21 -63.5h297z"/>
<glyph glyph-name="Scaron" horiz-adv-x="646" unicode="Š" d="M135 222q-5 -18 -5 -45t14 -53q14 -27 48 -46.5t100 -19.5q48 0 86 12.5t64.5 33.5t40 48.5t13.5 57.5q0 34 -17 54t-46.5 31.5t-68.5 19t-83 17.5q-28 6 -58 15t-55.5 25.5t-42 45t-16.5 73.5q0 33 13 73.5t46 75t90 58t144 23.5q63 0 107.5 -12.5t72.5 -35t41 -52.5 t13 -66q0 -19 -3 -37h-91q1 5 1 11v11q0 9 -3 26t-17.5 34t-44.5 29.5t-83 12.5q-40 0 -74 -10t-58.5 -27.5t-38.5 -42t-14 -54.5q0 -26 11 -42.5t31.5 -27t48.5 -17t62 -13.5q40 -8 81.5 -17.5t75.5 -27t55.5 -46.5t21.5 -77q0 -42 -14 -88t-49.5 -84.5t-96 -63.5 t-153.5 -25q-26 0 -56.5 2.5t-61 11.5t-57.5 25t-45 43t-26 67q-3 18 -4 39q0 25 5 55h96zM369 772l-91 132h89l75 -99l112 99h94l-141 -132h-138z"/>
<glyph glyph-name="scaron" horiz-adv-x="501" unicode="š" d="M99 151q-1 -5 -1 -11q0 -14 4 -28q6 -20 20 -35.5t38 -25t60 -9.5q31 0 57 9t44.5 24t28.5 34.5t10 41.5q0 24 -10.5 37t-29.5 21t-46.5 13t-60.5 12q-30 6 -55 14t-42.5 20.5t-27.5 31t-10 46.5q0 11 2 29t9 38t21.5 40.5t38.5 37t60 27t87 10.5q62 0 99.5 -15.5 t56.5 -38.5q20 -24 25 -50q3 -17 3 -31q0 -9 -1 -18h-84v12q0 8 -2 21.5t-11.5 26t-29 22t-53.5 9.5q-57 0 -93 -27t-36 -72q0 -21 9.5 -32.5t26.5 -19t41 -12.5t53 -12q36 -8 64 -16.5t47.5 -21t30 -32t10.5 -50.5q0 -23 -7.5 -55.5t-32.5 -62.5t-71 -51.5t-122 -21.5 q-62 0 -103 15t-65.5 39t-33.5 54q-6 21 -6 43q0 10 1 20h87zM253 568l-91 132h89l75 -99l112 99h94l-141 -132h-138z"/>
<glyph glyph-name="Ydieresis" horiz-adv-x="590" unicode="Ÿ" d="M583 700h111l-336 -408l-61 -292h-94l61 292l-172 408h105l129 -320zM269 851h94l-17 -79h-94zM485 851h94l-17 -79h-94z"/>
<glyph glyph-name="circumflex" horiz-adv-x="470" unicode="ˆ" d="M398 700l91 -132h-89l-75 99l-112 -99h-94l141 132h138z"/>
<glyph glyph-name="caron" horiz-adv-x="470" unicode="ˇ" d="M238 568l-91 132h89l75 -99l112 99h94l-141 -132h-138z"/>
<glyph glyph-name="ring" horiz-adv-x="284" unicode="˚" d="M114 660q0 19 7 36t19.5 29.5t29.5 19.5t36 7t36 -7t29.5 -19.5t19.5 -29.5t7 -36t-7 -36t-19.5 -29.5t-29.5 -19.5t-36 -7t-36 7t-29.5 19.5t-19.5 29.5t-7 36zM154 660q0 -22 15 -37t37 -15t37 15t15 37t-15 37t-37 15t-37 -15t-15 -37z"/>
<glyph glyph-name="tilde" horiz-adv-x="470" unicode="˜" d="M517 700q-3 -10 -11 -27.5t-22.5 -34t-35.5 -28.5t-50 -12q-25 0 -43.5 7.5t-39.5 18.5q-20 10 -36 16.5t-33 6.5q-29 0 -42.5 -14t-18.5 -25h-58q6 19 17.5 37.5t27 32t35 22t41.5 8.5q27 0 44.5 -7t34.5 -17q13 -8 31.5 -17t39.5 -9q20 0 36 11.5t25 30.5h58z"/>
<glyph glyph-name="hungarumlaut" horiz-adv-x="436" unicode="˝" d="M331 734l-124 -132h-80l98 132h106zM484 734l-124 -132h-80l98 132h106z"/>
<glyph glyph-name="Alpha" horiz-adv-x="630" unicode="Α" d="M50 0h-98l406 700h102l116 -700h-97l-28 181h-296zM442 260l-50 345l-195 -345h245z"/>
<glyph glyph-name="Beta" horiz-adv-x="693" unicode="Β" d="M474 700q64 0 101 -16t56 -38t24.5 -46.5t5.5 -40.5q0 -32 -9.5 -61.5t-27 -54.5t-43 -44.5t-56.5 -31.5v-3q21 -5 39.5 -15t32.5 -26.5t22.5 -41t8.5 -58.5q0 -16 -3.5 -38.5t-14.5 -47.5t-31 -49.5t-52.5 -44t-80 -31.5t-112.5 -12h-303l148 700h295zM211 403h189 q39 0 69.5 10t51.5 28t31.5 42t10.5 51q0 19 -5.5 35t-19 27.5t-37 18t-59.5 6.5h-185zM142 79h195q51 0 88 11.5t60 31.5t34 46.5t11 56.5q0 16 -4.5 34t-19 32t-42.5 23.5t-75 9.5h-195z"/>
<glyph glyph-name="Gamma" horiz-adv-x="539" unicode="Γ" d="M125 0h-94l149 700h446l-17 -79h-352z"/>
<glyph glyph-name="uni0394" horiz-adv-x="630" unicode="Δ" d="M95 79h373l-76 526zM-47 0l405 700h102l116 -700h-623z"/>
<glyph glyph-name="Epsilon" horiz-adv-x="608" unicode="Ε" d="M577 401l-17 -79h-366l-52 -243h416l-16 -79h-511l149 700h499l-17 -79h-405l-47 -220h367z"/>
<glyph glyph-name="Zeta" horiz-adv-x="591" unicode="Ζ" d="M125 621l17 79h500l-16 -75l-514 -546h419l-18 -79h-540l18 86l505 535h-371z"/>
<glyph glyph-name="Eta" horiz-adv-x="709" unicode="Η" d="M125 0h-94l149 700h94l-62 -292h351l62 292h94l-149 -700h-94l70 329h-351z"/>
<glyph glyph-name="Theta" horiz-adv-x="760" unicode="Θ" d="M231 400h358l-17 -79h-358zM354 58q75 0 131 33.5t96 101.5q31 55 47.5 117t16.5 121q-1 100 -52.5 155.5t-142.5 55.5q-76 0 -130 -32t-93 -92q-34 -52 -53.5 -117t-19.5 -137q0 -105 53 -155.5t147 -50.5zM339 -20q-148 1 -217 74.5t-69 197.5q0 97 27.5 180t73.5 143 q56 74 134.5 110t171.5 36q131 0 208.5 -71.5t77.5 -210.5q0 -86 -27 -168t-72 -145q-52 -72 -126.5 -109t-181.5 -37z"/>
<glyph glyph-name="Iota" horiz-adv-x="264" unicode="Ι" d="M274 700l-149 -700h-94l149 700h94z"/>
<glyph glyph-name="Kappa" horiz-adv-x="617" unicode="Κ" d="M570 700h128l-393 -331l263 -369h-114l-251 365l-78 -365h-94l149 700h94l-68 -319z"/>
<glyph glyph-name="Lambda" horiz-adv-x="590" unicode="Λ" d="M357 604l-306 -604h-98l368 700h119l96 -700h-101z"/>
<glyph glyph-name="Mu" horiz-adv-x="870" unicode="Μ" d="M239 568h-2l-3 -26l-116 -542h-87l149 700h119l109 -576l342 576h130l-149 -700h-87l116 542l7 26h-2l-341 -568h-79z"/>
<glyph glyph-name="Nu" horiz-adv-x="731" unicode="Ν" d="M125 0h-94l148 700h93l259 -548l116 548h94l-149 -700h-92l-259 548z"/>
<glyph glyph-name="Xi" horiz-adv-x="544" unicode="Ξ" d="M131 700h472l-18 -84h-472zM98 405h412l-17 -79h-412zM-18 84h509l-18 -84h-509z"/>
<glyph glyph-name="Omicron" horiz-adv-x="761" unicode="Ο" d="M347 -21q-72 0 -122 16.5t-82.5 42.5t-50.5 57.5t-27 62t-10.5 56t-1.5 38.5q0 90 25 174.5t75.5 150t125 105t173.5 39.5q58 0 111.5 -14.5t94 -46.5t64.5 -83.5t24 -125.5q0 -91 -24.5 -176t-74.5 -151t-125 -105.5t-175 -39.5zM358 58q53 0 95 17.5t74 47t54 68 t36.5 80.5t21 85t6.5 81q0 51 -13 86.5t-33 58t-44.5 35t-47 18t-40.5 6.5t-25 1q-52 0 -94 -17.5t-74 -47.5t-54.5 -68.5t-37 -80.5t-21.5 -84.5t-7 -79.5q0 -63 18.5 -103.5t48 -63t65.5 -31t72 -8.5z"/>
<glyph glyph-name="Pi" horiz-adv-x="712" unicode="Π" d="M125 0h-94l149 700h542l-149 -700h-94l132 621h-354z"/>
<glyph glyph-name="Rho" horiz-adv-x="638" unicode="Ρ" d="M450 700q48 0 87.5 -7t67 -25t43 -47.5t15.5 -74.5q0 -59 -15 -101.5t-38.5 -72t-54 -48t-61 -28.5t-59 -13.5t-49.5 -3.5h-202l-59 -279h-94l149 700h270zM201 358h178q65 0 102.5 21t56 49t23 57t4.5 45q0 27 -10.5 44.5t-29 28t-45 14.5t-58.5 4h-165z"/>
<glyph glyph-name="Sigma" horiz-adv-x="550" unicode="Σ" d="M612 700l-17 -79h-353l160 -253l-284 -289h378l-17 -79h-499l15 69l300 299l-166 261l15 71h468z"/>
<glyph glyph-name="Tau" horiz-adv-x="569" unicode="Τ" d="M91 621l17 79h548l-17 -79h-227l-132 -621h-94l132 621h-227z"/>
<glyph glyph-name="Upsilon" horiz-adv-x="590" unicode="Υ" d="M583 700h111l-336 -408l-61 -292h-94l61 292l-172 408h105l129 -320z"/>
<glyph glyph-name="Phi" horiz-adv-x="860" unicode="Φ" d="M455 158h26h8q60 0 106.5 15.5t78.5 44.5q33 30 52 78t19 103q0 72 -44 113.5t-133 42.5h-28zM361 158l85 397h-25q-69 0 -114 -15t-78 -46q-34 -32 -52.5 -78.5t-18.5 -105.5q0 -74 44 -113t133 -39h26zM327 0l17 79h-37q-104 0 -177 58.5t-73 178.5q0 61 20 116t63 99 q51 53 123.5 78t160.5 25h38l14 66h94l-14 -66h40q126 0 188 -66.5t62 -170.5q-1 -59 -21 -115.5t-60 -99.5q-47 -50 -117.5 -76.5t-169.5 -26.5h-40l-17 -79h-94z"/>
<glyph glyph-name="Chi" horiz-adv-x="593" unicode="Χ" d="M61 0h-115l314 370l-164 330h112l130 -275l226 275h114l-296 -350l178 -350h-113l-140 295z"/>
<glyph glyph-name="Psi" horiz-adv-x="740" unicode="Ψ" d="M269 0l44 209q-99 0 -159 46.5t-60 142.5q0 28 3.5 57t12.5 69l38 176h94l-38 -177q-10 -44 -13 -69t-3 -44q0 -65 37.5 -93.5t93.5 -28.5h11l88 412h94l-88 -412h10q79 0 132 45.5t84 189.5l38 177h94l-38 -176q-40 -181 -116 -246.5t-221 -68.5l-44 -209h-94z"/>
<glyph glyph-name="alpha" horiz-adv-x="620" unicode="α" d="M449 267v49q0 72 -25.5 110.5t-84.5 39.5q-94 0 -151.5 -85.5t-57.5 -204.5q0 -60 28 -97t87 -37q63 0 111 46t78 134zM528 508h88l-90 -239q-7 -35 -9 -62.5t-2 -56.5q0 -57 2.5 -88.5t9.5 -61.5h-88q-6 22 -7.5 42.5t-1.5 33.5q0 12 1 23h-2q-37 -63 -89.5 -90.5 t-122.5 -27.5q-83 0 -132 52t-49 159q0 133 79 234.5t216 101.5q68 0 109 -27t56 -75h2z"/>
<glyph glyph-name="beta" horiz-adv-x="560" unicode="β" d="M205 468l-73 -348q18 -39 53 -58.5t77 -19.5q69 0 116 55.5t47 139.5q0 59 -31.5 92.5t-111.5 33.5h-35l13 62h41h4q69 0 111 35t43 99q0 46 -25 72.5t-69 26.5q-62 0 -100 -40.5t-60 -149.5zM-20 -184l135 639q31 149 91 207t169 58q77 0 125.5 -36.5t48.5 -111.5 q0 -65 -39.5 -112.5t-98.5 -59.5l-1 -3q50 -11 79.5 -49.5t29.5 -98.5q0 -114 -69 -191t-197 -77q-49 0 -83.5 13t-56.5 41l-46 -219h-87z"/>
<glyph glyph-name="gamma" horiz-adv-x="520" unicode="γ" d="M140 -184l50 234l-74 362q-4 19 -13.5 27.5t-28.5 9.5q-6 0 -13 -1l-14 -2l13 62q11 1 24.5 2.5t24.5 1.5q39 0 60 -17t30 -60l55 -287l220 360h100l-296 -458l-50 -234h-88z"/>
<glyph glyph-name="delta" horiz-adv-x="566" unicode="δ" d="M242 42q34 0 66 13.5t57 40.5q31 34 49.5 91t18.5 116q0 65 -31 97t-85 32q-83 -1 -137 -70.5t-54 -185.5q0 -66 29 -100t87 -34zM535 570h-88q1 4 1.5 9t0.5 14q0 32 -24.5 48.5t-69.5 16.5q-50 0 -76.5 -23.5t-26.5 -64.5q0 -32 22 -50t79 -27q93 -16 133 -63.5 t41 -131.5q0 -57 -19 -112.5t-51 -100.5q-38 -52 -90 -78t-131 -26q-107 0 -155.5 52t-48.5 144q0 110 53.5 192t145.5 106l1 2q-37 10 -56 33.5t-19 59.5q0 67 54 108.5t156 41.5q89 0 130 -32t41 -90q0 -7 -1 -14z"/>
<glyph glyph-name="epsilon" horiz-adv-x="516" unicode="ε" d="M465 156q-13 -59 -41.5 -94t-63.5 -53t-73 -23.5t-69 -5.5q-62 0 -101 13t-61 34t-30 47.5t-8 53.5q0 37 14.5 63t35.5 42.5t44.5 25.5t41.5 12v2q-31 8 -48.5 33.5t-17.5 62.5q0 30 12 58.5t38 51t67 36t99 13.5q57 0 94 -11.5t59.5 -30t31.5 -43t9 -51.5q0 -6 -0.5 -12 t-1.5 -12h-84q1 5 1.5 8.5t0.5 8.5q0 12 -4.5 26t-16.5 26.5t-33.5 20.5t-55.5 8q-39 0 -63.5 -9.5t-38.5 -24t-19 -32.5t-5 -34q0 -26 10.5 -40t25 -21t30 -8.5t25.5 -1.5h65l-13 -62h-85q-36 0 -60 -9.5t-38 -23.5t-20 -30.5t-6 -31.5q0 -17 5 -34t18.5 -30.5t36.5 -22.5 t60 -9q36 0 62 10t44 26t28.5 36.5t14.5 41.5h84z"/>
<glyph glyph-name="zeta" horiz-adv-x="440" unicode="ζ" d="M186 700h349l-13 -62q-76 -7 -144.5 -42.5t-125.5 -99.5q-59 -66 -92.5 -148t-33.5 -158q0 -70 30 -99t97 -29h20q65 0 95 -24.5t30 -73.5q0 -66 -46.5 -107t-133.5 -41h-55l13 62h49q41 1 63 20.5t22 53.5q0 24 -15 36t-54 12h-20q-98 0 -143.5 49t-45.5 138 q0 93 40.5 183t113.5 164q33 34 66.5 58.5t74.5 43.5v2h-154z"/>
<glyph glyph-name="eta" horiz-adv-x="566" unicode="η" d="M18 0l82 390q2 14 2 24t-3.5 21t-28.5 11h-10l13 62q11 2 21.5 3t24.5 1q39 0 59.5 -16t21.5 -44q37 39 83 57.5t99 18.5q68 0 106 -34t38 -89q0 -14 -2.5 -33t-5.5 -34l-112 -522h-88l107 495q6 27 8.5 46.5t3.5 33.5q0 33 -22.5 54t-67.5 21q-74 0 -119 -48.5 t-64 -140.5l-58 -277h-88z"/>
<glyph glyph-name="theta" horiz-adv-x="620" unicode="θ" d="M485 345h-311q-8 -33 -11.5 -68t-3.5 -72q0 -85 27 -124t79 -39q77 0 136 84.5t84 218.5zM189 407h307q2 22 4 47t2 45q0 80 -27.5 119.5t-78.5 39.5q-73 0 -127.5 -71t-79.5 -180zM254 -19q-95 0 -142 63t-47 168q0 83 22.5 174t67.5 168q47 81 109 123.5t143 42.5 q94 0 141.5 -64t47.5 -168q0 -84 -23 -175t-67 -167q-48 -82 -110 -123t-142 -42z"/>
<glyph glyph-name="iota" horiz-adv-x="232" unicode="ι" d="M127 508h88l-83 -390q-3 -14 -3.5 -18.5t-0.5 -8.5q0 -15 7.5 -22.5t26.5 -6.5h10l-13 -62q-12 -1 -23 -2t-23 -1q-42 0 -60.5 16.5t-18.5 46.5v5t0.5 7.5t3.5 16.5z"/>
<glyph glyph-name="kappa" horiz-adv-x="487" unicode="κ" d="M415 508h112l-279 -243l191 -265h-105l-174 254l-53 -254h-89l107 508h89l-49 -229z"/>
<glyph glyph-name="lambda" horiz-adv-x="530" unicode="λ" d="M46 0h-99l329 508l-13 96q-3 19 -11.5 27.5t-27.5 9.5q-7 0 -13.5 -1t-13.5 -2l13 62q12 1 27.5 2t27.5 2q37 0 56.5 -17t25.5 -60l71 -518q4 -31 11.5 -40.5t27.5 -9.5q6 -1 13 0t14 3l-13 -62q-13 0 -27.5 -1.5t-23.5 -1.5q-43 0 -63 17.5t-26 76.5l-36 301z"/>
<glyph glyph-name="uni03BC" horiz-adv-x="597" unicode="μ" d="M129 508h89l-60 -277q-8 -40 -8 -60v-29q0 -14 7 -28t19 -25t28.5 -17.5t36.5 -6.5q42 0 69 19t44 45.5t25.5 55t12.5 46.5l60 277h89l-83 -386q-2 -8 -3 -15t-1 -15q0 -6 1.5 -11.5t6 -10t13.5 -6.5t24 1l-14 -65q-17 -2 -26.5 -3t-17.5 -1q-26 0 -42 4t-25 12 t-12.5 19.5t-3.5 27.5v13q-17 -24 -36 -39t-37 -23.5t-34 -11.5t-26 -3q-11 0 -24.5 3t-27.5 11.5t-27 23.5t-21 39l-55 -257h-89z"/>
<glyph glyph-name="nu" horiz-adv-x="460" unicode="ν" d="M206 88l180 330q14 26 19.5 41.5t5.5 29.5q0 4 -0.5 9t-1.5 10l94 12v-10v-9q-1 -24 -7.5 -44.5t-18.5 -42.5l-235 -414h-106l-82 508h94z"/>
<glyph glyph-name="xi" horiz-adv-x="460" unicode="ξ" d="M513 700l-13 -62h-96q-54 0 -82.5 -6.5t-48.5 -20.5q-27 -19 -44.5 -51.5t-17.5 -69.5q0 -52 31.5 -76.5t117.5 -24.5h72l-13 -62h-72q-83 -1 -121 -13t-64 -39q-21 -22 -33.5 -53t-12.5 -65q0 -49 27 -72t80 -23h47q65 0 95 -24.5t30 -73.5q0 -66 -46.5 -107t-133.5 -41 h-55l13 62h49q41 1 63 20.5t22 53.5q0 24 -15 36t-54 12h-33q-95 0 -139 33.5t-44 106.5q0 87 50 152t128 76v2q-39 10 -59 38.5t-20 72.5q0 48 25 91.5t69 63.5l1 2h-86l13 62h370z"/>
<glyph glyph-name="omicron" horiz-adv-x="587" unicode="ο" d="M42 268q6 31 22.5 75.5t50 85.5t87.5 70t136 29q100 0 156 -53t56 -161q0 -50 -15.5 -108.5t-51 -108.5t-93.5 -83.5t-143 -33.5q-51 0 -86.5 12.5t-59 32t-37 43.5t-20 47t-8 43t-1.5 31q0 20 1.5 39.5t5.5 39.5zM135 246q-2 -14 -4 -28.5t-2 -28.5q0 -77 35 -112 t89 -35q57 0 96 29t62.5 71t34 89t10.5 84q0 57 -16.5 87.5t-38.5 44.5t-42.5 16.5t-27.5 2.5q-14 0 -41 -5t-57 -27t-57.5 -66t-40.5 -122z"/>
<glyph glyph-name="pi" horiz-adv-x="574" unicode="π" d="M141 446h-15q-13 0 -29.5 -3.5t-39.5 -16.5l13 62q22 14 42 17t37 3h459l-13 -62h-64l-70 -328q-4 -20 -3 -31t5.5 -16.5t12 -7t15.5 -1.5h10l-13 -62q-10 -2 -20.5 -3t-25.5 -1q-33 0 -49.5 9.5t-23.5 23.5t-6 30t4 30l76 357h-214l-95 -446h-88z"/>
<glyph glyph-name="rho" horiz-adv-x="592" unicode="ρ" d="M267 42q89 0 144 88.5t55 203.5q0 67 -30.5 99.5t-86.5 32.5q-95 -1 -152 -86t-57 -195q0 -71 34.5 -107t92.5 -36zM61 -184h-87l87 413q33 158 107.5 228.5t198.5 70.5q93 0 143 -50t50 -146q0 -152 -83 -251.5t-200 -99.5q-57 0 -100.5 22t-61.5 70z"/>
<glyph glyph-name="sigma1" horiz-adv-x="540" unicode="ς" d="M527 349h-84q1 6 1 12q0 41 -26 73t-82 32q-42 -1 -72.5 -15.5t-57.5 -43.5q-37 -41 -57 -98.5t-20 -117.5v-6q0 -63 32.5 -93t90.5 -30h76q65 0 95 -24.5t30 -73.5q-1 -66 -47 -107t-133 -41h-55l13 62h49q41 1 63 20.5t22 53.5q-1 24 -15.5 36t-53.5 12h-63 q-96 0 -147 49t-51 143q0 76 29.5 150t84.5 122q37 32 82 48t103 16q89 0 141.5 -39t52.5 -114q0 -10 -0.5 -16t-0.5 -10z"/>
<glyph glyph-name="sigma" horiz-adv-x="590" unicode="σ" d="M254 42q92 0 147 82.5t56 196.5q0 66 -31 105t-90 40q-96 0 -151 -84.5t-55 -196.5q0 -67 33 -105t91 -38zM642 508l-13 -62h-108q15 -29 22.5 -58.5t7.5 -65.5q0 -141 -79.5 -241t-225.5 -100q-109 0 -160 55.5t-50 152.5q0 141 81.5 240t232.5 99q29 0 52 -4.5 t47 -15.5h193z"/>
<glyph glyph-name="tau" horiz-adv-x="432" unicode="τ" d="M220 446h-72q-27 0 -56 -6t-53 -16l14 65q21 9 48 14t60 5h322l-13 -62h-162l-70 -328q-3 -13 -3.5 -18t-0.5 -9q0 -15 7.5 -22t26.5 -7h10l-13 -62q-12 -1 -23 -2t-23 -1q-42 0 -61 16.5t-18 46.5q-1 5 0 11t4 18z"/>
<glyph glyph-name="upsilon" horiz-adv-x="546" unicode="υ" d="M208 508l-61 -285q-5 -20 -7.5 -45t-2.5 -43q0 -46 22 -69.5t60 -23.5q57 0 97.5 42t64.5 122q13 47 22 100.5t9 97.5q0 27 -3.5 53t-9.5 51l88 12q9 -28 14 -55.5t5 -56.5q0 -50 -12 -118t-31 -118q-38 -99 -104.5 -145t-150.5 -46q-75 0 -118 39t-43 112q0 17 2 37 t10 54l61 285h88z"/>
<glyph glyph-name="phi" horiz-adv-x="774" unicode="φ" d="M464 446l-82 -384q52 0 94.5 13t73.5 38q37 30 60.5 81t23.5 112q-1 71 -45.5 105.5t-124.5 34.5zM243 -184l39 184q-120 0 -183.5 57t-63.5 155q0 59 20.5 112.5t65.5 97.5t99 64.5t112 21.5l-13 -62q-37 -5 -68.5 -20.5t-55.5 -39.5q-31 -31 -48.5 -76.5t-17.5 -99.5 q0 -70 42.5 -109t119.5 -39h4l93 446h88q124 0 188 -53.5t64 -150.5q-1 -70 -30 -132.5t-78 -101.5q-42 -34 -96 -51t-154 -19l-39 -184h-88z"/>
<glyph glyph-name="chi" horiz-adv-x="450" unicode="χ" d="M-6 -184h-100l278 381l-58 215q-6 20 -14.5 28.5t-25.5 8.5q-6 0 -13 -1l-14 -2l13 62q10 1 24.5 2.5t24.5 1.5q38 0 56 -16t30 -61l46 -178l170 251h94l-241 -338l75 -258q5 -20 13 -28.5t27 -8.5q5 1 12 1.5t15 1.5l-13 -62q-12 -1 -25.5 -2.5t-23.5 -1.5 q-37 0 -56.5 14.5t-31.5 62.5l-59 221z"/>
<glyph glyph-name="psi" horiz-adv-x="736" unicode="ψ" d="M226 -184l39 184q-91 0 -148 45.5t-57 140.5q0 19 3 42.5t19 98.5l38 181h88l-38 -181q-12 -54 -16 -85.5t-4 -55.5q0 -62 36 -93t89 -31h3l136 638h88l-136 -638h3q65 0 116.5 39t80.5 113q17 43 26.5 93t9.5 91q0 30 -5 57t-14 53l94 12q9 -29 14 -56t5 -56 q0 -54 -12.5 -115.5t-35.5 -109.5q-45 -93 -121.5 -138t-173.5 -45l-39 -184h-88z"/>
<glyph glyph-name="theta1" horiz-adv-x="620" unicode="ϑ" d="M378 508h119q0 6 1 12t1 13q0 57 -28.5 91t-80.5 34q-42 0 -67.5 -25.5t-25.5 -64.5q0 -30 15 -45t60 -15h6zM48 386l13 62h52q45 0 64 -15.5t20 -49.5q0 -11 -1 -21t-3 -20l-21 -101q-7 -32 -9 -48.5t-2 -27.5v-9q0 -55 24.5 -84.5t73.5 -29.5q58 0 103.5 44t75.5 132 q16 47 30 111t21 117h-130q-82 0 -118 25t-36 83q0 76 51.5 121t137.5 45q96 0 145.5 -45.5t49.5 -136.5q-1 -8 -1.5 -15.5t-0.5 -14.5h67l-13 -62h-60q-10 -81 -28.5 -156t-44.5 -132q-41 -90 -100.5 -133.5t-150.5 -43.5q-96 0 -143 44t-47 134v9q0 11 2 26.5t9 47.5 l14 67q4 20 6 32.5t2 21.5q-1 11 -7.5 16.5t-23.5 6.5h-21z"/>
<glyph glyph-name="Upsilon1" horiz-adv-x="640" unicode="ϒ" d="M349 410q27 53 67 104.5t84 88.5q52 43 108 66.5t114 30.5l-17 -79q-50 -12 -95 -38t-89 -71q-56 -57 -100.5 -136t-59.5 -152l-48 -224h-94l48 224q8 37 8 81q0 30 -6.5 88.5t-39.5 118.5q-25 43 -60 70.5t-78 38.5l17 79q53 -6 98.5 -31.5t76.5 -65.5q26 -36 44 -89.5 t22 -103.5z"/>
<glyph glyph-name="omega1" horiz-adv-x="700" unicode="ϖ" d="M449 446h-142q-81 -6 -134 -89t-53 -201q0 -54 15 -84t48 -30q40 0 65.5 32t47.5 136l14 68h88l-14 -68q-8 -35 -10 -51t-2 -27v-9q0 -38 18.5 -59.5t50.5 -21.5h1q53 0 87 71.5t34 165.5q0 76 -30 120.5t-84 46.5zM36 426l13 62q19 10 42.5 14.5t56.5 5.5h565l-13 -62 h-125v-2q41 -28 61.5 -70t20.5 -99q0 -130 -65 -212t-157 -82q-53 0 -85.5 27.5t-32.5 73.5h-2q-17 -48 -57.5 -74.5t-95.5 -26.5q-63 1 -99.5 43t-36.5 124q0 103 44 182.5t118 113.5v2h-53q-27 0 -50 -5t-49 -15z"/>
<glyph glyph-name="afii10023" horiz-adv-x="608" unicode="Ё" d="M577 401l-17 -79h-366l-52 -243h416l-16 -79h-511l149 700h499l-17 -79h-405l-47 -220h367zM298 851h94l-17 -79h-94zM514 851h94l-17 -79h-94z"/>
<glyph glyph-name="afii10051" horiz-adv-x="792" unicode="Ђ" d="M113 700h549l-17 -79h-227l-48 -225q14 1 34.5 2t42.5 2t42.5 2t35.5 1q18 0 53 -3t69 -17t59.5 -43t25.5 -82q0 -35 -14 -82.5t-46.5 -90.5t-85.5 -73t-131 -30q-14 0 -31.5 4.5t-31.5 8.5l17 80q14 -5 31.5 -9.5t32.5 -4.5q48 0 79.5 20t50 48.5t25.5 58t7 49.5 q0 30 -12.5 47t-33 26t-46.5 11.5t-53 2.5q-15 0 -34 -1t-37.5 -2t-35.5 -2t-29 -2l-68 -317h-94l132 621h-228z"/>
<glyph glyph-name="afii10052" horiz-adv-x="539" unicode="Ѓ" d="M125 0h-94l149 700h446l-17 -79h-352zM500 904l-124 -132h-86l98 132h112z"/>
<glyph glyph-name="afii10053" horiz-adv-x="732" unicode="Є" d="M509 321h-347q-3 -18 -3.5 -36t-0.5 -36q0 -51 15.5 -87t42 -59.5t60.5 -34t72 -10.5q58 0 98.5 19.5t67.5 47t41.5 57t21.5 50.5h98q-5 -17 -15 -42t-26.5 -53t-41.5 -56.5t-60 -51t-81.5 -36.5t-106.5 -14q-70 0 -118.5 16.5t-80.5 42t-50 57t-27 61.5t-11 55.5 t-2 39.5q0 102 30 188t83.5 149t127 98t160.5 35q89 0 143.5 -23t83 -58t33.5 -66.5t5 -52.5q0 -19 -3 -37h-96q2 11 2 22q0 16 -4.5 38t-23.5 45t-54 38t-89 15q-71 0 -120 -29t-80.5 -69t-48.5 -80.5t-24 -63.5h345z"/>
<glyph glyph-name="afii10054" horiz-adv-x="646" unicode="Ѕ" d="M135 222q-5 -18 -5 -45t13.5 -53.5t48 -46t100.5 -19.5q48 0 86 12.5t64.5 33.5t40 48.5t13.5 57.5q0 34 -17 54t-46.5 31.5t-68.5 19t-83 17.5q-28 6 -58 15t-55.5 25.5t-42 45t-16.5 73.5q0 33 13 73.5t46 75t90 58t144 23.5q63 0 107.5 -12.5t72.5 -35t41 -52.5 t13 -66q0 -19 -3 -37h-91q1 5 1 11v11q0 9 -3 26t-17.5 34t-44.5 29.5t-83 12.5q-40 0 -74 -10t-58.5 -27.5t-38.5 -42t-14 -54.5q0 -26 11 -42.5t31.5 -27t48.5 -17t62 -13.5q40 -8 81.5 -17.5t75.5 -27t55.5 -46.5t21.5 -77q0 -42 -14 -88t-49.5 -84.5t-96 -63.5 t-153.5 -25q-26 0 -56.5 2.5t-61 11.5t-57.5 25t-45.5 43t-24 55.5t-5.5 50.5q0 25 5 55h96z"/>
<glyph glyph-name="afii10055" horiz-adv-x="264" unicode="І" d="M274 700l-149 -700h-94l149 700h94z"/>
<glyph glyph-name="afii10056" horiz-adv-x="314" unicode="Ї" d="M331 700l-149 -700h-94l149 700h94zM196 851h94l-17 -79h-94zM342 851h94l-17 -79h-94z"/>
<glyph glyph-name="afii10057" horiz-adv-x="517" unicode="Ј" d="M114 232q-10 -39 -12 -56.5t-2 -23.5q0 -17 4.5 -34t15.5 -30.5t29.5 -21.5t45.5 -8q38 0 63.5 12t42.5 34.5t27.5 55t19.5 73.5l99 467h94l-97 -458q-14 -68 -32 -117.5t-46.5 -82t-70.5 -48t-103 -15.5t-98 15t-56.5 39t-25.5 53t-6 57q0 26 3.5 47.5t8.5 41.5h96z"/>
<glyph glyph-name="afii10058" horiz-adv-x="1143" unicode="Љ" d="M31 82q6 -2 12 -2h13q48 0 82.5 32.5t58.5 80.5t40 103.5t27 102.5l71 301h438l-61 -285h201q51 0 87 -11.5t58.5 -29.5t32.5 -41t10 -47q0 -43 -12.5 -93t-44 -93t-85 -71.5t-134.5 -28.5h-295l132 621h-251l-58 -242q-6 -25 -15.5 -63t-25 -80t-37.5 -85t-54 -77 t-75 -55.5t-99 -21.5q-17 0 -33 3zM641 79h189q54 0 87.5 20t52 49.5t24.5 61.5t6 56q0 22 -11 35.5t-29 21t-40.5 10.5t-46.5 3h-177z"/>
<glyph glyph-name="afii10059" horiz-adv-x="1089" unicode="Њ" d="M125 0h-94l149 700h94l-61 -285h351l61 285h94l-61 -285h181q69 0 110 -16.5t63 -42t29 -57t7 -60.5q0 -75 -30.5 -121.5t-74 -72.5t-90.5 -35.5t-81 -9.5h-296l72 336h-351zM587 79h175q46 0 81.5 11.5t59.5 32t36 47.5t12 57q0 38 -14 60t-35 33t-44.5 13.5t-41.5 2.5 h-174z"/>
<glyph glyph-name="afii10060" horiz-adv-x="793" unicode="Ћ" d="M590 0l44 205q2 8 3.5 16.5t1.5 16.5q0 23 -4.5 39.5t-20 27t-45 15t-78.5 4.5q-15 0 -34 -0.5t-37.5 -1.5t-35.5 -2.5t-29 -2.5l-68 -317h-94l132 621h-228l17 79h549l-17 -79h-227l-48 -225q14 1 34.5 2t42.5 2t42.5 2t35.5 1q40 0 75.5 -2t64 -11.5t47.5 -28.5t25 -53 q2 -11 2 -23t-2 -23t-3.5 -21t-3.5 -21l-47 -220h-94z"/>
<glyph glyph-name="afii10061" horiz-adv-x="617" unicode="Ќ" d="M570 700h128l-393 -331l263 -369h-114l-251 365l-78 -365h-94l149 700h94l-68 -319zM539 904l-124 -132h-86l98 132h112z"/>
<glyph glyph-name="afii10062" horiz-adv-x="578" unicode="Ў" d="M577 700h105l-351 -575q-28 -45 -53.5 -72t-50.5 -41.5t-50.5 -18.5t-53.5 -4q-23 0 -40.5 2.5t-37.5 8.5l18 82q14 -5 29 -8t34 -3q15 0 31.5 3t33 14t34 31t35.5 55l-155 526h106l115 -421zM331 904q-2 -11 -0.5 -24.5t9.5 -25.5t25 -20.5t46 -8.5q30 0 50.5 8t33.5 20 t20.5 26t10.5 25h74q-8 -20 -21.5 -43.5t-35.5 -43t-53.5 -32.5t-75.5 -13q-48 0 -78.5 12t-48 30t-24.5 39t-7 39q0 8 1 12h74z"/>
<glyph glyph-name="afii10145" horiz-adv-x="724" unicode="Џ" d="M689 700h94l-149 -700h-226l-41 -189h-90l41 189h-228l149 700h94l-132 -621h356z"/>
<glyph glyph-name="afii10017" horiz-adv-x="630" unicode="А" d="M50 0h-98l406 700h102l116 -700h-97l-28 181h-296zM442 260l-50 345l-195 -345h245z"/>
<glyph glyph-name="afii10018" horiz-adv-x="669" unicode="Б" d="M213 411h202q31 0 67.5 -5t68 -22.5t53 -52t21.5 -92.5q0 -75 -30.5 -121.5t-74 -72.5t-91 -35.5t-81.5 -9.5h-317l149 700h497l-18 -79h-402zM142 79h197q54 0 90.5 14.5t58 36.5t30.5 48t9 49q0 33 -11 54t-30 32t-43 15t-51 4h-196z"/>
<glyph glyph-name="afii10019" horiz-adv-x="693" unicode="В" d="M474 700q64 0 101 -16t56 -38t24.5 -46.5t5.5 -40.5q0 -32 -9.5 -61.5t-27 -54.5t-43 -44.5t-56.5 -31.5v-3q21 -5 39.5 -15t32.5 -26.5t22.5 -41t8.5 -58.5q0 -16 -3.5 -38.5t-14.5 -47.5t-31 -49.5t-52.5 -44t-80 -31.5t-112.5 -12h-303l148 700h295zM211 403h189 q39 0 69.5 10t51.5 28t31.5 42t10.5 51q0 19 -5.5 35t-19 27.5t-37 18t-59.5 6.5h-185zM142 79h195q51 0 88 11.5t60 31.5t34 46.5t11 56.5q0 16 -4.5 34t-19 32t-42.5 23.5t-75 9.5h-195z"/>
<glyph glyph-name="afii10020" horiz-adv-x="539" unicode="Г" d="M125 0h-94l149 700h446l-17 -79h-352z"/>
<glyph glyph-name="afii10021" horiz-adv-x="737" unicode="Д" d="M686 79l-59 -237h-81l33 158h-544l-33 -158h-82l42 237h68q57 60 97 125t66.5 128.5t42 121t25.5 102.5l31 144h426l-132 -621h100zM369 621l-18 -87q-14 -69 -32.5 -131t-43.5 -118t-56 -107t-71 -99h344l115 542h-238z"/>
<glyph glyph-name="afii10022" horiz-adv-x="608" unicode="Е" d="M577 401l-17 -79h-366l-52 -243h416l-16 -79h-511l149 700h499l-17 -79h-405l-47 -220h367z"/>
<glyph glyph-name="afii10024" horiz-adv-x="903" unicode="Ж" d="M428 353l-354 -353h-132l397 382l-235 318h113l219 -310l66 310h94l-66 -310l335 310h128l-372 -331l238 -369h-116l-221 353l-75 -353h-94z"/>
<glyph glyph-name="afii10025" horiz-adv-x="675" unicode="З" d="M133 215q-3 -13 -3 -29q0 -14 4 -30q4 -18 14 -35t29.5 -31t51 -23t77.5 -9q51 0 89 14.5t63.5 38t38.5 53.5t13 62q0 30 -10.5 49.5t-29 31t-44 16.5t-54.5 5h-92l17 79h83q48 0 80 12.5t51.5 31.5t27.5 41t8 42t-5.5 39.5t-21 34.5t-42.5 24.5t-70 9.5 q-87 0 -137.5 -39.5t-62.5 -96.5h-100q10 39 31 77.5t57.5 69t90.5 49.5t130 19q31 0 70.5 -5t74.5 -22.5t59 -52t24 -92.5q0 -39 -13.5 -69t-33.5 -52t-45 -36t-47 -21l-1 -3q36 -11 57 -27.5t31 -35.5t12.5 -39t2.5 -38q0 -60 -22.5 -106.5t-63.5 -78t-97.5 -48 t-123.5 -16.5q-70 0 -122.5 13t-86.5 41.5t-48 72.5q-9 29 -10 66q0 20 3 43h96z"/>
<glyph glyph-name="afii10026" horiz-adv-x="730" unicode="И" d="M626 700h114l-149 -700h-94l121 567l-474 -567h-113l149 700h94l-120 -563z"/>
<glyph glyph-name="afii10027" horiz-adv-x="730" unicode="Й" d="M626 700h114l-149 -700h-94l121 567l-474 -567h-113l149 700h94l-120 -563zM373 858v-9q0 -9 2 -21t10.5 -23t24.5 -18.5t44 -7.5q43 0 70 17.5t45 61.5h73q-8 -26 -24 -50t-39.5 -42t-54.5 -29t-68 -11q-44 0 -74.5 11t-49.5 29t-26 39.5t-7 42.5v10h74z"/>
<glyph glyph-name="afii10028" horiz-adv-x="617" unicode="К" d="M570 700h128l-393 -331l263 -369h-114l-251 365l-78 -365h-94l149 700h94l-68 -319z"/>
<glyph glyph-name="afii10029" horiz-adv-x="708" unicode="Л" d="M-24 82q8 -2 15 -2h14q45 0 78.5 28.5t57.5 74t41 102.5t31 114l70 301h435l-149 -700h-94l132 621h-246l-55 -242q-29 -128 -65 -204t-75.5 -115.5t-80 -51t-78.5 -11.5q-24 0 -48 3z"/>
<glyph glyph-name="afii10030" horiz-adv-x="870" unicode="М" d="M239 568h-2l-3 -26l-116 -542h-87l149 700h119l109 -576l342 576h130l-149 -700h-87l116 542l7 26h-2l-341 -568h-79z"/>
<glyph glyph-name="afii10031" horiz-adv-x="709" unicode="Н" d="M125 0h-94l149 700h94l-62 -292h351l62 292h94l-149 -700h-94l70 329h-351z"/>
<glyph glyph-name="afii10032" horiz-adv-x="761" unicode="О" d="M347 -21q-72 0 -122 16.5t-82.5 42.5t-50.5 57.5t-27 62t-10.5 56t-1.5 38.5q0 90 25 174.5t75.5 150t125 105t173.5 39.5q58 0 111.5 -14.5t94 -46.5t64.5 -83.5t24 -125.5q0 -91 -24.5 -176t-74.5 -151t-125 -105.5t-175 -39.5zM358 58q53 0 95 17.5t74 47t54 68 t36.5 80.5t21 85t6.5 81q0 51 -13 86.5t-33 58t-44.5 35t-47 18t-40.5 6.5t-25 1q-52 0 -94 -17.5t-74 -47.5t-54.5 -68.5t-37 -80.5t-21.5 -84.5t-7 -79.5q0 -63 18.5 -103.5t48 -63t65.5 -31t72 -8.5z"/>
<glyph glyph-name="afii10033" horiz-adv-x="712" unicode="П" d="M125 0h-94l149 700h542l-149 -700h-94l132 621h-354z"/>
<glyph glyph-name="afii10034" horiz-adv-x="638" unicode="Р" d="M450 700q48 0 87.5 -7t67 -25t43 -47.5t15.5 -74.5q0 -59 -15 -101.5t-38.5 -72t-54 -48t-61 -28.5t-59 -13.5t-49.5 -3.5h-202l-59 -279h-94l149 700h270zM201 358h178q65 0 102.5 21t56 49t23 57t4.5 45q0 27 -10.5 44.5t-29 28t-45 14.5t-58.5 4h-165z"/>
<glyph glyph-name="afii10035" horiz-adv-x="715" unicode="С" d="M673 232q-5 -16 -14.5 -41.5t-26.5 -53.5t-42 -56t-60 -51t-81.5 -37t-106.5 -14q-17 0 -45 2t-60 10.5t-64.5 25.5t-58.5 47.5t-42.5 76t-16.5 110.5q0 102 30 188t83 149t126 98t160 35q16 0 42.5 -1.5t55.5 -8t59 -18.5t54 -33.5t39 -54t15 -78.5q0 -22 -3 -43h-95 q2 8 2 14v15q0 18 -6.5 40.5t-25 42t-52 33t-88.5 13.5q-58 0 -102.5 -19.5t-77.5 -51.5t-55 -72.5t-35.5 -82t-19 -80.5t-5.5 -68q0 -39 10.5 -76.5t34 -67.5t61 -48t91.5 -18q50 0 87.5 16t64.5 41t44 56t26 61h98z"/>
<glyph glyph-name="afii10036" horiz-adv-x="569" unicode="Т" d="M91 621l17 79h548l-17 -79h-227l-132 -621h-94l132 621h-227z"/>
<glyph glyph-name="afii10037" horiz-adv-x="578" unicode="У" d="M577 700h105l-351 -575q-28 -45 -53.5 -72t-50.5 -41.5t-50.5 -18.5t-53.5 -4q-23 0 -40.5 2.5t-37.5 8.5l18 82q14 -5 29 -8t34 -3q15 0 31.5 3t33 14t34 31t35.5 55l-155 526h106l115 -421z"/>
<glyph glyph-name="afii10038" horiz-adv-x="895" unicode="Ф" d="M362 79h-37q-19 0 -46 3t-57 11t-59.5 24t-53 41t-38 62t-14.5 88q0 70 20.5 121t54 87t75.5 59t85 36t82.5 18t67.5 5h38l23 106h94l-23 -106h40q84 0 136.5 -24t81.5 -59t39 -75t10 -71q0 -70 -20.5 -121.5t-54 -87.5t-75.5 -59t-84.5 -36t-82.5 -17.5t-68 -4.5h-40 l-22 -105h-94zM464 555h-25q-70 0 -122.5 -17.5t-88 -49t-53 -75t-17.5 -96.5q0 -24 6 -51.5t26.5 -51.5t59 -40t103.5 -16h26zM499 158q88 0 142.5 24t85.5 59.5t42 77t11 76.5q0 40 -12 67.5t-30.5 45t-41.5 27.5t-44.5 14.5t-39.5 5t-26 0.5h-28l-85 -397h26z"/>
<glyph glyph-name="afii10039" horiz-adv-x="593" unicode="Х" d="M61 0h-115l314 370l-164 330h112l130 -275l226 275h114l-296 -350l178 -350h-113l-140 295z"/>
<glyph glyph-name="afii10040" horiz-adv-x="741" unicode="Ц" d="M497 79l132 621h94l-132 -621h98l-59 -237h-82l34 158h-551l149 700h94l-132 -621h355z"/>
<glyph glyph-name="afii10041" horiz-adv-x="634" unicode="Ч" d="M246 700l-43 -205q-3 -13 -5 -25t-2 -25q0 -24 10 -37.5t29.5 -20.5t47 -9t62.5 -2q15 0 33.5 1t38 2t37 2t29.5 2l67 317h94l-149 -700h-94l65 304q-13 -1 -32 -2t-39 -2t-39 -2t-32 -1q-65 0 -108 7.5t-68.5 23.5t-36.5 40.5t-11 58.5q0 17 2.5 34t6.5 34l43 205h94z "/>
<glyph glyph-name="afii10042" horiz-adv-x="1016" unicode="Ш" d="M424 79l132 621h94l-132 -621h282l132 621h94l-149 -700h-846l149 700h94l-132 -621h282z"/>
<glyph glyph-name="afii10043" horiz-adv-x="1046" unicode="Щ" d="M424 79l132 621h94l-132 -621h282l132 621h94l-132 -621h104l-58 -237h-81l33 158h-861l149 700h94l-132 -621h282z"/>
<glyph glyph-name="afii10044" horiz-adv-x="724" unicode="Ъ" d="M293 415h181q103 0 156 -42t53 -134q0 -75 -29.5 -121.5t-72.5 -72.5t-90.5 -35.5t-83.5 -9.5h-296l132 621h-152l17 79h246zM222 79h175q46 0 81 11.5t59 32t36 47.5t12 57q0 38 -14 60t-34 33t-43.5 13.5t-41.5 2.5h-175z"/>
<glyph glyph-name="afii10045" horiz-adv-x="859" unicode="Ы" d="M213 415h181q60 0 100 -13.5t64.5 -37t35 -55.5t10.5 -70q0 -50 -14 -87t-37 -63.5t-53 -43.5t-60.5 -27t-60 -14t-52.5 -4h-296l149 700h94zM142 79h176q54 0 90 14.5t57.5 36.5t31 48t9.5 49q0 38 -14.5 60t-35.5 33t-44 13.5t-40 2.5h-175zM869 700l-149 -700h-94 l149 700h94z"/>
<glyph glyph-name="afii10046" horiz-adv-x="644" unicode="Ь" d="M213 415h180q69 0 110.5 -16.5t63.5 -42t29 -57t7 -60.5q0 -75 -30 -121.5t-73 -72.5t-91 -35.5t-83 -9.5h-295l149 700h94zM142 79h175q54 0 90 14.5t57.5 36.5t31 48t9.5 49q0 38 -14 60t-34.5 33t-43.5 13.5t-41 2.5h-175z"/>
<glyph glyph-name="afii10047" horiz-adv-x="728" unicode="Э" d="M105 496q14 47 41.5 88t69 71.5t95.5 48t121 17.5q94 0 150 -26t85 -65t38 -84t9 -84q0 -50 -7.5 -105.5t-26 -109.5t-48.5 -102.5t-74.5 -85.5t-105.5 -58.5t-140 -21.5q-89 0 -141.5 23t-80.5 57.5t-37.5 73.5t-10.5 72v19v19h98q-1 -5 -1 -9v-8q0 -32 9 -62.5 t29.5 -54t54 -37.5t83.5 -14q29 0 69 8.5t80.5 36t75 79.5t52.5 139h-332l17 79h331q3 16 4 31t1 31q0 25 -5.5 56t-24.5 58.5t-56 46.5t-100 19q-37 0 -72.5 -9.5t-65.5 -28t-52.5 -46t-33.5 -62.5h-98z"/>
<glyph glyph-name="afii10048" horiz-adv-x="994" unicode="Ю" d="M308 408q14 65 46.5 122t81.5 99.5t112 67t138 24.5q56 0 109 -14.5t94 -46.5t65.5 -83.5t24.5 -125.5q0 -44 -8 -96.5t-26.5 -104.5t-48.5 -101t-74.5 -87t-104 -60.5t-136.5 -22.5q-18 0 -47 2t-62 10t-66 25.5t-59.5 47.5t-43.5 76t-17 112q0 38 6 77h-97l-70 -329 h-94l149 700h94l-62 -292h96zM592 58q73 0 127 35t89.5 90.5t52.5 124t17 135.5q0 47 -11.5 80t-29.5 55t-40.5 35t-45 19.5t-43 8t-33.5 1.5q-68 0 -121.5 -31.5t-90.5 -85t-56.5 -123t-19.5 -144.5q0 -62 18.5 -101t48 -61t66 -30t72.5 -8z"/>
<glyph glyph-name="afii10049" horiz-adv-x="673" unicode="Я" d="M346 278l-230 -278h-123l250 288q-14 1 -39.5 8t-50.5 25t-43 51t-18 86q0 58 21.5 103t60 76t91.5 47t116 16h302l-149 -700h-94l59 278h-153zM375 621q-16 0 -47 -5.5t-61.5 -22.5t-53.5 -49t-23 -86q0 -16 5 -34t20 -33t43 -24.5t74 -9.5h184l56 264h-197z"/>
<glyph glyph-name="afii10065" horiz-adv-x="561" unicode="а" d="M79 358q7 37 24 68.5t45.5 54t70 35t98.5 12.5q59 0 96 -12.5t57.5 -30.5t27.5 -39t7 -38q0 -13 -3 -25t-6 -26l-54 -235q-4 -19 -4 -30q0 -14 6 -20.5t13.5 -7.5t14.5 -1q3 0 5.5 -0.5t5.5 -0.5l-14 -62q-17 -2 -26 -2.5t-12 -0.5q-25 0 -39 6t-21.5 14.5t-9.5 17.5 t-2 15v11q-42 -47 -85 -64t-94 -17q-49 0 -82 9.5t-53 26.5t-28.5 40.5t-8.5 51.5q0 65 31.5 102t78.5 55.5t102 25t102 10.5q22 2 39 5t28.5 11t17.5 25t6 48q0 27 -11 42t-26.5 22.5t-32 9.5t-26.5 2q-69 0 -107.5 -30.5t-46.5 -77.5h-84zM387 255q-9 -7 -19.5 -10 t-26.5 -5t-40.5 -4.5t-62.5 -6.5q-20 -3 -44 -8.5t-45 -17.5t-35 -32.5t-14 -51.5q0 -29 10.5 -44.5t25 -22.5t28.5 -8.5t20 -1.5q58 0 94.5 23.5t57.5 54t29.5 59t11.5 38.5z"/>
<glyph glyph-name="afii10066" horiz-adv-x="594" unicode="б" d="M609 733q-12 -48 -45 -71t-75 -33t-86 -13.5t-79 -12.5q-47 -12 -80 -35.5t-55 -52t-34 -60.5t-18 -60h2q21 37 47 62.5t54.5 41t58.5 22.5t60 7q43 0 78.5 -13t61.5 -38t40.5 -61.5t14.5 -83.5q0 -22 -4 -57t-15 -74t-32 -78.5t-54 -71t-81 -51.5t-114 -20 q-25 0 -62.5 4.5t-72 26t-59.5 67t-25 126.5q0 34 4 77t14 88.5t28 91t46 85.5t68 72t94 50q55 19 96.5 24t71 7t48 8t29.5 26h75zM136 250q-4 -20 -5.5 -39t-1.5 -39q0 -48 15 -74t35 -38.5t41 -15t32 -2.5q55 0 94.5 25.5t65 66t37 90.5t11.5 100q0 54 -16.5 82.5 t-37.5 42t-41.5 15.5t-27.5 2q-17 0 -45.5 -5.5t-58.5 -27t-56.5 -64.5t-40.5 -119z"/>
<glyph glyph-name="afii10067" horiz-adv-x="541" unicode="в" d="M342 508q20 0 47.5 -1.5t52 -11t42 -31.5t17.5 -63q0 -16 -3.5 -34.5t-15 -36.5t-31.5 -35t-53 -30v-3q11 -3 24.5 -9t25 -17t19.5 -28t8 -41q0 -32 -11 -62t-35 -53.5t-63 -37.5t-95 -14h-253l108 508h216zM169 296h122q7 0 26 1.5t39.5 10t36.5 26t16 50.5 q0 23 -8.5 35.5t-21 18.5t-26.5 7t-26 1h-126zM120 62h128q11 0 33.5 1.5t45 10t39.5 27.5t17 55q0 29 -11 44.5t-27 23t-33 9t-30 1.5h-126z"/>
<glyph glyph-name="afii10068" horiz-adv-x="431" unicode="г" d="M107 0h-89l107 508h349l-14 -62h-259z"/>
<glyph glyph-name="afii10069" horiz-adv-x="602" unicode="д" d="M22 62q40 50 66.5 97t43.5 91.5t28 87.5t20 85l18 85h365l-94 -446h88l-50 -194h-73l28 132h-436l-28 -132h-73l32 194h65zM274 446l-15 -71q-7 -34 -18.5 -73.5t-28 -81t-39 -82t-52.5 -76.5h259l81 384h-187z"/>
<glyph glyph-name="afii10070" horiz-adv-x="582" unicode="е" d="M506 147q-20 -60 -54 -93.5t-69.5 -50t-65.5 -20t-41 -3.5q-77 0 -124 19.5t-73 49t-35 65t-9 67.5q0 62 17 124t55.5 111.5t99.5 80.5t149 31q65 0 103 -19.5t57.5 -47.5t25 -59.5t5.5 -55.5t-3.5 -52t-13.5 -60h-397q-2 -8 -3 -16.5t-1 -16.5q0 -16 2 -43t14 -52.5 t38.5 -44.5t74.5 -19q27 0 52.5 6.5t47 20t37 33t21.5 45.5h90zM447 296q5 15 6.5 27.5t1.5 22.5q0 43 -14.5 67.5t-33 36t-37 14t-27.5 2.5q-50 0 -84.5 -17.5t-57 -43.5t-35 -55.5t-18.5 -53.5h299z"/>
<glyph glyph-name="afii10072" horiz-adv-x="699" unicode="ж" d="M308 251l-244 -251h-115l279 268l-164 240h104l145 -230l47 230h89l-50 -230l229 230h111l-260 -244l172 -264h-109l-149 251l-51 -251h-89z"/>
<glyph glyph-name="afii10073" horiz-adv-x="520" unicode="з" d="M95 156q-2 -5 -2 -11v-11q0 -39 29 -65.5t86 -26.5q31 0 59 8t49 23t33 37t12 49t-12.5 42t-29 22t-32.5 8.5t-23 1.5h-74l13 62h65q15 0 35 2.5t39 11.5t32 26.5t13 47.5q0 31 -13 48t-29.5 24.5t-31.5 9t-19 1.5q-21 0 -44 -5.5t-43.5 -17.5t-35 -30.5t-18.5 -44.5h-84 q7 30 23 59t44 51.5t67.5 36t92.5 13.5q36 0 69 -6t59 -20t41.5 -37t15.5 -57q0 -53 -25 -87.5t-74 -55.5v-3q31 -4 52 -30t21 -63q0 -20 -7.5 -52t-31.5 -62.5t-69 -52.5t-120 -22q-27 0 -64.5 3.5t-71.5 17.5t-58 43t-24 79v16q0 9 2 17h84z"/>
<glyph glyph-name="afii10074" horiz-adv-x="596" unicode="и" d="M465 508h112l-107 -508h-89l86 406l-337 -406h-112l107 508h89l-85 -405z"/>
<glyph glyph-name="afii10075" horiz-adv-x="596" unicode="й" d="M465 508h112l-107 -508h-89l86 406l-337 -406h-112l107 508h89l-85 -405zM286 700q-2 -11 -0.5 -24.5t9.5 -25.5t25 -20.5t47 -8.5q45 0 70 17t44 62h75q-16 -38 -36 -63.5t-44 -40.5t-51 -21.5t-56 -6.5q-51 0 -82 13.5t-48 33t-22 40.5t-5 39v6h74z"/>
<glyph glyph-name="afii10076" horiz-adv-x="487" unicode="к" d="M415 508h112l-279 -243l191 -265h-105l-174 254l-53 -254h-89l107 508h89l-49 -229z"/>
<glyph glyph-name="afii10077" horiz-adv-x="566" unicode="л" d="M-27 65q5 -1 9.5 -1.5t9.5 -0.5q37 0 62.5 21.5t43 57.5t29.5 81.5t22 93.5l40 191h358l-107 -508h-89l94 446h-185l-27 -129q-13 -61 -28 -118.5t-40 -102.5t-64.5 -72t-100.5 -27q-20 0 -41 3z"/>
<glyph glyph-name="afii10078" horiz-adv-x="734" unicode="м" d="M193 408h-2l-4 -27l-80 -381h-89l107 508h123l85 -413l250 413h132l-107 -508h-89l81 381l9 27h-3l-248 -408h-80z"/>
<glyph glyph-name="afii10079" horiz-adv-x="574" unicode="н" d="M107 0h-89l107 508h89l-44 -209h252l44 209h89l-108 -508h-89l50 237h-251z"/>
<glyph glyph-name="afii10080" horiz-adv-x="587" unicode="о" d="M42 268q6 31 22.5 75.5t50 85.5t87.5 70t136 29q100 0 156 -53t56 -161q0 -50 -15.5 -108.5t-51 -108.5t-93.5 -83.5t-143 -33.5q-51 0 -86.5 12.5t-59 32t-37 43.5t-20 47t-8 43t-1.5 31q0 20 1.5 39.5t5.5 39.5zM135 246q-2 -14 -4 -28.5t-2 -28.5q0 -77 35 -112 t89 -35q57 0 96 29t62.5 71t34 89t10.5 84q0 57 -16.5 87.5t-38.5 44.5t-42.5 16.5t-27.5 2.5q-14 0 -41 -5t-57 -27t-57.5 -66t-40.5 -122z"/>
<glyph glyph-name="afii10081" horiz-adv-x="578" unicode="п" d="M107 0h-89l107 508h434l-107 -508h-89l94 446h-256z"/>
<glyph glyph-name="afii10082" horiz-adv-x="601" unicode="р" d="M210 508l-16 -69h2q43 47 87.5 68t105.5 21q46 0 79 -14.5t55 -40t32.5 -62t10.5 -79.5q0 -60 -18 -122.5t-53.5 -113.5t-88.5 -83.5t-123 -32.5q-11 0 -32.5 2t-46 11t-47.5 28t-36 52l-54 -258h-89l146 693h86zM154 252q-3 -17 -5.5 -33.5t-2.5 -33.5q0 -38 10 -65 t26.5 -44t38.5 -25.5t46 -8.5q50 0 88.5 26.5t64.5 68.5t39 94t13 103q0 17 -3.5 39.5t-16 43t-37.5 35t-68 14.5q-32 0 -61.5 -12.5t-55 -39t-45.5 -67t-31 -95.5z"/>
<glyph glyph-name="afii10083" horiz-adv-x="551" unicode="с" d="M498 181q-8 -35 -26.5 -70.5t-49 -64.5t-74 -47.5t-101.5 -18.5q-52 0 -87.5 13t-59 33.5t-36.5 45t-19 47.5t-7.5 41t-1.5 26q0 66 19 127.5t56.5 109t93 76.5t127.5 29q55 0 92.5 -12.5t60.5 -34t33 -49t10 -57.5v-26h-84q0 42 -12.5 66t-29.5 35t-36.5 13.5t-32.5 2.5 q-38 0 -68 -14.5t-52.5 -38t-38.5 -53.5t-25.5 -62t-14 -62.5t-4.5 -54.5q0 -51 16.5 -79.5t38.5 -41.5t42.5 -15.5t29.5 -2.5q42 0 70.5 17t46.5 40t27.5 46t12.5 36h84z"/>
<glyph glyph-name="afii10084" horiz-adv-x="462" unicode="т" d="M54 446l14 62h437l-14 -62h-174l-94 -446h-89l94 446h-174z"/>
<glyph glyph-name="afii10085" horiz-adv-x="495" unicode="у" d="M11 -119q20 -3 29 -4t15 -1q37 0 59 25.5t40 60.5l20 38l-114 508h106l76 -398l212 398h98l-323 -568q-14 -25 -28 -48.5t-31.5 -41.5t-41.5 -28.5t-58 -10.5q-18 0 -37 0.5t-36 4.5z"/>
<glyph glyph-name="afii10086" horiz-adv-x="798" unicode="ф" d="M298 -17q-36 0 -81 9t-84 33t-66 67.5t-27 114.5q0 95 45.5 167t122.5 110q35 17 85 29t119 12l37 175h89l-37 -175q17 0 42.5 -1.5t54.5 -8.5t58 -21t52.5 -38t38 -60.5t14.5 -87.5q0 -72 -30.5 -139t-83.5 -111q-50 -42 -114.5 -57.5t-145.5 -17.5l-35 -168h-89z M403 463h-17q-67 0 -116 -23t-80 -62t-43.5 -85.5t-12.5 -88.5q0 -51 19 -82.5t47 -48.5t59.5 -22.5t55.5 -5.5zM396 45q81 0 133 27t83 67t43 86.5t12 85.5q0 70 -43.5 111t-135.5 41h-4z"/>
<glyph glyph-name="afii10087" horiz-adv-x="482" unicode="х" d="M413 508h111l-228 -250l134 -258h-99l-99 209l-174 -209h-112l246 272l-124 236h97l91 -191z"/>
<glyph glyph-name="afii10088" horiz-adv-x="598" unicode="ц" d="M374 62l94 446h89l-94 -446h90l-50 -194h-74l29 132h-440l107 508h89l-94 -446h254z"/>
<glyph glyph-name="afii10089" horiz-adv-x="508" unicode="ч" d="M187 508l-35 -156q-2 -8 -3 -16t-1 -16q0 -16 5 -26t16 -15.5t30 -7.5t47 -2q9 0 18.5 0.5t21 1t27 1t37.5 0.5l50 236h89l-107 -508h-89l44 211q-27 0 -39.5 -0.5t-21.5 -1t-20 -1t-34 -0.5q-47 0 -78 5.5t-50.5 17t-27.5 29.5t-8 42q0 20 4 36l36 170h89z"/>
<glyph glyph-name="afii10090" horiz-adv-x="833" unicode="ш" d="M331 62l94 446h89l-94 -446h211l94 446h89l-107 -508h-689l107 508h89l-94 -446h211z"/>
<glyph glyph-name="afii10091" horiz-adv-x="852" unicode="щ" d="M331 62l94 446h89l-94 -446h211l94 446h89l-94 -446h86l-50 -194h-74l28 132h-692l107 508h89l-94 -446h211z"/>
<glyph glyph-name="afii10092" horiz-adv-x="597" unicode="ъ" d="M68 508h219l-42 -201h120q22 0 53.5 -2t60 -15t48.5 -40t20 -76q0 -47 -19 -80t-48.5 -54t-66 -30.5t-70.5 -9.5h-252l94 446h-131zM193 62h122q47 0 74.5 12t42 28.5t19 35t4.5 30.5q0 28 -10 43.5t-26.5 23t-37.5 9t-42 1.5h-107z"/>
<glyph glyph-name="afii10093" horiz-adv-x="715" unicode="ы" d="M214 508l-42 -200h120q23 0 54 -2.5t59.5 -15.5t48 -40t19.5 -76q0 -32 -12.5 -63t-38 -56t-63 -40t-88.5 -15h-253l107 508h89zM120 62h122q41 0 68 9.5t42.5 25t22 34.5t6.5 37q0 25 -8 40t-22.5 23.5t-36 11.5t-48.5 3h-107zM696 508l-107 -508h-89l107 508h89z"/>
<glyph glyph-name="afii10094" horiz-adv-x="521" unicode="ь" d="M214 508l-42 -200h120q22 0 53.5 -2.5t60.5 -15.5t49 -40t20 -76q0 -40 -16.5 -72t-44 -54.5t-65 -35t-79.5 -12.5h-252l107 508h89zM120 62h122q42 0 69.5 9.5t43 25t22 34.5t6.5 37q0 25 -8 40t-23 23.5t-37 11.5t-49 3h-107z"/>
<glyph glyph-name="afii10095" horiz-adv-x="559" unicode="э" d="M206 295h218q5 28 5 51q0 40 -11 64t-27.5 36.5t-36.5 16t-38 3.5q-70 0 -114 -32t-61 -85h-84q8 29 25.5 60.5t47.5 58t75 43.5t110 17q68 0 109 -19t63 -47.5t29 -61.5t7 -62q0 -56 -14.5 -119t-49.5 -116t-92.5 -88t-143.5 -35q-72 0 -113 19.5t-61.5 46.5t-25.5 55.5 t-5 46.5v14q0 7 1 15h84q-2 -8 -2 -15v-14q0 -53 35.5 -79.5t86.5 -26.5q14 0 40 4t54.5 23t54.5 57.5t40 106.5h-220z"/>
<glyph glyph-name="afii10096" horiz-adv-x="788" unicode="ю" d="M252 299q11 47 35.5 88.5t61 73t85.5 49.5t109 18q16 0 37.5 -2t44.5 -9.5t45.5 -21.5t40.5 -37.5t29 -59t11 -84.5q0 -66 -20 -126.5t-58 -106.5t-95 -73.5t-130 -27.5q-12 0 -32 1.5t-43.5 7.5t-48 19t-44 36.5t-32 59t-12.5 86.5q0 23 3 47h-82l-50 -237h-89l107 508 h89l-44 -209h82zM335 246q-2 -14 -3.5 -28.5t-1.5 -28.5q0 -45 11.5 -73.5t29.5 -45t40 -22.5t43 -6q57 0 95.5 29t62.5 71t34.5 89t10.5 84q0 24 -4.5 50.5t-18 49t-38 37t-64.5 14.5q-38 0 -67.5 -13t-50.5 -34t-35.5 -46.5t-23.5 -50t-13.5 -45t-6.5 -31.5z"/>
<glyph glyph-name="afii10097" horiz-adv-x="524" unicode="я" d="M86 0h-104l174 201q-111 16 -111 127q0 37 13 70t39.5 57.5t65 38.5t89.5 14h253l-107 -508h-89l42 200h-103zM278 446q-17 0 -41 -2t-46.5 -12t-38 -31.5t-15.5 -59.5q0 -14 3 -28.5t13.5 -25.5t31.5 -18t57 -7h122l39 184h-125z"/>
<glyph glyph-name="afii10071" horiz-adv-x="582" unicode="ё" d="M506 147q-20 -60 -54 -93.5t-69.5 -50t-65.5 -20t-41 -3.5q-77 0 -124 19.5t-73 49t-35 65t-9 67.5q0 62 17 124t55.5 111.5t99.5 80.5t149 31q65 0 103 -19.5t57.5 -47.5t25 -59.5t5.5 -55.5t-3.5 -52t-13.5 -60h-397q-2 -8 -3 -16.5t-1 -16.5q0 -16 2 -43t14 -52.5 t38.5 -44.5t74.5 -19q27 0 52.5 6.5t47 20t37 33t21.5 45.5h90zM447 296q5 15 6.5 27.5t1.5 22.5q0 43 -14.5 67.5t-33 36t-37 14t-27.5 2.5q-50 0 -84.5 -17.5t-57 -43.5t-35 -55.5t-18.5 -53.5h299zM227 700h89l-20 -92h-89zM461 700h89l-20 -92h-89z"/>
<glyph glyph-name="afii10099" horiz-adv-x="585" unicode="ђ" d="M273 638h213l-12 -62h-213l-30 -143q25 31 72 53t97 22q27 0 54.5 -7.5t50 -27t37 -52t14.5 -83.5q0 -34 -7 -84.5t-19.5 -105t-30.5 -107t-39 -89.5q-20 -36 -43.5 -61.5t-52 -42t-63.5 -24.5t-78 -9l14 65h22q33 0 69 30.5t66 89t49 143t19 191.5q0 17 -3 36.5 t-13 36.5t-29.5 28t-52.5 11q-50 0 -81.5 -22.5t-50 -53t-26.5 -60.5t-11 -45l-56 -265h-89l121 576h-77l13 62h77l13 62h89z"/>
<glyph glyph-name="afii10100" horiz-adv-x="431" unicode="ѓ" d="M107 0h-89l107 508h349l-14 -62h-259zM429 700l-124 -132h-86l98 132h112z"/>
<glyph glyph-name="afii10101" horiz-adv-x="549" unicode="є" d="M360 233h-229q-3 -24 -3 -48q0 -50 14.5 -79t34 -43t39.5 -17.5t32 -3.5q38 0 66.5 14.5t48 35.5t31.5 45t18 44h84q-6 -26 -21.5 -61t-45 -66t-74.5 -52.5t-110 -21.5q-7 0 -25.5 1t-42 6.5t-49 17.5t-46.5 35t-34.5 58.5t-13.5 87.5q0 65 20 126.5t57.5 109.5t92.5 77 t126 29q70 0 110 -19.5t59 -46t23.5 -54.5t4.5 -44v-15h-84v25q0 15 -6.5 31.5t-20 30t-34.5 22t-51 8.5q-12 0 -36 -4t-52 -21t-54.5 -51.5t-43.5 -94.5h229z"/>
<glyph glyph-name="afii10102" horiz-adv-x="501" unicode="ѕ" d="M99 151q-1 -5 -1 -11q0 -15 5 -31.5t19 -32t38 -25t60 -9.5q31 0 57 9t44.5 24t28.5 34.5t10 41.5q0 24 -10.5 37t-29.5 21t-46.5 13t-60.5 12q-30 6 -55 14t-42.5 20.5t-27.5 31t-10 46.5q0 11 2 29t9 38t21.5 40.5t38.5 37t60 27t87 10.5q62 0 99.5 -15.5t57 -38.5 t23.5 -44.5t4 -36.5q0 -9 -1 -18h-84v12q0 8 -2 21.5t-11.5 26t-29 22t-53.5 9.5q-57 0 -93 -27t-36 -72q0 -21 9.5 -32.5t26.5 -19t41 -12.5t53 -12q36 -8 64 -16.5t47.5 -21t30 -32t10.5 -50.5q0 -23 -7.5 -55.5t-32.5 -62.5t-71 -51.5t-122 -21.5q-62 0 -103 15t-65.5 39 t-32 50t-7.5 47q0 10 1 20h87z"/>
<glyph glyph-name="afii10103" horiz-adv-x="228" unicode="і" d="M215 508l-108 -508h-89l108 508h89zM167 700h89l-20 -92h-89z"/>
<glyph glyph-name="afii10104" horiz-adv-x="288" unicode="ї" d="M245 508l-108 -508h-89l108 508h89zM125 700h89l-20 -92h-89zM269 700h89l-20 -92h-89z"/>
<glyph glyph-name="afii10105" horiz-adv-x="231" unicode="ј" d="M217 508l-118 -555q-4 -20 -11.5 -44.5t-23.5 -46.5t-43.5 -36.5t-72.5 -14.5q-15 0 -32.5 1.5t-22.5 2.5l14 65q5 -1 14 -1q29 0 46 8.5t26 21.5t12.5 28t6.5 27l116 544h89zM169 700h89l-20 -92h-89z"/>
<glyph glyph-name="afii10106" horiz-adv-x="854" unicode="љ" d="M-27 65q5 -1 9 -1.5t9 -0.5q37 0 62.5 22t43.5 57.5t30 81t22 93.5l39 191h360l-42 -201h120q21 0 52.5 -3t60 -16t49 -39.5t20.5 -74.5q0 -23 -9.5 -53t-33 -57t-62.5 -45.5t-99 -18.5h-252l94 446h-187l-26 -129q-12 -61 -27 -118.5t-40 -102.5t-64.5 -72t-100.5 -27 q-21 0 -42 3zM454 62h121q42 0 69.5 9.5t43 25t22 34.5t6.5 37q0 28 -10 43.5t-26.5 23t-37.5 9t-43 1.5h-106z"/>
<glyph glyph-name="afii10107" horiz-adv-x="859" unicode="њ" d="M107 0h-89l107 508h89l-42 -201h251l42 201h89l-42 -201h120q62 0 98 -13t54.5 -32.5t23.5 -43t5 -44.5q0 -47 -20 -80t-50 -54t-66 -30.5t-67 -9.5h-252l52 245h-251zM460 62h122q42 0 68.5 9.5t42.5 25t22 34.5t6 37q0 30 -12.5 46t-30.5 23t-37.5 7.5t-34.5 0.5h-107z "/>
<glyph glyph-name="afii10108" horiz-adv-x="560" unicode="ћ" d="M248 638h210l-12 -62h-211l-29 -144q40 40 84.5 58t100.5 18q27 0 52.5 -7t44.5 -22t30.5 -37.5t11.5 -53.5q0 -18 -2 -35t-6 -35l-67 -318h-89l63 291q4 19 6.5 41.5t2.5 39.5q0 26 -9.5 40.5t-23 22t-28 9.5t-25.5 2q-54 0 -88 -23.5t-54.5 -55t-29.5 -63t-12 -47.5 l-54 -257h-89l121 576h-79l12 62h80l13 62h89z"/>
<glyph glyph-name="afii10109" horiz-adv-x="487" unicode="ќ" d="M415 508h112l-279 -243l191 -265h-105l-174 254l-53 -254h-89l107 508h89l-49 -229zM457 700l-124 -132h-86l98 132h112z"/>
<glyph glyph-name="afii10110" horiz-adv-x="495" unicode="ў" d="M246 700q-2 -11 -0.5 -24.5t9.5 -25.5t25 -20.5t47 -8.5q8 0 23.5 1.5t33 9.5t33.5 23.5t24 44.5h75q-9 -20 -22.5 -43t-35 -43t-53 -33t-76.5 -13q-22 0 -50 4.5t-52 18.5t-40 40q-15 23 -15 60v9h74zM11 -119q20 -3 29 -4t15 -1q37 0 59 25.5t40 60.5l20 38l-114 508 h106l76 -398l212 398h98l-323 -568q-14 -25 -28 -48.5t-31.5 -41.5t-41.5 -28.5t-58 -10.5q-18 0 -37 0.5t-36 4.5z"/>
<glyph glyph-name="afii10193" horiz-adv-x="579" unicode="џ" d="M471 508h89l-107 -508h-174l-39 -185h-87l39 185h-174l107 508h89l-94 -446h257z"/>
<glyph glyph-name="uni0460" horiz-adv-x="936" unicode="Ѡ" d="M449 120h-2q-9 -26 -24 -49.5t-35 -41.5q-27 -25 -61.5 -37t-79.5 -12q-91 0 -146 63t-55 185q0 98 29.5 192.5t89.5 168.5q50 62 115.5 95t148.5 37l-17 -79q-48 -4 -91 -28t-77 -69q-48 -62 -72.5 -146t-24.5 -169q0 -84 33 -128t91 -44q25 0 46 9t40 31q22 25 38 68 t35 131l20 93h94l-20 -93q-7 -32 -11 -69t-4 -62q0 -53 26.5 -80.5t74.5 -27.5q52 0 94.5 35t71.5 96q23 50 35.5 112.5t12.5 124.5q0 92 -41 153.5t-115 62.5l17 79q114 -2 176.5 -78t63.5 -198q0 -73 -16.5 -150t-44.5 -134q-45 -93 -110 -137t-140 -44q-82 0 -123 38.5 t-42 101.5z"/>
<glyph glyph-name="uni0461" horiz-adv-x="740" unicode="ѡ" d="M341 82h-2q-16 -46 -55.5 -73.5t-97.5 -27.5q-73 0 -115 47.5t-41 139.5v6q0 70 21.5 135.5t63.5 113.5q37 42 90 67t119 28l-13 -62q-37 -3 -68 -22.5t-55 -53.5q-31 -42 -47.5 -98t-16.5 -119v-7q-1 -55 21.5 -84.5t59.5 -29.5q40 0 65.5 31t47.5 137l14 68h88l-14 -68 q-8 -35 -10 -53.5t-2 -33.5q0 -38 18 -59.5t51 -21.5q65 0 106.5 71.5t41.5 171.5q0 75 -30 122t-84 49l13 62q93 -3 143.5 -62.5t51.5 -156.5q0 -127 -67 -222.5t-179 -95.5q-53 0 -85.5 27.5t-32.5 73.5z"/>
<glyph glyph-name="afii10146" horiz-adv-x="741" unicode="Ѣ" d="M354 620h220l-17 -79h-220l-27 -126h181q103 0 156 -42t53 -134q0 -75 -29.5 -121.5t-72.5 -72.5t-90.5 -35.5t-83.5 -9.5h-296l115 541h-152l17 79h152l17 80h94zM239 79h175q46 0 81 11.5t59 32t36 47.5t12 57q0 38 -14 60t-34 33t-43.5 13.5t-41.5 2.5h-175z"/>
<glyph glyph-name="afii10194" horiz-adv-x="597" unicode="ѣ" d="M67 508h131l40 192h89l-40 -192h150l-13 -62h-150l-29 -139h120q22 0 53.5 -2t60 -15t48.5 -40t20 -76q0 -47 -19 -80t-48.5 -54t-66 -30.5t-70.5 -9.5h-252l94 446h-131zM193 62h122q47 0 74.5 12t42 28.5t19 35t4.5 30.5q0 28 -10 43.5t-26.5 23t-37.5 9t-42 1.5h-107z "/>
<glyph glyph-name="uni0464" horiz-adv-x="960" unicode="Ѥ" d="M180 700h94l-64 -300h90q15 60 44.5 113t69.5 95q52 54 119 83.5t151 29.5q57 0 106.5 -11.5t83.5 -34.5q36 -26 55.5 -63t19.5 -85q0 -14 -1 -24t-2 -19h-96q1 6 1 12.5t1 16.5q0 60 -48 94.5t-123 34.5q-64 0 -115 -27.5t-89 -75.5q-22 -28 -40 -64t-29 -75h345 l-16 -79h-347q-3 -14 -3.5 -25t-0.5 -22v-25v-6q0 -44 15 -80.5t47 -62.5q24 -22 56.5 -32t71.5 -10q49 0 93 18.5t76 51.5q19 19 34.5 46.5t25.5 57.5h98q-18 -61 -48 -106t-69 -77q-43 -35 -93 -52t-121 -17q-67 0 -114 13.5t-81 40.5q-50 38 -72 90.5t-22 120.5v6 q-1 13 -1 23t1 21.5t3 25.5h-93l-68 -321h-94z"/>
<glyph glyph-name="uni0465" horiz-adv-x="754" unicode="ѥ" d="M125 508h88l-45 -213h87q11 49 36.5 92.5t60.5 75.5q38 34 81.5 49.5t101.5 15.5q52 0 92 -12.5t65 -38.5q19 -21 29 -50t11 -63v-15h-84q1 6 1 12q0 14 -4 30.5t-13 31.5q-14 21 -38.5 32t-57.5 11q-39 0 -70.5 -15t-56.5 -43q-20 -22 -35.5 -52.5t-23.5 -60.5h229 l-14 -62h-229q-2 -11 -2.5 -22.5t-0.5 -25.5q0 -36 7 -61t23 -43q15 -20 37.5 -29.5t52.5 -9.5q36 0 65.5 13t54.5 43q14 17 25.5 38.5t18.5 44.5h84q-7 -28 -28.5 -66t-39.5 -59q-33 -37 -77 -55.5t-109 -19.5q-48 0 -82 10t-59 32q-35 28 -51 70t-16 94q0 12 0.5 23 t2.5 23h-87l-49 -233h-88z"/>
<glyph glyph-name="uni0466" horiz-adv-x="720" unicode="Ѧ" d="M400 221l-47 -221h-94l47 221h-113l-137 -221h-114l453 700h100l175 -700h-106l-51 221h-113zM242 300h256l-69 305z"/>
<glyph glyph-name="uni0467" horiz-adv-x="618" unicode="ѧ" d="M339 170l-36 -170h-88l36 170h-78l-111 -170h-106l342 508h106l150 -508h-94l-49 170h-72zM209 232h186l-55 196z"/>
<glyph glyph-name="uni0468" horiz-adv-x="980" unicode="Ѩ" d="M502 300h256l-69 305zM274 700l-85 -400h207l259 400h100l175 -700h-106l-51 221h-113l-47 -221h-94l47 221h-113l-137 -221h-114l144 221h-174l-47 -221h-94l149 700h94z"/>
<glyph glyph-name="uni0469" horiz-adv-x="820" unicode="ѩ" d="M411 232h186l-55 196zM213 508l-58 -276h159l186 276h106l150 -508h-94l-49 170h-72l-36 -170h-88l36 170h-78l-111 -170h-106l116 170h-132l-36 -170h-88l107 508h88z"/>
<glyph glyph-name="uni046A" horiz-adv-x="828" unicode="Ѫ" d="M169 700h672l-313 -306l250 -394h-110l-194 316l-67 -316h-94l67 316l-320 -316h-118l411 401zM646 621h-318l117 -201z"/>
<glyph glyph-name="uni046B" horiz-adv-x="700" unicode="ѫ" d="M155 508h492l-226 -222l191 -286h-104l-122 195l-41 -195h-88l41 195l-202 -195h-114l315 294zM477 446h-178l69 -110z"/>
<glyph glyph-name="uni046C" horiz-adv-x="1080" unicode="Ѭ" d="M697 420l201 201h-318zM554 351h-354l-75 -351h-94l149 700h94l-58 -270h373l-168 270h672l-313 -306l250 -394h-110l-194 316l-67 -316h-94l67 316l-320 -316h-118z"/>
<glyph glyph-name="uni046D" horiz-adv-x="879" unicode="ѭ" d="M547 336l109 110h-178zM436 257h-276l-54 -257h-88l107 508h88l-40 -189h286l-125 189h492l-226 -222l191 -286h-104l-122 195l-41 -195h-88l41 195l-202 -195h-114z"/>
<glyph glyph-name="uni046E" horiz-adv-x="640" unicode="Ѯ" d="M403 721l147 109q27 20 49 28t46 8q7 0 23 -1.5t28 -2.5l-15 -70q-10 1 -19.5 2.5t-18.5 1.5q-19 0 -35 -5.5t-31 -16.5l-84 -62q23 -4 46 -13.5t41 -23.5q24 -21 37 -50t14 -71q0 -45 -18 -82.5t-55 -65.5q-16 -12 -32.5 -21t-33.5 -14l-1 -3q18 -5 35 -14t32 -22 q19 -19 27.5 -40.5t8.5 -52.5q0 -64 -31.5 -117t-87.5 -83q-35 -19 -83.5 -29t-104.5 -10h-128q-20 0 -34.5 -2.5t-24.5 -9.5q-12 -7 -19 -20t-7 -30q0 -11 4.5 -19.5t14.5 -14.5q7 -4 17 -6t34 -3h238l-16 -79h-241q-39 1 -59 4t-34 10q-27 13 -39.5 36.5t-13.5 55.5 q1 43 19.5 77t54.5 55q23 12 49 18t66 7h124q29 0 63 6.5t59 19.5q37 18 59.5 50t22.5 73q0 31 -13 51t-38 33q-16 7 -38 11.5t-49 4.5h-92l17 79h83q29 0 51 4t40 13q36 16 55.5 46t20.5 64q0 23 -8 43t-20 33q-17 16 -44 24t-67 8q-41 -1 -70.5 -8.5t-52.5 -21.5 q-28 -17 -47 -41.5t-27 -52.5l-2 -6t-1 -6h-100q12 48 33.5 83t53.5 63q27 24 59.5 39t70.5 22l-104 146h106z"/>
<glyph glyph-name="uni046F" horiz-adv-x="566" unicode="ѯ" d="M169 368h-84q7 32 24.5 60.5t44.5 50.5q22 18 47.5 29t52.5 15l-128 177h95l107 -172l155 140q17 16 41.5 26t50.5 10q6 0 19 -1.5t24 -2.5l-14 -63q-7 2 -14 3.5t-16 1.5q-20 0 -34.5 -6t-27.5 -18l-111 -101q15 -4 31 -11t29 -17q18 -16 27 -36t9 -45q0 -31 -9 -56.5 t-26 -43.5q-11 -12 -28 -23.5t-36 -19.5v-3q12 -2 23.5 -7.5t20.5 -12.5q13 -13 21 -31.5t8 -41.5q-1 -41 -25.5 -78.5t-67.5 -59.5q-29 -16 -65.5 -23.5t-92.5 -7.5h-49q-27 0 -40 -2t-23 -10q-15 -9 -22.5 -24.5t-7.5 -34.5q0 -13 4.5 -23.5t14.5 -17.5q7 -5 18 -7t41 -3 h195l-13 -62h-201q-36 0 -56.5 3.5t-36.5 10.5q-27 13 -40 36.5t-13 54.5q0 39 17.5 69t50.5 49q20 11 45.5 16.5t60.5 6.5h66q26 0 49.5 3.5t39.5 11.5q27 12 42 34.5t15 47.5q0 16 -6.5 30t-19.5 25q-14 10 -31.5 14.5t-39.5 4.5h-74l13 62h65q22 0 39 2.5t31 9.5 q24 11 36.5 31t12.5 45q0 21 -6 35t-16 25q-13 11 -29 16.5t-42 6.5q-37 -1 -63.5 -10t-44.5 -26q-14 -13 -22.5 -29t-10.5 -33z"/>
<glyph glyph-name="uni0470" horiz-adv-x="740" unicode="Ѱ" d="M269 0l44 209q-43 0 -80 9.5t-62 26.5q-39 24 -58 61.5t-19 91.5q0 28 3.5 57t12.5 69l38 176h94l-38 -177q-10 -44 -13 -69t-3 -44q0 -34 10.5 -58.5t35.5 -40.5q17 -12 39.5 -17.5t43.5 -5.5h13l88 412h94l-88 -412h9q50 0 93 20.5t71 60.5q15 22 26.5 53.5t26.5 100.5 l38 177h94l-38 -176q-26 -118 -52 -166.5t-63 -79.5q-42 -36 -96.5 -52t-125.5 -17l-44 -209h-94z"/>
<glyph glyph-name="uni0471" horiz-adv-x="736" unicode="ѱ" d="M226 -184l39 184q-91 0 -148 45.5t-57 140.5q0 19 3 42.5t19 98.5l38 181h88l-38 -181q-12 -54 -16 -85.5t-4 -55.5q0 -62 36 -93t89 -31h3l136 638h88l-136 -638h3q65 0 116.5 39t80.5 113q17 43 26.5 93t9.5 91q0 30 -5 57t-14 53l94 12q9 -29 14 -56t5 -56 q0 -54 -12.5 -115.5t-35.5 -109.5q-45 -93 -121.5 -138t-173.5 -45l-39 -184h-88z"/>
<glyph glyph-name="afii10147" horiz-adv-x="960" unicode="Ѳ" d="M270 387h473q0 9 1 19.5t1 24.5q-1 54 -14 91t-38 65q-28 29 -63 42t-80 13q-76 0 -130 -32t-93 -92q-21 -31 -35 -64t-22 -67zM731 318h-474q-2 -12 -2.5 -25t-0.5 -29q0 -54 12.5 -90t35.5 -60q24 -27 63.5 -41.5t88.5 -14.5q75 0 131.5 33.5t95.5 101.5q15 27 28 59 t22 66zM38 387h130q11 49 33 98t53 90q56 74 135 109.5t171 36.5q60 0 111.5 -16.5t88.5 -46.5q42 -36 64 -87t22 -132q0 -14 -1 -27t-2 -25h135l-36 -169h-84l22 100h-48q-13 -51 -35 -102t-50 -90q-52 -72 -126.5 -109t-181.5 -37q-66 0 -117 15t-86 46q-42 35 -62.5 86 t-20.5 125q0 19 1 35t3 31h-49l-22 -100h-84z"/>
<glyph glyph-name="afii10195" horiz-adv-x="760" unicode="ѳ" d="M231 288h310q0 8 1 16t1 17q0 35 -7.5 60t-21.5 44q-17 21 -38.5 31t-51.5 10q-43 0 -75.5 -14.5t-58.5 -44.5q-21 -23 -36 -54t-23 -65zM530 226h-312q-2 -9 -2 -19v-24q0 -32 7.5 -57.5t21.5 -42.5q15 -20 37.5 -30.5t50.5 -10.5h5q36 0 69 14t62 45q21 23 37 55t24 70 zM664 226h-39q-15 -60 -46.5 -111.5t-71.5 -82.5q-33 -26 -74 -38.5t-99 -12.5q-62 0 -99.5 14.5t-63.5 43.5q-24 26 -36.5 63t-12.5 91v18t1 15h-39l-21 -100h-79l33 162h116q14 57 47 107.5t74 80.5q36 26 81.5 39t97.5 13q50 0 88.5 -14t66.5 -44q24 -27 36 -63t13 -80 q0 -12 -1 -21.5t-1 -17.5h122l-34 -162h-80z"/>
<glyph glyph-name="afii10148" horiz-adv-x="725" unicode="Ѵ" d="M510 551q29 56 58 88t56.5 48t54.5 20t52 4q23 0 40.5 -2.5t37.5 -8.5l-18 -82q-14 5 -29 8t-34 3q-17 0 -32.5 -3t-32 -14t-33.5 -31.5t-36 -54.5l-287 -526h-119l-96 700h101l78 -604z"/>
<glyph glyph-name="afii10196" horiz-adv-x="553" unicode="ѵ" d="M355 371q13 25 27.5 50t34 45.5t47 33.5t66.5 13q14 0 30.5 -1t33.5 -4l-14 -65q-17 5 -40 5q-19 0 -32.5 -6.5t-24.5 -18.5t-20.5 -27.5t-19.5 -33.5l-204 -362h-106l-82 508h94l58 -420z"/>
<glyph glyph-name="uni0476" horiz-adv-x="700" unicode="Ѷ" d="M471 900l51 -140h-80l-77 140h106zM318 900l51 -140h-80l-77 140h106zM268 96l216 436q24 49 50.5 84t51.5 54q24 17 53.5 26.5t74.5 9.5q24 0 41 -2.5t35 -7.5l-17 -82q-16 5 -32 8t-32 3q-25 0 -45 -8t-36 -22q-13 -11 -25.5 -29t-25.5 -44l-269 -522h-119l-97 700h98z "/>
<glyph glyph-name="uni0477" horiz-adv-x="540" unicode="ѷ" d="M374 700l48 -132h-72l-76 132h100zM221 700l48 -132h-72l-76 132h100zM204 88l140 284q15 32 29.5 54t30.5 39q25 25 54.5 36t70.5 11q14 0 26.5 -1.5t25.5 -2.5l-14 -66q-10 2 -19 3.5t-20 1.5q-22 -1 -36 -6t-26 -15q-11 -10 -24 -28t-22 -37l-178 -361h-102l-90 508 h93z"/>
<glyph glyph-name="uni0478" horiz-adv-x="1240" unicode="Ѹ" d="M742 -183l14 65q16 -2 26.5 -3t17.5 -2q27 1 49.5 18t49.5 68l20 37l-114 508h106l76 -398l212 398h98l-323 -567q-21 -36 -32 -52.5t-22 -28.5q-25 -27 -54 -37.5t-70 -10.5q-17 1 -29.5 2t-24.5 3zM354 58q75 0 131 33.5t96 101.5q31 55 47.5 117t16.5 121 q0 54 -13.5 91t-38.5 65q-28 29 -63 41.5t-80 13.5q-76 0 -130 -32t-93 -92q-34 -52 -53.5 -117t-19.5 -137q0 -53 12.5 -89.5t35.5 -60.5q24 -27 63.5 -41.5t88.5 -14.5zM339 -20q-66 0 -117 15t-86 46q-42 35 -62.5 86t-20.5 125q0 97 27.5 180t73.5 143q56 74 134.5 110 t171.5 36q60 -1 111.5 -17t88.5 -46q42 -36 64 -87t22 -132q0 -86 -27 -168t-72 -145q-52 -72 -126.5 -109t-181.5 -37z"/>
<glyph glyph-name="uni0479" horiz-adv-x="1020" unicode="ѹ" d="M522 -183l14 65q16 -2 26.5 -3.5t17.5 -1.5q27 0 49.5 17.5t49.5 68.5l20 37l-114 508h106l76 -398l212 398h98l-323 -567q-21 -36 -32 -52.5t-22 -28.5q-25 -27 -54 -37.5t-70 -10.5q-17 1 -29.5 2t-24.5 3zM251 42q36 0 69 14t62 45q35 38 54 98.5t20 121.5 q-1 34 -8 59.5t-21 44.5q-17 21 -38.5 31t-51.5 10q-44 -1 -76 -15.5t-58 -43.5q-34 -38 -54 -100.5t-20 -123.5q0 -32 7.5 -57.5t21.5 -42.5q15 -20 38.5 -30.5t54.5 -10.5zM247 -19q-62 1 -99.5 15t-63.5 43q-24 25 -36.5 62.5t-12.5 91.5q0 85 35 161.5t97 121.5 q36 26 81.5 39t97.5 13q50 0 88.5 -14t66.5 -44q24 -27 36.5 -63.5t12.5 -79.5q0 -86 -34.5 -167t-95.5 -128q-33 -26 -74 -38.5t-99 -12.5z"/>
<glyph glyph-name="uni047A" horiz-adv-x="842" unicode="Ѻ" d="M445 120l-12 -57q64 2 121 31t97 82q34 46 55.5 110.5t21.5 127.5q0 53 -16 95.5t-45 70.5q-23 21 -55.5 36t-67.5 21l-12 -57h-94l12 57q-65 -3 -122 -32t-96 -81q-35 -47 -56 -111.5t-21 -126.5q0 -54 15.5 -96.5t45.5 -69.5q22 -22 54.5 -37t68.5 -20l12 57h94z M403 -73h-94l12 57q-48 7 -92 22t-74 39q-52 39 -76.5 98t-24.5 130v5q0 80 29 162t83 145q54 62 130.5 97t171.5 35l12 57h94l-12 -57q47 -7 91 -23t75 -39q51 -40 76 -99t25 -129q-1 -84 -30 -167t-82 -145q-55 -63 -131.5 -97t-170.5 -34z"/>
<glyph glyph-name="uni047B" horiz-adv-x="676" unicode="ѻ" d="M258 90h88l-9 -40q34 3 64.5 16t56.5 35q32 27 52.5 63.5t29.5 84.5q2 14 3.5 28.5t1.5 29.5q0 36 -10.5 63t-28.5 48q-9 9 -19.5 16.5t-21.5 13.5q-10 4 -20 7t-20 5l-9 -40h-88l9 40q-35 -4 -65.5 -17t-55.5 -34q-33 -28 -53.5 -64.5t-28.5 -83.5q-3 -15 -4 -29.5 t-1 -28.5q0 -37 10 -64.5t29 -46.5q8 -10 19 -17.5t24 -12.5q9 -5 18 -8t20 -4zM313 -63h-88l11 50q-44 3 -81 18.5t-62 41.5q-29 28 -43.5 70t-14.5 96t18 105t57 96q45 52 106.5 79.5t133.5 29.5l11 49h88l-11 -49q43 -3 80 -19.5t63 -41.5q28 -29 43 -71t15 -95 q0 -55 -18.5 -106t-56.5 -95q-46 -53 -107.5 -79.5t-132.5 -28.5z"/>
<glyph glyph-name="uni047C" horiz-adv-x="940" unicode="Ѽ" d="M413 774h-66q9 28 24.5 56t34.5 50q36 41 82 60.5t102 19.5q44 0 77 -12t58 -36q13 -14 29.5 -40t26.5 -31q4 -3 13 -5.5t16 -1.5h24l-13 -60h-28q-21 0 -35 5t-25 15q-12 9 -29 35.5t-23 34.5q-19 20 -41.5 30t-62.5 10q-40 -1 -67.5 -13t-50.5 -36q-16 -17 -27.5 -37.5 t-18.5 -43.5zM511 730h-56q4 18 12 36t17 32q17 25 42 39.5t55 14.5q47 0 65 -29t18 -71q0 -10 -1 -22h-56q2 11 2 21q0 17 -7 36t-31 19q-13 0 -23.5 -7.5t-18.5 -20.5q-7 -11 -11.5 -23.5t-6.5 -24.5zM449 120h-2q-9 -26 -24 -49.5t-35 -41.5q-27 -25 -61.5 -37t-79.5 -12 q-91 0 -146 63t-55 183q0 94 29 180.5t89 153.5q51 57 115.5 87.5t145.5 33.5l-17 -79q-49 -5 -90.5 -26.5t-75.5 -61.5q-48 -57 -71.5 -131.5t-23.5 -152.5q0 -84 33 -128t91 -44q25 0 46 9t40 31q22 25 38 68t35 131l20 93h94l-20 -93q-7 -32 -11 -69t-4 -62 q0 -53 26.5 -80.5t74.5 -27.5q52 0 94.5 33.5t72.5 97.5q23 50 35.5 108.5t12.5 117.5q-1 50 -13.5 84.5t-38.5 59.5q-23 20 -51.5 31t-57.5 12l17 79q44 -1 88 -15.5t75 -38.5q38 -32 60 -80t22 -117q0 -68 -16.5 -139.5t-44.5 -129.5q-45 -92 -109.5 -136.5t-141.5 -44.5 q-82 0 -123 38.5t-42 101.5z"/>
<glyph glyph-name="uni047D" horiz-adv-x="740" unicode="ѽ" d="M267 590h-66q9 28 24 56t34 50q36 44 82 63.5t103 20.5q44 0 78 -12.5t59 -38.5q15 -18 29.5 -42.5t24.5 -29.5q4 -3 13 -5t16 -2h24l-13 -60h-28q-23 0 -35.5 4t-24.5 16q-13 11 -25.5 32.5t-26.5 37.5q-19 20 -45.5 30t-58.5 10q-39 0 -67.5 -12.5t-50.5 -36.5 q-16 -17 -27.5 -37.5t-18.5 -43.5zM361 530h-56q4 18 11.5 36.5t18.5 36.5q19 30 42.5 44t55.5 15q44 -1 62 -31.5t18 -83.5v-17h-56v11q0 46 -8.5 60.5t-25.5 14.5q-12 0 -22.5 -7.5t-19.5 -23.5q-9 -14 -13.5 -28t-6.5 -27zM339 82h-2q-16 -46 -55.5 -73.5t-97.5 -27.5 q-76 0 -116 50t-40 137q0 64 20.5 124t61.5 102q36 37 89 59.5t113 24.5l-13 -62q-34 -3 -64 -19.5t-54 -46.5q-28 -35 -43.5 -86.5t-15.5 -107.5q0 -55 22.5 -84.5t58.5 -29.5q40 0 65.5 31t47.5 137l14 68h88l-14 -68q-8 -35 -10 -53.5t-2 -33.5q0 -41 19.5 -61t49.5 -20 q65 0 106.5 66t41.5 157q0 39 -10 68.5t-30 49.5q-15 14 -37.5 23t-46.5 10l13 62q36 -2 73 -13.5t62 -29.5q31 -25 50.5 -64.5t19.5 -91.5q0 -118 -67 -208t-179 -90q-54 0 -86 27.5t-32 73.5z"/>
<glyph glyph-name="uni047E" horiz-adv-x="936" unicode="Ѿ" d="M425 840l12 60h316l-12 -60h-118l-17 -80h-80l17 80h-118zM449 120h-2q-9 -26 -24 -49.5t-35 -41.5q-27 -25 -61.5 -37t-79.5 -12q-91 0 -146 63t-55 185q0 98 29.5 192.5t89.5 168.5q50 62 115.5 95t148.5 37l-17 -79q-48 -4 -91 -28t-77 -69q-48 -62 -72.5 -146 t-24.5 -169q0 -84 33 -128t91 -44q25 0 46 9t40 31q22 25 38 68t35 131l20 93h94l-20 -93q-7 -32 -11 -69t-4 -62q0 -53 26.5 -80.5t74.5 -27.5q52 0 94.5 35t71.5 96q23 50 35.5 112.5t12.5 124.5q0 92 -41 153.5t-115 62.5l17 79q114 -2 176.5 -78t63.5 -198 q0 -73 -16.5 -150t-44.5 -134q-45 -93 -110 -137t-140 -44q-82 0 -123 38.5t-42 101.5z"/>
<glyph glyph-name="uni047F" horiz-adv-x="740" unicode="ѿ" d="M285 640l13 60h316l-13 -60h-123l-15 -72h-70l15 72h-123zM341 82h-2q-16 -46 -55.5 -73.5t-97.5 -27.5q-73 0 -115 47.5t-41 139.5v6q0 70 21.5 135.5t63.5 113.5q37 42 90 67t119 28l-13 -62q-37 -3 -68 -22.5t-55 -53.5q-31 -42 -47.5 -98t-16.5 -119v-7 q-1 -55 21.5 -84.5t59.5 -29.5q40 0 65.5 31t47.5 137l14 68h88l-14 -68q-8 -35 -10 -53.5t-2 -33.5q0 -38 18 -59.5t51 -21.5q65 0 106.5 71.5t41.5 171.5q0 75 -30 122t-84 49l13 62q93 -3 143.5 -62.5t51.5 -156.5q0 -127 -67 -222.5t-179 -95.5q-53 0 -85.5 27.5 t-32.5 73.5z"/>
<glyph glyph-name="uni0480" horiz-adv-x="714" unicode="Ҁ" d="M715 484h-95q1 6 1.5 12.5t0.5 16.5q0 57 -41.5 93t-124.5 36q-132 0 -216.5 -107.5t-84.5 -270.5q0 -95 53 -150.5t144 -55.5q85 0 143.5 37t82.5 100h94l-75 -352h-94l44 202h-2q-38 -35 -88 -50t-116 -15q-147 0 -217 76.5t-70 206.5q0 183 107.5 320.5t291.5 137.5 q121 0 193 -48t72 -146q0 -13 -1 -23.5t-2 -19.5z"/>
<glyph glyph-name="uni0481" horiz-adv-x="540" unicode="ҁ" d="M527 349h-84q1 6 1 12q0 41 -26 72.5t-82 32.5q-42 0 -72.5 -15t-57.5 -44q-39 -43 -58 -101t-19 -123q0 -71 31.5 -106t87.5 -35h3q59 0 101.5 39t59.5 100h84l-72 -338h-88l41 192h-2q-26 -30 -62 -42.5t-84 -12.5q-95 0 -144.5 56t-49.5 152q0 79 29.5 153.5 t84.5 122.5q37 32 82 48t103 16q89 -1 141.5 -39.5t52.5 -113.5q0 -10 -0.5 -16t-0.5 -10z"/>
<glyph glyph-name="uni0482" horiz-adv-x="402" unicode="҂" d="M304 288l48 -41l-86 -103l74 -63l-34 -41l-74 64l-49 -60l74 -62l-35 -41l-74 63l-90 -105l-48 41l89 105l-73 63l35 41l73 -64l49 60l-73 63l35 41l73 -64z"/>
<glyph glyph-name="uni0483" horiz-adv-x="2" unicode="҃" d="M-519 580l26 120h330l13 60h70l-26 -120h-330l-13 -60h-70z"/>
<glyph glyph-name="uni0484" horiz-adv-x="2" unicode="҄" d="M-339 562h-74q11 7 20.5 15.5t17.5 18.5q13 14 20.5 29.5t7.5 30.5q0 5 -1.5 11.5t-10.5 23.5q-7 14 -10 25t-4 23q0 19 8 36.5t21 34.5q7 7 16 15t17 15h74q-9 -8 -19 -16t-19 -17q-14 -16 -21 -30.5t-7 -28.5q0 -8 2.5 -15.5t9.5 -21.5q10 -20 12 -28.5t2 -17.5 q0 -23 -6.5 -39.5t-22.5 -33.5q-7 -9 -15.5 -16.5t-17.5 -13.5z"/>
<glyph glyph-name="uni0485" horiz-adv-x="2" unicode="҅" d="M-313 655l-6 45q20 6 40 10t36 4q34 0 54 -15.5t20 -43.5t-21.5 -52t-60.5 -35h-60l1 4q28 9 47.5 28.5t19.5 37.5q1 12 -7.5 19t-23.5 7q-8 0 -17.5 -2.5t-21.5 -6.5z"/>
<glyph glyph-name="uni0486" horiz-adv-x="2" unicode="҆" d="M-146 700l-26 -45q-7 4 -16 6.5t-19 2.5q-20 0 -31.5 -12t-12.5 -28q0 -17 12 -31t30 -21l-1 -4h-56q-26 11 -39.5 29t-13.5 40q0 35 29 55.5t73 21.5q19 -1 37 -4.5t34 -9.5z"/>
<glyph glyph-name="uni048E" horiz-adv-x="638" unicode="Ҏ" d="M450 700q61 0 92 -7.5t48 -16.5q42 -23 57.5 -57.5t15.5 -72.5t-9.5 -79t-26.5 -71q-5 -8 -14 -20.5t-22.5 -26t-33 -27.5t-44.5 -24l75 -109l-64 -42l-92 135q-20 -3 -46 -3h-202l-59 -279h-94l149 700h270zM201 358h179l-55 80l64 42l75 -109q34 12 52.5 32t26.5 36 q9 18 15.5 45.5t6.5 45.5q0 33 -15.5 52t-43.5 29q-10 3 -22 5t-23.5 3t-22 1.5t-16.5 0.5h-165z"/>
<glyph glyph-name="uni048F" horiz-adv-x="601" unicode="ҏ" d="M210 508l-16 -69h2q11 11 27.5 27t34.5 27q29 19 61.5 27t69.5 8q30 0 64.5 -9t64.5 -40q32 -34 40 -73t8 -74q0 -52 -8.5 -94t-23.5 -76t-34 -61t-40 -48l60 -86l-63 -41l-55 82q-23 -13 -50 -20.5t-69 -7.5q-26 0 -57 6t-60 28q-20 15 -30 31.5t-15 27.5l-54 -258h-89 l146 693h86zM154 252q-3 -17 -5.5 -33.5t-2.5 -33.5q0 -20 5 -49t25 -53q12 -14 34 -27.5t57 -13.5q37 0 59.5 9.5t33.5 17.5l-72 104l64 39l60 -89q10 15 20.5 35t19.5 46t14.5 58t5.5 70q0 23 -4.5 49.5t-21.5 47.5q-12 15 -36 26t-63 11q-33 0 -65 -15t-60 -47 q-29 -32 -44.5 -72t-23.5 -80z"/>
<glyph glyph-name="afii10050" horiz-adv-x="538" unicode="Ґ" d="M125 0h-94l149 700h357l33 158h82l-44 -237h-351z"/>
<glyph glyph-name="afii10098" horiz-adv-x="429" unicode="ґ" d="M108 0h-90l107 508h266l29 133h74l-34 -195h-259z"/>
<glyph glyph-name="uni0492" horiz-adv-x="558" unicode="Ғ" d="M447 393l-17 -79h-220l-67 -314h-94l67 314h-100l16 79h100l66 307h447l-18 -79h-352l-49 -228h221z"/>
<glyph glyph-name="uni0493" horiz-adv-x="431" unicode="ғ" d="M166 282h150l-13 -62h-150l-47 -220h-88l47 220h-82l13 62h82l48 226h348l-13 -62h-260z"/>
<glyph glyph-name="uni0494" horiz-adv-x="539" unicode="Ҕ" d="M209 396q12 1 29.5 2t36.5 2t37 2t30 1q20 0 53 -4t64.5 -24t54.5 -63.5t23 -121.5q0 -90 -27 -162t-72 -122t-104 -77t-123 -27q-25 0 -51.5 4t-45.5 9l17 79q19 -5 42.5 -9t45.5 -4q58 0 100 28.5t69 71.5t39.5 94.5t12.5 98.5q0 53 -11 83t-29.5 45t-42.5 18.5 t-49 3.5q-13 0 -29 -1l-32 -2t-30.5 -2t-24.5 -2l-67 -317h-94l149 700h446l-17 -79h-352z"/>
<glyph glyph-name="uni0495" horiz-adv-x="431" unicode="ҕ" d="M171 306h40q21 0 52.5 -2.5t61 -16.5t51 -45.5t21.5 -89.5q0 -14 -2.5 -44.5t-12.5 -67.5t-29 -76.5t-51.5 -72t-81.5 -54t-118 -22.5l14 65h22q29 0 58.5 18t53 52t38.5 83.5t15 112.5q0 38 -13 58t-30 29t-34.5 10t-27.5 1h-40l-51 -244h-89l107 508h349l-14 -62h-259z "/>
<glyph glyph-name="uni0496" horiz-adv-x="903" unicode="Җ" d="M428 353l-354 -353h-132l397 382l-235 318h113l219 -310l66 310h94l-66 -310l335 310h128l-372 -331l187 -290h89l-57 -237h-82l33 158h-48l-221 353l-75 -353h-94z"/>
<glyph glyph-name="uni0497" horiz-adv-x="699" unicode="җ" d="M308 251l-244 -251h-115l279 268l-164 240h104l145 -230l47 230h89l-50 -230l229 230h111l-260 -244l132 -202h53l-48 -194h-74l28 132h-28l-149 251l-51 -251h-89z"/>
<glyph glyph-name="uni0498" horiz-adv-x="675" unicode="Ҙ" d="M133 215q-1 -6 -1.5 -12t-0.5 -12q0 -44 17 -70t43.5 -40t57 -18.5t57.5 -4.5q51 0 89 14.5t63.5 38t38.5 53.5t13 62q0 30 -10.5 49.5t-29 31t-44 16.5t-54.5 5h-92l17 79h83q48 0 80 12.5t51.5 31.5t27.5 41t8 42t-5.5 39.5t-21 34.5t-42.5 24.5t-70 9.5 q-87 0 -137.5 -39.5t-62.5 -96.5h-100q10 39 31 77.5t57.5 69t90.5 49.5t130 19q31 0 70.5 -5t74.5 -22.5t59 -52t24 -92.5q0 -39 -13.5 -69t-33.5 -52t-45 -36t-47 -21l-1 -3q36 -11 57 -27.5t31 -35.5t12.5 -39t2.5 -38q0 -62 -24.5 -107t-63.5 -75t-87.5 -46t-97.5 -19 l-36 -170h-90l36 169q-104 7 -157 53t-53 145q0 9 0.5 18.5t1.5 18.5h96z"/>
<glyph glyph-name="uni0499" horiz-adv-x="520" unicode="ҙ" d="M95 156q-2 -5 -2 -11v-11q0 -39 29 -65.5t86 -26.5q31 0 59 8t49 23t33 37t12 49t-12.5 42t-29 22t-32.5 8.5t-23 1.5h-74l13 62h65q15 0 35 2.5t39 11.5t32 26.5t13 47.5q0 31 -13 48t-29.5 24.5t-31.5 9t-19 1.5q-21 0 -44 -5.5t-43.5 -17.5t-35 -30.5t-18.5 -44.5h-84 q7 30 23 59t44 51.5t67.5 36t92.5 13.5q36 0 69 -6t59 -20t41.5 -37t15.5 -57q0 -53 -25 -87.5t-74 -55.5v-3q31 -4 52 -30t21 -63q0 -31 -12.5 -63.5t-37.5 -59.5t-62 -45t-86 -19l-37 -167h-87l37 166q-55 3 -87 21t-48.5 41t-21 45.5t-4.5 34.5v16q0 9 2 17h84z"/>
<glyph glyph-name="uni049A" horiz-adv-x="666" unicode="Қ" d="M570 700h128l-393 -331l206 -290h96l-59 -237h-82l34 158h-46l-251 365l-78 -365h-94l149 700h94l-68 -319z"/>
<glyph glyph-name="uni049B" horiz-adv-x="517" unicode="қ" d="M415 508h112l-279 -243l146 -203h61l-50 -194h-74l29 132h-26l-174 254l-53 -254h-89l107 508h89l-49 -229z"/>
<glyph glyph-name="uni049C" horiz-adv-x="636" unicode="Ҝ" d="M274 700l-61 -288h71l29 140h80l-29 -140l253 288h100l-291 -333l167 -367h-103l-142 333l-34 -160h-80l34 160h-72l-71 -333h-94l149 700h94z"/>
<glyph glyph-name="uni049D" horiz-adv-x="544" unicode="ҝ" d="M218 292l25 120h62l-24 -120l203 216h100l-240 -249l154 -259h-100l-131 230l-29 -140h-62l29 140h-50l-48 -230h-89l107 508h89l-46 -216h50z"/>
<glyph glyph-name="uni049E" horiz-adv-x="626" unicode="Ҟ" d="M579 700h128l-393 -331l263 -369h-114l-251 365l-78 -365h-94l123 578h-94l13 62h94l13 60h94l-13 -60h117l-13 -62h-117l-42 -197z"/>
<glyph glyph-name="uni049F" horiz-adv-x="494" unicode="ҟ" d="M422 508h112l-279 -243l191 -265h-105l-174 254l-53 -254h-89l121 576h-79l12 62h80l13 62h89l-13 -62h210l-12 -62h-211l-63 -297z"/>
<glyph glyph-name="uni04A0" horiz-adv-x="691" unicode="Ҡ" d="M639 700h128l-393 -331l263 -369h-114l-251 365l-78 -365h-94l137 642h-208l13 58h301l-68 -319z"/>
<glyph glyph-name="uni04A1" horiz-adv-x="517" unicode="ҡ" d="M445 508h112l-279 -243l191 -265h-105l-174 254l-53 -254h-89l95 450h-125l12 58h214l-49 -229z"/>
<glyph glyph-name="uni04A2" horiz-adv-x="737" unicode="Ң" d="M125 0h-94l149 700h94l-62 -292h351l62 292h94l-132 -621h98l-59 -237h-82l34 158h-102l70 329h-351z"/>
<glyph glyph-name="uni04A3" horiz-adv-x="596" unicode="ң" d="M107 0h-89l107 508h89l-44 -209h252l44 209h89l-95 -446h90l-50 -194h-74l29 132h-97l50 237h-251z"/>
<glyph glyph-name="uni04A4" horiz-adv-x="984" unicode="Ҥ" d="M125 0h-94l149 700h94l-62 -292h351l62 292h446l-17 -79h-352l-132 -621h-94l70 329h-351z"/>
<glyph glyph-name="uni04A5" horiz-adv-x="772" unicode="ҥ" d="M466 508h349l-14 -62h-259l-94 -446h-89l50 237h-252l-50 -237h-89l107 508h89l-44 -209h252z"/>
<glyph glyph-name="uni04A6" horiz-adv-x="1026" unicode="Ҧ" d="M125 0h-94l149 700h542l-65 -304q12 1 29.5 2t36.5 2t37 2t30 1q18 0 38 -1.5t39.5 -7t38.5 -16.5t36 -29q15 -17 24 -36.5t13 -38t5 -35t1 -27.5q0 -79 -24.5 -153.5t-60.5 -128.5q-29 -42 -61.5 -67t-65 -38.5t-62.5 -18t-52 -4.5q-25 0 -51.5 4t-45.5 9l17 79 q19 -5 42.5 -9t45.5 -4q43 0 74 14.5t52.5 35.5t35.5 45t23 44q21 49 28.5 94t7.5 81q0 23 -4.5 50t-21.5 46q-11 12 -24 18.5t-27.5 10t-28 4t-23.5 0.5q-14 0 -30.5 -1l-33 -2t-31.5 -2t-24 -2l-67 -317h-94l132 621h-354z"/>
<glyph glyph-name="uni04A7" horiz-adv-x="772" unicode="ҧ" d="M107 0h-89l107 508h434l-43 -202h40q17 0 37 -1t39.5 -5t38.5 -12.5t34 -24.5q13 -13 25 -38t12 -67q0 -36 -8.5 -78t-24.5 -82.5t-39.5 -76t-53.5 -58.5q-38 -29 -80 -38.5t-89 -9.5l14 65h22q26 0 52 14t46 37q14 16 26 42.5t21 57t14.5 61.5t5.5 57q0 16 -4 34.5 t-18 33.5q-17 19 -40 23t-43 4h-40l-51 -244h-89l94 446h-256z"/>
<glyph glyph-name="uni04A8" horiz-adv-x="884" unicode="Ҩ" d="M507 640q-9 1 -18 1.5t-18 0.5q-63 0 -111.5 -18t-90.5 -55q-19 -17 -38.5 -41.5t-35.5 -56.5t-26 -72t-10 -89q0 -60 15 -106.5t41 -76.5q35 -41 78.5 -55t86.5 -14q15 0 30.5 1t30.5 4q-15 20 -28.5 43t-27.5 55q-17 40 -25 78t-8 83q0 84 26.5 142t61.5 95 q50 53 108 72.5t115 19.5q16 0 35.5 -2t40.5 -8t41.5 -18t38.5 -32q24 -26 37.5 -65.5t13.5 -94.5q0 -69 -18.5 -124.5t-43.5 -97.5q-38 -62 -93.5 -109t-124.5 -73q11 -11 21.5 -18t24.5 -14q17 -8 31 -12t35 -4q29 0 53.5 7.5t47.5 23.5l-18 -84q-19 -11 -41 -18.5 t-51 -7.5q-38 0 -72.5 10t-61.5 27q-24 15 -42.5 32.5t-23.5 23.5q-26 -7 -53.5 -10.5t-63.5 -3.5q-23 0 -52 2.5t-59.5 10.5t-62 23.5t-58.5 42.5q-15 14 -30 35.5t-27.5 51t-20.5 67.5t-8 86q0 100 38.5 186t108.5 145q35 29 71.5 47t72.5 28t69 13.5t62 3.5q11 0 22 -0.5 t22 -1.5zM540 85q71 25 117.5 71t70.5 94q21 42 31 86.5t10 86.5q0 19 -4.5 48t-21.5 55q-18 26 -43 36t-58 10q-35 0 -66 -12.5t-59 -45.5q-17 -19 -29 -43.5t-19.5 -51t-11.5 -54t-4 -51.5q0 -36 8.5 -70t23.5 -69q11 -26 23.5 -47t31.5 -43z"/>
<glyph glyph-name="uni04A9" horiz-adv-x="666" unicode="ҩ" d="M354 463q-15 3 -29 3q-11 0 -25.5 -2t-30.5 -8t-33.5 -17t-33.5 -29t-29 -42t-22 -51t-13.5 -55.5t-4.5 -55.5q0 -41 11.5 -70t28.5 -49q15 -17 39.5 -30.5t62.5 -13.5q7 0 13 0.5t13 1.5q-28 42 -38.5 81.5t-10.5 77.5q0 62 20.5 116.5t58.5 93.5q30 31 67.5 47.5 t85.5 16.5q26 0 55.5 -8.5t53.5 -35.5q17 -20 27.5 -50t10.5 -72q0 -38 -10.5 -79.5t-33.5 -80.5q-34 -60 -80 -92.5t-89 -47.5q11 -12 22 -19t19 -11q13 -6 25.5 -8t25.5 -2q21 0 45 7t47 21l-15 -70q-46 -20 -92 -20q-31 0 -58 7.5t-47 21.5q-10 6 -19 14t-16.5 15.5 t-12.5 13t-6 6.5q-19 -4 -38 -5.5t-38 -1.5q-18 0 -39.5 2t-43 9t-43 19.5t-40.5 33.5q-25 28 -40 70t-15 95q0 34 7.5 69t22 68.5t35 63.5t47.5 53q24 21 48.5 33.5t47.5 19.5t44 9t39 2q10 0 19 -0.5t19 -1.5zM382 63q49 19 79.5 52t46.5 66q12 25 20.5 57t8.5 67 t-6.5 54.5t-10.5 25.5q-18 31 -55 31q-20 0 -39 -8.5t-35 -25.5q-24 -25 -39.5 -68.5t-15.5 -96.5q0 -29 8.5 -69.5t37.5 -84.5z"/>
<glyph glyph-name="uni04AA" horiz-adv-x="715" unicode="Ҫ" d="M673 232q-11 -38 -33 -82t-58.5 -82.5t-88.5 -63t-121 -24.5h-6l-37 -169h-90l38 176q-42 2 -81.5 19.5t-71 50.5t-50.5 81.5t-19 112.5q0 53 10.5 108.5t31.5 108t54 98.5t77 80.5t100.5 54.5t125.5 20q16 0 42.5 -1.5t55.5 -8t59 -18.5t54 -33.5t39 -54t15 -78.5 q0 -22 -3 -43h-95q2 8 2 14v15q0 18 -6.5 40.5t-25 42t-52 33t-88.5 13.5q-58 0 -102.5 -19.5t-77.5 -51.5t-55 -72.5t-35.5 -82t-19 -80.5t-5.5 -68q0 -39 10.5 -76.5t34 -67.5t61 -48t91.5 -18q50 0 87.5 16t64.5 41t44 56t26 61h98z"/>
<glyph glyph-name="uni04AB" horiz-adv-x="551" unicode="ҫ" d="M498 181q-10 -41 -30 -75.5t-47.5 -61t-61 -43t-69.5 -20.5l-37 -166h-89l37 166q-24 2 -52.5 12t-53.5 32.5t-42 61.5t-17 99q0 66 19 127.5t56.5 109t93 76.5t127.5 29q55 0 92.5 -12.5t60.5 -34t33 -49t10 -57.5v-26h-84q0 42 -12.5 66t-29.5 35t-36.5 13.5t-32.5 2.5 q-38 0 -68 -14.5t-52.5 -38t-38.5 -53.5t-25.5 -62t-14 -62.5t-4.5 -54.5q0 -51 16.5 -79.5t38.5 -41.5t42.5 -15.5t29.5 -2.5q42 0 70.5 17t46.5 40t27.5 46t12.5 36h84z"/>
<glyph glyph-name="uni04AC" horiz-adv-x="569" unicode="Ҭ" d="M91 621l17 79h548l-17 -79h-227l-115 -542h98l-59 -237h-82l34 158h-102l132 621h-227z"/>
<glyph glyph-name="uni04AD" horiz-adv-x="462" unicode="ҭ" d="M54 446l14 62h437l-14 -62h-174l-81 -384h90l-50 -194h-74l29 132h-97l94 446h-174z"/>
<glyph glyph-name="uni04AE" horiz-adv-x="590" unicode="Ү" d="M583 700h111l-336 -408l-61 -292h-94l61 292l-172 408h105l129 -320z"/>
<glyph glyph-name="uni04AF" horiz-adv-x="480" unicode="ү" d="M124 -185l42 195l-115 498h92l82 -394l216 394h100l-287 -498l-42 -195h-88z"/>
<glyph glyph-name="uni04B0" horiz-adv-x="590" unicode="Ұ" d="M583 700h111l-336 -408l-13 -63h151l-17 -79h-151l-31 -150h-94l31 150h-149l17 79h149l13 63l-172 408h105l129 -320z"/>
<glyph glyph-name="uni04B1" horiz-adv-x="480" unicode="ұ" d="M124 -185l26 123h-119l13 62h120l2 10l-115 498h92l82 -394l216 394h100l-287 -498l-2 -10h120l-13 -62h-121l-26 -123h-88z"/>
<glyph glyph-name="uni04B2" horiz-adv-x="593" unicode="Ҳ" d="M61 0h-115l314 370l-164 330h112l130 -275l226 275h114l-296 -350l138 -271h83l-57 -237h-82l33 158h-50l-140 295z"/>
<glyph glyph-name="uni04B3" horiz-adv-x="482" unicode="ҳ" d="M413 508h111l-228 -250l102 -196h70l-50 -194h-74l29 132h-42l-99 209l-174 -209h-112l246 272l-124 236h97l91 -191z"/>
<glyph glyph-name="uni04B4" horiz-adv-x="896" unicode="Ҵ" d="M652 79l132 621h94l-132 -621h98l-59 -237h-82l34 158h-551l132 621h-227l17 79h531l-17 -79h-210l-115 -542h355z"/>
<glyph glyph-name="uni04B5" horiz-adv-x="714" unicode="ҵ" d="M490 62l94 446h89l-94 -446h90l-50 -194h-74l29 132h-440l94 446h-174l14 62h423l-14 -62h-160l-81 -384h254z"/>
<glyph glyph-name="uni04B6" horiz-adv-x="634" unicode="Ҷ" d="M246 700l-43 -205q-3 -13 -5 -25t-2 -25q0 -24 10 -37.5t29.5 -20.5t47 -9t62.5 -2q15 0 33.5 1t38 2t37 2t29.5 2l67 317h94l-132 -621h98l-57 -237h-82l33 158h-103l65 304q-13 -1 -32 -2t-39 -2t-39 -2t-32 -1q-65 0 -108 7.5t-68.5 23.5t-36.5 40.5t-11 58.5 q0 17 2.5 34t6.5 34l43 205h94z"/>
<glyph glyph-name="uni04B7" horiz-adv-x="508" unicode="ҷ" d="M187 508l-35 -156q-2 -8 -3 -16t-1 -16q0 -16 5 -26t16 -15.5t30 -7.5t47 -2q9 0 18.5 0.5t21 1t27 1t37.5 0.5l50 236h89l-94 -446h87l-48 -194h-74l28 132h-95l44 211q-27 0 -39.5 -0.5t-21.5 -1t-20 -1t-34 -0.5q-47 0 -78 5.5t-50.5 17t-27.5 29.5t-8 42q0 20 4 36 l36 170h89z"/>
<glyph glyph-name="uni04B8" horiz-adv-x="634" unicode="Ҹ" d="M246 700l-43 -205q-3 -13 -5 -25t-2 -25q0 -31 20 -50t77 -19l29 140h80l-29 -139q52 2 110 6l67 317h94l-149 -700h-94l65 304q-26 -2 -53 -3t-56 -3l-34 -161h-80l33 160q-57 0 -91.5 11.5t-53.5 30t-25 41.5t-6 47q0 17 2.5 34t6.5 34l43 205h94z"/>
<glyph glyph-name="uni04B9" horiz-adv-x="508" unicode="ҹ" d="M187 508l-35 -156q-2 -8 -3 -16t-1 -16q0 -30 18 -39.5t64 -11.5l21 100h52l-21 -100q17 1 34 1.5t34 0.5l50 237h89l-107 -508h-89l44 210q-17 0 -34 -0.5t-33 -1.5l-26 -121h-52l25 121q-13 -1 -27 -1t-34.5 1.5t-43.5 11t-38.5 29t-15.5 53.5q0 20 4 36l36 170h89z "/>
<glyph glyph-name="uni04BA" horiz-adv-x="634" unicode="Һ" d="M429 0l47 225q3 13 5 25t2 25q0 24 -10 37.5t-29.5 20.5t-47 9t-62.5 2q-15 0 -33.5 -1t-38 -2t-37 -2t-29.5 -2l-71 -337h-94l149 700h94l-61 -284q13 1 32 2t39 2t38.5 2t32.5 1q64 0 107.5 -7.5t69 -23.5t36.5 -40.5t11 -58.5q0 -17 -2.5 -34t-6.5 -34l-47 -225h-94z "/>
<glyph glyph-name="uni04BB" horiz-adv-x="577" unicode="һ" d="M255 700l-53 -248q42 39 85.5 57.5t100.5 18.5q63 0 101 -33.5t38 -94.5q0 -14 -2.5 -31.5t-5.5 -30.5l-71 -338h-89l66 311q1 7 3.5 18t4 22l3 22t1.5 18q0 28 -11 43.5t-25.5 22.5t-29 8t-22.5 1q-55 0 -89 -23t-54 -54t-28.5 -63t-12.5 -49l-58 -277h-89l147 700h90z "/>
<glyph glyph-name="uni04BC" horiz-adv-x="905" unicode="Ҽ" d="M304 338q-5 -25 -6.5 -46.5t-1.5 -33.5q0 -21 3.5 -48t17 -58t39.5 -53q31 -26 68.5 -33.5t67.5 -7.5q35 0 68.5 6t66.5 22q15 7 31.5 17.5t32.5 25t29.5 33.5t21.5 42h98q-20 -62 -61.5 -107.5t-93.5 -72.5q-53 -28 -103.5 -36.5t-94.5 -8.5q-23 0 -50 2t-55.5 9t-57 21 t-53.5 38q-20 19 -37 45.5t-27.5 62t-11.5 61.5t-1 34q0 39 8 86h-27q-22 0 -50 4.5t-51 24.5q-21 18 -27 40.5t-6 40.5q0 41 14 72t37 51q20 17 49.5 27t60.5 12l-18 -83q-13 -1 -22 -6t-15 -10q-11 -11 -14.5 -23.5t-3.5 -22.5t2 -17.5t10 -15.5q9 -10 18.5 -12.5 t20.5 -2.5h39q20 73 58 133t88 98q59 45 120 59t121 14q22 0 48 -2t53 -9t54 -20.5t51 -36.5q28 -27 45.5 -63t24 -73t6.5 -72q0 -9 -1 -36t-12 -71h-571zM785 417q3 22 3 41q0 33 -10 67.5t-36 63.5q-32 35 -70 44t-73 9q-34 0 -73 -7.5t-81 -35.5q-39 -27 -72 -73.5 t-48 -108.5h460z"/>
<glyph glyph-name="uni04BD" horiz-adv-x="719" unicode="ҽ" d="M645 147q-14 -43 -34.5 -68.5t-31.5 -36.5q-22 -20 -44 -32.5t-44.5 -19t-44.5 -8.5t-44 -2q-16 0 -35.5 1t-40.5 5.5t-42 13t-39 22.5q-36 29 -53.5 74t-17.5 102q0 17 1 36h-41q-18 0 -41 4t-43 21q-14 11 -24 29.5t-10 47.5q0 26 11.5 53.5t44.5 50.5q20 14 45.5 22 t54.5 8l-13 -62q-11 -1 -22 -4t-20 -10q-10 -7 -17 -20t-7 -33q0 -8 2.5 -16.5t10.5 -16.5q12 -12 36 -12h43q13 57 41.5 101t63.5 71q48 37 99.5 48.5t95.5 11.5q18 0 39 -2t41.5 -7.5t40 -15.5t35.5 -26q29 -29 37 -64.5t8 -64.5q0 -58 -17 -114h-397q-3 -15 -3.5 -28.5 t-0.5 -20.5q0 -12 1 -28t7.5 -35t18.5 -35q22 -29 50.5 -37t55.5 -8q26 0 59 7.5t62 38.5q17 17 24 33t9 26h90zM586 296q8 26 8 55q0 23 -5 44.5t-22 39.5q-19 20 -41.5 25.5t-44.5 5.5q-31 0 -63 -8.5t-62 -35.5q-17 -15 -28.5 -32t-20 -34t-13 -32.5t-7.5 -27.5h299z"/>
<glyph glyph-name="uni04BE" horiz-adv-x="905" unicode="Ҿ" d="M304 338q-5 -25 -6.5 -46.5t-1.5 -33.5q0 -21 3.5 -48t17 -58t39.5 -53q31 -26 68.5 -33.5t67.5 -7.5q35 0 68.5 6t66.5 22q15 7 31.5 17.5t32.5 25t29.5 33.5t21.5 42h98q-20 -62 -61.5 -107t-93.5 -73q-39 -21 -72.5 -29.5t-57.5 -10.5q-8 -6 -19.5 -18t-23 -27.5 t-19.5 -33.5t-8 -37q0 -20 9.5 -31.5t29.5 -11.5q26 0 41.5 17t19.5 39h80q-8 -24 -22 -46.5t-34.5 -39.5t-48 -27t-61.5 -10q-51 0 -81.5 25t-30.5 67q0 28 16.5 62t58.5 67q-51 0 -102.5 17.5t-88.5 52.5q-15 14 -31.5 37t-28.5 58t-14.5 65.5t-2.5 44.5q0 38 8 84h-27 q-22 0 -50 4.5t-51 24.5q-21 18 -27 40.5t-6 40.5q0 41 14 72t37 51q20 17 49.5 27t60.5 12l-18 -83q-13 -1 -22 -6t-15 -10q-11 -11 -14.5 -23.5t-3.5 -22.5t2 -17.5t10 -15.5q9 -10 18.5 -12.5t20.5 -2.5h39q20 73 58 133t88 98q59 45 120 59t121 14q22 0 48 -2t53 -9 t54 -20.5t51 -36.5q28 -27 45.5 -63t24 -73t6.5 -72q0 -9 -1 -36t-12 -71h-571zM785 417q3 22 3 41q0 33 -10 67.5t-36 63.5q-32 35 -70 44t-73 9q-34 0 -73 -7.5t-81 -35.5q-39 -27 -72 -73.5t-48 -108.5h460z"/>
<glyph glyph-name="uni04BF" horiz-adv-x="719" unicode="ҿ" d="M645 147q-5 -14 -19.5 -45t-46.5 -60q-26 -25 -64 -43t-89 -18h-5q-26 -26 -46 -53.5t-20 -59.5q0 -20 9.5 -31.5t29.5 -11.5q26 0 41.5 17t19.5 39h80q-8 -24 -22 -46.5t-34.5 -39.5t-48 -27t-61.5 -10q-51 0 -81.5 25t-30.5 67q0 33 19.5 67.5t61.5 66.5 q-14 2 -41.5 10.5t-51.5 27.5q-14 11 -28 28t-24.5 42.5t-14.5 54t-4 54.5q0 16 1 33h-41q-18 0 -41 4t-43 21q-14 11 -24 29.5t-10 47.5q0 26 11.5 53.5t44.5 50.5q20 14 45.5 22t54.5 8l-13 -62q-11 -1 -22 -4t-20 -10q-10 -7 -17 -20t-7 -33q0 -8 2.5 -16.5t10.5 -16.5 q12 -12 36 -12h43q13 57 41.5 101t63.5 71q48 37 99.5 48.5t95.5 11.5q18 0 39 -2t41.5 -7.5t40 -15.5t35.5 -26q29 -29 37 -64.5t8 -64.5q0 -58 -17 -114h-397q-3 -15 -3.5 -28.5t-0.5 -20.5q0 -12 1 -28t7.5 -35t18.5 -35q22 -29 50.5 -37t55.5 -8q26 0 59 7.5t62 38.5 q17 17 24 33t9 26h90zM586 296q8 26 8 55q0 23 -5 44.5t-22 39.5q-19 20 -41.5 25.5t-44.5 5.5q-31 0 -63 -8.5t-62 -35.5q-17 -15 -28.5 -32t-20 -34t-13 -32.5t-7.5 -27.5h299z"/>
<glyph glyph-name="uni04C0" horiz-adv-x="231" unicode="Ӏ" d="M255 700l-148 -700h-89l148 700h89z"/>
<glyph glyph-name="uni04C1" horiz-adv-x="903" unicode="Ӂ" d="M428 353l-354 -353h-132l397 382l-235 318h113l219 -310l66 310h94l-66 -310l335 310h128l-372 -331l238 -369h-116l-221 353l-75 -353h-94zM480 904q-2 -11 -0.5 -24.5t9.5 -25.5t25 -20.5t46 -8.5q30 0 50.5 8t33.5 20t20.5 26t10.5 25h74q-8 -20 -21.5 -43.5 t-35.5 -43t-53.5 -32.5t-75.5 -13q-48 0 -78.5 12t-48 30t-24.5 39t-7 39q0 8 1 12h74z"/>
<glyph glyph-name="uni04C2" horiz-adv-x="699" unicode="ӂ" d="M308 251l-244 -251h-115l279 268l-164 240h104l145 -230l47 230h89l-50 -230l229 230h111l-260 -244l172 -264h-109l-149 251l-51 -251h-89zM331 700q-2 -11 -0.5 -24.5t9.5 -25.5t25 -20.5t47 -8.5q8 0 23.5 1.5t33 9.5t33.5 23.5t24 44.5h75q-9 -20 -22.5 -43t-35 -43 t-53 -33t-76.5 -13q-22 0 -50 4.5t-52 18.5t-40 40q-15 23 -15 60v9h74z"/>
<glyph glyph-name="uni04C3" horiz-adv-x="637" unicode="Ӄ" d="M570 700h128l-393 -331l219 -307h7q46 0 73.5 -28t27.5 -73q0 -34 -13.5 -64.5t-39.5 -52.5t-61.5 -33t-77.5 -11h-14l13 62h8q13 0 30 2.5t34.5 12t29 26.5t11.5 43q0 20 -7 31t-17 16t-21 6t-18 1h-35l-251 365l-78 -365h-94l149 700h94l-68 -319z"/>
<glyph glyph-name="uni04C4" horiz-adv-x="507" unicode="ӄ" d="M415 508h112l-279 -243l146 -203h7q42 0 66.5 -28t24.5 -73q0 -41 -16 -72t-43 -51.5t-59.5 -29t-64.5 -8.5h-13l13 62h8q13 0 30 2.5t34.5 12t29 26.5t11.5 43q0 20 -7 31t-17 16t-21 6t-18 1h-25l-174 254l-53 -254h-89l107 508h89l-49 -229z"/>
<glyph glyph-name="uni04C7" horiz-adv-x="709" unicode="Ӈ" d="M125 0h-94l149 700h94l-62 -292h351l62 292h94l-136 -638h7q46 0 73.5 -28t27.5 -73q0 -34 -13.5 -64.5t-39.5 -52.5t-62 -33t-77 -11h-14l13 62h8q13 0 30 2.5t34.5 12t29 26.5t11.5 43q0 20 -7 31t-17 16t-21 6t-18 1h-72l70 329h-351z"/>
<glyph glyph-name="uni04C8" horiz-adv-x="574" unicode="ӈ" d="M107 0h-89l107 508h89l-44 -209h252l44 209h89l-94 -446h7q42 0 66.5 -28t24.5 -73q0 -41 -16 -72t-43 -51.5t-59.5 -29t-64.5 -8.5h-13l13 62h8q13 0 30 2.5t34.5 12t29 26.5t11.5 43q0 20 -7 31t-17 16t-21 6t-18 1h-68l50 237h-251z"/>
<glyph glyph-name="uni04CB" horiz-adv-x="634" unicode="Ӌ" d="M246 700l-43 -205q-3 -13 -5 -25t-2 -25q0 -24 10 -37.5t29.5 -20.5t47 -9t62.5 -2q15 0 33.5 1t38 2t37 2t29.5 2l67 317h94l-149 -700h-112l-33 -158h-82l42 237h108l48 225q-13 -1 -32 -2t-39 -2t-39 -2t-32 -1q-65 0 -108 7.5t-68.5 23.5t-36.5 40.5t-11 58.5 q0 17 2.5 34t6.5 34l43 205h94z"/>
<glyph glyph-name="uni04CC" horiz-adv-x="508" unicode="ӌ" d="M187 508l-35 -156q-2 -8 -3 -16t-1 -16q0 -18 7 -29t26 -17q6 -2 19 -3.5t46 -1.5q9 0 18.5 0.5t21 1t27 1t37.5 0.5l50 236h89l-107 -508h-102l-28 -132h-73l32 194h95l31 149q-32 0 -44 -0.5t-19 -1t-16 -1t-36 -0.5q-36 0 -64.5 2.5t-50.5 11.5q-21 9 -35 26.5 t-14 53.5q0 20 4 36l36 170h89z"/>
<glyph glyph-name="uni04CD" horiz-adv-x="870" unicode="Ӎ" d="M239 568h-2l-3 -26l-116 -542h-87l149 700h119l109 -576l342 576h130l-135 -638h7q29 0 46.5 -10t26.5 -18q12 -12 20 -29.5t8 -43.5q0 -56 -27.5 -90.5t-61.5 -50.5q-27 -13 -56 -16.5t-50 -3.5h-11l13 62h9q12 0 27.5 2t31.5 10q15 8 30 24t15 48q0 20 -7 31t-17 16 t-21 6t-18 1h-66l116 542l7 26h-2l-341 -568h-79z"/>
<glyph glyph-name="uni04CE" horiz-adv-x="735" unicode="ӎ" d="M193 408h-2l-4 -27l-80 -381h-89l107 508h123l85 -413l250 413h132l-93 -446h7q26 0 42 -10t24 -18q15 -17 20 -36.5t5 -36.5q0 -32 -9 -56t-21.5 -41t-27.5 -27.5t-27 -16.5q-26 -13 -53 -16.5t-48 -3.5h-10l13 62h9q12 0 27.5 2t31.5 10q15 8 30 24t15 48q0 20 -7 31 t-17 16t-21 6t-18 1h-68l81 381l9 27h-3l-248 -408h-80z"/>
<glyph glyph-name="uni04D0" horiz-adv-x="630" unicode="Ӑ" d="M357 904q-2 -11 -0.5 -24.5t9.5 -25.5t25 -20.5t46 -8.5q30 0 50.5 8t33.5 20t20.5 26t10.5 25h74q-8 -20 -21.5 -43.5t-35.5 -43t-53.5 -32.5t-75.5 -13q-48 0 -78.5 12t-48 30t-24.5 39t-7 39q0 8 1 12h74zM50 0h-98l406 700h102l116 -700h-97l-28 181h-296zM442 260 l-50 345l-195 -345h245z"/>
<glyph glyph-name="uni04D1" horiz-adv-x="561" unicode="ӑ" d="M279 700q-2 -11 -0.5 -24.5t9.5 -25.5t25 -20.5t47 -8.5q8 0 23.5 1.5t33 9.5t33.5 23.5t24 44.5h75q-9 -20 -22.5 -43t-35 -43t-53 -33t-76.5 -13q-22 0 -50 4.5t-52 18.5t-40 40q-15 23 -15 60v9h74zM79 358q7 37 24 68.5t45.5 54t70 35t98.5 12.5q59 0 96 -12.5 t57.5 -30.5t27.5 -39t7 -38q0 -13 -3 -25t-6 -26l-54 -235q-4 -19 -4 -30q0 -14 6 -22q6 -6 13.5 -6.5t14.5 -0.5q3 0 5.5 -0.5t5.5 -0.5l-14 -62q-17 -2 -26 -2.5t-12 -0.5q-25 0 -39 6t-21.5 14.5t-9.5 17.5t-2 15v11q-42 -47 -85 -64t-94 -17q-49 0 -82 9.5t-53 26.5 t-28.5 40.5t-8.5 51.5q0 65 31.5 102t78.5 55.5t102 25t102 10.5q22 2 39 5t28.5 11t17.5 25t6 48q0 27 -11 42t-26.5 22.5t-32 9.5t-26.5 2q-69 0 -107.5 -30.5t-46.5 -77.5h-84zM387 255q-9 -7 -19.5 -10t-26.5 -5t-40.5 -4.5t-62.5 -6.5q-20 -3 -44 -8.5t-45 -17.5 t-35 -32.5t-14 -51.5q0 -29 10.5 -44.5t25 -22.5t28.5 -8.5t20 -1.5q58 0 94.5 23.5t57.5 54t29.5 59t11.5 38.5z"/>
<glyph glyph-name="uni04D2" horiz-adv-x="630" unicode="Ӓ" d="M289 851h94l-17 -79h-94zM505 851h94l-17 -79h-94zM50 0h-98l406 700h102l116 -700h-97l-28 181h-296zM442 260l-50 345l-195 -345h245z"/>
<glyph glyph-name="uni04D3" horiz-adv-x="561" unicode="ӓ" d="M216 700h89l-20 -92h-89zM450 700h89l-20 -92h-89zM79 358q7 37 24 68.5t45.5 54t70 35t98.5 12.5q59 0 96 -12.5t57.5 -30.5t27.5 -39t7 -38q0 -13 -3 -25t-6 -26l-54 -235q-4 -19 -4 -30q0 -14 6 -22q6 -6 13.5 -6.5t14.5 -0.5q3 0 5.5 -0.5t5.5 -0.5l-14 -62 q-17 -2 -26 -2.5t-12 -0.5q-25 0 -39 6t-21.5 14.5t-9.5 17.5t-2 15v11q-42 -47 -85 -64t-94 -17q-49 0 -82 9.5t-53 26.5t-28.5 40.5t-8.5 51.5q0 65 31.5 102t78.5 55.5t102 25t102 10.5q22 2 39 5t28.5 11t17.5 25t6 48q0 27 -11 42t-26.5 22.5t-32 9.5t-26.5 2 q-69 0 -107.5 -30.5t-46.5 -77.5h-84zM387 255q-9 -7 -19.5 -10t-26.5 -5t-40.5 -4.5t-62.5 -6.5q-20 -3 -44 -8.5t-45 -17.5t-35 -32.5t-14 -51.5q0 -29 10.5 -44.5t25 -22.5t28.5 -8.5t20 -1.5q58 0 94.5 23.5t57.5 54t29.5 59t11.5 38.5z"/>
<glyph glyph-name="uni04D4" horiz-adv-x="992" unicode="Ӕ" d="M961 401l-17 -79h-366l-51 -243h415l-17 -79h-510l39 181h-264l-138 -181h-116l540 700h587l-17 -79h-404l-47 -220h366zM548 621h-28l-271 -361h222z"/>
<glyph glyph-name="uni04D5" horiz-adv-x="909" unicode="ӕ" d="M839 147q-24 -60 -59 -93.5t-70.5 -50t-66 -20t-46.5 -3.5q-26 0 -54.5 3t-55.5 14t-50 32.5t-39 59.5q-27 -39 -57 -61t-59 -32.5t-53.5 -13t-39.5 -2.5q-59 0 -94.5 11t-55 28.5t-25.5 39.5t-6 43q0 26 5.5 56.5t31 58t77.5 48.5t145 29q40 3 67.5 5t45 10.5t25 26.5 t7.5 54q0 27 -11 42t-26.5 22.5t-32 9.5t-26.5 2q-67 0 -105.5 -29.5t-48.5 -78.5h-84q13 57 40.5 90.5t60.5 51t68.5 23t65.5 5.5q28 0 56 -4.5t51 -14.5t39.5 -26.5t22.5 -39.5q20 25 43 41.5t48 26t50 13.5t49 4q49 0 83 -10.5t56 -26.5t35 -36.5t19 -39.5t7.5 -35.5 t1.5 -25.5q0 -65 -12 -120h-393q-2 -8 -3 -15.5t-1 -15.5q0 -11 0.5 -37t11.5 -54t37 -49t76 -21q27 0 53 7.5t48.5 21t39 33t24.5 43.5h84zM388 260q-17 -10 -30.5 -13.5t-32 -5.5t-45.5 -4.5t-72 -11.5q-6 -1 -24 -6.5t-36.5 -18t-33 -35t-14.5 -56.5q0 -32 23.5 -49.5 t59.5 -17.5q38 0 67.5 11t50.5 28.5t35 38.5t23 40.5t13 35t6 21.5zM783 296q3 26 4 38t1 17q0 20 -5 40.5t-17.5 37t-34 27t-55.5 10.5q-48 0 -82.5 -17.5t-57 -43t-35 -55t-18.5 -54.5h300z"/>
<glyph glyph-name="uni04D6" horiz-adv-x="608" unicode="Ӗ" d="M346 904q-2 -11 -0.5 -24.5t9.5 -25.5t25 -20.5t46 -8.5q30 0 50.5 8t33.5 20t20.5 26t10.5 25h74q-8 -20 -21.5 -43.5t-35.5 -43t-53.5 -32.5t-75.5 -13q-48 0 -78.5 12t-48 30t-24.5 39t-7 39q0 8 1 12h74zM577 401l-17 -79h-366l-52 -243h416l-16 -79h-511l149 700 h499l-17 -79h-405l-47 -220h367z"/>
<glyph glyph-name="uni04D7" horiz-adv-x="582" unicode="ӗ" d="M290 700q-2 -11 -0.5 -24.5t9.5 -25.5t25 -20.5t47 -8.5q8 0 23.5 1.5t33 9.5t33.5 23.5t24 44.5h75q-9 -20 -22.5 -43t-35 -43t-53 -33t-76.5 -13q-22 0 -50 4.5t-52 18.5t-40 40q-15 23 -15 60v9h74zM506 147q-20 -60 -54 -93.5t-69.5 -50t-65.5 -20t-41 -3.5 q-77 0 -124 19.5t-73 49t-35 65t-9 67.5q0 62 17 124t55.5 111.5t99.5 80.5t149 31q65 0 103 -19.5t57.5 -47.5t25 -59.5t5.5 -55.5t-3.5 -52t-13.5 -60h-397q-2 -8 -3 -16.5t-1 -16.5q0 -16 2 -43t14 -52.5t38.5 -44.5t74.5 -19q27 0 52.5 6.5t47 20t37 33t21.5 45.5h90z M447 296q5 15 6.5 27.5t1.5 22.5q0 43 -14.5 67.5t-33 36t-37 14t-27.5 2.5q-50 0 -84.5 -17.5t-57 -43.5t-35 -55.5t-18.5 -53.5h299z"/>
<glyph glyph-name="uni04D8" horiz-adv-x="761" unicode="Ә" d="M635 362q6 25 8 49.5t2 50.5q0 25 -5.5 56t-24.5 58.5t-56 46.5t-100 19q-41 0 -79.5 -9.5t-71 -28t-57 -46t-36.5 -62.5h-98q15 47 44.5 88t73.5 71.5t101 48t128 17.5q94 0 150 -25.5t85 -64.5t38 -84.5t9 -84.5q0 -50 -7.5 -105t-26 -108.5t-49 -102.5t-76.5 -86 t-108 -59t-144 -22q-64 0 -116 16.5t-89 51t-57 88t-20 126.5q0 26 3.5 50.5t9.5 50.5h569zM156 283q-1 -8 -1.5 -15.5t-0.5 -15.5q0 -21 4.5 -53.5t23 -64t55.5 -54t101 -22.5q67 0 115 21.5t80.5 54.5t52 72.5t29.5 76.5h-459z"/>
<glyph glyph-name="afii10846" horiz-adv-x="582" unicode="ә" d="M76 361q6 19 21 48t43 55t72 45t109 19q68 0 111.5 -18.5t69 -48t35.5 -65.5t10 -71q0 -30 -5 -67.5t-18 -76t-35.5 -74.5t-57.5 -64.5t-84 -45.5t-115 -17q-18 0 -51.5 4t-65.5 23t-56 59t-24 113q0 16 2 40.5t10 54.5h403q3 22 3 46q0 49 -13.5 78t-33.5 44t-43 19.5 t-43 4.5q-5 0 -25 -1.5t-44.5 -11.5t-48.5 -31.5t-36 -60.5h-90zM133 212q-2 -9 -3 -22.5t-1 -27.5q0 -44 13.5 -68t31.5 -35.5t36.5 -14t28.5 -2.5q42 0 75.5 14t58 38t40.5 54.5t23 63.5h-303z"/>
<glyph glyph-name="uni04DA" horiz-adv-x="761" unicode="Ӛ" d="M635 362q6 25 8 49.5t2 50.5q0 25 -5.5 56t-24.5 58.5t-56 46.5t-100 19q-41 0 -79.5 -9.5t-71 -28t-57 -46t-36.5 -62.5h-98q15 47 44.5 88t73.5 71.5t101 48t128 17.5q94 0 150 -25.5t85 -64.5t38 -84.5t9 -84.5q0 -50 -7.5 -105t-26 -108.5t-49 -102.5t-76.5 -86 t-108 -59t-144 -22q-64 0 -116 16.5t-89 51t-57 88t-20 126.5q0 26 3.5 50.5t9.5 50.5h569zM156 283q-1 -8 -1.5 -15.5t-0.5 -15.5q0 -21 4.5 -53.5t23 -64t55.5 -54t101 -22.5q67 0 115 21.5t80.5 54.5t52 72.5t29.5 76.5h-459zM354 851h94l-17 -79h-94zM570 851h94 l-17 -79h-94z"/>
<glyph glyph-name="uni04DB" horiz-adv-x="582" unicode="ӛ" d="M76 361q6 19 21 48t43 55t72 45t109 19q68 0 111.5 -18.5t69 -48t35.5 -65.5t10 -71q0 -30 -5 -67.5t-18 -76t-35.5 -74.5t-57.5 -64.5t-84 -45.5t-115 -17q-18 0 -51.5 4t-65.5 23t-56 59t-24 113q0 16 2 40.5t10 54.5h403q3 22 3 46q0 49 -13.5 78t-33.5 44t-43 19.5 t-43 4.5q-5 0 -25 -1.5t-44.5 -11.5t-48.5 -31.5t-36 -60.5h-90zM133 212q-2 -9 -3 -22.5t-1 -27.5q0 -44 13.5 -68t31.5 -35.5t36.5 -14t28.5 -2.5q42 0 75.5 14t58 38t40.5 54.5t23 63.5h-303zM227 700h89l-20 -92h-89zM461 700h89l-20 -92h-89z"/>
<glyph glyph-name="uni04DC" horiz-adv-x="903" unicode="Ӝ" d="M428 353l-354 -353h-132l397 382l-235 318h113l219 -310l66 310h94l-66 -310l335 310h128l-372 -331l238 -369h-116l-221 353l-75 -353h-94zM425 851h94l-17 -79h-94zM641 851h94l-17 -79h-94z"/>
<glyph glyph-name="uni04DD" horiz-adv-x="699" unicode="ӝ" d="M308 251l-244 -251h-115l279 268l-164 240h104l145 -230l47 230h89l-50 -230l229 230h111l-260 -244l172 -264h-109l-149 251l-51 -251h-89zM285 700h89l-20 -92h-89zM519 700h89l-20 -92h-89z"/>
<glyph glyph-name="uni04DE" horiz-adv-x="675" unicode="Ӟ" d="M133 215q-3 -13 -3 -29q0 -14 4 -30q4 -18 14 -35t29.5 -31t51 -23t77.5 -9q51 0 89 14.5t63.5 38t38.5 53.5t13 62q0 30 -10.5 49.5t-29 31t-44 16.5t-54.5 5h-92l17 79h83q48 0 80 12.5t51.5 31.5t27.5 41t8 42t-5.5 39.5t-21 34.5t-42.5 24.5t-70 9.5 q-87 0 -137.5 -39.5t-62.5 -96.5h-100q10 39 31 77.5t57.5 69t90.5 49.5t130 19q31 0 70.5 -5t74.5 -22.5t59 -52t24 -92.5q0 -39 -13.5 -69t-33.5 -52t-45 -36t-47 -21l-1 -3q36 -11 57 -27.5t31 -35.5t12.5 -39t2.5 -38q0 -60 -22.5 -106.5t-63.5 -78t-97.5 -48 t-123.5 -16.5q-70 0 -122.5 13t-86.5 41.5t-48 72.5q-9 29 -10 66q0 20 3 43h96zM311 851h94l-17 -79h-94zM527 851h94l-17 -79h-94z"/>
<glyph glyph-name="uni04DF" horiz-adv-x="520" unicode="ӟ" d="M95 156q-2 -5 -2 -11v-11q0 -39 29 -65.5t86 -26.5q31 0 59 8t49 23t33 37t12 49t-12.5 42t-29 22t-32.5 8.5t-23 1.5h-74l13 62h65q15 0 35 2.5t39 11.5t32 26.5t13 47.5q0 31 -13 48t-29.5 24.5t-31.5 9t-19 1.5q-21 0 -44 -5.5t-43.5 -17.5t-35 -30.5t-18.5 -44.5h-84 q7 30 23 59t44 51.5t67.5 36t92.5 13.5q36 0 69 -6t59 -20t41.5 -37t15.5 -57q0 -53 -25 -87.5t-74 -55.5v-3q31 -4 52 -30t21 -63q0 -20 -7.5 -52t-31.5 -62.5t-69 -52.5t-120 -22q-27 0 -64.5 3.5t-71.5 17.5t-58 43t-24 79v16q0 9 2 17h84zM196 700h89l-20 -92h-89z M430 700h89l-20 -92h-89z"/>
<glyph glyph-name="uni04E0" horiz-adv-x="660" unicode="Ӡ" d="M644 621l-248 -177h11q30 0 53 -5t40.5 -11.5t29 -14t17.5 -13.5q10 -9 20 -21.5t18.5 -30.5t14 -40.5t5.5 -50.5q0 -48 -17.5 -97t-55.5 -90q-47 -50 -108.5 -70.5t-135.5 -20.5q-48 0 -82 6t-57.5 14t-37 16t-19.5 13q-21 16 -33 35.5t-18.5 39.5t-8.5 39t-2 36 q0 21 3 44h94q-3 -18 -3 -35q0 -25 9 -49.5t34 -44.5q15 -12 32.5 -19t35.5 -10.5t34.5 -4.5t30.5 -1q18 0 39 2.5t42.5 9t42.5 19t39 33.5q26 29 33.5 59.5t7.5 55.5q0 29 -9 53t-24 40q-23 23 -53 29t-56 6q-29 0 -53.5 -4.5t-50.5 -13.5l-30 65l289 209h-349l17 79h476z "/>
<glyph glyph-name="uni04E1" horiz-adv-x="520" unicode="ӡ" d="M497 446l-240 -211h6q23 0 50.5 -7.5t50.5 -24.5q9 -7 19.5 -18t19.5 -27t15 -38t6 -50q0 -18 -3 -40t-11 -45.5t-21 -47.5t-34 -46q-26 -28 -55 -44.5t-57.5 -25.5t-54.5 -11.5t-46 -2.5q-16 0 -35 1.5t-38.5 6.5t-38 15t-34.5 27q-13 14 -24.5 37.5t-11.5 58.5v11 q0 5 1 10h84v-15q2 -20 8.5 -34.5t14.5 -23.5q8 -10 29 -21t60 -11q54 0 88.5 24t52.5 53q14 23 23 54.5t9 60.5q0 27 -8.5 51t-25.5 38q-17 15 -36 19t-36 4q-14 0 -27.5 -1t-27.5 -5l-32 53l260 226h-306l13 62h406z"/>
<glyph glyph-name="uni04E2" horiz-adv-x="730" unicode="Ӣ" d="M626 700h114l-149 -700h-94l121 567l-474 -567h-113l149 700h94l-120 -563zM332 832h316l-13 -60h-316z"/>
<glyph glyph-name="uni04E3" horiz-adv-x="596" unicode="ӣ" d="M465 508h112l-107 -508h-89l86 406l-337 -406h-112l107 508h89l-85 -405zM231 673h316l-13 -60h-316z"/>
<glyph glyph-name="uni04E4" horiz-adv-x="730" unicode="Ӥ" d="M626 700h114l-149 -700h-94l121 567l-474 -567h-113l149 700h94l-120 -563zM339 851h94l-17 -79h-94zM555 851h94l-17 -79h-94z"/>
<glyph glyph-name="uni04E5" horiz-adv-x="582" unicode="ӥ" d="M465 508h112l-107 -508h-89l86 406l-337 -406h-112l107 508h89l-85 -405zM234 700h89l-20 -92h-89zM468 700h89l-20 -92h-89z"/>
<glyph glyph-name="uni04E6" horiz-adv-x="761" unicode="Ӧ" d="M354 851h94l-17 -79h-94zM570 851h94l-17 -79h-94zM347 -21q-72 0 -122 16.5t-82.5 42.5t-50.5 57.5t-27 62t-10.5 56t-1.5 38.5q0 90 25 174.5t75.5 150t125 105t173.5 39.5q58 0 111.5 -14.5t94 -46.5t64.5 -83.5t24 -125.5q0 -91 -24.5 -176t-74.5 -151t-125 -105.5 t-175 -39.5zM358 58q53 0 95 17.5t74 47t54 68t36.5 80.5t21 85t6.5 81q0 51 -13 86.5t-33 58t-44.5 35t-47 18t-40.5 6.5t-25 1q-52 0 -94 -17.5t-74 -47.5t-54.5 -68.5t-37 -80.5t-21.5 -84.5t-7 -79.5q0 -63 18.5 -103.5t48 -63t65.5 -31t72 -8.5z"/>
<glyph glyph-name="uni04E7" horiz-adv-x="587" unicode="ӧ" d="M229 700h89l-20 -92h-89zM463 700h89l-20 -92h-89zM42 268q6 31 22.5 75.5t50 85.5t87.5 70t136 29q100 0 156 -53t56 -161q0 -50 -15.5 -108.5t-51 -108.5t-93.5 -83.5t-143 -33.5q-51 0 -86.5 12.5t-59 32t-37 43.5t-20 47t-8 43t-1.5 31q0 20 1.5 39.5t5.5 39.5z M135 246q-2 -14 -4 -28.5t-2 -28.5q0 -77 35 -112t89 -35q57 0 96 29t62.5 71t34 89t10.5 84q0 57 -16.5 87.5t-38.5 44.5t-42.5 16.5t-27.5 2.5q-14 0 -41 -5t-57 -27t-57.5 -66t-40.5 -122z"/>
<glyph glyph-name="uni04E8" horiz-adv-x="761" unicode="Ө" d="M347 -21q-72 0 -122 16.5t-82.5 42.5t-50.5 57.5t-27 62t-10.5 56t-1.5 38.5q0 90 25 174.5t75.5 150t125 105t173.5 39.5q58 0 111.5 -14.5t94 -46.5t64.5 -83.5t24 -125.5q0 -91 -24.5 -176t-74.5 -151t-125 -105.5t-175 -39.5zM157 319q-3 -27 -3 -55 q0 -63 18.5 -103.5t47.5 -63t65.5 -31t72.5 -8.5q39 0 79.5 12t77 41.5t67 80t49.5 127.5h-474zM644 398q1 10 1 19v20q0 51 -13 86.5t-32.5 58t-44 35t-47 18t-40.5 6.5t-26 1q-47 0 -84.5 -13.5t-66 -35.5t-49 -49.5t-34.5 -54.5t-22.5 -51t-12.5 -40h471z"/>
<glyph glyph-name="uni04E9" horiz-adv-x="587" unicode="ө" d="M247 -20q-11 0 -31 1.5t-44 7.5t-48 19t-44 36.5t-32.5 58.5t-12.5 86q0 66 19.5 127t58 108.5t95 75.5t130.5 28q9 0 28 -1t42.5 -7t48.5 -19t45.5 -36.5t34 -60.5t13.5 -90q0 -50 -15.5 -108.5t-51 -108.5t-93.5 -83.5t-143 -33.5zM454 288q1 7 1.5 13.5t0.5 13.5 q0 57 -16.5 87.5t-38 44.5t-42 16.5t-28.5 2.5q-51 0 -85.5 -22t-55.5 -51.5t-31.5 -59.5t-14.5 -45h310zM132 226q-3 -18 -3 -37q0 -45 11.5 -73.5t29.5 -45t40 -22.5t43 -6q51 0 86 23t56.5 53.5t32.5 61.5t14 46h-310z"/>
<glyph glyph-name="uni04EA" horiz-adv-x="761" unicode="Ӫ" d="M347 -21q-72 0 -122 16.5t-82.5 42.5t-50.5 57.5t-27 62t-10.5 56t-1.5 38.5q0 90 25 174.5t75.5 150t125 105t173.5 39.5q58 0 111.5 -14.5t94 -46.5t64.5 -83.5t24 -125.5q0 -91 -24.5 -176t-74.5 -151t-125 -105.5t-175 -39.5zM157 319q-3 -27 -3 -55 q0 -63 18.5 -103.5t47.5 -63t65.5 -31t72.5 -8.5q39 0 79.5 12t77 41.5t67 80t49.5 127.5h-474zM644 398q1 10 1 19v20q0 51 -13 86.5t-32.5 58t-44 35t-47 18t-40.5 6.5t-26 1q-47 0 -84.5 -13.5t-66 -35.5t-49 -49.5t-34.5 -54.5t-22.5 -51t-12.5 -40h471zM354 851h94 l-17 -79h-94zM570 851h94l-17 -79h-94z"/>
<glyph glyph-name="uni04EB" horiz-adv-x="587" unicode="ӫ" d="M247 -20q-11 0 -31 1.5t-44 7.5t-48 19t-44 36.5t-32.5 58.5t-12.5 86q0 66 19.5 127t58 108.5t95 75.5t130.5 28q9 0 28 -1t42.5 -7t48.5 -19t45.5 -36.5t34 -60.5t13.5 -90q0 -50 -15.5 -108.5t-51 -108.5t-93.5 -83.5t-143 -33.5zM454 288q1 7 1.5 13.5t0.5 13.5 q0 57 -16.5 87.5t-38 44.5t-42 16.5t-28.5 2.5q-51 0 -85.5 -22t-55.5 -51.5t-31.5 -59.5t-14.5 -45h310zM132 226q-3 -18 -3 -37q0 -45 11.5 -73.5t29.5 -45t40 -22.5t43 -6q51 0 86 23t56.5 53.5t32.5 61.5t14 46h-310zM229 700h89l-20 -92h-89zM463 700h89l-20 -92h-89z "/>
<glyph glyph-name="uni04EE" horiz-adv-x="578" unicode="Ӯ" d="M577 700h105l-351 -575q-28 -45 -53.5 -72t-50.5 -41.5t-50.5 -18.5t-53.5 -4q-23 0 -40.5 2.5t-37.5 8.5l18 82q14 -5 29 -8t34 -3q15 0 31.5 3t33 14t34 31t35.5 55l-155 526h106l115 -421zM256 832h316l-13 -60h-316z"/>
<glyph glyph-name="uni04EF" horiz-adv-x="495" unicode="ӯ" d="M180 673h316l-13 -60h-316zM11 -119q20 -3 29 -4t15 -1q37 0 59 25.5t40 60.5l20 38l-114 508h106l76 -398l212 398h98l-323 -568q-14 -25 -28 -48.5t-31.5 -41.5t-41.5 -28.5t-58 -10.5q-18 0 -37 0.5t-36 4.5z"/>
<glyph glyph-name="uni04F0" horiz-adv-x="578" unicode="Ӱ" d="M577 700h105l-351 -575q-28 -45 -53.5 -72t-50.5 -41.5t-50.5 -18.5t-53.5 -4q-23 0 -40.5 2.5t-37.5 8.5l18 82q14 -5 29 -8t34 -3q15 0 31.5 3t33 14t34 31t35.5 55l-155 526h106l115 -421zM263 851h94l-17 -79h-94zM479 851h94l-17 -79h-94z"/>
<glyph glyph-name="uni04F1" horiz-adv-x="495" unicode="ӱ" d="M183 700h89l-20 -92h-89zM417 700h89l-20 -92h-89zM11 -119q20 -3 29 -4t15 -1q37 0 59 25.5t40 60.5l20 38l-114 508h106l76 -398l212 398h98l-323 -568q-14 -25 -28 -48.5t-31.5 -41.5t-41.5 -28.5t-58 -10.5q-18 0 -37 0.5t-36 4.5z"/>
<glyph glyph-name="uni04F2" horiz-adv-x="578" unicode="Ӳ" d="M577 700h105l-351 -575q-28 -45 -53.5 -72t-50.5 -41.5t-50.5 -18.5t-53.5 -4q-23 0 -40.5 2.5t-37.5 8.5l18 82q14 -5 29 -8t34 -3q15 0 31.5 3t33 14t34 31t35.5 55l-155 526h106l115 -421zM433 904l-124 -132h-80l98 132h106zM586 904l-124 -132h-80l98 132h106z"/>
<glyph glyph-name="uni04F3" horiz-adv-x="495" unicode="ӳ" d="M400 734l-124 -132h-80l98 132h106zM553 734l-124 -132h-80l98 132h106zM11 -119q20 -3 29 -4t15 -1q37 0 59 25.5t40 60.5l20 38l-114 508h106l76 -398l212 398h98l-323 -568q-14 -25 -28 -48.5t-31.5 -41.5t-41.5 -28.5t-58 -10.5q-18 0 -37 0.5t-36 4.5z"/>
<glyph glyph-name="uni04F4" horiz-adv-x="634" unicode="Ӵ" d="M246 700l-43 -205q-3 -13 -5 -25t-2 -25q0 -24 10 -37.5t29.5 -20.5t47 -9t62.5 -2q15 0 33.5 1t38 2t37 2t29.5 2l67 317h94l-149 -700h-94l65 304q-13 -1 -32 -2t-39 -2t-39 -2t-32 -1q-65 0 -108 7.5t-68.5 23.5t-36.5 40.5t-11 58.5q0 17 2.5 34t6.5 34l43 205h94z M291 851h94l-17 -79h-94zM507 851h94l-17 -79h-94z"/>
<glyph glyph-name="uni04F5" horiz-adv-x="508" unicode="ӵ" d="M187 508l-35 -156q-2 -8 -3 -16t-1 -16q0 -16 5 -26t16 -15.5t30 -7.5t47 -2q9 0 18.5 0.5t21 1t27 1t37.5 0.5l50 236h89l-107 -508h-89l44 211q-27 0 -39.5 -0.5t-21.5 -1t-20 -1t-34 -0.5q-47 0 -78 5.5t-50.5 17t-27.5 29.5t-8 42q0 20 4 36l36 170h89zM190 700h89 l-20 -92h-89zM424 700h89l-20 -92h-89z"/>
<glyph glyph-name="uni04F8" horiz-adv-x="859" unicode="Ӹ" d="M213 415h181q60 0 100 -13.5t64.5 -37t35 -55.5t10.5 -70q0 -50 -14 -87t-37 -63.5t-53 -43.5t-60.5 -27t-60 -14t-52.5 -4h-296l149 700h94zM142 79h176q54 0 90 14.5t57.5 36.5t31 48t9.5 49q0 38 -14.5 60t-35.5 33t-44 13.5t-40 2.5h-175zM869 700l-149 -700h-94 l149 700h94zM403 851h94l-17 -79h-94zM619 851h94l-17 -79h-94z"/>
<glyph glyph-name="uni04F9" horiz-adv-x="715" unicode="ӹ" d="M214 508l-42 -200h120q23 0 54 -2.5t59.5 -15.5t48 -40t19.5 -76q0 -32 -12.5 -63t-38 -56t-63 -40t-88.5 -15h-253l107 508h89zM120 62h122q41 0 68 9.5t42.5 25t22 34.5t6.5 37q0 25 -8 40t-22.5 23.5t-36 11.5t-48.5 3h-107zM696 508l-107 -508h-89l107 508h89z M293 700h89l-20 -92h-89zM527 700h89l-20 -92h-89z"/>
<glyph glyph-name="uni1FBD" horiz-adv-x="2" unicode="᾽" d="M-313 655l-6 45q20 6 40 10t36 4q34 0 54 -15.5t20 -43.5t-21.5 -52t-60.5 -35h-60l1 4q28 9 47.5 28.5t19.5 37.5q1 12 -7.5 19t-23.5 7q-8 0 -17.5 -2.5t-21.5 -6.5z"/>
<glyph glyph-name="uni1FFE" horiz-adv-x="2" unicode="῾" d="M-146 700l-26 -45q-7 4 -16 6.5t-19 2.5q-20 0 -31.5 -12t-12.5 -28q0 -17 12 -31t30 -21l-1 -4h-56q-26 11 -39.5 29t-13.5 40q0 35 29 55.5t73 21.5q19 -1 37 -4.5t34 -9.5z"/>
<glyph glyph-name="endash" horiz-adv-x="609" unicode="–" d="M563 297l-14 -62h-500l14 62h500z"/>
<glyph glyph-name="emdash" horiz-adv-x="835" unicode="—" d="M63 297h726l-14 -62h-726z"/>
<glyph glyph-name="quoteleft" horiz-adv-x="310" unicode="‘" d="M251 462h-99l24 114q4 17 9.5 37.5t19 41t37.5 38t64 27.5l-12 -55q-21 -5 -33 -15t-19 -22t-10.5 -25.5t-6.5 -26.5l-1 -4h51z"/>
<glyph glyph-name="quotesinglbase" horiz-adv-x="318" unicode="‚" d="M74 109h99l-24 -114q-5 -25 -12.5 -47t-21.5 -40t-36.5 -32t-58.5 -24l11 55q20 4 32.5 14.5t20 23.5t11 26.5t5.5 23.5l1 5h-50z"/>
<glyph glyph-name="quotedblleft" horiz-adv-x="419" unicode="“" d="M389 462h-99l24 114q4 21 10.5 42t20 40t36.5 35t62 27l-11 -55q-20 -5 -32.5 -15t-20 -22.5t-11 -26t-6.5 -25.5l-1 -4h51zM224 462h-99l24 114q4 19 10.5 40.5t20 41t37 36t61.5 26.5l-11 -55q-32 -7 -47 -29t-23 -59l-1 -5h51z"/>
<glyph glyph-name="quotedblright" horiz-adv-x="421" unicode="”" d="M174 700h99l-25 -115q-3 -16 -9.5 -37.5t-20.5 -42.5t-37.5 -38.5t-61.5 -24.5l11 54q32 10 47 30t22 59l1 6h-50zM339 700h99l-25 -115q-3 -16 -9.5 -37.5t-20.5 -42.5t-37.5 -38.5t-61.5 -24.5l11 54q32 10 47 30t22 59l1 6h-50z"/>
<glyph glyph-name="dagger" horiz-adv-x="499" unicode="†" d="M385 700l-41 -192h185l-15 -68h-185l-133 -625h-79l133 625h-185l15 68h185l41 192h79z"/>
<glyph glyph-name="daggerdbl" horiz-adv-x="555" unicode="‡" d="M441 700l-41 -192h185l-15 -68h-185l-41 -192h185l-15 -68h-184l-78 -365h-79l78 365h-186l15 68h185l41 192h-185l15 68h185l41 192h79z"/>
<glyph glyph-name="ellipsis" horiz-adv-x="939" unicode="…" d="M75 109h99l-23 -109h-99zM385 109h99l-23 -109h-99zM695 109h99l-23 -109h-99z"/>
<glyph glyph-name="perthousand" horiz-adv-x="1300" unicode="‰" d="M738 700h79l-603 -700h-79zM97 508q10 54 32 92t49.5 62t57.5 35t56 11q10 0 33.5 -3.5t47.5 -18.5t42 -46t18 -85q0 -30 -10.5 -72.5t-34.5 -81.5t-62 -66t-93 -27q-54 0 -82.5 19.5t-41.5 45t-15 51t-2 37.5q0 22 5 47zM162 508q-5 -20 -5 -37v-24t6.5 -37t22 -34 t45.5 -15q35 0 60.5 19.5t42.5 47.5t25.5 60t8.5 57q0 31 -6.5 52.5t-17 34t-24 18t-27.5 5.5q-39 0 -76.5 -36t-54.5 -111zM525 192q6 27 19 61.5t36 65.5t57 52t82 21q71 0 106.5 -40t35.5 -113q0 -65 -20.5 -111.5t-50.5 -76.5t-65 -44.5t-65 -14.5q-11 0 -34 3.5 t-47 18.5t-42 46t-18 85q0 12 2 24t4 23zM590 192q-2 -9 -4 -18.5t-2 -18.5q0 -57 20 -83.5t54 -26.5q24 0 48.5 13t44.5 37t32.5 58t12.5 76q0 13 -1.5 32t-8.5 36.5t-22 29.5t-43 12q-26 0 -47.5 -12t-38 -32.5t-28 -47t-17.5 -55.5zM910 192q6 27 19 61.5t36 65.5t57 52 t82 21q71 0 106.5 -40t35.5 -113q0 -65 -20.5 -111.5t-50.5 -76.5t-65 -44.5t-65 -14.5q-11 0 -34 3.5t-47 18.5t-42 46t-18 85q0 12 2 24t4 23zM975 192q-2 -9 -4 -18.5t-2 -18.5q0 -57 20 -83.5t54 -26.5q24 0 48.5 13t44.5 37t32.5 58t12.5 76q0 13 -1.5 32t-8.5 36.5 t-22 29.5t-43 12q-26 0 -47.5 -12t-38 -32.5t-28 -47t-17.5 -55.5z"/>
<glyph glyph-name="guilsinglleft" horiz-adv-x="292" unicode="‹" d="M253 443l-19 -90l-121 -88l84 -87l-17 -80l-122 130l17 83z"/>
<glyph glyph-name="guilsinglright" horiz-adv-x="290" unicode="›" d="M42 98l19 90l121 88l-84 87l17 80l122 -130l-17 -83z"/>
<glyph glyph-name="uni203E" horiz-adv-x="497" unicode="‾" d="M0 700h497v-52h-497v52z"/>
<glyph glyph-name="fraction" horiz-adv-x="100" unicode="⁄" d="M387 700h63l-631 -700h-63z"/>
<glyph glyph-name="Euro" d="M528 154q-11 -29 -29 -58.5t-44 -53.5q-23 -20 -46.5 -32.5t-46.5 -19.5t-45.5 -9t-42.5 -2q-19 0 -40.5 2.5t-43 10t-42 21t-37.5 36.5q-15 20 -24 43t-13.5 47t-6 46.5t-1.5 42.5v20h-72l35 56h45q4 44 17 90h-70l35 56h51q7 26 19 54.5t27 55t33 50.5t38 41 q33 29 84.5 49.5t120.5 20.5q53 0 84.5 -11t48.5 -24t27 -26.5t15 -25.5l-55 -73q-12 29 -33 48q-24 22 -52 27.5t-52 5.5q-27 0 -59.5 -8t-64.5 -37q-30 -26 -52 -67t-32 -80h278l-35 -56h-259q-14 -44 -18 -90h222l-35 -56h-193q-1 -7 -1 -14v-13q0 -11 1 -26t4 -31 t8.5 -32t14.5 -29q21 -30 47.5 -37.5t49.5 -7.5q28 0 52.5 6.5t50.5 27.5q19 16 29.5 31.5t15.5 30.5h92z" unicode="€"/>
<glyph glyph-name="trademark" horiz-adv-x="861" unicode="™" d="M83 645v55h302v-55h-114v-295h-76v295h-112zM538 618h-5l4 -45v-223h-75v350h100l94 -241l9 -35h4l8 35l94 241h100v-350h-75v223l4 45h-5l-103 -268h-52z"/>
<glyph glyph-name="arrowright" horiz-adv-x="700" unicode="→" d="M552 386l-61 108l30 16q11 -12 18.5 -20.5t14 -16t14.5 -15t21 -18.5q30 -26 57 -41.5t53 -26.5v-34q-26 -11 -53 -26.5t-57 -41.5q-13 -11 -21 -18.5t-14.5 -15t-14 -16t-18.5 -20.5l-30 16l61 108h-525v62h525z"/>
<glyph glyph-name="partialdiff" horiz-adv-x="587" unicode="∂" d="M252 733q96 -17 158 -43t98 -61t50.5 -79.5t14.5 -98.5q0 -29 -3 -75.5t-14 -98.5t-32 -105t-57 -95.5t-90 -69.5t-130 -27q-51 0 -86.5 12t-59 30.5t-37 41.5t-20 45t-8 40.5t-1.5 29.5q0 63 20 122.5t58.5 105t95 73.5t129.5 28q12 0 35.5 -2t49 -11t48 -28.5 t31.5 -53.5h3v14q0 60 -17 104t-52.5 75.5t-86 49.5t-113.5 30zM253 42q57 0 96 27.5t62.5 67.5t34 86t10.5 82q0 71 -33 106t-92 35q-57 0 -95.5 -27.5t-62.5 -68t-34 -87t-10 -84.5q0 -47 14 -74.5t33.5 -41.5t41 -17.5t35.5 -3.5z"/>
<glyph glyph-name="product" horiz-adv-x="791" unicode="∏" d="M125 -185h-94l171 806h-40l17 79h622l-17 -79h-40l-171 -806h-94l171 806h-354z"/>
<glyph glyph-name="summation" horiz-adv-x="620" unicode="∑" d="M640 621h-400l219 -352l-388 -375h434l-16 -79h-534l16 79l388 375l-219 352l17 79h500z"/>
<glyph glyph-name="minus" horiz-adv-x="600" unicode="−" d="M563 386v-62h-500v62h500z"/>
<glyph glyph-name="radical" horiz-adv-x="650" unicode="√" d="M344 113l109 716h177v-62h-118l-138 -867h-64l-165 538h-125v62h212z"/>
<glyph glyph-name="infinity" horiz-adv-x="998" unicode="∞" d="M477 295q-26 -26 -51 -48t-52.5 -39t-58 -26.5t-67.5 -9.5q-39 0 -71.5 13.5t-56 37t-37 56t-13.5 71.5q0 31 11.5 63t37.5 58t67 42t100 16q22 0 48 -3t55 -15.5t60.5 -37.5t63.5 -68q24 29 48.5 52t52 38.5t59.5 24t72 8.5q85 0 134 -45.5t49 -122.5q0 -38 -13 -72.5 t-38.5 -60t-63 -40.5t-86.5 -15q-46 0 -84.5 11t-69.5 28.5t-55 39.5t-41 44zM445 334q-21 28 -43 55t-46 48t-51 34t-59 13q-25 0 -47 -9.5t-38.5 -27t-26 -42t-9.5 -55.5q0 -27 9 -50t26 -40.5t40.5 -27t52.5 -9.5q20 0 40.5 4.5t44 16.5t50 33.5t57.5 56.5zM549 371 q23 -31 46.5 -57.5t48.5 -45.5t52 -30t57 -11q51 0 85.5 36.5t34.5 96.5q0 30 -10 52t-27.5 36.5t-41 21.5t-50.5 7q-32 0 -57.5 -6t-48.5 -19t-44.5 -33t-44.5 -48z"/>
<glyph glyph-name="approxequal" horiz-adv-x="600" unicode="≈" d="M63 404q7 19 18.5 41.5t28 42t38 32t48.5 12.5q23 0 45 -6t42 -17l103 -55q1 -1 16.5 -7t35.5 -6q7 0 18 3t22.5 11.5t23.5 24.5t22 42l39 -16q-7 -20 -18.5 -42t-28 -41.5t-38 -32t-48.5 -12.5q-23 0 -45 6t-42 17l-103 55q-11 5 -25.5 9t-27.5 4q-29 0 -51.5 -24.5 t-33.5 -56.5zM63 204q7 19 18.5 41.5t28 42t38 32t48.5 12.5q23 0 45 -6t42 -17l103 -55q1 -1 16.5 -7t35.5 -6q7 0 18 3t22.5 11.5t23.5 24.5t22 42l39 -16q-7 -20 -18.5 -42t-28 -41.5t-38 -32t-48.5 -12.5q-23 0 -45 6t-42 17l-103 55q-11 5 -25.5 9t-27.5 4 q-29 0 -51.5 -24.5t-33.5 -56.5z"/>
<glyph glyph-name="notequal" horiz-adv-x="600" unicode="≠" d="M353 476l70 121l53 -31l-52 -90h139v-62h-174l-80 -138h254v-62h-290l-70 -121l-53 31l52 90h-139v62h174l80 138h-254v62h290z"/>
<glyph glyph-name="lessequal" horiz-adv-x="669" unicode="≤" d="M73 435l495 285l30 -54l-449 -255l449 -255l-30 -54l-495 285v48zM103 281l495 -285l-30 -54l-495 285z"/>
<glyph glyph-name="greaterequal" horiz-adv-x="669" unicode="≥" d="M127 102l-30 54l449 255l-449 255l30 54l495 -285v-48zM127 -58l-30 54l495 285l30 -54z"/>
<glyph glyph-name="dotmath" horiz-adv-x="250" unicode="⋅" d="M87 323h99l-23 -110h-99z"/>
<glyph glyph-name="lozenge" horiz-adv-x="420" unicode="◊" d="M223 564l-98 -214l98 -214l98 214zM223 0l-160 350l160 350l160 -350z"/>
<glyph glyph-name="uniF408" horiz-adv-x="482" unicode="" d="M447 904l91 -132h-89l-75 99l-112 -99h-94l141 132h138z"/>
<glyph glyph-name="uniF40C" horiz-adv-x="308" unicode="" d="M161 870q0 41 28.5 69.5t69.5 28.5t69.5 -28.5t28.5 -69.5t-28.5 -69.5t-69.5 -28.5t-69.5 28.5t-28.5 69.5zM203 870q0 -23 16.5 -39.5t39.5 -16.5t39.5 16.5t16.5 39.5t-16.5 39.5t-39.5 16.5t-39.5 -16.5t-16.5 -39.5z"/>
<glyph glyph-name="uniF40D" horiz-adv-x="481" unicode="" d="M559 874q-3 -10 -11 -27.5t-22.5 -34t-35.5 -28.5t-50 -12q-26 0 -47 8.5t-37 16.5q-14 8 -31.5 16t-36.5 8q-14 0 -32.5 -7t-27.5 -32h-58q5 16 14.5 33.5t24.5 32t35 24t46 9.5q27 0 44.5 -7.5t34.5 -16.5q12 -7 31.5 -16t39.5 -9q16 0 33 9.5t28 32.5h58z"/>
<glyph glyph-name="uniF6C9" horiz-adv-x="298" unicode="" d="M380 904l-124 -132h-86l98 132h112z"/>
<glyph glyph-name="uniF6CA" horiz-adv-x="482" unicode="" d="M287 772l-91 132h89l75 -99l112 99h94l-141 -132h-138z"/>
<glyph glyph-name="uniF6CB" horiz-adv-x="410" unicode="" d="M179 851h94l-17 -79h-94zM395 851h94l-17 -79h-94z"/>
<glyph glyph-name="uniF6CE" horiz-adv-x="286" unicode="" d="M342 772h-77l-69 132h104z"/>
<glyph glyph-name="uniF6CF" horiz-adv-x="456" unicode="" d="M372 904l-124 -132h-80l98 132h106zM525 904l-124 -132h-80l98 132h106z"/>
<glyph glyph-name="uniF6D0" horiz-adv-x="428" unicode="" d="M181 832h316l-13 -60h-316z"/>
<glyph glyph-name="uniF6D1" horiz-adv-x="455" unicode="" d="M270 904q-2 -11 -0.5 -24.5t9.5 -25.5t25 -20.5t46 -8.5q30 0 50.5 8t33.5 20t20.5 26t10.5 25h74q-8 -20 -21.5 -43.5t-35.5 -43t-53.5 -32.5t-75.5 -13q-48 0 -78.5 12t-48 30t-24.5 39t-7 39q0 8 1 12h74z"/>
<glyph glyph-name="uniF6D4" horiz-adv-x="444" unicode="" d="M221 700q-2 -11 -0.5 -24.5t9.5 -25.5t25 -20.5t47 -8.5q8 0 23.5 1.5t33 9.5t33.5 23.5t24 44.5h75q-9 -20 -22.5 -43t-35 -43t-53 -33t-76.5 -13q-22 0 -50 4.5t-52 18.5t-40 40q-15 23 -15 60v9h74z"/>
</font>
</defs>
</svg>
