<?xml version="1.0" encoding="UTF-8" standalone="no"?>
<!DOCTYPE svg  PUBLIC '-//W3C//DTD SVG 1.1//EN'  'http://www.w3.org/Graphics/SVG/1.1/DTD/svg11.dtd'>
<svg xmlns="http://www.w3.org/2000/svg">
<defs>
<font id="Pragmatica-MediumOblique" horiz-adv-x="600">
<font-face slope="-12" underline-position="-50" font-weight="500" descent="-200" panose-1="2 11 6 3 4 5 2 9 2 4" units-per-em="1000" unicode-range="U+000D-25CA" bbox="-244 -240 1287 920" x-height="508" underline-thickness="50" font-family="Pragmatica" ascent="800" font-style="oblique" cap-height="700"/>
<missing-glyph horiz-adv-x="1000"/>
<glyph glyph-name=".notdef" horiz-adv-x="1000"/>
<glyph glyph-name=".null" horiz-adv-x="0"/>
<glyph glyph-name="uni000D" horiz-adv-x="1000" unicode=""/>
<glyph glyph-name="space" horiz-adv-x="233" unicode=" "/>
<glyph glyph-name="exclam" horiz-adv-x="344" unicode="!" d="M52 0l29 135h132l-29 -135h-132zM201 700h132l-51 -241l-85 -240h-64l17 240z"/>
<glyph glyph-name="quotedbl" horiz-adv-x="500" unicode='&quot;' d="M547 700l-92 -192h-68l-10 192h170zM317 700l-92 -192h-68l-10 192h170z"/>
<glyph glyph-name="numbersign" horiz-adv-x="730" unicode="#" d="M431 263l28 179h-120l-28 -179h120zM484 10h-92l24 153h-120l-24 -153h-92l24 153h-134l15 100h134l28 179h-134l15 100h134l24 152h92l-24 -152h120l24 152h92l-24 -152h134l-15 -100h-134l-28 -179h134l-15 -100h-134z"/>
<glyph glyph-name="dollar" d="M348 296l-45 -210h8q48 0 76 37q25 34 25 84q0 46 -24 68q-14 14 -40 21zM296 437l37 176q-41 -1 -65 -28q-26 -26 -26 -75q0 -31 18 -50q14 -16 36 -23zM11 225h127q-2 -10 -2 -28q0 -44 24 -74q24 -29 62 -34l47 224q-80 17 -117 50q-53 45 -53 126q0 114 74 173 q69 59 167 59h16l12 56h82l-13 -59q76 -10 118 -59q45 -52 45 -132v-12h-127v10q0 34 -16 57q-16 24 -42 29l-41 -191q109 -29 147 -76q37 -46 37 -120q0 -77 -26.5 -124.5t-56.5 -68.5q-71 -52 -180 -52h-15l-15 -72h-82l16 75q-81 3 -139 61q-50 57 -50 150q0 21 1 32z " unicode="$"/>
<glyph glyph-name="percent" horiz-adv-x="934" unicode="%" d="M527 133q0 117 74 197q58 62 147 62q61 0 96 -35q36 -36 36 -104q0 -53 -19 -111.5t-60 -96.5q-56 -53 -138 -53q-63 0 -99 33q-37 35 -37 108zM607 139q0 -40 16 -60q17 -21 54 -21q42 0 70 29q22 22 38 71t16 89q0 41 -20 61q-18 18 -50 18q-44 0 -72 -31 q-52 -56 -52 -156zM172 455q0 -40 16 -60q17 -21 54 -21q42 0 70 29q22 22 38 71t16 89q0 41 -20 61q-18 18 -50 18q-44 0 -72 -31q-52 -56 -52 -156zM92 449q0 117 74 197q58 62 147 62q61 0 96 -35q36 -36 36 -104q0 -53 -19 -111.5t-60 -96.5q-56 -53 -138 -53 q-63 0 -99 33q-37 35 -37 108zM154 0l570 700h93l-570 -700h-93z"/>
<glyph glyph-name="ampersand" horiz-adv-x="720" unicode="&amp;" d="M378 448q43 17 73 47q29 31 29 67q0 27 -16 41q-15 15 -44 15q-34 0 -53 -19q-21 -21 -21 -61q0 -41 32 -90zM430 141l-113 189q-69 -34 -96 -63q-35 -38 -35 -91q0 -46 27 -74q27 -29 79 -29q72 0 138 68zM561 314h104q-31 -95 -99 -171l88 -143h-138l-37 61 q-82 -82 -222 -82q-98 0 -148 44q-54 47 -54 136q0 101 68 164q58 56 149 83q-35 57 -35 115q0 74 50 124q53 55 149 55q69 0 107 -32q44 -36 44 -103q0 -76 -58 -125q-40 -35 -108 -63l93 -147q30 39 47 84z"/>
<glyph glyph-name="quotesingle" horiz-adv-x="270" unicode="&apos;" d="M317 700l-92 -192h-68l-10 192h170z"/>
<glyph glyph-name="parenleft" horiz-adv-x="397" unicode="(" d="M246 700h92q-90 -120 -146 -240q-86 -183 -86 -359q0 -71 14 -155q14 -78 30 -130h-92q-25 61 -44 134q-24 96 -24 167q0 184 98 359q63 115 158 224z"/>
<glyph glyph-name="parenright" horiz-adv-x="396" unicode=")" d="M82 -184h-92q93 127 159 275q73 163 73 314q0 85 -15 170q-13 67 -29 125h92q17 -43 39 -119q28 -93 28 -185q0 -160 -74 -311q-71 -140 -181 -269z"/>
<glyph glyph-name="asterisk" horiz-adv-x="468" unicode="*" d="M290 515l-97 -101l-43 37l95 102l-107 38l31 58l109 -38l26 124h64l-26 -124l125 38l7 -58l-123 -38l51 -102l-59 -37z"/>
<glyph glyph-name="plus" d="M63 398h207v207h86v-207h207v-86h-207v-207h-86v207h-207v86z" unicode="+"/>
<glyph glyph-name="comma" horiz-adv-x="360" unicode="," d="M83 135h132l-30 -139q-14 -70 -50 -106q-43 -47 -115 -48l15 69q33 1 55 23q21 19 29 57l2 9h-67z"/>
<glyph glyph-name="hyphen" horiz-adv-x="427" unicode="-" d="M73 216l23 106h260l-23 -106h-260z"/>
<glyph glyph-name="period" horiz-adv-x="358" unicode="." d="M52 0l29 135h132l-29 -135h-132z"/>
<glyph glyph-name="slash" horiz-adv-x="440" unicode="/" d="M-91 -185l546 885h82l-546 -885h-82z"/>
<glyph glyph-name="zero" d="M264 85q48 0 84 36q48 48 81 169.5t33 197.5q0 59 -23 95q-21 32 -64 32q-45 0 -81 -33q-54 -49 -85.5 -166t-31.5 -203q0 -58 21 -91q24 -37 66 -37zM263 -21q-103 0 -158 57q-60 63 -60 188q0 110 40 229.5t106 186.5q79 81 194 81q99 0 153 -60q55 -61 55 -177 q0 -111 -40 -241t-104 -194q-71 -70 -186 -70z" unicode="0"/>
<glyph glyph-name="one" d="M174 510l14 65h12q70 0 128 32q55 32 83 93h94l-149 -700h-128l108 510h-162z" unicode="1"/>
<glyph glyph-name="two" d="M522 106l-23 -106h-505q27 130 121 207q46 38 182 113q105 57 144 95q45 45 45 100q0 51 -34 77q-32 23 -83 23q-68 0 -108 -41q-39 -40 -45 -107h-123q12 112 83 181q73 73 203 73q117 0 176 -48q64 -51 64 -143q0 -105 -76 -175q-9 -9 -20.5 -18t-21 -15.5t-25 -16.5 t-23.5 -15t-27.5 -15.5t-25.5 -13.5t-29 -15.5t-28 -14.5q-106 -56 -111 -60q-47 -29 -69 -65h359z" unicode="2"/>
<glyph glyph-name="three" d="M24 226h123q-1 -9 -1 -27q0 -59 29 -89q31 -32 89 -32q62 0 101 34q46 43 46 107q0 49 -37 75q-26 17 -94 17h-27l23 106h24q73 0 108 26q43 31 43 89q0 37 -28 63q-24 20 -69 20q-64 0 -97 -32q-37 -37 -49 -104h-126q6 45 28.5 93.5t53.5 79.5q69 69 196 69 q103 0 156 -39q67 -46 67 -134q0 -71 -48 -126q-38 -40 -97 -55l-1 -2q43 -11 69 -37q37 -37 37 -98q0 -112 -74 -183q-71 -68 -203 -68q-126 0 -185 56q-59 54 -59 158q0 11 2 33z" unicode="3"/>
<glyph glyph-name="four" d="M152 259h200l59 278zM330 153h-329l22 106l424 441h127l-94 -441h97l-22 -106h-97l-33 -153h-128z" unicode="4"/>
<glyph glyph-name="five" d="M24 189h123v-6q0 -48 27 -75q30 -30 85 -30q70 0 110 38q26 26 41 66.5t15 81.5q0 60 -38 90q-30 24 -81 24q-78 0 -117 -58h-121l129 380h409l-23 -106h-315l-57 -162q53 52 139 52q97 0 153 -52q56 -56 56 -149q0 -66 -25 -129.5t-64 -102.5q-44 -44 -95.5 -58 t-114.5 -14q-118 0 -175 51q-61 55 -61 156v3z" unicode="5"/>
<glyph glyph-name="six" d="M168 202q0 -56 31 -87q30 -30 83 -30q65 0 103 41q46 49 46 126q0 55 -31 86t-85 31q-65 0 -104 -45q-43 -47 -43 -122zM615 541h-123q-1 37 -31 57q-23 17 -70 17q-70 0 -115 -45q-52 -52 -75 -158h2q52 63 145 63q100 0 158 -58q57 -59 57 -155q0 -54 -20 -111t-55 -94 q-75 -78 -210 -78q-119 0 -176 57q-23 20 -43.5 66.5t-20.5 120.5q0 112 35 214q38 123 110 198q82 86 216 86q112 0 168 -58q1 -1 5.5 -6.5t7 -9t7.5 -11t8 -13.5t7.5 -16t7 -19.5t4 -21.5t1.5 -25z" unicode="6"/>
<glyph glyph-name="seven" d="M91 594l23 106h540l-19 -88q-138 -116 -243 -271q-108 -159 -157 -341h-134q61 189 169 339q104 145 236 255h-415z" unicode="7"/>
<glyph glyph-name="eight" d="M273 85q56 0 90 32q40 40 40 98q0 46 -29 75q-29 27 -79 27q-55 0 -91 -34q-39 -37 -39 -95q0 -48 29 -74q29 -29 79 -29zM343 424q55 0 83 28q32 30 32 78q0 41 -31 65q-25 20 -70 20q-51 0 -80 -29q-31 -29 -31 -78q0 -40 26 -62q30 -22 71 -22zM190 375 q-66 42 -66 126q0 88 60 151q66 69 190 69q92 0 149 -47q59 -50 59 -135q0 -75 -44 -123q-31 -36 -86 -48q39 -21 62 -56q24 -40 24 -95q0 -119 -80 -185q-66 -53 -182 -53q-125 0 -184 59q-54 52 -54 135q0 85 52 142q40 43 100 60z" unicode="8"/>
<glyph glyph-name="nine" d="M473 496q0 54 -31 85q-32 34 -88 34q-60 0 -101 -42q-45 -48 -45 -120q0 -61 33 -92q34 -30 87 -30q57 0 96 35q49 45 49 130zM24 159h123q1 -34 23 -52q24 -22 74 -22q74 0 122 45q29 26 52 70t33 88h-2q-49 -63 -153 -63q-105 0 -162 57q-58 58 -58 157q0 131 86 212 q74 70 198 70q118 0 181 -63q62 -62 62 -178q0 -119 -41.5 -237.5t-109.5 -184.5q-47 -44 -97.5 -61.5t-118.5 -17.5q-108 0 -162 56q-45 47 -50 124z" unicode="9"/>
<glyph glyph-name="colon" horiz-adv-x="347" unicode=":" d="M52 0l29 135h132l-29 -135h-132zM131 373l29 135h132l-29 -135h-132z"/>
<glyph glyph-name="semicolon" horiz-adv-x="349" unicode=";" d="M83 135h132l-30 -139q-14 -70 -50 -106q-43 -47 -115 -48l15 69q33 1 55 23q21 19 29 57l2 9h-67zM133 373l29 135h132l-29 -135h-132z"/>
<glyph glyph-name="less" horiz-adv-x="678" unicode="&lt;" d="M174 342l433 -237l-40 -72l-494 278v62l494 278l40 -72z"/>
<glyph glyph-name="equal" d="M63 288h500v-86h-500v86zM63 488h500v-86h-500v86z" unicode="="/>
<glyph glyph-name="greater" horiz-adv-x="678" unicode="&gt;" d="M530 342l-433 237l40 72l494 -278v-62l-494 -278l-40 72z"/>
<glyph glyph-name="question" horiz-adv-x="578" unicode="?" d="M226 484h-123q15 105 79 168q73 69 191 69q94 0 150 -37q65 -45 65 -129q0 -76 -53 -132q-24 -24 -89 -68q-66 -49 -79 -62q-32 -33 -42 -78h-99q14 84 62 134q31 31 63 53q58 44 66 52q37 37 37 85q0 36 -26 58q-24 18 -64 18q-56 0 -92 -32q-38 -38 -46 -99zM162 0 l29 135h132l-29 -135h-132z"/>
<glyph glyph-name="at" horiz-adv-x="830" unicode="@" d="M507 390q0 32 -14 47q-16 16 -40 16q-34 0 -59 -25q-22 -22 -35 -62t-13 -74q0 -35 13 -51q14 -18 45 -18q34 0 55 21q22 21 35 65.5t13 80.5zM538 94l22 -63q-95 -52 -204 -52q-144 0 -220 79q-76 76 -76 204q0 79 31.5 170t105.5 163q132 126 327 126q144 0 226 -76 q75 -69 75 -189q0 -151 -93 -244q-65 -65 -155 -65q-62 0 -83 43q-16 -22 -42 -34q-32 -15 -75 -15q-68 0 -102 37q-35 37 -35 101q0 51 18.5 104.5t54.5 92.5q57 59 140 59q66 0 90 -42h2l6 28h100l-51 -237q-4 -12 -4 -28q0 -12 5 -20q7 -7 18 -7q33 0 64 33q60 60 60 183 q0 91 -56 146q-60 60 -176 60q-152 0 -257 -106q-111 -112 -111 -269q0 -107 59 -166q61 -61 175 -61q91 0 161 45z"/>
<glyph glyph-name="A" horiz-adv-x="662" unicode="A" d="M230 253h212l-40 311zM173 147l-82 -147h-139l413 700h128l115 -700h-135l-20 147h-280z"/>
<glyph glyph-name="B" horiz-adv-x="722" unicode="B" d="M225 310l-43 -204h175q91 0 127 33q35 31 35 83q0 50 -35 73q-26 15 -83 15h-176zM285 594l-38 -178h169q73 0 106 29q30 26 30 72q0 43 -29 62q-26 15 -72 15h-166zM180 700h327q91 0 138 -40q45 -38 45 -110q0 -78 -50 -128q-36 -36 -90 -51v-2q41 -9 69 -42 q31 -36 31 -95q0 -102 -62 -164q-69 -68 -241 -68h-316z"/>
<glyph glyph-name="C" horiz-adv-x="733" unicode="C" d="M569 239h127q-34 -106 -95 -170q-55 -55 -113 -72.5t-135 -17.5q-151 0 -224 73q-74 74 -74 206q0 88 30.5 185t101.5 168q110 110 277 110q145 0 213 -65q60 -58 60 -155q0 -18 -1 -27h-127v5v22q0 46 -31 77q-40 37 -112 37q-106 0 -169 -66q-50 -50 -75.5 -130 t-25.5 -155q0 -86 40 -131q41 -48 125 -48q87 0 142 47q47 40 66 107z"/>
<glyph glyph-name="D" horiz-adv-x="746" unicode="D" d="M285 594l-103 -488h119q128 0 199 64q45 42 69 113t24 139q0 95 -53 137q-40 35 -140 35h-115zM180 700h273q142 0 214 -72q67 -67 67 -192q0 -28 -3 -58.5t-13.5 -84t-38 -106t-69.5 -91.5q-60 -57 -137.5 -76.5t-188.5 -19.5h-253z"/>
<glyph glyph-name="E" horiz-adv-x="634" unicode="E" d="M247 412h356l-23 -106h-356l-42 -200h408l-23 -106h-536l149 700h525l-23 -106h-397z"/>
<glyph glyph-name="F" horiz-adv-x="589" unicode="F" d="M245 402h317l-23 -106h-317l-63 -296h-128l149 700h496l-23 -106h-368z"/>
<glyph glyph-name="G" horiz-adv-x="756" unicode="G" d="M441 375h286l-80 -375h-92l20 95h-2q-31 -53 -94 -88q-58 -28 -143 -28q-138 0 -206 72q-75 78 -75 213q0 86 32.5 184t97.5 165q105 108 282 108q137 0 209 -68q66 -63 66 -169h-127v7q0 23 -12.5 49.5t-29.5 41.5q-39 33 -114 33q-98 0 -163 -66q-49 -51 -75 -131.5 t-26 -143.5q0 -98 53 -148q43 -41 123 -41q93 0 151 58q47 47 67 126h-171z"/>
<glyph glyph-name="H" horiz-adv-x="738" unicode="H" d="M226 314l-67 -314h-128l149 700h128l-60 -280h312l60 280h128l-149 -700h-128l67 314h-312z"/>
<glyph glyph-name="I" horiz-adv-x="298" unicode="I" d="M180 700h128l-149 -700h-128z"/>
<glyph glyph-name="J" horiz-adv-x="545" unicode="J" d="M16 243h128l-2 -13q-8 -43 -8 -63q0 -41 23 -63q20 -19 56 -19q47 0 71 19q37 29 57 128l100 468h128l-91 -428q-27 -124 -48 -169q-25 -55 -62 -83q-53 -41 -160 -41q-104 0 -148 39q-54 44 -54 134q0 36 7 74z"/>
<glyph glyph-name="K" horiz-adv-x="703" unicode="K" d="M239 379l373 321h174l-367 -313l221 -387h-156l-168 313l-109 -88l-48 -225h-128l149 700h128z"/>
<glyph glyph-name="L" horiz-adv-x="555" unicode="L" d="M523 106l-23 -106h-469l149 700h128l-126 -594h341z"/>
<glyph glyph-name="M" horiz-adv-x="932" unicode="M" d="M365 0l-88 554h-2l-4 -27l-112 -527h-128l149 700h198l75 -513l292 513h197l-149 -700h-128l112 527l8 27h-2l-324 -554h-94z"/>
<glyph glyph-name="N" horiz-adv-x="770" unicode="N" d="M266 507l-107 -507h-128l149 700h136l229 -507l107 507h128l-149 -700h-136z"/>
<glyph glyph-name="O" horiz-adv-x="781" unicode="O" d="M53 263q0 85 32.5 185t103.5 171q61 61 127.5 81.5t146.5 20.5q152 0 228 -76q75 -75 75 -209q0 -92 -33.5 -193t-101.5 -167q-100 -97 -274 -97q-154 0 -228 74q-76 74 -76 210zM194 266q0 -83 41 -130q42 -51 129 -51q95 0 157 62q44 44 74.5 129t30.5 163 q0 88 -43 132q-42 44 -117 44q-100 0 -167 -67q-51 -51 -78 -130.5t-27 -151.5z"/>
<glyph glyph-name="P" horiz-adv-x="667" unicode="P" d="M285 594l-49 -230h159q71 0 107 25q53 36 53 112q0 48 -40 78q-26 15 -95 15h-135zM180 700h279q124 0 173 -41q60 -46 60 -146q0 -113 -64 -177q-47 -49 -109.5 -63.5t-154.5 -14.5h-150l-55 -258h-128z"/>
<glyph glyph-name="Q" horiz-adv-x="781" unicode="Q" d="M468 256l68 -95q50 62 70 138t20 136q0 84 -42 132t-121 48q-99 0 -164 -67q-51 -53 -78 -131.5t-27 -150.5q0 -83 41 -130q42 -51 129 -51q51 0 94 18l-68 95zM589 -78l-69 95q-75 -38 -175 -38q-143 0 -216 75q-76 78 -76 213q0 85 32.5 186t103.5 170q100 98 269 98 q153 0 233 -80q75 -75 75 -212q0 -113 -42 -213q-40 -94 -117 -152l63 -88z"/>
<glyph glyph-name="R" horiz-adv-x="708" unicode="R" d="M285 594l-44 -210h170q69 0 109 25q52 32 52 97q0 51 -39 74q-23 14 -85 14h-163zM31 0l149 700h332q102 0 148 -43q50 -44 50 -126q0 -84 -48 -137q-39 -44 -106 -61v-2q26 -9 45 -29q24 -28 24 -71q0 -9 -8 -63l-11 -64q-7 -44 -7 -59q0 -27 13 -45h-132q-11 19 -11 41 q0 10 6 48l13 71q5 20 5 41q0 43 -32 62q-26 15 -85 15h-158l-59 -278h-128z"/>
<glyph glyph-name="S" horiz-adv-x="686" unicode="S" d="M36 225h127q-2 -16 -2 -24q0 -58 41 -88q37 -28 111 -28q83 0 123 25q51 30 51 97q0 46 -35 68q-13 9 -82 26l-64 14q-97 23 -136 55q-46 40 -46 110q0 115 80 179q73 62 216 62q138 0 200 -59q56 -56 56 -140v-7h-127v8q0 46 -38 72q-31 20 -97 20q-64 0 -99 -21 q-48 -29 -48 -82q0 -41 39 -62q24 -13 97 -27l61 -12q80 -16 119 -51q50 -45 50 -126q0 -76 -27.5 -127t-64.5 -75q-77 -53 -231 -53q-138 0 -202 49q-73 56 -73 168v14q0 10 1 15z"/>
<glyph glyph-name="T" horiz-adv-x="595" unicode="T" d="M311 594h-220l23 106h568l-23 -106h-220l-126 -594h-128z"/>
<glyph glyph-name="U" horiz-adv-x="719" unicode="U" d="M165 700h128l-88 -411q-12 -57 -12 -88q0 -55 37 -86q37 -30 106 -30q66 0 106 30q59 44 85 174l88 411h128l-92 -431q-18 -86 -43.5 -144.5t-75.5 -94.5q-70 -51 -199 -51q-137 0 -198 50q-71 58 -71 153q0 45 14 110z"/>
<glyph glyph-name="V" horiz-adv-x="618" unicode="V" d="M282 133l297 567h143l-390 -700h-148l-92 700h135z"/>
<glyph glyph-name="W" horiz-adv-x="940" unicode="W" d="M530 524l-226 -524h-171l-41 700h140l19 -552l241 552h144l12 -552l248 552h148l-330 -700h-176z"/>
<glyph glyph-name="X" horiz-adv-x="662" unicode="X" d="M373 454l210 246h164l-314 -351l172 -349h-154l-115 256l-216 -256h-174l329 358l-162 342h154z"/>
<glyph glyph-name="Y" horiz-adv-x="630" unicode="Y" d="M343 393l235 307h156l-347 -421l-59 -279h-128l59 279l-167 421h146z"/>
<glyph glyph-name="Z" horiz-adv-x="605" unicode="Z" d="M141 700h515l-21 -98l-483 -496h400l-23 -106h-556l24 114l480 480h-359z"/>
<glyph glyph-name="bracketleft" horiz-adv-x="385" unicode="[" d="M200 700h230l-18 -82h-112l-153 -721h112l-17 -82h-230z"/>
<glyph glyph-name="backslash" horiz-adv-x="450" unicode="\" d="M349 -185h-82l-170 885h82z"/>
<glyph glyph-name="bracketright" horiz-adv-x="388" unicode="]" d="M147 700h230l-188 -885h-230l17 82h112l153 721h-112z"/>
<glyph glyph-name="asciicircum" horiz-adv-x="494" unicode="^" d="M233 700h128l127 -218h-96l-95 168l-95 -168h-96z"/>
<glyph glyph-name="underscore" horiz-adv-x="511" unicode="_" d="M0 -185l17 82h494l-17 -82h-494z"/>
<glyph glyph-name="grave" horiz-adv-x="338" unicode="`" d="M271 700l42 -132h-90l-82 132h130z"/>
<glyph glyph-name="a" horiz-adv-x="578" unicode="a" d="M376 227l4 17q-15 -11 -41 -16q-37 -7 -53 -7h-11q-89 -6 -115 -28q-25 -25 -25 -57q0 -33 20 -49q18 -17 57 -17q50 0 83 23q59 38 81 134zM185 351h-114q17 89 86 136q60 41 160 41q96 0 148 -36q57 -39 57 -117q0 -22 -6 -54l-37 -176q-6 -30 -6 -39q0 -16 11 -21 q6 -2 13 -2h13l-18 -83q-31 -3 -57 -3q-40 0 -59 14q-23 17 -23 45v7q-31 -37 -73 -56q-44 -19 -108 -19q-78 0 -117 29q-47 36 -47 106q0 66 41 107q43 44 168 58l103 11q41 5 58 14q18 10 23 34l2 9q1 3 1 13q0 41 -30 62q-23 15 -66 15q-61 0 -91 -30q-25 -25 -32 -65z "/>
<glyph glyph-name="b" horiz-adv-x="635" unicode="b" d="M175 190q0 -58 25 -90q29 -38 85 -38q63 0 106 41q40 39 60.5 101t20.5 114q0 67 -33 100q-28 28 -77 28q-66 0 -111 -45q-37 -37 -56.5 -96t-19.5 -115zM167 700h120l-52 -244q20 26 55 47q44 25 111 25q95 0 146 -51q54 -52 54 -159q0 -64 -22.5 -132t-67.5 -122 q-42 -50 -90 -67t-112 -17q-71 0 -112 22q-35 20 -55 54h-2l-12 -56h-110z"/>
<glyph glyph-name="c" horiz-adv-x="580" unicode="c" d="M412 186h114q-23 -96 -90 -153q-65 -53 -174 -53q-116 0 -170 57q-56 56 -56 158q0 68 26.5 144.5t84.5 125.5q76 63 192 63q110 0 164 -52q54 -54 54 -137h-114v8q0 45 -25 73q-26 26 -71 26q-63 0 -103 -40q-36 -36 -57.5 -101.5t-21.5 -120.5q0 -60 32 -94 q27 -28 79 -28q58 0 94 38q28 31 42 86z"/>
<glyph glyph-name="d" horiz-adv-x="634" unicode="d" d="M161 189q0 -58 25 -90q30 -37 87 -37q62 0 105 43q39 39 60 101.5t21 117.5q0 58 -32 93q-29 29 -80 29q-69 0 -110 -44q-37 -37 -56.5 -98.5t-19.5 -114.5zM538 700h120l-149 -700h-110l11 50h-2q-64 -70 -174 -70q-94 0 -146 52q-55 59 -55 161q0 123 68 221 q81 114 224 114q117 0 160 -75z"/>
<glyph glyph-name="e" horiz-adv-x="595" unicode="e" d="M185 305h253q3 23 3 42q0 49 -22 72q-27 27 -79 27q-57 0 -94 -32q-45 -39 -61 -109zM409 147h114q-26 -84 -95 -129q-59 -38 -151 -38q-126 0 -185 61q-57 57 -57 156q0 58 20.5 128t75.5 126q43 44 92.5 60.5t114.5 16.5q118 0 174 -59q48 -51 48 -139q0 -42 -13 -107 h-380q-4 -15 -4 -43q0 -57 27 -84q30 -34 92 -34q52 0 83 23q32 24 44 62z"/>
<glyph glyph-name="f" horiz-adv-x="349" unicode="f" d="M399 508l-17 -82h-115l-91 -426h-120l91 426h-94l17 82h94l14 64q14 69 58 101q43 32 129 32q33 0 70 -8l-18 -82q-22 5 -40 5q-31 0 -54 -13q-23 -18 -31 -60l-8 -39h115z"/>
<glyph glyph-name="g" horiz-adv-x="632" unicode="g" d="M456 319q0 65 -35 98q-30 29 -80 29q-63 0 -110 -44q-72 -69 -72 -194q0 -67 33 -102q28 -32 81 -32q69 0 112 46q34 36 52.5 93.5t18.5 105.5zM503 508h110l-100 -470q-24 -117 -74 -167q-64 -64 -224 -64q-92 0 -140 33q-20 13 -38.5 40.5t-20.5 70.5h110q0 -26 24 -44 q23 -16 82 -16q72 0 109 33q15 14 25.5 32t14 30.5t9.5 38.5l9 39q-30 -39 -69 -56q-33 -16 -92 -16q-101 0 -151 53q-57 57 -57 161q0 68 27 141.5t87 122.5q71 58 176 58q116 0 170 -70h2z"/>
<glyph glyph-name="h" horiz-adv-x="606" unicode="h" d="M167 700h120l-54 -253q25 34 64 56q44 25 103 25q71 0 110 -29q46 -34 46 -106q0 -22 -13 -92l-63 -301h-120l64 302q8 40 8 64q0 41 -21 60q-22 20 -56 20q-57 0 -97 -40q-41 -39 -60 -122l-60 -284h-120z"/>
<glyph glyph-name="i" horiz-adv-x="259" unicode="i" d="M144 594l23 106h120l-23 -106h-120zM126 508h120l-108 -508h-120z"/>
<glyph glyph-name="j" horiz-adv-x="263" unicode="j" d="M147 594l23 106h120l-23 -106h-120zM129 508h120l-114 -535q-18 -85 -51 -118q-44 -44 -134 -44q-29 0 -57 4l17 82h6q39 0 61 13q29 18 40 70z"/>
<glyph glyph-name="k" horiz-adv-x="569" unicode="k" d="M198 280l267 228h143l-253 -214l159 -294h-133l-122 225l-87 -70l-34 -155h-120l149 700h120z"/>
<glyph glyph-name="l" horiz-adv-x="263" unicode="l" d="M167 700h120l-149 -700h-120z"/>
<glyph glyph-name="m" horiz-adv-x="919" unicode="m" d="M126 508h121l-15 -70q27 39 62 61q48 29 106 29q53 0 88 -25q35 -24 44 -67q33 44 76 67q45 25 105 25q77 0 117 -38q37 -35 37 -94q0 -32 -9 -77l-68 -319h-120l66 312q9 40 9 67q0 32 -19 50q-17 17 -49 17q-49 0 -88 -38q-48 -46 -67 -135l-58 -273h-120l66 312 q9 45 9 65q0 34 -18 52q-16 16 -47 16q-50 0 -94 -44q-45 -45 -59 -112l-63 -289h-120z"/>
<glyph glyph-name="n" horiz-adv-x="608" unicode="n" d="M126 508h120l-15 -73q27 42 70 67q45 26 106 26q74 0 117 -37q34 -34 34 -98q0 -31 -9 -69l-69 -324h-120l64 302q11 47 11 75q0 33 -17 50q-19 19 -52 19q-58 0 -106 -45q-46 -43 -62 -117l-60 -284h-120z"/>
<glyph glyph-name="o" horiz-adv-x="612" unicode="o" d="M161 179q0 -56 28 -88q29 -29 77 -29q58 0 101 40q38 37 59.5 104.5t21.5 121.5q0 61 -31 92q-26 26 -72 26q-62 0 -104 -42q-37 -37 -58.5 -103.5t-21.5 -121.5zM35 188q0 71 27.5 143t74.5 117q80 80 217 80q111 0 167 -56q54 -54 54 -156q0 -69 -26 -141.5t-77 -121.5 q-76 -73 -213 -73q-112 0 -167 52q-57 57 -57 156z"/>
<glyph glyph-name="p" horiz-adv-x="635" unicode="p" d="M174 187q0 -55 26 -88q29 -37 85 -37q63 0 106 42q37 35 59 98t22 122q0 62 -31 93q-29 29 -80 29q-65 0 -111 -44q-33 -33 -54.5 -94.5t-21.5 -120.5zM125 508h110l-11 -50h2q64 70 166 70q103 0 154 -51q54 -52 54 -147q0 -76 -29 -152.5t-77 -124.5q-73 -73 -189 -73 q-118 0 -157 73l-50 -238h-120z"/>
<glyph glyph-name="q" horiz-adv-x="638" unicode="q" d="M163 182q0 -60 29 -89q28 -31 80 -31q63 0 108 41q39 35 60 99.5t21 115.5q0 66 -32 98q-28 30 -79 30q-64 0 -110 -47q-40 -41 -58.5 -102t-18.5 -115zM509 508h110l-147 -693h-120l50 237q-54 -72 -171 -72q-95 0 -145 52q-51 55 -51 152q0 78 27 154t83 125 q74 65 192 65q115 0 159 -70h2z"/>
<glyph glyph-name="r" horiz-adv-x="399" unicode="r" d="M444 518l-20 -89q-22 2 -31 2q-86 0 -140 -56q-44 -44 -67 -148l-48 -227h-120l108 508h120l-20 -93h2q28 47 79 75q54 28 126 28h11z"/>
<glyph glyph-name="s" horiz-adv-x="533" unicode="s" d="M11 155h120v-3q0 -42 24 -66q25 -24 83 -24q53 0 80 19q34 24 34 68q0 31 -28 49q-13 8 -61 19l-39 8q-78 16 -101 34q-42 31 -42 93q0 87 72 136q61 40 163 40q101 0 146 -35q50 -36 50 -107v-13h-113q1 33 -20 53q-23 20 -70 20q-44 0 -71 -19q-29 -22 -29 -57 q0 -29 28 -45q14 -7 65 -19l47 -10q64 -14 89 -34q44 -33 44 -95q0 -76 -50 -126q-61 -61 -204 -61q-120 0 -170 47q-47 45 -47 126v2z"/>
<glyph glyph-name="t" horiz-adv-x="343" unicode="t" d="M71 508h82l32 152h120l-32 -152h106l-17 -82h-106l-61 -287q-5 -22 -5 -31q0 -18 15 -26q12 -6 38 -6q23 0 45 6l-17 -82q-43 -12 -89 -12q-60 0 -86 17q-33 21 -33 62q0 19 10 65l63 294h-82z"/>
<glyph glyph-name="u" horiz-adv-x="605" unicode="u" d="M478 0h-120l14 67h-2q-29 -43 -67 -64q-42 -23 -102 -23q-82 0 -121 39q-33 33 -33 96q0 31 10 79l67 314h120l-64 -302q-11 -53 -11 -72q0 -35 18 -53q19 -19 55 -19q47 0 81 24q63 46 85 145l58 277h120z"/>
<glyph glyph-name="v" horiz-adv-x="495" unicode="v" d="M220 118l204 390h132l-287 -508h-140l-78 508h124z"/>
<glyph glyph-name="w" horiz-adv-x="763" unicode="w" d="M408 360l-170 -360h-122l-65 508h125l34 -372l166 372h117l30 -366l176 366h125l-260 -508h-127z"/>
<glyph glyph-name="x" horiz-adv-x="528" unicode="x" d="M279 337l154 171h137l-239 -247l136 -261h-128l-91 185l-169 -185h-133l250 265l-130 243h131z"/>
<glyph glyph-name="y" horiz-adv-x="519" unicode="y" d="M-3 -179l19 83q18 -7 42 -7q34 0 57 21q20 20 40 62l10 21l-123 507h134l73 -378l197 378h130l-319 -566q-35 -62 -59 -86q-45 -45 -135 -45q-36 0 -66 10z"/>
<glyph glyph-name="z" horiz-adv-x="487" unicode="z" d="M101 508h401l-17 -82l-355 -344h298l-17 -82h-438l17 82l355 344h-261z"/>
<glyph glyph-name="braceleft" horiz-adv-x="504" unicode="{" d="M115 215l18 84q40 3 72 35q37 37 50 122l9 57q9 80 53 130q48 57 141 57h6l-14 -66q-21 -1 -37 -15q-11 -9 -18.5 -26t-10 -27.5t-7 -38.5t-5.5 -32l-9 -58q-13 -77 -55 -121q-38 -41 -108 -58l-1 -2q40 -12 63 -35q35 -33 35 -90q0 -40 -22 -116q-18 -65 -18 -91 q0 -24 13 -35q8 -8 22 -9l-14 -66q-66 0 -101 30q-34 28 -34 84q0 45 21 112q19 60 19 103q0 38 -20 55q-18 17 -48 17z"/>
<glyph glyph-name="bar" horiz-adv-x="511" unicode="|" d="M208 -224v1053h82v-1053h-82z"/>
<glyph glyph-name="braceright" horiz-adv-x="504" unicode="}" d="M377 299l-18 -84q-52 -7 -81 -39q-27 -29 -41 -115l-9 -61q-5 -40 -11 -65.5t-24.5 -55.5t-48.5 -46q-36 -19 -112 -19h-5l14 66h3q23 0 38 15q5 5 8.5 12t6 13t5 17.5t3.5 18.5t3 22.5t3 22.5l9 61q13 89 59 135q42 45 112 59l1 2q-35 10 -64 39q-34 35 -34 90 q0 33 17 95l12 43q11 42 11 60q0 29 -12 40q-10 9 -24 9l14 66h9q65 0 98 -33q29 -29 29 -80q0 -30 -7 -55l-13 -53q-20 -85 -20 -102q0 -37 20 -57q16 -16 49 -21z"/>
<glyph glyph-name="asciitilde" horiz-adv-x="614" unicode="~" d="M109 278l-46 19q29 77 60 108q37 34 85 34q41 0 85 -23l103 -55q28 -13 48 -13q30 0 50 20q17 17 37 64l46 -19q-26 -73 -62 -109q-33 -33 -82 -33q-42 0 -86 23l-103 55q-24 13 -48 13q-28 0 -51 -20q-19 -17 -36 -64z"/>
<glyph glyph-name="uni00A0" horiz-adv-x="233" unicode=" "/>
<glyph glyph-name="exclamdown" horiz-adv-x="346" unicode="¡" d="M291 508l-29 -135h-132l29 135h132zM144 -185h-132l48 229l86 241h64l-18 -241z"/>
<glyph glyph-name="cent" d="M243 67l80 375q-44 -6 -77 -44q-36 -44 -53 -106t-17 -114q0 -49 16 -75q15 -27 51 -36zM423 186h114q-19 -91 -82 -147q-64 -59 -154 -59h-9l-16 -72h-67l16 73q-77 2 -126 49q-53 51 -53 148q0 77 29 152t77 121q79 76 189 76l14 67h67l-14 -68q70 -4 115 -51 q44 -48 44 -129v-7h-114v5q0 44 -16 69q-17 27 -47 29l-80 -377q38 2 65 27q36 31 48 94z" unicode="¢"/>
<glyph glyph-name="sterling" d="M501 140l43 -84q-74 -77 -160 -77q-48 0 -112 29q-58 25 -98 25q-33 0 -56.5 -8t-57.5 -30l-41 87q46 26 80 56q60 55 60 124q0 16 -3 31h-109l18 82h75q-15 38 -15 82q0 122 74 193t215 71q109 0 161 -52q42 -42 42 -110q0 -34 -8 -67l-4 -18h-112l3 16q7 42 7 57 q0 44 -24 68q-26 24 -77 24q-63 0 -101 -38q-45 -42 -45 -116q0 -56 17 -110h130l-18 -82h-99v-6q0 -52 -32 -99q-27 -38 -67 -65l1 -4q25 11 57 11q48 0 87 -18q5 -2 17 -8l18 -9t17.5 -5.5t22.5 -2.5q48 0 94 53z" unicode="£"/>
<glyph glyph-name="currency" horiz-adv-x="794" unicode="¤" d="M217 296q0 -67 42 -107q41 -40 113 -40q89 0 147 53q30 28 49 72.5t19 91.5q0 66 -42 105q-42 40 -122 40q-91 0 -146 -59q-60 -60 -60 -156zM0 49l136 112q-24 52 -24 111q0 134 94 233l-86 106l74 61l84 -108q77 53 175 53q101 0 168 -56l135 111l48 -61l-136 -112 q27 -54 27 -117q0 -135 -96 -225l85 -108l-74 -61l-83 107q-73 -50 -172 -50q-109 0 -172 54l-135 -111z"/>
<glyph glyph-name="yen" d="M333 393l214 307h151l-326 -421v-4h100l-12 -54h-100l-11 -52h100l-12 -54h-100l-24 -115h-128l24 115h-100l12 54h100l11 52h-100l12 54h100v4l-146 421h151z" unicode="¥"/>
<glyph glyph-name="brokenbar" horiz-adv-x="498" unicode="¦" d="M290 399h-82v430h82v-430zM208 206h82v-430h-82v430z"/>
<glyph glyph-name="section" horiz-adv-x="615" unicode="§" d="M281 208l58 -38q35 15 56 44q21 28 21 65q0 35 -23 57q-6 6 -40 28l-58 37q-32 -19 -49 -40q-23 -29 -23 -65q0 -33 17 -53q15 -18 41 -35zM550 557h-100q5 17 5 32q0 26 -15 41q-14 12 -40 12q-27 0 -44 -16q-20 -20 -20 -53q0 -27 21 -51q16 -18 68 -45q60 -29 87 -56 q39 -40 39 -106q0 -79 -47 -130q-35 -40 -106 -69q37 -37 37 -91q0 -82 -61 -131q-53 -43 -147 -43q-75 0 -116 32q-44 35 -44 101q0 27 7 48h100q-6 -22 -6 -37q0 -28 16 -44q18 -18 47 -18q35 0 58 20q22 20 22 56q0 33 -23 54q-5 5 -12.5 9t-22.5 11t-24 12 q-66 33 -91 58q-46 46 -46 119q0 74 46 128q37 43 96 66q-22 37 -22 80q0 76 47 124q52 54 146 54q70 0 108 -29q43 -32 43 -94q0 -21 -6 -44z"/>
<glyph glyph-name="dieresis" horiz-adv-x="408" unicode="¨" d="M317 594l23 106h116l-23 -106h-116zM127 594l23 106h116l-23 -106h-116z"/>
<glyph glyph-name="copyright" horiz-adv-x="806" unicode="©" d="M147 350q0 -114 81 -198q80 -82 188 -82t188 81q81 86 81 199q0 118 -82 200q-80 80 -187 80t-187 -80q-82 -82 -82 -200zM66 350q0 144 102 246q102 104 248 104q144 0 244 -100q106 -106 106 -250t-103 -247t-247 -103q-145 0 -249 104q-101 102 -101 246zM470 297h80 q-13 -51 -49 -84q-45 -41 -122 -41q-62 0 -99 35q-35 35 -35 101q0 104 67 175q53 56 136 56q61 0 94 -30q27 -24 27 -64q0 -14 -1 -21h-76q1 5 1 14q0 18 -10 28q-11 11 -36 11q-36 0 -63 -25q-25 -24 -37.5 -65t-12.5 -79q0 -41 19 -60q14 -14 39 -14h5q31 0 49 18t24 45z "/>
<glyph glyph-name="ordfeminine" horiz-adv-x="456" unicode="ª" d="M100 310l9 44h310l-9 -44h-310zM363 536l3 16q-4 -2 -28 -9q-19 -4 -43 -5l-23 -2q-29 -3 -46 -13q-16 -9 -16 -33q0 -19 15 -28q13 -8 37 -8q46 0 73 27q21 21 28 55zM243 615h-62q8 40 32 65q36 41 114 41q53 0 85 -19q34 -21 34 -63q0 -17 -4 -32l-23 -108 q-4 -16 -4 -25t6 -13q3 -3 18 -3h2l-11 -54q-15 -4 -36 -4q-25 0 -35 9q-9 9 -9 22q0 7 1 11q-19 -19 -45 -31q-24 -11 -64 -11q-49 0 -73 20q-28 22 -28 63q0 45 35 73q24 18 88 26l30 3q8 1 20.5 2t17.5 2t12.5 2t11.5 2t8.5 3t7.5 5q11 11 11 26q0 21 -18 31q-27 9 -47 9 q-32 0 -51 -13q-22 -16 -24 -39z"/>
<glyph glyph-name="guillemotleft" horiz-adv-x="532" unicode="«" d="M358 270l78 -81l-22 -106l-121 132l23 110l177 132l-22 -106zM123 270l78 -81l-22 -106l-121 132l23 110l177 132l-22 -106z"/>
<glyph glyph-name="logicalnot" horiz-adv-x="613" unicode="¬" d="M67 405h500l-48 -225h-86l30 139h-414z"/>
<glyph glyph-name="uni00AD" horiz-adv-x="427" unicode="­" d="M73 216l23 106h260l-23 -106h-260z"/>
<glyph glyph-name="registered" horiz-adv-x="808" unicode="®" d="M74 350q0 144 102 246q102 104 248 104q144 0 244 -100q106 -106 106 -250t-103 -247t-247 -103q-145 0 -249 104q-101 102 -101 246zM155 350q0 -114 81 -198q80 -82 188 -82t188 81q81 86 81 199q0 118 -82 200q-80 80 -187 80t-187 -80q-82 -82 -82 -200zM404 466 l-19 -90h60q31 0 45 14q15 13 15 38q0 22 -13 30t-40 8h-48zM263 178l74 350h153q51 0 76 -25q23 -23 23 -62q0 -44 -29 -71q-22 -19 -51 -24v-2q18 -7 23 -12q13 -12 13 -37q0 -23 -3 -34l-6 -33q-3 -24 -3 -26q0 -12 5 -24h-82q-5 11 -5 24q0 11 3 23l6 30q2 14 2 21 q0 22 -14 31q-10 7 -39 7h-37l-29 -136h-80z"/>
<glyph glyph-name="overscore" horiz-adv-x="435" unicode="¯" d="M128 602l18 82h330l-18 -82h-330z"/>
<glyph glyph-name="degree" horiz-adv-x="271" unicode="°" d="M165 600q0 -20 13 -33t33 -13t33 13t13 33t-13 33t-33 13t-33 -13t-13 -33zM111 600q0 42 29 71t71 29q41 0 70.5 -29.5t29.5 -70.5q0 -42 -29 -71t-71 -29q-43 0 -71.5 28.5t-28.5 71.5z"/>
<glyph glyph-name="plusminus" d="M63 166h500v-86h-500v86zM63 463h207v187h86v-187h207v-86h-207v-167h-86v167h-207v86z" unicode="±"/>
<glyph glyph-name="twosuperior" horiz-adv-x="376" unicode="²" d="M318 346l-13 -66h-300q8 64 55 111q23 23 94 63l40 22q72 46 74 48q30 29 30 65q0 28 -19 44q-18 15 -51 15q-45 0 -66 -23q-15 -15 -27 -63l-1 -6h-70l1 7q10 67 50 107q44 43 118 43q62 0 101 -27q44 -32 44 -92q0 -56 -42 -95q-26 -25 -87 -58l-37 -21 q-39 -21 -64 -39q-24 -17 -31 -35h201z"/>
<glyph glyph-name="threesuperior" horiz-adv-x="359" unicode="³" d="M27 415h70q-1 -7 -1 -21q0 -30 17 -47q18 -18 56 -18q40 0 65 22q22 22 22 60q0 30 -19 44q-15 11 -50 11h-24l14 64h31q39 0 60 17q21 19 21 49q0 23 -19 42q-16 13 -49 13q-38 0 -58 -22q-23 -23 -23 -64h-70q6 60 43 101q42 47 122 47q61 0 91 -25q35 -28 35 -76 t-30 -76q-28 -25 -65 -32l-1 -4q25 -4 42 -21q24 -24 24 -63q0 -66 -40 -106q-43 -43 -128 -43q-74 0 -108 32q-31 30 -31 83q0 9 3 33z"/>
<glyph glyph-name="acute" horiz-adv-x="330" unicode="´" d="M258 700h130l-138 -132h-90z"/>
<glyph glyph-name="mu" horiz-adv-x="614" unicode="µ" d="M150 45l-49 -230h-120l147 693h120l-59 -277q-11 -55 -11 -79q0 -41 22 -63q18 -18 46 -18q44 0 76 32q36 36 57 128l59 277h120l-78 -365q-4 -11 -4 -29q0 -17 7 -24q7 -9 24 -9q4 0 14 2l-18 -83q-35 -5 -74 -5q-48 0 -65 16q-20 20 -20 47q-18 -38 -48 -59 q-28 -19 -66 -19q-37 0 -58 21q-17 17 -22 44z"/>
<glyph glyph-name="mu" horiz-adv-x="614" unicode="μ" d="M150 45l-49 -230h-120l147 693h120l-59 -277q-11 -55 -11 -79q0 -41 22 -63q18 -18 46 -18q44 0 76 32q36 36 57 128l59 277h120l-78 -365q-4 -11 -4 -29q0 -17 7 -24q7 -9 24 -9q4 0 14 2l-18 -83q-35 -5 -74 -5q-48 0 -65 16q-20 20 -20 47q-18 -38 -48 -59 q-28 -19 -66 -19q-37 0 -58 21q-17 17 -22 44z"/>
<glyph glyph-name="paragraph" horiz-adv-x="560" unicode="¶" d="M271 -185l188 885h82l-188 -885h-82zM82 -185l111 525h-12q-59 0 -95 38q-39 41 -39 109q0 92 55 150q27 29 65.5 43.5t64.5 17t70 2.5h50l-188 -885h-82z"/>
<glyph glyph-name="middot" horiz-adv-x="288" unicode="·" d="M64 200l28 135h132l-28 -135h-132z"/>
<glyph glyph-name="cedilla" horiz-adv-x="299" unicode="¸" d="M36 -232l32 61q26 -9 57 -9t45 10q14 11 14 26q0 16 -16 22q-12 4 -32 4h-41l31 60h44q54 0 76 -14q30 -19 30 -61q0 -43 -28 -70q-37 -37 -136 -37q-36 0 -76 8z"/>
<glyph glyph-name="onesuperior" horiz-adv-x="370" unicode="¹" d="M178 589l9 42h5q47 0 76 16q33 19 47 53h57l-89 -420h-74l65 309h-96z"/>
<glyph glyph-name="ordmasculine" horiz-adv-x="467" unicode="º" d="M100 310l9 44h300l-9 -44h-300zM389 600q0 34 -16 50q-16 17 -48 17q-41 0 -68 -30q-41 -44 -41 -119q0 -35 14 -52q18 -19 49 -19q40 0 66 26q20 20 32 57.5t12 69.5zM457 603q0 -45 -17.5 -93t-48.5 -77q-44 -40 -118 -40q-68 0 -98 33q-28 29 -28 87q0 103 68 165 q47 43 117 43q63 0 94 -31t31 -87z"/>
<glyph glyph-name="guillemotright" horiz-adv-x="471" unicode="»" d="M175 270l-76 81l22 106l121 -132l-23 -110l-177 -132l22 106zM351 270l-76 81l22 106l121 -132l-23 -110l-177 -132l22 106z"/>
<glyph glyph-name="onequarter" horiz-adv-x="748" unicode="¼" d="M93 0l577 700h80l-577 -700h-80zM154 589l9 42h5q47 0 76 16q33 19 47 53h57l-89 -420h-74l65 309h-96zM504 156h122l35 164zM613 94h-202l13 62l258 264h74l-56 -264h60l-13 -62h-60l-20 -94h-74z"/>
<glyph glyph-name="onehalf" horiz-adv-x="815" unicode="½" d="M93 0l577 700h80l-577 -700h-80zM767 66l-13 -66h-300q8 64 55 111q23 23 94 63l40 22q72 46 74 48q30 29 30 65q0 28 -20 44q-18 15 -54 15q-40 0 -62 -23q-16 -17 -27 -63l-1 -6h-70l1 7q10 67 50 107q44 43 117 43q62 0 101 -27q45 -33 45 -92q0 -56 -42 -95 q-26 -25 -87 -58l-37 -21q-39 -21 -64 -39q-24 -17 -31 -35h201zM154 589l9 42h5q47 0 76 16q33 19 47 53h57l-89 -420h-74l65 309h-96z"/>
<glyph glyph-name="threequarters" horiz-adv-x="833" unicode="¾" d="M188 0l577 700h80l-577 -700h-80zM577 156h122l35 164zM686 94h-202l13 62l258 264h74l-56 -264h60l-13 -62h-60l-20 -94h-74zM96 415h70q-1 -7 -1 -21q0 -30 17 -47q18 -18 56 -18q40 0 65 22q22 22 22 60q0 30 -19 44q-15 11 -50 11h-24l14 64h20q47 0 72 21 q20 17 20 46q0 27 -18 41q-15 13 -46 13q-37 0 -59 -23q-21 -24 -26 -63h-70q6 60 43 101q42 47 122 47q58 0 90 -25q36 -28 36 -77q0 -46 -30 -75q-28 -25 -65 -32l-1 -4q25 -4 42 -21q24 -24 24 -63q0 -66 -40 -106q-43 -43 -128 -43q-74 0 -108 32q-31 30 -31 83 q0 9 3 33z"/>
<glyph glyph-name="questiondown" horiz-adv-x="583" unicode="¿" d="M353 31h123q-13 -105 -76 -168q-70 -70 -202 -70q-102 0 -153 42q-53 43 -53 121q0 73 51 130q28 31 90 69.5t81 59.5q30 32 39 78h98q-10 -52 -23 -78.5t-43 -57.5q-23 -23 -67 -56q-47 -33 -60 -47q-33 -35 -33 -75q0 -43 32 -63q22 -16 64 -16q60 0 93 37q32 36 39 94 zM415 508l-29 -135h-132l29 135h132z"/>
<glyph glyph-name="Agrave" horiz-adv-x="662" unicode="À" d="M412 900l78 -140h-96l-118 140h136zM230 253h212l-40 311zM173 147l-82 -147h-139l413 700h128l115 -700h-135l-20 147h-280z"/>
<glyph glyph-name="Aacute" horiz-adv-x="662" unicode="Á" d="M478 892h130l-138 -132h-90zM230 253h212l-40 311zM173 147l-82 -147h-139l413 700h128l115 -700h-135l-20 147h-280z"/>
<glyph glyph-name="Acircumflex" horiz-adv-x="662" unicode="Â" d="M448 849l-109 -89h-110l148 132h160l92 -132h-110zM230 253h212l-40 311zM173 147l-82 -147h-139l413 700h128l115 -700h-135l-20 147h-280z"/>
<glyph glyph-name="Atilde" horiz-adv-x="662" unicode="Ã" d="M567 892h74q-13 -33 -38 -60q-38 -42 -99 -42q-36 0 -68 18l-13 7q-33 19 -56 19q-20 0 -36 -10q-13 -10 -20 -26h-74q13 34 37 58q41 44 101 44q37 0 64 -15l23 -12q36 -17 55 -17q17 0 31 10q12 9 19 26zM230 253h212l-40 311zM173 147l-82 -147h-139l413 700h128 l115 -700h-135l-20 147h-280z"/>
<glyph glyph-name="Adieresis" horiz-adv-x="662" unicode="Ä" d="M477 786l23 106h116l-23 -106h-116zM287 786l23 106h116l-23 -106h-116zM230 253h212l-40 311zM173 147l-82 -147h-139l413 700h128l115 -700h-135l-20 147h-280z"/>
<glyph glyph-name="Aring" horiz-adv-x="662" unicode="Å" d="M394 826q0 -18 13 -31t31 -13t31 13t13 31t-13 31t-31 13t-31 -13t-13 -31zM344 826q0 38 28 66t66 28t66 -28t28 -66t-28 -66t-66 -28t-66 28t-28 66zM230 253h212l-40 311zM173 147l-82 -147h-139l413 700h128l115 -700h-135l-20 147h-280z"/>
<glyph glyph-name="AE" horiz-adv-x="1053" unicode="Æ" d="M505 260l71 334h-42l-251 -334h222zM450 0l33 154h-278l-117 -154h-152l546 700h642l-23 -106h-397l-38 -182h356l-23 -106h-356l-42 -200h408l-23 -106h-536z"/>
<glyph glyph-name="Ccedilla" horiz-adv-x="733" unicode="Ç" d="M216 -232l32 61q25 -9 57 -9q31 0 44 8q15 9 15 28q0 16 -16 22q-12 4 -32 4h-41l31 60h44q49 0 73 -13q33 -18 33 -62q0 -45 -27 -72q-22 -22 -53 -28.5t-81 -6.5q-42 0 -79 8zM569 239h127q-34 -106 -95 -170q-55 -55 -113 -72.5t-135 -17.5q-151 0 -224 73 q-74 74 -74 206q0 88 30.5 185t101.5 168q110 110 277 110q145 0 213 -65q60 -58 60 -155q0 -18 -1 -27h-127v5v22q0 46 -31 77q-40 37 -112 37q-106 0 -169 -66q-50 -50 -75.5 -130t-25.5 -155q0 -86 40 -131q41 -48 125 -48q87 0 142 47q47 40 66 107z"/>
<glyph glyph-name="Egrave" horiz-adv-x="634" unicode="È" d="M442 900l78 -140h-96l-118 140h136zM247 412h356l-23 -106h-356l-42 -200h408l-23 -106h-536l149 700h525l-23 -106h-397z"/>
<glyph glyph-name="Eacute" horiz-adv-x="634" unicode="É" d="M458 892h130l-138 -132h-90zM247 412h356l-23 -106h-356l-42 -200h408l-23 -106h-536l149 700h525l-23 -106h-397z"/>
<glyph glyph-name="Ecircumflex" horiz-adv-x="634" unicode="Ê" d="M468 849l-109 -89h-110l148 132h160l92 -132h-110zM247 412h356l-23 -106h-356l-42 -200h408l-23 -106h-536l149 700h525l-23 -106h-397z"/>
<glyph glyph-name="Edieresis" horiz-adv-x="634" unicode="Ë" d="M487 786l23 106h116l-23 -106h-116zM297 786l23 106h116l-23 -106h-116zM247 412h356l-23 -106h-356l-42 -200h408l-23 -106h-536l149 700h525l-23 -106h-397z"/>
<glyph glyph-name="Igrave" horiz-adv-x="298" unicode="Ì" d="M233 900l78 -140h-96l-118 140h136zM180 700h128l-149 -700h-128z"/>
<glyph glyph-name="Iacute" horiz-adv-x="298" unicode="Í" d="M288 892h130l-138 -132h-90zM180 700h128l-149 -700h-128z"/>
<glyph glyph-name="Icircumflex" horiz-adv-x="298" unicode="Î" d="M269 849l-109 -89h-110l148 132h160l92 -132h-110zM180 700h128l-149 -700h-128z"/>
<glyph glyph-name="Idieresis" horiz-adv-x="298" unicode="Ï" d="M293 786l23 106h116l-23 -106h-116zM103 786l23 106h116l-23 -106h-116zM180 700h128l-149 -700h-128z"/>
<glyph glyph-name="Eth" horiz-adv-x="765" unicode="Ð" d="M304 594l-33 -156h197l-17 -82h-197l-53 -250h119q128 0 199 64q45 42 69 113t24 139q0 94 -53 137q-44 35 -134 35h-121zM199 700h273q142 0 214 -72q67 -67 67 -193q0 -51 -8 -103.5t-38 -121t-78 -114.5q-60 -57 -137.5 -76.5t-188.5 -19.5h-253l76 356h-95l17 82h95z "/>
<glyph glyph-name="Ntilde" horiz-adv-x="770" unicode="Ñ" d="M627 892h74q-13 -33 -38 -60q-38 -42 -99 -42q-36 0 -68 18l-13 7q-33 19 -56 19q-20 0 -36 -10q-13 -10 -20 -26h-74q13 34 37 58q41 44 101 44q37 0 64 -15l23 -12q36 -17 55 -17q17 0 31 10q12 9 19 26zM266 507l-107 -507h-128l149 700h136l229 -507l107 507h128 l-149 -700h-136z"/>
<glyph glyph-name="Ograve" horiz-adv-x="781" unicode="Ò" d="M492 900l78 -140h-96l-118 140h136zM53 263q0 85 32.5 185t103.5 171q61 61 127.5 81.5t146.5 20.5q152 0 228 -76q75 -75 75 -209q0 -92 -33.5 -193t-101.5 -167q-100 -97 -274 -97q-154 0 -228 74q-76 74 -76 210zM194 266q0 -83 41 -130q42 -51 129 -51q95 0 157 62 q44 44 74.5 129t30.5 163q0 88 -43 132q-42 44 -117 44q-100 0 -167 -67q-51 -51 -78 -130.5t-27 -151.5z"/>
<glyph glyph-name="Oacute" horiz-adv-x="781" unicode="Ó" d="M503 892h130l-138 -132h-90zM53 263q0 85 32.5 185t103.5 171q61 61 127.5 81.5t146.5 20.5q152 0 228 -76q75 -75 75 -209q0 -92 -33.5 -193t-101.5 -167q-100 -97 -274 -97q-154 0 -228 74q-76 74 -76 210zM194 266q0 -83 41 -130q42 -51 129 -51q95 0 157 62 q44 44 74.5 129t30.5 163q0 88 -43 132q-42 44 -117 44q-100 0 -167 -67q-51 -51 -78 -130.5t-27 -151.5z"/>
<glyph glyph-name="Ocircumflex" horiz-adv-x="781" unicode="Ô" d="M518 849l-109 -89h-110l148 132h160l92 -132h-110zM53 263q0 85 32.5 185t103.5 171q61 61 127.5 81.5t146.5 20.5q152 0 228 -76q75 -75 75 -209q0 -92 -33.5 -193t-101.5 -167q-100 -97 -274 -97q-154 0 -228 74q-76 74 -76 210zM194 266q0 -83 41 -130q42 -51 129 -51 q95 0 157 62q44 44 74.5 129t30.5 163q0 88 -43 132q-42 44 -117 44q-100 0 -167 -67q-51 -51 -78 -130.5t-27 -151.5z"/>
<glyph glyph-name="Otilde" horiz-adv-x="781" unicode="Õ" d="M647 892h74q-13 -33 -38 -60q-38 -42 -99 -42q-36 0 -68 18l-13 7q-33 19 -56 19q-20 0 -36 -10q-13 -10 -20 -26h-74q13 34 37 58q41 44 101 44q37 0 64 -15l23 -12q36 -17 55 -17q17 0 31 10q12 9 19 26zM53 263q0 85 32.5 185t103.5 171q61 61 127.5 81.5t146.5 20.5 q152 0 228 -76q75 -75 75 -209q0 -92 -33.5 -193t-101.5 -167q-100 -97 -274 -97q-154 0 -228 74q-76 74 -76 210zM194 266q0 -83 41 -130q42 -51 129 -51q95 0 157 62q44 44 74.5 129t30.5 163q0 88 -43 132q-42 44 -117 44q-100 0 -167 -67q-51 -51 -78 -130.5t-27 -151.5 z"/>
<glyph glyph-name="Odieresis" horiz-adv-x="781" unicode="Ö" d="M527 786l23 106h116l-23 -106h-116zM337 786l23 106h116l-23 -106h-116zM53 263q0 85 32.5 185t103.5 171q61 61 127.5 81.5t146.5 20.5q152 0 228 -76q75 -75 75 -209q0 -92 -33.5 -193t-101.5 -167q-100 -97 -274 -97q-154 0 -228 74q-76 74 -76 210zM194 266 q0 -83 41 -130q42 -51 129 -51q95 0 157 62q44 44 74.5 129t30.5 163q0 88 -43 132q-42 44 -117 44q-100 0 -167 -67q-51 -51 -78 -130.5t-27 -151.5z"/>
<glyph glyph-name="multiply" horiz-adv-x="618" unicode="×" d="M78 166l183 183l-183 183l61 61l183 -183l183 183l61 -61l-183 -183l183 -183l-61 -61l-183 183l-183 -183z"/>
<glyph glyph-name="Oslash" horiz-adv-x="792" unicode="Ø" d="M614 514l-382 -372q51 -57 136 -57q91 0 153 62q42 42 73.5 129.5t31.5 163.5q0 38 -12 74zM201 211l376 365q-45 39 -112 39q-99 0 -166 -67q-51 -51 -78 -131t-27 -151q0 -25 7 -55zM-8 8l98 95q-37 67 -37 156q0 96 35.5 195.5t100.5 164.5q60 61 127 81.5t147 20.5 q65 0 110.5 -12t91.5 -45l133 127l50 -50l-133 -129q51 -76 51 -174q0 -94 -33.5 -195t-101.5 -167q-60 -58 -129.5 -77.5t-152.5 -19.5q-70 0 -118.5 14.5t-96.5 53.5l-92 -89z"/>
<glyph glyph-name="Ugrave" horiz-adv-x="719" unicode="Ù" d="M452 900l78 -140h-96l-118 140h136zM165 700h128l-88 -411q-12 -57 -12 -88q0 -55 37 -86q37 -30 106 -30q66 0 106 30q59 44 85 174l88 411h128l-92 -431q-18 -86 -43.5 -144.5t-75.5 -94.5q-70 -51 -199 -51q-137 0 -198 50q-71 58 -71 153q0 45 14 110z"/>
<glyph glyph-name="Uacute" horiz-adv-x="719" unicode="Ú" d="M498 892h130l-138 -132h-90zM165 700h128l-88 -411q-12 -57 -12 -88q0 -55 37 -86q37 -30 106 -30q66 0 106 30q59 44 85 174l88 411h128l-92 -431q-18 -86 -43.5 -144.5t-75.5 -94.5q-70 -51 -199 -51q-137 0 -198 50q-71 58 -71 153q0 45 14 110z"/>
<glyph glyph-name="Ucircumflex" horiz-adv-x="719" unicode="Û" d="M468 849l-109 -89h-110l148 132h160l92 -132h-110zM165 700h128l-88 -411q-12 -57 -12 -88q0 -55 37 -86q37 -30 106 -30q66 0 106 30q59 44 85 174l88 411h128l-92 -431q-18 -86 -43.5 -144.5t-75.5 -94.5q-70 -51 -199 -51q-137 0 -198 50q-71 58 -71 153q0 45 14 110z "/>
<glyph glyph-name="Udieresis" horiz-adv-x="719" unicode="Ü" d="M502 786l23 106h116l-23 -106h-116zM312 786l23 106h116l-23 -106h-116zM165 700h128l-88 -411q-12 -57 -12 -88q0 -55 37 -86q37 -30 106 -30q66 0 106 30q59 44 85 174l88 411h128l-92 -431q-18 -86 -43.5 -144.5t-75.5 -94.5q-70 -51 -199 -51q-137 0 -198 50 q-71 58 -71 153q0 45 14 110z"/>
<glyph glyph-name="Yacute" horiz-adv-x="630" unicode="Ý" d="M438 892h130l-138 -132h-90zM343 393l235 307h156l-347 -421l-59 -279h-128l59 279l-167 421h146z"/>
<glyph glyph-name="Thorn" horiz-adv-x="642" unicode="Þ" d="M260 473l-49 -230h159q71 0 107 25q53 36 53 112q0 48 -40 78q-26 15 -95 15h-135zM180 700h128l-26 -121h152q124 0 173 -41q60 -46 60 -146q0 -113 -64 -177q-47 -49 -109.5 -63.5t-154.5 -14.5h-150l-30 -137h-128z"/>
<glyph glyph-name="germandbls" horiz-adv-x="593" unicode="ß" d="M18 0l97 458q11 49 19.5 77.5t32 69.5t56.5 67q63 48 160 48q94 0 139 -39q48 -38 48 -110q0 -60 -31 -105q-33 -48 -94 -63l-1 -2q49 -12 75 -38q38 -38 38 -106q0 -105 -63 -179q-72 -86 -217 -86q-41 0 -72 8l17 82q24 -8 50 -8q64 0 105 41q24 24 38.5 63.5 t14.5 76.5q0 51 -37 75q-27 18 -93 18h-21l17 82h25q52 0 85 27q41 35 41 103q0 39 -22 59q-19 19 -58 19q-49 0 -79 -34q-25 -28 -46 -117l-104 -487h-120z"/>
<glyph glyph-name="agrave" horiz-adv-x="578" unicode="à" d="M376 227l4 17q-15 -11 -41 -16q-37 -7 -53 -7h-11q-89 -6 -115 -28q-25 -25 -25 -57q0 -33 20 -49q18 -17 57 -17q50 0 83 23q59 38 81 134zM185 351h-114q17 89 86 136q60 41 160 41q96 0 148 -36q57 -39 57 -117q0 -22 -6 -54l-37 -176q-6 -30 -6 -39q0 -16 11 -21 q6 -2 13 -2h13l-18 -83q-31 -3 -57 -3q-40 0 -59 14q-23 17 -23 45v7q-31 -37 -73 -56q-44 -19 -108 -19q-78 0 -117 29q-47 36 -47 106q0 66 41 107q43 44 168 58l103 11q41 5 58 14q18 10 23 34l2 9q1 3 1 13q0 41 -30 62q-23 15 -66 15q-61 0 -91 -30q-25 -25 -32 -65z M371 700l42 -132h-90l-82 132h130z"/>
<glyph glyph-name="aacute" horiz-adv-x="578" unicode="á" d="M358 700h130l-138 -132h-90zM376 227l4 17q-15 -11 -41 -16q-37 -7 -53 -7h-11q-89 -6 -115 -28q-25 -25 -25 -57q0 -33 20 -49q18 -17 57 -17q50 0 83 23q59 38 81 134zM185 351h-114q17 89 86 136q60 41 160 41q96 0 148 -36q57 -39 57 -117q0 -22 -6 -54l-37 -176 q-6 -30 -6 -39q0 -16 11 -21q6 -2 13 -2h13l-18 -83q-31 -3 -57 -3q-40 0 -59 14q-23 17 -23 45v7q-31 -37 -73 -56q-44 -19 -108 -19q-78 0 -117 29q-47 36 -47 106q0 66 41 107q43 44 168 58l103 11q41 5 58 14q18 10 23 34l2 9q1 3 1 13q0 41 -30 62q-23 15 -66 15 q-61 0 -91 -30q-25 -25 -32 -65z"/>
<glyph glyph-name="acircumflex" horiz-adv-x="578" unicode="â" d="M376 227l4 17q-15 -11 -41 -16q-37 -7 -53 -7h-11q-89 -6 -115 -28q-25 -25 -25 -57q0 -33 20 -49q18 -17 57 -17q50 0 83 23q59 38 81 134zM185 351h-114q17 89 86 136q60 41 160 41q96 0 148 -36q57 -39 57 -117q0 -22 -6 -54l-37 -176q-6 -30 -6 -39q0 -16 11 -21 q6 -2 13 -2h13l-18 -83q-31 -3 -57 -3q-40 0 -59 14q-23 17 -23 45v7q-31 -37 -73 -56q-44 -19 -108 -19q-78 0 -117 29q-47 36 -47 106q0 66 41 107q43 44 168 58l103 11q41 5 58 14q18 10 23 34l2 9q1 3 1 13q0 41 -30 62q-23 15 -66 15q-61 0 -91 -30q-25 -25 -32 -65z M353 657l-109 -89h-110l148 132h160l92 -132h-110z"/>
<glyph glyph-name="atilde" horiz-adv-x="578" unicode="ã" d="M454 685h74q-13 -29 -33 -56q-36 -46 -89 -46q-42 0 -73 18l-18 10q-28 16 -50 16q-21 0 -34 -10t-20 -26h-74q13 35 41 63q39 39 92 39q36 0 65 -15l23 -12q36 -17 50 -17q19 0 31 12q7 7 15 24zM376 227l4 17q-15 -11 -41 -16q-37 -7 -53 -7h-11q-89 -6 -115 -28 q-25 -25 -25 -57q0 -33 20 -49q18 -17 57 -17q50 0 83 23q59 38 81 134zM185 351h-114q17 89 86 136q60 41 160 41q96 0 148 -36q57 -39 57 -117q0 -22 -6 -54l-37 -176q-6 -30 -6 -39q0 -16 11 -21q6 -2 13 -2h13l-18 -83q-31 -3 -57 -3q-40 0 -59 14q-23 17 -23 45v7 q-31 -37 -73 -56q-44 -19 -108 -19q-78 0 -117 29q-47 36 -47 106q0 66 41 107q43 44 168 58l103 11q41 5 58 14q18 10 23 34l2 9q1 3 1 13q0 41 -30 62q-23 15 -66 15q-61 0 -91 -30q-25 -25 -32 -65z"/>
<glyph glyph-name="adieresis" horiz-adv-x="578" unicode="ä" d="M376 227l4 17q-15 -11 -41 -16q-37 -7 -53 -7h-11q-89 -6 -115 -28q-25 -25 -25 -57q0 -33 20 -49q18 -17 57 -17q50 0 83 23q59 38 81 134zM185 351h-114q17 89 86 136q60 41 160 41q96 0 148 -36q57 -39 57 -117q0 -22 -6 -54l-37 -176q-6 -30 -6 -39q0 -16 11 -21 q6 -2 13 -2h13l-18 -83q-31 -3 -57 -3q-40 0 -59 14q-23 17 -23 45v7q-31 -37 -73 -56q-44 -19 -108 -19q-78 0 -117 29q-47 36 -47 106q0 66 41 107q43 44 168 58l103 11q41 5 58 14q18 10 23 34l2 9q1 3 1 13q0 41 -30 62q-23 15 -66 15q-61 0 -91 -30q-25 -25 -32 -65z M377 594l23 106h116l-23 -106h-116zM187 594l23 106h116l-23 -106h-116z"/>
<glyph glyph-name="aring" horiz-adv-x="578" unicode="å" d="M284 649q0 -18 13 -31t31 -13t31 13t13 31t-13 31t-31 13t-31 -13t-13 -31zM234 649q0 38 28 66t66 28t66 -28t28 -66t-28 -66t-66 -28t-66 28t-28 66zM376 227l4 17q-15 -11 -41 -16q-37 -7 -53 -7h-11q-89 -6 -115 -28q-25 -25 -25 -57q0 -33 20 -49q18 -17 57 -17 q50 0 83 23q59 38 81 134zM185 351h-114q17 89 86 136q60 41 160 41q96 0 148 -36q57 -39 57 -117q0 -22 -6 -54l-37 -176q-6 -30 -6 -39q0 -16 11 -21q6 -2 13 -2h13l-18 -83q-31 -3 -57 -3q-40 0 -59 14q-23 17 -23 45v7q-31 -37 -73 -56q-44 -19 -108 -19q-78 0 -117 29 q-47 36 -47 106q0 66 41 107q43 44 168 58l103 11q41 5 58 14q18 10 23 34l2 9q1 3 1 13q0 41 -30 62q-23 15 -66 15q-61 0 -91 -30q-25 -25 -32 -65z"/>
<glyph glyph-name="ae" horiz-adv-x="927" unicode="æ" d="M376 227l4 17q-15 -11 -41 -16q-37 -7 -53 -7h-11q-89 -6 -115 -28q-25 -20 -25 -57q0 -29 20 -49q18 -17 57 -17q50 0 83 23q59 38 81 134zM518 305h253q3 23 3 42q0 49 -22 72q-27 27 -79 27q-58 0 -94 -32q-46 -40 -61 -109zM185 351h-114q17 89 86 136q60 41 162 41 q120 0 170 -76q67 76 182 76q114 0 170 -56q51 -51 51 -142q0 -42 -13 -107h-380q-4 -15 -4 -43q0 -57 27 -84q30 -34 92 -34q52 0 83 23q32 24 44 62h114q-26 -84 -95 -129q-61 -38 -154 -38q-142 0 -197 91q-40 -44 -96 -65q-49 -18 -124 -18q-91 0 -133 33 q-48 40 -48 107q0 63 40 103q45 45 168 57q10 1 103 11q41 5 59 14q18 10 23 34l2 9q1 3 1 13q0 41 -30 62q-23 15 -66 15q-61 0 -91 -30q-25 -25 -32 -65z"/>
<glyph glyph-name="ccedilla" horiz-adv-x="580" unicode="ç" d="M412 186h114q-23 -96 -90 -153q-65 -53 -174 -53q-116 0 -170 57q-56 56 -56 158q0 68 26.5 144.5t84.5 125.5q76 63 192 63q110 0 164 -52q54 -54 54 -137h-114v8q0 45 -25 73q-26 26 -71 26q-63 0 -103 -40q-36 -36 -57.5 -101.5t-21.5 -120.5q0 -60 32 -94 q27 -28 79 -28q58 0 94 38q28 31 42 86zM116 -232l32 61q26 -9 57 -9t45 10q14 11 14 26q0 16 -16 22q-12 4 -32 4h-41l31 60h44q54 0 76 -14q30 -19 30 -61q0 -43 -28 -70q-37 -37 -136 -37q-36 0 -76 8z"/>
<glyph glyph-name="egrave" horiz-adv-x="595" unicode="è" d="M185 305h253q3 23 3 42q0 49 -22 72q-27 27 -79 27q-57 0 -94 -32q-45 -39 -61 -109zM409 147h114q-26 -84 -95 -129q-59 -38 -151 -38q-126 0 -185 61q-57 57 -57 156q0 58 20.5 128t75.5 126q43 44 92.5 60.5t114.5 16.5q118 0 174 -59q48 -51 48 -139q0 -42 -13 -107 h-380q-4 -15 -4 -43q0 -57 27 -84q30 -34 92 -34q52 0 83 23q32 24 44 62zM381 700l42 -132h-90l-82 132h130z"/>
<glyph glyph-name="eacute" horiz-adv-x="595" unicode="é" d="M368 700h130l-138 -132h-90zM185 305h253q3 23 3 42q0 49 -22 72q-27 27 -79 27q-57 0 -94 -32q-45 -39 -61 -109zM409 147h114q-26 -84 -95 -129q-59 -38 -151 -38q-126 0 -185 61q-57 57 -57 156q0 58 20.5 128t75.5 126q43 44 92.5 60.5t114.5 16.5q118 0 174 -59 q48 -51 48 -139q0 -42 -13 -107h-380q-4 -15 -4 -43q0 -57 27 -84q30 -34 92 -34q52 0 83 23q32 24 44 62z"/>
<glyph glyph-name="ecircumflex" horiz-adv-x="595" unicode="ê" d="M185 305h253q3 23 3 42q0 49 -22 72q-27 27 -79 27q-57 0 -94 -32q-45 -39 -61 -109zM409 147h114q-26 -84 -95 -129q-59 -38 -151 -38q-126 0 -185 61q-57 57 -57 156q0 58 20.5 128t75.5 126q43 44 92.5 60.5t114.5 16.5q118 0 174 -59q48 -51 48 -139q0 -42 -13 -107 h-380q-4 -15 -4 -43q0 -57 27 -84q30 -34 92 -34q52 0 83 23q32 24 44 62zM368 657l-109 -89h-110l148 132h160l92 -132h-110z"/>
<glyph glyph-name="edieresis" horiz-adv-x="595" unicode="ë" d="M412 594l23 106h116l-23 -106h-116zM222 594l23 106h116l-23 -106h-116zM185 305h253q3 23 3 42q0 49 -22 72q-27 27 -79 27q-57 0 -94 -32q-45 -39 -61 -109zM409 147h114q-26 -84 -95 -129q-59 -38 -151 -38q-126 0 -185 61q-57 57 -57 156q0 58 20.5 128t75.5 126 q43 44 92.5 60.5t114.5 16.5q118 0 174 -59q48 -51 48 -139q0 -42 -13 -107h-380q-4 -15 -4 -43q0 -57 27 -84q30 -34 92 -34q52 0 83 23q32 24 44 62z"/>
<glyph glyph-name="igrave" horiz-adv-x="259" unicode="ì" d="M126 508h120l-108 -508h-120zM207 700l42 -132h-90l-82 132h130z"/>
<glyph glyph-name="iacute" horiz-adv-x="259" unicode="í" d="M244 700h130l-138 -132h-90zM126 508h120l-108 -508h-120z"/>
<glyph glyph-name="icircumflex" horiz-adv-x="259" unicode="î" d="M126 508h120l-108 -508h-120zM200 657l-109 -89h-110l148 132h160l92 -132h-110z"/>
<glyph glyph-name="idieresis" horiz-adv-x="259" unicode="ï" d="M244 594l23 106h116l-23 -106h-116zM54 594l23 106h116l-23 -106h-116zM126 508h120l-108 -508h-120z"/>
<glyph glyph-name="eth" horiz-adv-x="624" unicode="ð" d="M161 182q0 -57 26 -86q32 -34 82 -34q67 0 114 48q34 36 54 95.5t20 106.5q0 57 -33 87q-30 27 -80 27q-59 0 -104 -40q-36 -32 -57.5 -92t-21.5 -112zM250 679l29 59q87 -12 171 -48l84 43l24 -39l-61 -30q50 -28 83 -82q30 -52 30 -128q0 -100 -34 -202 q-42 -124 -108 -191q-81 -81 -219 -81q-98 0 -153 47q-61 53 -61 152q0 56 20.5 118t52.5 104q83 107 234 107q75 0 124 -31q39 -25 57 -69h4q3 22 3 42q0 58 -29 99q-31 45 -86 69l-152 -79l-22 38l125 65q-51 23 -116 37z"/>
<glyph glyph-name="ntilde" horiz-adv-x="608" unicode="ñ" d="M126 508h120l-15 -73q27 42 70 67q45 26 106 26q74 0 117 -37q34 -34 34 -98q0 -31 -9 -69l-69 -324h-120l64 302q11 47 11 75q0 33 -17 50q-19 19 -52 19q-58 0 -106 -45q-46 -43 -62 -117l-60 -284h-120zM474 685h74q-13 -29 -33 -56q-36 -46 -89 -46q-42 0 -73 18 l-18 10q-28 16 -50 16q-21 0 -34 -10t-20 -26h-74q13 35 41 63q39 39 92 39q36 0 65 -15l23 -12q36 -17 50 -17q19 0 31 12q7 7 15 24z"/>
<glyph glyph-name="ograve" horiz-adv-x="612" unicode="ò" d="M161 179q0 -56 28 -88q29 -29 77 -29q58 0 101 40q38 37 59.5 104.5t21.5 121.5q0 61 -31 92q-26 26 -72 26q-62 0 -104 -42q-37 -37 -58.5 -103.5t-21.5 -121.5zM35 188q0 71 27.5 143t74.5 117q80 80 217 80q111 0 167 -56q54 -54 54 -156q0 -69 -26 -141.5t-77 -121.5 q-76 -73 -213 -73q-112 0 -167 52q-57 57 -57 156zM408 700l42 -132h-90l-82 132h130z"/>
<glyph glyph-name="oacute" horiz-adv-x="612" unicode="ó" d="M388 700h130l-138 -132h-90zM161 179q0 -56 28 -88q29 -29 77 -29q58 0 101 40q38 37 59.5 104.5t21.5 121.5q0 61 -31 92q-26 26 -72 26q-62 0 -104 -42q-37 -37 -58.5 -103.5t-21.5 -121.5zM35 188q0 71 27.5 143t74.5 117q80 80 217 80q111 0 167 -56q54 -54 54 -156 q0 -69 -26 -141.5t-77 -121.5q-76 -73 -213 -73q-112 0 -167 52q-57 57 -57 156z"/>
<glyph glyph-name="ocircumflex" horiz-adv-x="612" unicode="ô" d="M161 179q0 -56 28 -88q29 -29 77 -29q58 0 101 40q38 37 59.5 104.5t21.5 121.5q0 61 -31 92q-26 26 -72 26q-62 0 -104 -42q-37 -37 -58.5 -103.5t-21.5 -121.5zM35 188q0 71 27.5 143t74.5 117q80 80 217 80q111 0 167 -56q54 -54 54 -156q0 -69 -26 -141.5t-77 -121.5 q-76 -73 -213 -73q-112 0 -167 52q-57 57 -57 156zM388 657l-109 -89h-110l148 132h160l92 -132h-110z"/>
<glyph glyph-name="otilde" horiz-adv-x="612" unicode="õ" d="M499 685h74q-13 -29 -33 -56q-36 -46 -89 -46q-42 0 -73 18l-18 10q-28 16 -50 16q-21 0 -34 -10t-20 -26h-74q13 35 41 63q39 39 92 39q36 0 65 -15l23 -12q36 -17 50 -17q19 0 31 12q8 7 15 24zM161 179q0 -56 28 -88q29 -29 77 -29q58 0 101 40q38 37 59.5 104.5 t21.5 121.5q0 61 -31 92q-26 26 -72 26q-62 0 -104 -42q-37 -37 -58.5 -103.5t-21.5 -121.5zM35 188q0 71 27.5 143t74.5 117q80 80 217 80q111 0 167 -56q54 -54 54 -156q0 -69 -26 -141.5t-77 -121.5q-76 -73 -213 -73q-112 0 -167 52q-57 57 -57 156z"/>
<glyph glyph-name="odieresis" horiz-adv-x="612" unicode="ö" d="M161 179q0 -56 28 -88q29 -29 77 -29q58 0 101 40q38 37 59.5 104.5t21.5 121.5q0 61 -31 92q-26 26 -72 26q-62 0 -104 -42q-37 -37 -58.5 -103.5t-21.5 -121.5zM35 188q0 71 27.5 143t74.5 117q80 80 217 80q111 0 167 -56q54 -54 54 -156q0 -69 -26 -141.5t-77 -121.5 q-76 -73 -213 -73q-112 0 -167 52q-57 57 -57 156zM419 594l23 106h116l-23 -106h-116zM229 594l23 106h116l-23 -106h-116z"/>
<glyph glyph-name="divide" d="M63 283v86h500v-86h-500zM243 152q0 29 20.5 49.5t49.5 20.5t49.5 -20.5t20.5 -49.5t-20.5 -49.5t-49.5 -20.5t-49.5 20.5t-20.5 49.5zM243 500q0 29 20.5 49.5t49.5 20.5t49.5 -20.5t20.5 -49.5t-20.5 -49.5t-49.5 -20.5t-49.5 20.5t-20.5 49.5z" unicode="÷"/>
<glyph glyph-name="oslash" horiz-adv-x="595" unicode="ø" d="M443 371l-269 -258q26 -51 92 -51q58 0 101 40q34 32 57 97t23 127q0 28 -4 45zM161 190l248 237q-25 19 -64 19q-62 0 -104 -42q-35 -35 -56.5 -96t-23.5 -118zM-10 26l65 62q-20 43 -20 100q0 71 27.5 143t74.5 117q80 80 217 80q76 0 129 -31l85 82l45 -45l-81 -78 q43 -57 43 -135q0 -70 -23.5 -141t-73.5 -121q-82 -79 -213 -79q-114 0 -174 53l-54 -52z"/>
<glyph glyph-name="ugrave" horiz-adv-x="605" unicode="ù" d="M478 0h-120l14 67h-2q-29 -43 -67 -64q-42 -23 -102 -23q-82 0 -121 39q-33 33 -33 96q0 31 10 79l67 314h120l-64 -302q-11 -53 -11 -72q0 -35 18 -53q19 -19 55 -19q47 0 81 24q63 46 85 145l58 277h120zM371 700l42 -132h-90l-82 132h130z"/>
<glyph glyph-name="uacute" horiz-adv-x="605" unicode="ú" d="M378 700h130l-138 -132h-90zM478 0h-120l14 67h-2q-29 -43 -67 -64q-42 -23 -102 -23q-82 0 -121 39q-33 33 -33 96q0 31 10 79l67 314h120l-64 -302q-11 -53 -11 -72q0 -35 18 -53q19 -19 55 -19q47 0 81 24q63 46 85 145l58 277h120z"/>
<glyph glyph-name="ucircumflex" horiz-adv-x="605" unicode="û" d="M478 0h-120l14 67h-2q-29 -43 -67 -64q-42 -23 -102 -23q-82 0 -121 39q-33 33 -33 96q0 31 10 79l67 314h120l-64 -302q-11 -53 -11 -72q0 -35 18 -53q19 -19 55 -19q47 0 81 24q63 46 85 145l58 277h120zM378 657l-109 -89h-110l148 132h160l92 -132h-110z"/>
<glyph glyph-name="udieresis" horiz-adv-x="605" unicode="ü" d="M397 594l23 106h116l-23 -106h-116zM207 594l23 106h116l-23 -106h-116zM478 0h-120l14 67h-2q-29 -43 -67 -64q-42 -23 -102 -23q-82 0 -121 39q-33 33 -33 96q0 31 10 79l67 314h120l-64 -302q-11 -53 -11 -72q0 -35 18 -53q19 -19 55 -19q47 0 81 24q63 46 85 145 l58 277h120z"/>
<glyph glyph-name="yacute" horiz-adv-x="519" unicode="ý" d="M-3 -179l19 83q18 -7 42 -7q34 0 57 21q20 20 40 62l10 21l-123 507h134l73 -378l197 378h130l-319 -566q-35 -62 -59 -86q-45 -45 -135 -45q-36 0 -66 10zM354 700h130l-138 -132h-90z"/>
<glyph glyph-name="thorn" horiz-adv-x="635" unicode="þ" d="M174 187q0 -55 26 -88q29 -37 85 -37q63 0 106 42q37 35 59 98t22 122q0 62 -31 93q-29 29 -80 29q-65 0 -111 -44q-33 -33 -54.5 -94.5t-21.5 -120.5zM166 700h110l-52 -242h2q62 70 169 70q98 0 151 -51q54 -54 54 -156q0 -88 -30.5 -157t-73.5 -112q-73 -72 -184 -72 q-118 0 -164 73l-50 -238h-120z"/>
<glyph glyph-name="dotlessi" horiz-adv-x="259" unicode="ı" d="M126 508h120l-108 -508h-120z"/>
<glyph glyph-name="OE" horiz-adv-x="1143" unicode="Œ" d="M194 266q0 -83 41 -130q42 -51 129 -51q95 0 157 62q44 44 74.5 129t30.5 163q0 88 -43 132q-42 44 -120 44q-99 0 -164 -67q-51 -51 -78 -130.5t-27 -151.5zM689 700h525l-23 -106h-397l-38 -182h356l-23 -106h-356l-42 -200h408l-23 -106h-536l14 68q-71 -89 -220 -89 q-134 0 -205 71q-76 76 -76 209q0 94 35.5 194.5t100.5 165.5q60 61 127 81.5t147 20.5q88 0 135 -21.5t76 -67.5z"/>
<glyph glyph-name="oe" horiz-adv-x="980" unicode="œ" d="M570 305h253q3 23 3 42q0 49 -22 72q-27 27 -79 27q-57 0 -94 -32q-45 -39 -61 -109zM161 179q0 -56 28 -88q29 -29 77 -29q58 0 101 40q38 37 59.5 104.5t21.5 121.5q0 61 -31 92q-26 26 -72 26q-62 0 -104 -42q-37 -37 -58.5 -103.5t-21.5 -121.5zM794 147h114 q-26 -84 -95 -129q-59 -38 -158 -38q-77 0 -119 20.5t-68 57.5q-73 -78 -209 -78q-115 0 -167 52q-57 57 -57 156q0 71 27.5 143t74.5 117q83 80 214 80q134 0 182 -82q69 82 192 82q115 0 172 -59q48 -51 48 -139q0 -42 -13 -107h-380q-4 -15 -4 -43q0 -57 27 -84 q30 -34 92 -34q52 0 83 23q32 24 44 62z"/>
<glyph glyph-name="Scaron" horiz-adv-x="686" unicode="Š" d="M438 803l109 89h110l-148 -132h-160l-92 132h110zM36 225h127q-2 -16 -2 -24q0 -58 41 -88q37 -28 111 -28q83 0 123 25q51 30 51 97q0 46 -35 68q-13 9 -82 26l-64 14q-97 23 -136 55q-46 40 -46 110q0 115 80 179q73 62 216 62q138 0 200 -59q56 -56 56 -140v-7h-127v8 q0 46 -38 72q-31 20 -97 20q-64 0 -99 -21q-48 -29 -48 -82q0 -41 39 -62q24 -13 97 -27l61 -12q80 -16 119 -51q50 -45 50 -126q0 -76 -27.5 -127t-64.5 -75q-77 -53 -231 -53q-138 0 -202 49q-73 56 -73 168v14q0 10 1 15z"/>
<glyph glyph-name="scaron" horiz-adv-x="533" unicode="š" d="M11 155h120v-3q0 -42 24 -66q25 -24 83 -24q53 0 80 19q34 24 34 68q0 31 -28 49q-13 8 -61 19l-39 8q-78 16 -101 34q-42 31 -42 93q0 87 72 136q61 40 163 40q101 0 146 -35q50 -36 50 -107v-13h-113q1 33 -20 53q-23 20 -70 20q-44 0 -71 -19q-29 -22 -29 -57 q0 -29 28 -45q14 -7 65 -19l47 -10q64 -14 89 -34q44 -33 44 -95q0 -76 -50 -126q-61 -61 -204 -61q-120 0 -170 47q-47 45 -47 126v2zM328 611l109 89h110l-148 -132h-160l-92 132h110z"/>
<glyph glyph-name="Ydieresis" horiz-adv-x="630" unicode="Ÿ" d="M457 786l23 106h116l-23 -106h-116zM267 786l23 106h116l-23 -106h-116zM343 393l235 307h156l-347 -421l-59 -279h-128l59 279l-167 421h146z"/>
<glyph glyph-name="circumflex" horiz-adv-x="500" unicode="ˆ" d="M338 657l-109 -89h-110l148 132h160l92 -132h-110z"/>
<glyph glyph-name="caron" horiz-adv-x="500" unicode="ˇ" d="M328 611l109 89h110l-148 -132h-160l-92 132h110z"/>
<glyph glyph-name="tilde" horiz-adv-x="471" unicode="˜" d="M444 685h74q-13 -29 -33 -56q-36 -46 -89 -46q-42 0 -73 18l-18 10q-28 16 -50 16q-21 0 -34 -10t-20 -26h-74q13 35 41 63q39 39 92 39q36 0 65 -15l23 -12q36 -17 50 -17q19 0 31 12q7 7 15 24z"/>
<glyph glyph-name="pi" horiz-adv-x="588" unicode="π" d="M46 0l91 426h-4q-22 0 -43 -5q-19 -5 -38 -15l18 82q23 10 36 14q23 6 48 6h468l-17 -82h-64l-61 -284q-5 -13 -5 -35q0 -13 7 -18q8 -7 26 -7q9 0 13 1l-18 -83q-29 -5 -62 -5q-48 0 -67 13q-27 18 -27 54q0 14 7 49l67 315h-164l-91 -426h-120z"/>
<glyph glyph-name="afii10023" horiz-adv-x="634" unicode="Ё" d="M247 412h356l-23 -106h-356l-42 -200h408l-23 -106h-536l149 700h525l-23 -106h-397zM513 772l19 88h128l-19 -88h-128zM275 772l19 88h128l-19 -88h-128z"/>
<glyph glyph-name="afii10051" horiz-adv-x="902" unicode="Ђ" d="M194 594l23 106h568l-23 -106h-230l-43 -199q54 7 118 7q110 0 163 -32q72 -43 72 -138q0 -111 -78 -186q-37 -37 -78.5 -48t-95.5 -11q-52 0 -96 15l23 106q31 -15 63 -15q55 0 88 35q34 37 34 89q0 44 -36 64q-28 16 -92 16q-36 0 -106 -8l-62 -289h-128l126 594h-210z "/>
<glyph glyph-name="afii10052" horiz-adv-x="551" unicode="Ѓ" d="M438 892h130l-138 -132h-90zM285 594l-126 -594h-128l149 700h458l-23 -106h-330z"/>
<glyph glyph-name="afii10053" horiz-adv-x="748" unicode="Є" d="M569 239h127q-34 -106 -95 -170q-55 -55 -113 -72.5t-135 -17.5q-151 0 -224 73q-74 74 -74 206q0 88 30.5 185t101.5 168q110 110 277 110q145 0 213 -65q60 -58 60 -159q0 -5 -0.5 -12.5t-0.5 -10.5h-127v5v22q0 46 -31 77q-37 37 -115 37q-100 0 -166 -66 q-57 -57 -78 -137h326l-23 -106h-324q-2 -24 -2 -41q0 -86 40 -132q41 -48 125 -48q87 0 142 47q47 40 66 107z"/>
<glyph glyph-name="afii10054" horiz-adv-x="686" unicode="Ѕ" d="M36 225h127q-2 -16 -2 -24q0 -58 41 -88q37 -28 111 -28q83 0 123 25q51 30 51 97q0 46 -35 68q-13 9 -82 26l-64 14q-97 23 -136 55q-46 40 -46 110q0 115 80 179q73 62 216 62q138 0 200 -59q56 -56 56 -140v-7h-127v8q0 46 -38 72q-31 20 -97 20q-64 0 -99 -21 q-48 -29 -48 -82q0 -41 39 -62q24 -13 97 -27l61 -12q80 -16 119 -51q50 -45 50 -126q0 -76 -27.5 -127t-64.5 -75q-77 -53 -231 -53q-138 0 -202 49q-73 56 -73 168v14q0 10 1 15z"/>
<glyph glyph-name="afii10055" horiz-adv-x="298" unicode="І" d="M180 700h128l-149 -700h-128z"/>
<glyph glyph-name="afii10056" horiz-adv-x="298" unicode="Ї" d="M180 700h128l-149 -700h-128zM288 786l23 106h116l-23 -106h-116zM98 786l23 106h116l-23 -106h-116z"/>
<glyph glyph-name="afii10057" horiz-adv-x="545" unicode="Ј" d="M16 243h128l-2 -13q-8 -43 -8 -63q0 -41 23 -63q20 -19 56 -19q47 0 71 19q37 29 57 128l100 468h128l-91 -428q-27 -124 -48 -169q-25 -55 -62 -83q-53 -41 -160 -41q-104 0 -148 39q-54 44 -54 134q0 36 7 74z"/>
<glyph glyph-name="afii10058" horiz-adv-x="1158" unicode="Љ" d="M712 324l-46 -218h156q75 0 113 25q52 35 52 105q0 31 -12 49t-24 24q-25 15 -86 15h-153zM320 700h472l-58 -270h165q101 0 153 -39q64 -48 64 -147q0 -106 -61 -170q-71 -74 -234 -74h-306l127 594h-221l-44 -207q-51 -244 -133 -326q-66 -66 -172 -66q-25 0 -58 5 l23 106q10 -2 15 -2h14q54 0 90 34q53 48 105 287z"/>
<glyph glyph-name="afii10059" horiz-adv-x="1117" unicode="Њ" d="M667 324l-46 -218h156q75 0 113 25q52 35 52 105q0 31 -12 49t-24 24q-25 15 -86 15h-153zM619 700h128l-58 -270h170q101 0 153 -39q64 -48 64 -147q0 -108 -61 -172q-69 -73 -234 -73l-311 1l69 324h-311l-69 -324h-128l149 700h128l-58 -270h312z"/>
<glyph glyph-name="afii10060" horiz-adv-x="916" unicode="Ћ" d="M808 0h-128l36 166q10 30 10 64q0 42 -38 57q-35 13 -110 13q-40 0 -110 -8l-62 -292h-128l126 594h-210l23 106h568l-23 -106h-230l-41 -196q63 7 127 7q119 0 173 -24q70 -31 70 -110q0 -31 -11 -78z"/>
<glyph glyph-name="afii10061" horiz-adv-x="677" unicode="Ќ" d="M488 892h130l-138 -132h-90zM31 0l149 700h128l-63 -296l342 296h171l-398 -333l276 -367h-155l-251 335l-71 -335h-128z"/>
<glyph glyph-name="afii10062" horiz-adv-x="614" unicode="Ў" d="M237 892h102q-1 -3 -1 -10q0 -29 20 -45q22 -18 65 -18q47 0 74 22q22 17 32 51h102q-13 -51 -48 -87q-55 -56 -170 -56q-98 0 -141 43q-35 35 -35 90v10zM346 322l226 378h146l-355 -564q-52 -82 -91 -111q-50 -35 -133 -35q-54 0 -94 15l28 109q30 -14 64 -14 q42 0 69 19q29 20 51 65l-157 516h145z"/>
<glyph glyph-name="afii10145" horiz-adv-x="754" unicode="Џ" d="M559 106l126 594h128l-149 -700h-227l-39 -185h-120l39 185h-227l149 700h128l-126 -594h318z"/>
<glyph glyph-name="afii10017" horiz-adv-x="662" unicode="А" d="M230 253h212l-40 311zM173 147l-82 -147h-139l413 700h128l115 -700h-135l-20 147h-280z"/>
<glyph glyph-name="afii10018" horiz-adv-x="693" unicode="Б" d="M226 316l-44 -210h168q89 0 128 35q36 34 36 89q0 43 -27 66q-24 20 -78 20h-183zM285 594l-36 -172h203q91 0 143 -48q54 -52 54 -141q0 -105 -64 -165q-72 -68 -232 -68h-322l149 700h521l-23 -106h-393z"/>
<glyph glyph-name="afii10019" horiz-adv-x="722" unicode="В" d="M225 310l-43 -204h175q91 0 127 33q35 31 35 83q0 50 -35 73q-26 15 -83 15h-176zM285 594l-38 -178h169q73 0 106 29q30 26 30 72q0 43 -29 62q-26 15 -72 15h-166zM180 700h327q91 0 138 -40q45 -38 45 -110q0 -78 -50 -128q-36 -36 -90 -51v-2q41 -9 69 -42 q31 -36 31 -95q0 -102 -62 -164q-69 -68 -241 -68h-316z"/>
<glyph glyph-name="afii10020" horiz-adv-x="551" unicode="Г" d="M285 594l-126 -594h-128l149 700h458l-23 -106h-330z"/>
<glyph glyph-name="afii10021" horiz-adv-x="765" unicode="Д" d="M595 594h-212l-18 -84q-31 -139 -63 -214q-43 -101 -119 -190h309zM620 106h96l-63 -264h-112l34 158h-509l-34 -158h-112l51 264h60q59 63 96 124t51 95q44 103 68 224l32 151h468z"/>
<glyph glyph-name="afii10022" horiz-adv-x="634" unicode="Е" d="M247 412h356l-23 -106h-356l-42 -200h408l-23 -106h-536l149 700h525l-23 -106h-397z"/>
<glyph glyph-name="afii10024" horiz-adv-x="953" unicode="Ж" d="M355 0l71 335l-319 -335h-165l375 382l-217 318h154l187 -296l63 296h128l-63 -296l310 296h164l-360 -332l223 -368h-154l-198 335l-71 -335h-128z"/>
<glyph glyph-name="afii10025" horiz-adv-x="699" unicode="З" d="M36 239h127q-2 -16 -2 -24q0 -60 41 -95t120 -35q77 0 121 30q52 37 52 100q0 51 -40 77q-30 20 -97 20h-79l23 106h83q64 0 101 24q44 28 44 81q0 45 -40 71q-33 21 -96 21q-86 0 -130 -44q-32 -32 -39 -77h-127q20 98 94 162q76 65 210 65q120 0 185 -39 q82 -49 82 -144q0 -71 -46 -119q-37 -39 -99 -54l-1 -2q38 -14 66 -43q36 -42 36 -103q0 -99 -65 -164q-45 -45 -104 -59.5t-137 -14.5q-44 0 -75.5 3t-74.5 19t-73 46q-61 64 -61 169q0 16 1 23z"/>
<glyph glyph-name="afii10026" horiz-adv-x="756" unicode="И" d="M202 200l439 500h125l-149 -700h-128l106 500l-439 -500h-125l149 700h128z"/>
<glyph glyph-name="afii10027" horiz-adv-x="756" unicode="Й" d="M202 200l439 500h125l-149 -700h-128l106 500l-439 -500h-125l149 700h128zM282 883h103v-2q0 -36 22 -56q25 -21 78 -21q46 0 74 18q32 23 40 61h103q-15 -77 -75 -118q-51 -35 -149 -35q-113 0 -159 51q-37 41 -37 102z"/>
<glyph glyph-name="afii10028" horiz-adv-x="677" unicode="К" d="M31 0l149 700h128l-63 -296l342 296h171l-398 -333l276 -367h-155l-251 335l-71 -335h-128z"/>
<glyph glyph-name="afii10029" horiz-adv-x="726" unicode="Л" d="M-41 0l23 106q10 -2 15 -2h14q54 0 90 34q53 48 105 287l59 275h471l-149 -700h-128l126 594h-219l-44 -207q-51 -244 -133 -326q-66 -66 -172 -66q-25 0 -58 5z"/>
<glyph glyph-name="afii10030" horiz-adv-x="932" unicode="М" d="M365 0l-88 554h-2l-4 -27l-112 -527h-128l149 700h198l75 -513l292 513h197l-149 -700h-128l112 527l8 27h-2l-324 -554h-94z"/>
<glyph glyph-name="afii10031" horiz-adv-x="738" unicode="Н" d="M226 314l-67 -314h-128l149 700h128l-60 -280h312l60 280h128l-149 -700h-128l67 314h-312z"/>
<glyph glyph-name="afii10032" horiz-adv-x="781" unicode="О" d="M53 263q0 85 32.5 185t103.5 171q61 61 127.5 81.5t146.5 20.5q152 0 228 -76q75 -75 75 -209q0 -92 -33.5 -193t-101.5 -167q-100 -97 -274 -97q-154 0 -228 74q-76 74 -76 210zM194 266q0 -83 41 -130q42 -51 129 -51q95 0 157 62q44 44 74.5 129t30.5 163 q0 88 -43 132q-42 44 -117 44q-100 0 -167 -67q-51 -51 -78 -130.5t-27 -151.5z"/>
<glyph glyph-name="afii10033" horiz-adv-x="731" unicode="П" d="M285 594l-126 -594h-128l149 700h561l-149 -700h-128l126 594h-305z"/>
<glyph glyph-name="afii10034" horiz-adv-x="667" unicode="Р" d="M285 594l-49 -230h159q71 0 107 25q53 36 53 112q0 48 -40 78q-26 15 -95 15h-135zM180 700h279q124 0 173 -41q60 -46 60 -146q0 -113 -64 -177q-47 -49 -109.5 -63.5t-154.5 -14.5h-150l-55 -258h-128z"/>
<glyph glyph-name="afii10035" horiz-adv-x="733" unicode="С" d="M569 239h127q-34 -106 -95 -170q-55 -55 -113 -72.5t-135 -17.5q-151 0 -224 73q-74 74 -74 206q0 88 30.5 185t101.5 168q110 110 277 110q145 0 213 -65q60 -58 60 -155q0 -18 -1 -27h-127v5v22q0 46 -31 77q-40 37 -112 37q-106 0 -169 -66q-50 -50 -75.5 -130 t-25.5 -155q0 -86 40 -131q41 -48 125 -48q87 0 142 47q47 40 66 107z"/>
<glyph glyph-name="afii10036" horiz-adv-x="595" unicode="Т" d="M311 594h-220l23 106h568l-23 -106h-220l-126 -594h-128z"/>
<glyph glyph-name="afii10037" horiz-adv-x="614" unicode="У" d="M346 322l226 378h146l-355 -564q-52 -82 -91 -111q-50 -35 -133 -35q-54 0 -94 15l28 109q30 -14 64 -14q42 0 69 19q29 20 51 65l-157 516h145z"/>
<glyph glyph-name="afii10038" horiz-adv-x="927" unicode="Ф" d="M509 167h14h6q114 0 172 47q75 60 75 173q0 52 -18.5 84.5t-40.5 46.5q-40 29 -122 29h-6zM381 167l80 380h-7q-41 0 -65 -2t-63 -16t-68 -41q-64 -60 -64 -163q0 -82 58 -124q47 -34 124 -34h5zM339 -30l21 100h-9q-153 0 -227 71q-67 65 -67 175q0 71 26 133.5 t72 105.5q56 52 132.5 70.5t182.5 18.5h12l24 111h128l-24 -111h5q155 0 232 -79q66 -66 66 -180q0 -141 -83 -224q-59 -57 -134 -74t-198 -17h-10l-21 -100h-128z"/>
<glyph glyph-name="afii10039" horiz-adv-x="662" unicode="Х" d="M373 454l210 246h164l-314 -351l172 -349h-154l-115 256l-216 -256h-174l329 358l-162 342h154z"/>
<glyph glyph-name="afii10040" horiz-adv-x="765" unicode="Ц" d="M182 106h311l126 594h128l-126 -594h96l-63 -264h-112l34 158h-545l149 700h128z"/>
<glyph glyph-name="afii10041" horiz-adv-x="673" unicode="Ч" d="M153 700h128l-39 -183q-7 -26 -7 -49q0 -45 38 -61q21 -13 107 -13q57 0 112 8l63 298h128l-149 -700h-128l63 297q-55 -9 -123 -9q-120 0 -177 30q-69 36 -69 108q0 30 10 71z"/>
<glyph glyph-name="afii10042" horiz-adv-x="1024" unicode="Ш" d="M182 106h235l126 594h128l-126 -594h235l126 594h128l-149 -700h-854l149 700h128z"/>
<glyph glyph-name="afii10043" horiz-adv-x="1054" unicode="Щ" d="M308 700l-126 -594h235l126 594h128l-126 -594h235l126 594h128l-126 -594h96l-63 -264h-112l34 158h-832l149 700h128z"/>
<glyph glyph-name="afii10044" horiz-adv-x="758" unicode="Ъ" d="M308 324l-46 -218h156q75 0 113 25q52 35 52 105q0 31 -12 49t-24 24q-25 15 -86 15h-153zM388 700l-58 -270h170q101 0 153 -39q64 -50 64 -145q0 -106 -61 -172q-71 -74 -234 -74h-311l126 594h-161l23 106h289z"/>
<glyph glyph-name="afii10045" horiz-adv-x="908" unicode="Ы" d="M308 700l-58 -270h170q101 0 153 -39q64 -50 64 -147q0 -105 -61 -170q-69 -74 -234 -74h-311l149 700h128zM228 324l-46 -218h156q75 0 113 25q52 35 52 105q0 31 -12 49t-24 24q-25 15 -86 15h-153zM790 700h128l-149 -700h-128z"/>
<glyph glyph-name="afii10046" horiz-adv-x="678" unicode="Ь" d="M308 700l-58 -270h170q98 0 153 -39q64 -48 64 -147q0 -106 -61 -170q-71 -74 -234 -74h-311l149 700h128zM228 324l-46 -218h156q75 0 113 25q52 35 52 105q0 52 -38 74q-23 14 -86 14h-151z"/>
<glyph glyph-name="afii10047" horiz-adv-x="746" unicode="Э" d="M290 412h304q3 18 3 35q0 80 -46 126q-44 42 -130 42q-81 0 -131 -37q-43 -34 -60 -84h-133q30 107 118 171q77 56 209 56q152 0 231 -77q77 -77 77 -216q0 -91 -30 -186.5t-90 -159.5q-59 -62 -127.5 -82.5t-150.5 -20.5q-154 0 -225 71q-67 65 -67 165q0 16 1 24h127 q-1 -5 -1 -14q0 -63 45 -102q43 -38 124 -38q98 0 158 60q63 63 77 161h-306z"/>
<glyph glyph-name="afii10048" horiz-adv-x="1032" unicode="Ю" d="M445 266q0 -83 41 -130q42 -51 129 -51q95 0 157 62q44 44 74.5 129t30.5 163q0 89 -43 132q-40 44 -118 44q-99 0 -166 -67q-51 -51 -78 -130.5t-27 -151.5zM248 420h83q31 120 109 199q59 61 127 81.5t147 20.5q148 0 228 -76q75 -75 75 -209q0 -92 -33.5 -193 t-101.5 -167q-60 -58 -129.5 -77.5t-152.5 -19.5q-147 0 -220 71q-75 73 -75 207q0 32 4 57h-83l-67 -314h-128l149 700h128z"/>
<glyph glyph-name="afii10049" horiz-adv-x="712" unicode="Я" d="M571 594h-160q-96 0 -139 -41q-36 -33 -36 -86q0 -54 41 -79q33 -21 100 -21h146zM501 261h-112l-224 -261h-172l257 275q-61 11 -101 51q-48 48 -48 125q0 101 64 170q46 50 111.5 64.5t158.5 14.5h287l-149 -700h-128z"/>
<glyph glyph-name="afii10065" horiz-adv-x="578" unicode="а" d="M376 227l4 17q-15 -11 -41 -16q-37 -7 -53 -7h-11q-89 -6 -115 -28q-25 -25 -25 -57q0 -33 20 -49q18 -17 57 -17q50 0 83 23q59 38 81 134zM185 351h-114q17 89 86 136q60 41 160 41q96 0 148 -36q57 -39 57 -117q0 -22 -6 -54l-37 -176q-6 -30 -6 -39q0 -16 11 -21 q6 -2 13 -2h13l-18 -83q-31 -3 -57 -3q-40 0 -59 14q-23 17 -23 45v7q-31 -37 -73 -56q-44 -19 -108 -19q-78 0 -117 29q-47 36 -47 106q0 66 41 107q43 44 168 58l103 11q41 5 58 14q18 10 23 34l2 9q1 3 1 13q0 41 -30 62q-23 15 -66 15q-61 0 -91 -30q-25 -25 -32 -65z "/>
<glyph glyph-name="afii10066" horiz-adv-x="615" unicode="б" d="M161 190q0 -65 30 -97q28 -31 85 -31q61 0 102 36q38 32 58.5 95t20.5 116q0 67 -33 100q-29 29 -79 29q-63 0 -109 -46q-34 -34 -54.5 -90t-20.5 -112zM533 739h97q-11 -48 -44 -81q-40 -39 -113 -49q-41 -7 -76 -11t-54 -7q-81 -16 -122 -56q-53 -52 -71 -141h2l4 7 q4 7 8 13t11 16t14.5 18.5t18.5 18t22 17.5q53 36 134 36q109 0 163 -52q57 -53 57 -150q0 -63 -21.5 -138t-71.5 -123q-79 -77 -222 -77q-113 0 -169 56q-65 63 -65 190q0 96 32 203q33 111 101 177q49 48 125 71q45 13 128 21q72 6 90 16q16 10 22 25z"/>
<glyph glyph-name="afii10067" horiz-adv-x="583" unicode="в" d="M185 222l-30 -140h114q63 0 85 16q32 20 32 63q0 37 -29 52q-18 9 -65 9h-107zM229 426l-26 -122h103q55 0 75 13q32 19 32 59q0 27 -22 41q-15 9 -49 9h-113zM126 508h263q77 0 109 -22q45 -29 45 -89q0 -50 -33 -88q-28 -31 -72 -44l-1 -2q29 -10 48 -34q23 -31 23 -70 q0 -86 -70 -130q-45 -29 -148 -29h-272z"/>
<glyph glyph-name="afii10068" horiz-adv-x="453" unicode="г" d="M228 421l-90 -421h-120l108 508h370l-18 -87h-250z"/>
<glyph glyph-name="afii10069" horiz-adv-x="638" unicode="д" d="M462 426h-165l-14 -62q-21 -96 -45 -148q-30 -70 -81 -134h231zM-40 82h70q59 73 100 159q24 53 53 178l19 89h397l-91 -426h88l-51 -214h-104l28 132h-416l-28 -132h-100z"/>
<glyph glyph-name="afii10070" horiz-adv-x="595" unicode="е" d="M185 305h253q3 23 3 42q0 49 -22 72q-27 27 -79 27q-57 0 -94 -32q-45 -39 -61 -109zM409 147h114q-26 -84 -95 -129q-59 -38 -151 -38q-126 0 -185 61q-57 57 -57 156q0 58 20.5 128t75.5 126q43 44 92.5 60.5t114.5 16.5q118 0 174 -59q48 -51 48 -139q0 -42 -13 -107 h-380q-4 -15 -4 -43q0 -57 27 -84q30 -34 92 -34q52 0 83 23q32 24 44 62z"/>
<glyph glyph-name="afii10072" horiz-adv-x="770" unicode="ж" d="M265 0l51 242l-219 -242h-148l261 270l-148 238h141l123 -223l47 223h120l-47 -223l217 223h147l-257 -247l154 -261h-148l-123 242l-51 -242h-120z"/>
<glyph glyph-name="afii10073" horiz-adv-x="544" unicode="з" d="M9 159h114q-1 -4 -1 -12q0 -40 32 -64q27 -21 80 -21q50 0 78 16q41 26 41 74q0 34 -29 52q-19 12 -68 12h-58l17 82h55q50 0 77 19q31 20 31 59q0 36 -29 55q-24 15 -63 15q-51 0 -79 -26t-32 -65h-118q14 77 78 128q63 45 166 45q87 0 139 -28q65 -35 65 -112 q0 -50 -30 -83q-27 -29 -66 -43v-2q34 -15 46 -30q24 -26 24 -69q0 -52 -24 -90.5t-60 -58.5q-55 -32 -170 -32q-108 0 -156 40q-60 48 -60 139z"/>
<glyph glyph-name="afii10074" horiz-adv-x="635" unicode="и" d="M171 157l313 351h132l-108 -508h-120l75 351l-313 -351h-132l108 508h120z"/>
<glyph glyph-name="afii10075" horiz-adv-x="635" unicode="й" d="M171 157l313 351h132l-108 -508h-120l75 351l-313 -351h-132l108 508h120zM499 700h102q-14 -76 -73 -112q-49 -31 -138 -31q-100 0 -144 41q-40 38 -39 102h102q-1 -34 20 -51q24 -20 69 -20q42 0 68 18q26 19 33 53z"/>
<glyph glyph-name="afii10076" horiz-adv-x="545" unicode="к" d="M201 296l238 212h146l-281 -242l174 -266h-136l-152 246l-52 -246h-120l108 508h120z"/>
<glyph glyph-name="afii10077" horiz-adv-x="589" unicode="л" d="M-41 0l17 82q8 -2 23 -2q46 0 72 29q28 28 63 180l47 219h389l-108 -508h-120l91 426h-157l-24 -109q-20 -98 -34 -142q-27 -90 -66 -131q-46 -48 -139 -48q-33 0 -54 4z"/>
<glyph glyph-name="afii10078" horiz-adv-x="779" unicode="м" d="M290 0l-74 367h-2l-4 -27l-72 -340h-120l108 508h164l69 -380l233 380h168l-108 -508h-120l72 340l8 27h-2l-228 -367h-92z"/>
<glyph glyph-name="afii10079" horiz-adv-x="605" unicode="н" d="M186 226l-48 -226h-120l108 508h120l-42 -200h220l42 200h120l-108 -508h-120l48 226h-220z"/>
<glyph glyph-name="afii10080" horiz-adv-x="612" unicode="о" d="M161 179q0 -56 28 -88q29 -29 77 -29q58 0 101 40q38 37 59.5 104.5t21.5 121.5q0 61 -31 92q-26 26 -72 26q-62 0 -104 -42q-37 -37 -58.5 -103.5t-21.5 -121.5zM35 188q0 71 27.5 143t74.5 117q80 80 217 80q111 0 167 -56q54 -54 54 -156q0 -69 -26 -141.5t-77 -121.5 q-76 -73 -213 -73q-112 0 -167 52q-57 57 -57 156z"/>
<glyph glyph-name="afii10081" horiz-adv-x="613" unicode="п" d="M229 426l-91 -426h-120l108 508h468l-108 -508h-120l91 426h-228z"/>
<glyph glyph-name="afii10082" horiz-adv-x="635" unicode="р" d="M174 187q0 -55 26 -88q29 -37 85 -37q63 0 106 42q37 35 59 98t22 122q0 62 -31 93q-29 29 -80 29q-65 0 -111 -44q-33 -33 -54.5 -94.5t-21.5 -120.5zM125 508h110l-11 -50h2q64 70 166 70q103 0 154 -51q54 -52 54 -147q0 -76 -29 -152.5t-77 -124.5q-73 -73 -189 -73 q-118 0 -157 73l-50 -238h-120z"/>
<glyph glyph-name="afii10083" horiz-adv-x="580" unicode="с" d="M412 186h114q-23 -96 -90 -153q-65 -53 -174 -53q-116 0 -170 57q-56 56 -56 158q0 68 26.5 144.5t84.5 125.5q76 63 192 63q110 0 164 -52q54 -54 54 -137h-114v8q0 45 -25 73q-26 26 -71 26q-63 0 -103 -40q-36 -36 -57.5 -101.5t-21.5 -120.5q0 -60 32 -94 q27 -28 79 -28q58 0 94 38q28 31 42 86z"/>
<glyph glyph-name="afii10084" horiz-adv-x="497" unicode="т" d="M228 421h-174l18 87h468l-18 -87h-174l-90 -421h-120z"/>
<glyph glyph-name="afii10085" horiz-adv-x="519" unicode="у" d="M-3 -179l19 83q18 -7 42 -7q34 0 57 21q20 20 40 62l10 21l-123 507h134l73 -378l197 378h130l-319 -566q-35 -62 -59 -86q-45 -45 -135 -45q-36 0 -66 10z"/>
<glyph glyph-name="afii10086" horiz-adv-x="841" unicode="ф" d="M521 438l-78 -369h5q116 0 175 66q52 61 52 154q0 85 -55 121q-40 28 -96 28h-3zM323 69l78 369h-5q-101 0 -159 -48q-32 -27 -50 -72t-18 -92q0 -72 40 -112q20 -20 52 -32.5t57 -12.5h5zM269 -185l36 173h-4q-125 0 -194 65q-67 61 -67 168q0 61 22.5 116.5t58.5 91.5 q91 91 291 91h7l38 180h120l-38 -180h6q47 0 96.5 -15t82.5 -41q80 -69 80 -184q0 -125 -81 -204q-88 -88 -290 -88h-8l-36 -173h-120z"/>
<glyph glyph-name="afii10087" horiz-adv-x="528" unicode="х" d="M279 337l154 171h137l-239 -247l136 -261h-128l-91 185l-169 -185h-133l250 265l-130 243h131z"/>
<glyph glyph-name="afii10088" horiz-adv-x="630" unicode="ц" d="M155 82h223l91 426h120l-91 -426h88l-52 -214h-103l28 132h-441l108 508h120z"/>
<glyph glyph-name="afii10089" horiz-adv-x="543" unicode="ч" d="M98 508h120l-32 -148q-3 -10 -3 -23q0 -31 25 -45q18 -10 83 -10q37 0 65 4l48 222h120l-108 -508h-120l43 204q-47 -4 -97 -4q-116 0 -153 28q-31 25 -31 73q0 19 5 44z"/>
<glyph glyph-name="afii10090" horiz-adv-x="885" unicode="ш" d="M155 82h190l91 426h120l-91 -426h190l91 426h120l-108 -508h-740l108 508h120z"/>
<glyph glyph-name="afii10091" horiz-adv-x="904" unicode="щ" d="M155 82h190l91 426h120l-91 -426h190l91 426h120l-91 -426h88l-51 -214h-104l28 132h-718l108 508h120z"/>
<glyph glyph-name="afii10092" horiz-adv-x="637" unicode="ъ" d="M270 230l-32 -148h113q49 0 75 17q34 24 34 67q0 31 -23 51q-19 13 -55 13h-112zM54 421l18 87h257l-42 -196h131q81 0 123 -34q46 -39 46 -108q0 -43 -18 -78.5t-46 -55.5q-51 -36 -157 -36h-265l90 421h-137z"/>
<glyph glyph-name="afii10093" horiz-adv-x="773" unicode="ы" d="M187 230l-32 -148h113q49 0 75 17q34 22 34 68q0 30 -23 50q-19 13 -55 13h-112zM246 508l-42 -196h131q82 0 123 -34q46 -39 46 -107q0 -44 -18 -79.5t-46 -55.5q-51 -36 -157 -36h-265l108 508h120zM634 508h120l-108 -508h-120z"/>
<glyph glyph-name="afii10094" horiz-adv-x="550" unicode="ь" d="M187 230l-32 -148h113q49 0 75 17q34 22 34 68q0 30 -23 50q-19 13 -55 13h-112zM246 508l-42 -196h131q82 0 123 -34q46 -39 46 -107q0 -44 -18 -79.5t-46 -55.5q-51 -36 -157 -36h-265l108 508h120z"/>
<glyph glyph-name="afii10095" horiz-adv-x="590" unicode="э" d="M211 220l17 82h192q2 18 2 26q0 56 -30 88q-30 30 -87 30q-58 0 -90 -27q-14 -10 -25 -27t-15 -28.5t-4 -14.5h-121q24 86 89 133q64 46 171 46q118 0 181 -57t63 -165q0 -78 -27 -148t-71 -112q-43 -41 -93 -53.5t-114 -12.5q-129 0 -184 57q-47 51 -47 132v3h114 q-2 -51 29 -82q28 -28 83 -28q57 0 91 25q54 40 73 133h-197z"/>
<glyph glyph-name="afii10096" horiz-adv-x="827" unicode="ю" d="M376 180q0 -56 28 -88q28 -30 77 -30q58 0 101 40q38 37 59.5 104.5t21.5 121.5q0 61 -31 92q-28 26 -73 26q-61 0 -103 -42q-37 -37 -58.5 -102.5t-21.5 -121.5zM204 309h67q21 83 79 139q83 80 211 80q117 0 175 -58q54 -54 54 -156q0 -69 -26 -141.5t-77 -121.5 q-47 -44 -96.5 -57.5t-112.5 -13.5q-116 0 -171 52q-56 54 -56 148q0 26 4 47h-69l-48 -227h-120l108 508h120z"/>
<glyph glyph-name="afii10097" horiz-adv-x="581" unicode="я" d="M425 426h-114q-56 0 -86 -21q-32 -22 -32 -68q0 -32 25 -51q19 -15 69 -15h105zM308 189l-178 -189h-148l191 194q-44 9 -72 37q-36 36 -36 94q0 81 53 132q58 51 158 51h286l-108 -508h-120l40 189h-66z"/>
<glyph glyph-name="afii10071" horiz-adv-x="592" unicode="ё" d="M185 305h253q4 12 4 42q0 47 -24 73q-26 26 -78 26q-57 0 -94 -32q-45 -39 -61 -109zM409 147h114q-27 -84 -94 -129q-59 -38 -151 -38q-127 0 -186 61q-57 57 -57 156q0 58 20.5 128t75.5 126q75 77 204 77q121 0 177 -59q48 -53 48 -140q0 -41 -13 -106h-380 q-4 -15 -4 -43q0 -57 27 -84q30 -34 92 -34q52 0 83 23q32 24 44 62zM391 594l23 106h116l-23 -106h-116zM191 594l23 106h116l-23 -106h-116z"/>
<glyph glyph-name="afii10099" horiz-adv-x="626" unicode="ђ" d="M199 700h120l-13 -61h205l-15 -68h-205l-25 -120q30 30 67 51q48 26 107 26q77 0 118 -41q39 -43 39 -119q0 -102 -40 -247q-42 -162 -112 -232q-72 -74 -194 -74h-8l18 87h6q52 0 83 29q26 23 43 69t42 147q36 144 36 211q0 47 -22 69q-19 19 -55 19q-61 0 -103 -42 q-45 -45 -63 -128l-58 -276h-120l121 571h-80l15 68h80z"/>
<glyph glyph-name="afii10100" horiz-adv-x="453" unicode="ѓ" d="M348 700h130l-138 -132h-90zM228 421l-90 -421h-120l108 508h370l-18 -87h-250z"/>
<glyph glyph-name="afii10101" horiz-adv-x="573" unicode="є" d="M416 186h114q-23 -96 -90 -153q-65 -53 -175 -53q-115 0 -169 57q-56 58 -56 160q0 66 23 135t71 117q79 79 212 79q105 0 161 -52q54 -54 54 -137h-114v8q0 45 -25 73q-26 26 -73 26q-61 0 -104 -40q-43 -41 -57 -104h191l-17 -82h-190q-2 -18 -2 -32q0 -63 32 -98 q27 -28 76 -28q60 0 96 38q28 31 42 86z"/>
<glyph glyph-name="afii10102" horiz-adv-x="533" unicode="ѕ" d="M11 155h120v-3q0 -42 24 -66q25 -24 83 -24q53 0 80 19q34 24 34 68q0 31 -28 49q-13 8 -61 19l-39 8q-78 16 -101 34q-42 31 -42 93q0 87 72 136q61 40 163 40q101 0 146 -35q50 -36 50 -107v-13h-113q1 33 -20 53q-23 20 -70 20q-44 0 -71 -19q-29 -22 -29 -57 q0 -29 28 -45q14 -7 65 -19l47 -10q64 -14 89 -34q44 -33 44 -95q0 -76 -50 -126q-61 -61 -204 -61q-120 0 -170 47q-47 45 -47 126v2z"/>
<glyph glyph-name="afii10103" horiz-adv-x="259" unicode="і" d="M144 594l23 106h120l-23 -106h-120zM126 508h120l-108 -508h-120z"/>
<glyph glyph-name="afii10104" horiz-adv-x="259" unicode="ї" d="M223 594l23 106h101l-23 -106h-101zM83 594l23 106h101l-23 -106h-101zM126 508h120l-108 -508h-120z"/>
<glyph glyph-name="afii10105" horiz-adv-x="263" unicode="ј" d="M147 594l23 106h120l-23 -106h-120zM129 508h120l-114 -535q-18 -85 -51 -118q-44 -44 -134 -44q-29 0 -57 4l17 82h6q39 0 61 13q29 18 40 70z"/>
<glyph glyph-name="afii10106" horiz-adv-x="860" unicode="љ" d="M501 230l-32 -148h113q49 0 75 17q34 22 34 68q0 30 -23 50q-19 13 -55 13h-112zM181 508h379l-42 -196h127q82 0 123 -34q46 -39 46 -107q0 -44 -18 -79.5t-46 -55.5q-51 -36 -157 -36h-256l91 426h-152l-24 -109q-20 -98 -34 -142q-27 -90 -66 -131q-46 -48 -139 -48 q-33 0 -54 4l17 82q8 -2 23 -2q46 0 72 29q28 28 63 180z"/>
<glyph glyph-name="afii10107" horiz-adv-x="891" unicode="њ" d="M527 230l-32 -148h113q49 0 75 17q34 23 34 69q0 31 -23 49q-19 13 -55 13h-112zM186 226l-48 -226h-120l108 508h120l-42 -200h220l42 200h120l-42 -196h132q82 0 123 -34q46 -39 46 -107q0 -44 -18 -79.5t-46 -55.5q-51 -36 -157 -36h-266l48 226h-220z"/>
<glyph glyph-name="afii10108" horiz-adv-x="595" unicode="ћ" d="M174 700h120l-13 -61h205l-15 -68h-205l-24 -122q27 33 64 54q45 25 103 25q68 0 110 -29q46 -37 46 -105q0 -38 -11 -84l-67 -310h-120l59 278q12 48 12 88t-21 61q-19 19 -55 19q-58 0 -98 -40t-58 -122l-61 -284h-120l121 571h-80l15 68h80z"/>
<glyph glyph-name="afii10109" horiz-adv-x="545" unicode="ќ" d="M361 700h130l-138 -132h-90zM201 296l238 212h146l-281 -242l174 -266h-136l-152 246l-52 -246h-120l108 508h120z"/>
<glyph glyph-name="afii10110" horiz-adv-x="519" unicode="ў" d="M-3 -179l19 83q18 -7 42 -7q34 0 57 21q20 20 40 62l10 21l-123 507h134l73 -378l197 378h130l-319 -566q-35 -62 -59 -86q-45 -45 -135 -45q-36 0 -66 10zM147 700h102q0 -2 -0.5 -5t-0.5 -4q0 -29 18 -45q19 -19 62 -19q38 0 66 18q29 20 38 55h102q-15 -54 -48 -87 q-56 -56 -180 -56q-85 0 -124 43q-35 35 -35 90v10z"/>
<glyph glyph-name="afii10193" horiz-adv-x="615" unicode="џ" d="M385 82l91 426h120l-108 -508h-182l-39 -185h-106l39 185h-182l108 508h120l-91 -426h230z"/>
<glyph glyph-name="afii10146" horiz-adv-x="772" unicode="Ѣ" d="M323 324l-46 -218h156q75 0 113 25q52 35 52 105q0 47 -34 71q-26 17 -88 17h-153zM403 700l-14 -66h220l-23 -106h-220l-21 -98h169q106 0 158 -43q59 -46 59 -143q0 -106 -61 -170q-71 -74 -234 -74h-310l112 528h-147l23 106h147l14 66h128z"/>
<glyph glyph-name="afii10194" horiz-adv-x="636" unicode="ѣ" d="M268 230l-32 -148h113q48 0 75 17q34 21 34 68q0 35 -23 50q-19 13 -55 13h-112zM54 426l17 82h136l41 192h120l-41 -192h197l-17 -82h-197l-25 -114h132q81 0 123 -34q46 -38 46 -106q0 -92 -64 -136q-51 -36 -157 -36h-266l91 426h-136z"/>
<glyph glyph-name="afii10147" horiz-adv-x="781" unicode="Ѳ" d="M216 400h407q3 19 3 40q0 86 -43 131q-41 44 -123 44q-95 0 -161 -67q-59 -59 -83 -148zM601 294h-405q-3 -16 -3 -33q0 -89 53 -137q42 -39 119 -39q95 0 157 62q57 57 79 147zM53 263q0 85 32.5 185t103.5 171q61 61 127.5 81.5t146.5 20.5q152 0 228 -76 q75 -75 75 -209q0 -92 -33.5 -193t-101.5 -167q-100 -97 -274 -97q-154 0 -228 74q-76 74 -76 210z"/>
<glyph glyph-name="afii10195" horiz-adv-x="612" unicode="ѳ" d="M181 298h266q1 7 1 25q0 66 -31 97q-26 26 -72 26q-61 0 -104 -42q-41 -40 -60 -106zM430 216h-267q-2 -14 -2 -35q0 -61 28 -90t77 -29q60 0 101 40q43 42 63 114zM35 188q0 71 27.5 143t74.5 117q80 80 217 80q111 0 167 -56q54 -54 54 -156q0 -69 -26 -141.5 t-77 -121.5q-76 -73 -213 -73q-112 0 -167 52q-57 57 -57 156z"/>
<glyph glyph-name="afii10148" horiz-adv-x="703" unicode="Ѵ" d="M282 133l200 414q36 75 76 113q53 52 142 52q40 0 87 -12l-22 -104q-30 10 -58 10q-42 0 -70 -25q-21 -19 -54 -82l-252 -499h-147l-92 700h135z"/>
<glyph glyph-name="afii10196" horiz-adv-x="547" unicode="ѵ" d="M224 118l109 230q34 73 67 113q45 51 118 51q26 0 70 -7l-16 -79q-28 4 -40 4q-33 0 -54 -22q-17 -17 -44 -72l-166 -336h-139l-78 508h128z"/>
<glyph glyph-name="afii10050" horiz-adv-x="552" unicode="Ґ" d="M285 594l-126 -594h-128l149 700h340l34 158h112l-51 -264h-330z"/>
<glyph glyph-name="afii10098" horiz-adv-x="449" unicode="ґ" d="M227 421l-89 -421h-120l108 508h260l28 132h100l-37 -219h-250z"/>
<glyph glyph-name="uni04A2" horiz-adv-x="766" unicode="Ң" d="M226 314l-67 -314h-128l149 700h128l-60 -280h312l60 280h128l-126 -594h96l-63 -264h-112l34 158h-106l67 314h-312z"/>
<glyph glyph-name="uni04A3" horiz-adv-x="627" unicode="ң" d="M186 226l-48 -226h-120l108 508h120l-42 -200h220l42 200h120l-91 -426h88l-55 -214h-100l28 132h-98l48 226h-220z"/>
<glyph glyph-name="uni04AE" horiz-adv-x="630" unicode="Ү" d="M343 393l235 307h156l-347 -421l-59 -279h-128l59 279l-167 421h146z"/>
<glyph glyph-name="uni04AF" horiz-adv-x="496" unicode="ү" d="M97 -185l39 185l-85 508h128l45 -378l205 378h128l-301 -508l-39 -185h-120z"/>
<glyph glyph-name="uni04BA" horiz-adv-x="676" unicode="Һ" d="M561 0h-128l42 205q0 2 4.5 27.5t4.5 33.5q0 43 -38 58q-22 13 -110 13q-37 0 -107 -8l-70 -329h-128l149 700h128l-57 -266q80 8 130 8q117 0 170 -26q70 -34 70 -112q0 -29 -11 -76z"/>
<glyph glyph-name="uni04BB" horiz-adv-x="606" unicode="һ" d="M167 700h120l-54 -253q25 34 64 56q44 25 103 25q71 0 110 -29q46 -34 46 -106q0 -22 -13 -92l-63 -301h-120l64 302q8 40 8 64q0 41 -21 60q-22 20 -56 20q-57 0 -97 -40q-41 -39 -60 -122l-60 -284h-120z"/>
<glyph glyph-name="uni04C1" horiz-adv-x="953" unicode="Ӂ" d="M397 883h103v-2q0 -39 23 -59q22 -20 75 -20q46 0 74 18q32 20 42 63h103q-17 -74 -79 -118q-53 -35 -149 -35q-100 0 -147 41q-45 40 -45 103v9zM355 0l71 335l-319 -335h-165l375 382l-217 318h154l187 -296l63 296h128l-63 -296l310 296h164l-360 -332l223 -368h-154 l-198 335l-71 -335h-128z"/>
<glyph glyph-name="uni04C2" horiz-adv-x="770" unicode="ӂ" d="M537 700h102q-16 -74 -79 -113q-49 -30 -134 -30q-81 0 -119 23q-62 34 -62 111v9h102q-1 -4 -1 -12q0 -28 20 -45q18 -16 64 -16t71 18q23 16 36 55zM265 0l51 242l-219 -242h-148l261 270l-148 238h141l123 -223l47 223h120l-47 -223l217 223h147l-257 -247l154 -261 h-148l-123 242l-51 -242h-120z"/>
<glyph glyph-name="uni04D0" horiz-adv-x="662" unicode="Ӑ" d="M230 253h212l-40 311zM173 147l-82 -147h-139l413 700h128l115 -700h-135l-20 147h-280zM252 892h102q-1 -3 -1 -10q0 -29 20 -45q22 -18 65 -18q47 0 74 22q22 17 32 51h102q-13 -51 -48 -87q-55 -56 -170 -56q-98 0 -141 43q-35 35 -35 90v10z"/>
<glyph glyph-name="uni04D1" horiz-adv-x="578" unicode="ӑ" d="M376 227l4 17q-15 -11 -41 -16q-37 -7 -53 -7h-11q-89 -6 -115 -28q-25 -25 -25 -57q0 -33 20 -49q18 -17 57 -17q50 0 83 23q59 38 81 134zM185 351h-114q17 89 86 136q60 41 160 41q96 0 148 -36q57 -39 57 -117q0 -22 -6 -54l-37 -176q-6 -30 -6 -39q0 -16 11 -21 q6 -2 13 -2h13l-18 -83q-31 -3 -57 -3q-40 0 -59 14q-23 17 -23 45v7q-31 -37 -73 -56q-44 -19 -108 -19q-78 0 -117 29q-47 36 -47 106q0 66 41 107q43 44 168 58l103 11q41 5 58 14q18 10 23 34l2 9q1 3 1 13q0 41 -30 62q-23 15 -66 15q-61 0 -91 -30q-25 -25 -32 -65z M147 700h102q0 -2 -0.5 -5t-0.5 -4q0 -29 18 -45q19 -19 62 -19q38 0 66 18q29 20 38 55h102q-15 -54 -48 -87q-56 -56 -180 -56q-85 0 -124 43q-35 35 -35 90v10z"/>
<glyph glyph-name="uni04D2" horiz-adv-x="662" unicode="Ӓ" d="M230 253h212l-40 311zM173 147l-82 -147h-139l413 700h128l115 -700h-135l-20 147h-280zM472 786l23 106h116l-23 -106h-116zM282 786l23 106h116l-23 -106h-116z"/>
<glyph glyph-name="uni04D3" horiz-adv-x="578" unicode="ӓ" d="M376 227l4 17q-15 -11 -41 -16q-37 -7 -53 -7h-11q-89 -6 -115 -28q-25 -25 -25 -57q0 -33 20 -49q18 -17 57 -17q50 0 83 23q59 38 81 134zM185 351h-114q17 89 86 136q60 41 160 41q96 0 148 -36q57 -39 57 -117q0 -22 -6 -54l-37 -176q-6 -30 -6 -39q0 -16 11 -21 q6 -2 13 -2h13l-18 -83q-31 -3 -57 -3q-40 0 -59 14q-23 17 -23 45v7q-31 -37 -73 -56q-44 -19 -108 -19q-78 0 -117 29q-47 36 -47 106q0 66 41 107q43 44 168 58l103 11q41 5 58 14q18 10 23 34l2 9q1 3 1 13q0 41 -30 62q-23 15 -66 15q-61 0 -91 -30q-25 -25 -32 -65z M377 594l23 106h116l-23 -106h-116zM187 594l23 106h116l-23 -106h-116z"/>
<glyph glyph-name="uni04D4" horiz-adv-x="1053" unicode="Ӕ" d="M505 260l71 334h-42l-251 -334h222zM450 0l33 154h-278l-117 -154h-152l546 700h642l-23 -106h-397l-38 -182h356l-23 -106h-356l-42 -200h408l-23 -106h-536z"/>
<glyph glyph-name="uni04D5" horiz-adv-x="927" unicode="ӕ" d="M376 227l4 17q-15 -11 -41 -16q-37 -7 -53 -7h-11q-89 -6 -115 -28q-25 -20 -25 -57q0 -29 20 -49q18 -17 57 -17q50 0 83 23q59 38 81 134zM518 305h253q3 23 3 42q0 49 -22 72q-27 27 -79 27q-58 0 -94 -32q-46 -40 -61 -109zM185 351h-114q17 89 86 136q60 41 162 41 q120 0 170 -76q67 76 182 76q114 0 170 -56q51 -51 51 -142q0 -42 -13 -107h-380q-4 -15 -4 -43q0 -57 27 -84q30 -34 92 -34q52 0 83 23q32 24 44 62h114q-26 -84 -95 -129q-61 -38 -154 -38q-142 0 -197 91q-40 -44 -96 -65q-49 -18 -124 -18q-91 0 -133 33 q-48 40 -48 107q0 63 40 103q45 45 168 57q10 1 103 11q41 5 59 14q18 10 23 34l2 9q1 3 1 13q0 41 -30 62q-23 15 -66 15q-61 0 -91 -30q-25 -25 -32 -65z"/>
<glyph glyph-name="uni04D6" horiz-adv-x="634" unicode="Ӗ" d="M247 412h356l-23 -106h-356l-42 -200h408l-23 -106h-536l149 700h525l-23 -106h-397zM272 892h102q-1 -3 -1 -10q0 -29 20 -45q22 -18 65 -18q47 0 74 22q22 17 32 51h102q-13 -51 -48 -87q-55 -56 -170 -56q-98 0 -141 43q-35 35 -35 90v10z"/>
<glyph glyph-name="uni04D7" horiz-adv-x="595" unicode="ӗ" d="M185 305h253q3 23 3 42q0 49 -22 72q-27 27 -79 27q-57 0 -94 -32q-45 -39 -61 -109zM409 147h114q-26 -84 -95 -129q-59 -38 -151 -38q-126 0 -185 61q-57 57 -57 156q0 58 20.5 128t75.5 126q43 44 92.5 60.5t114.5 16.5q118 0 174 -59q48 -51 48 -139q0 -42 -13 -107 h-380q-4 -15 -4 -43q0 -57 27 -84q30 -34 92 -34q52 0 83 23q32 24 44 62zM177 700h102q0 -2 -0.5 -5t-0.5 -4q0 -29 18 -45q19 -19 62 -19q38 0 66 18q29 20 38 55h102q-15 -54 -48 -87q-56 -56 -180 -56q-85 0 -124 43q-35 35 -35 90v10z"/>
<glyph glyph-name="uni04DC" horiz-adv-x="953" unicode="Ӝ" d="M627 786l23 106h116l-23 -106h-116zM437 786l23 106h116l-23 -106h-116zM355 0l71 335l-319 -335h-165l375 382l-217 318h154l187 -296l63 296h128l-63 -296l310 296h164l-360 -332l223 -368h-154l-198 335l-71 -335h-128z"/>
<glyph glyph-name="uni04DD" horiz-adv-x="770" unicode="ӝ" d="M492 594l23 106h116l-23 -106h-116zM302 594l23 106h116l-23 -106h-116zM265 0l51 242l-219 -242h-148l261 270l-148 238h141l123 -223l47 223h120l-47 -223l217 223h147l-257 -247l154 -261h-148l-123 242l-51 -242h-120z"/>
<glyph glyph-name="uni04DE" horiz-adv-x="699" unicode="Ӟ" d="M457 786l23 106h116l-23 -106h-116zM267 786l23 106h116l-23 -106h-116zM36 239h127q-2 -16 -2 -24q0 -60 41 -95t120 -35q77 0 121 30q52 37 52 100q0 51 -40 77q-30 20 -97 20h-79l23 106h83q64 0 101 24q44 28 44 81q0 45 -40 71q-33 21 -96 21q-86 0 -130 -44 q-32 -32 -39 -77h-127q20 98 94 162q76 65 210 65q120 0 185 -39q82 -49 82 -144q0 -71 -46 -119q-37 -39 -99 -54l-1 -2q38 -14 66 -43q36 -42 36 -103q0 -99 -65 -164q-45 -45 -104 -59.5t-137 -14.5q-44 0 -75.5 3t-74.5 19t-73 46q-61 64 -61 169q0 16 1 23z"/>
<glyph glyph-name="uni04DF" horiz-adv-x="544" unicode="ӟ" d="M352 594l23 106h116l-23 -106h-116zM162 594l23 106h116l-23 -106h-116zM9 159h114q-1 -4 -1 -12q0 -40 32 -64q27 -21 80 -21q50 0 78 16q41 26 41 74q0 34 -29 52q-19 12 -68 12h-58l17 82h55q50 0 77 19q31 20 31 59q0 36 -29 55q-24 15 -63 15q-51 0 -79 -26t-32 -65 h-118q14 77 78 128q63 45 166 45q87 0 139 -28q65 -35 65 -112q0 -50 -30 -83q-27 -29 -66 -43v-2q34 -15 46 -30q24 -26 24 -69q0 -52 -24 -90.5t-60 -58.5q-55 -32 -170 -32q-108 0 -156 40q-60 48 -60 139z"/>
<glyph glyph-name="uni04E2" horiz-adv-x="756" unicode="Ӣ" d="M318 794l18 82h330l-18 -82h-330zM202 200l439 500h125l-149 -700h-128l106 500l-439 -500h-125l149 700h128z"/>
<glyph glyph-name="uni04E3" horiz-adv-x="635" unicode="ӣ" d="M208 602l18 82h330l-18 -82h-330zM171 157l313 351h132l-108 -508h-120l75 351l-313 -351h-132l108 508h120z"/>
<glyph glyph-name="uni04E4" horiz-adv-x="756" unicode="Ӥ" d="M527 786l23 106h116l-23 -106h-116zM337 786l23 106h116l-23 -106h-116zM202 200l439 500h125l-149 -700h-128l106 500l-439 -500h-125l149 700h128z"/>
<glyph glyph-name="uni04E5" horiz-adv-x="635" unicode="ӥ" d="M427 594l23 106h116l-23 -106h-116zM237 594l23 106h116l-23 -106h-116zM171 157l313 351h132l-108 -508h-120l75 351l-313 -351h-132l108 508h120z"/>
<glyph glyph-name="uni04E6" horiz-adv-x="781" unicode="Ӧ" d="M53 263q0 85 32.5 185t103.5 171q61 61 127.5 81.5t146.5 20.5q152 0 228 -76q75 -75 75 -209q0 -92 -33.5 -193t-101.5 -167q-100 -97 -274 -97q-154 0 -228 74q-76 74 -76 210zM194 266q0 -83 41 -130q42 -51 129 -51q95 0 157 62q44 44 74.5 129t30.5 163 q0 88 -43 132q-42 44 -117 44q-100 0 -167 -67q-51 -51 -78 -130.5t-27 -151.5zM527 786l23 106h116l-23 -106h-116zM337 786l23 106h116l-23 -106h-116z"/>
<glyph glyph-name="uni04E7" horiz-adv-x="612" unicode="ӧ" d="M161 179q0 -56 28 -88q29 -29 77 -29q58 0 101 40q38 37 59.5 104.5t21.5 121.5q0 61 -31 92q-26 26 -72 26q-62 0 -104 -42q-37 -37 -58.5 -103.5t-21.5 -121.5zM35 188q0 71 27.5 143t74.5 117q80 80 217 80q111 0 167 -56q54 -54 54 -156q0 -69 -26 -141.5t-77 -121.5 q-76 -73 -213 -73q-112 0 -167 52q-57 57 -57 156zM419 594l23 106h116l-23 -106h-116zM229 594l23 106h116l-23 -106h-116z"/>
<glyph glyph-name="uni04E8" horiz-adv-x="781" unicode="Ө" d="M216 400h407q3 19 3 40q0 86 -43 131q-41 44 -123 44q-95 0 -161 -67q-59 -59 -83 -148zM601 294h-405q-3 -16 -3 -33q0 -89 53 -137q42 -39 119 -39q95 0 157 62q57 57 79 147zM53 263q0 85 32.5 185t103.5 171q61 61 127.5 81.5t146.5 20.5q152 0 228 -76 q75 -75 75 -209q0 -92 -33.5 -193t-101.5 -167q-100 -97 -274 -97q-154 0 -228 74q-76 74 -76 210z"/>
<glyph glyph-name="uni04E9" horiz-adv-x="612" unicode="ө" d="M181 298h266q1 7 1 25q0 66 -31 97q-26 26 -72 26q-61 0 -104 -42q-41 -40 -60 -106zM430 216h-267q-2 -14 -2 -35q0 -61 28 -90t77 -29q60 0 101 40q43 42 63 114zM35 188q0 71 27.5 143t74.5 117q80 80 217 80q111 0 167 -56q54 -54 54 -156q0 -69 -26 -141.5 t-77 -121.5q-76 -73 -213 -73q-112 0 -167 52q-57 57 -57 156z"/>
<glyph glyph-name="uni04EA" horiz-adv-x="781" unicode="Ӫ" d="M527 786l23 106h116l-23 -106h-116zM337 786l23 106h116l-23 -106h-116zM216 400h407q3 19 3 40q0 86 -43 131q-41 44 -123 44q-95 0 -161 -67q-59 -59 -83 -148zM601 294h-405q-3 -16 -3 -33q0 -89 53 -137q42 -39 119 -39q95 0 157 62q57 57 79 147zM53 263 q0 85 32.5 185t103.5 171q61 61 127.5 81.5t146.5 20.5q152 0 228 -76q75 -75 75 -209q0 -92 -33.5 -193t-101.5 -167q-100 -97 -274 -97q-154 0 -228 74q-76 74 -76 210z"/>
<glyph glyph-name="uni04EB" horiz-adv-x="612" unicode="ӫ" d="M419 594l23 106h116l-23 -106h-116zM229 594l23 106h116l-23 -106h-116zM181 298h266q1 7 1 25q0 66 -31 97q-26 26 -72 26q-61 0 -104 -42q-41 -40 -60 -106zM430 216h-267q-2 -14 -2 -35q0 -61 28 -90t77 -29q60 0 101 40q43 42 63 114zM35 188q0 71 27.5 143t74.5 117 q80 80 217 80q111 0 167 -56q54 -54 54 -156q0 -69 -26 -141.5t-77 -121.5q-76 -73 -213 -73q-112 0 -167 52q-57 57 -57 156z"/>
<glyph glyph-name="uni04EE" horiz-adv-x="614" unicode="Ӯ" d="M253 794l18 82h330l-18 -82h-330zM346 322l226 378h146l-355 -564q-52 -82 -91 -111q-50 -35 -133 -35q-54 0 -94 15l28 109q30 -14 64 -14q42 0 69 19q29 20 51 65l-157 516h145z"/>
<glyph glyph-name="uni04EF" horiz-adv-x="519" unicode="ӯ" d="M-3 -179l19 83q18 -7 42 -7q34 0 57 21q20 20 40 62l10 21l-123 507h134l73 -378l197 378h130l-319 -566q-35 -62 -59 -86q-45 -45 -135 -45q-36 0 -66 10zM158 602l18 82h330l-18 -82h-330z"/>
<glyph glyph-name="uni04F0" horiz-adv-x="614" unicode="Ӱ" d="M467 786l23 106h116l-23 -106h-116zM277 786l23 106h116l-23 -106h-116zM346 322l226 378h146l-355 -564q-52 -82 -91 -111q-50 -35 -133 -35q-54 0 -94 15l28 109q30 -14 64 -14q42 0 69 19q29 20 51 65l-157 516h145z"/>
<glyph glyph-name="uni04F1" horiz-adv-x="519" unicode="ӱ" d="M-3 -179l19 83q18 -7 42 -7q34 0 57 21q20 20 40 62l10 21l-123 507h134l73 -378l197 378h130l-319 -566q-35 -62 -59 -86q-45 -45 -135 -45q-36 0 -66 10zM362 594l23 106h116l-23 -106h-116zM172 594l23 106h116l-23 -106h-116z"/>
<glyph glyph-name="uni04F2" horiz-adv-x="614" unicode="Ӳ" d="M505 892h120l-138 -132h-80zM335 892h120l-138 -132h-80zM346 322l226 378h146l-355 -564q-52 -82 -91 -111q-50 -35 -133 -35q-54 0 -94 15l28 109q30 -14 64 -14q42 0 69 19q29 20 51 65l-157 516h145z"/>
<glyph glyph-name="uni04F3" horiz-adv-x="519" unicode="ӳ" d="M-3 -179l19 83q18 -7 42 -7q34 0 57 21q20 20 40 62l10 21l-123 507h134l73 -378l197 378h130l-319 -566q-35 -62 -59 -86q-45 -45 -135 -45q-36 0 -66 10zM395 700h120l-138 -132h-80zM225 700h120l-138 -132h-80z"/>
<glyph glyph-name="uni04F4" horiz-adv-x="673" unicode="Ӵ" d="M472 786l23 106h116l-23 -106h-116zM282 786l23 106h116l-23 -106h-116zM153 700h128l-39 -183q-7 -26 -7 -49q0 -45 38 -61q21 -13 107 -13q57 0 112 8l63 298h128l-149 -700h-128l63 297q-55 -9 -123 -9q-120 0 -177 30q-69 36 -69 108q0 30 10 71z"/>
<glyph glyph-name="uni04F5" horiz-adv-x="543" unicode="ӵ" d="M357 594l23 106h116l-23 -106h-116zM167 594l23 106h116l-23 -106h-116zM98 508h120l-32 -148q-3 -10 -3 -23q0 -31 25 -45q18 -10 83 -10q37 0 65 4l48 222h120l-108 -508h-120l43 204q-47 -4 -97 -4q-116 0 -153 28q-31 25 -31 73q0 19 5 44z"/>
<glyph glyph-name="uni04F8" horiz-adv-x="908" unicode="Ӹ" d="M587 786l23 106h116l-23 -106h-116zM397 786l23 106h116l-23 -106h-116zM308 700l-58 -270h170q101 0 153 -39q64 -50 64 -147q0 -105 -61 -170q-69 -74 -234 -74h-311l149 700h128zM228 324l-46 -218h156q75 0 113 25q52 35 52 105q0 31 -12 49t-24 24q-25 15 -86 15 h-153zM790 700h128l-149 -700h-128z"/>
<glyph glyph-name="uni04F9" horiz-adv-x="773" unicode="ӹ" d="M487 594l23 106h116l-23 -106h-116zM297 594l23 106h116l-23 -106h-116zM187 230l-32 -148h113q49 0 75 17q34 22 34 68q0 30 -23 50q-19 13 -55 13h-112zM246 508l-42 -196h131q82 0 123 -34q46 -39 46 -107q0 -44 -18 -79.5t-46 -55.5q-51 -36 -157 -36h-265l108 508 h120zM634 508h120l-108 -508h-120z"/>
<glyph glyph-name="endash" horiz-adv-x="612" unicode="–" d="M66 310h500l-17 -82h-500z"/>
<glyph glyph-name="emdash" horiz-adv-x="992" unicode="—" d="M49 228l17 82h880l-17 -82h-880z"/>
<glyph glyph-name="quoteleft" horiz-adv-x="351" unicode="‘" d="M284 429h-132l30 139q15 67 48 100q43 43 117 54l-15 -69q-37 -5 -57 -25t-28 -59l-1 -5h67z"/>
<glyph glyph-name="quotesinglbase" horiz-adv-x="360" unicode="‚" d="M83 135h132l-30 -139q-16 -71 -50 -106q-45 -47 -115 -48l15 69q32 0 55 23q20 20 29 57l2 9h-67z"/>
<glyph glyph-name="quotedblleft" horiz-adv-x="490" unicode="“" d="M451 429h-132l30 139q15 67 48 100q43 43 117 54l-15 -69q-37 -5 -57 -25t-28 -59l-1 -5h67zM257 429h-132l30 139q15 67 48 100q43 43 117 54l-15 -69q-37 -5 -57 -25t-28 -59l-1 -5h67z"/>
<glyph glyph-name="quotedblright" horiz-adv-x="490" unicode="”" d="M375 700h132l-30 -139q-6 -24 -13.5 -43.5t-25 -45.5t-49.5 -43t-76 -22l14 69q33 2 55.5 25t28.5 53l2 11h-67zM181 700h132l-30 -139q-6 -24 -13.5 -43.5t-25 -45.5t-49.5 -43t-76 -22l14 69q33 2 55.5 25t28.5 53l2 11h-67z"/>
<glyph glyph-name="dagger" horiz-adv-x="531" unicode="†" d="M311 700h106l-41 -192h185l-20 -92h-185l-127 -601h-106l127 601h-185l20 92h185z"/>
<glyph glyph-name="daggerdbl" horiz-adv-x="586" unicode="‡" d="M366 700h106l-41 -192h185l-20 -92h-185l-35 -168h185l-20 -92h-185l-72 -341h-106l72 341h-185l20 92h185l35 168h-185l20 92h185z"/>
<glyph glyph-name="ellipsis" horiz-adv-x="1046" unicode="…" d="M740 0l29 135h132l-29 -135h-132zM396 0l29 135h132l-29 -135h-132zM52 0l29 135h132l-29 -135h-132z"/>
<glyph glyph-name="perthousand" horiz-adv-x="1341" unicode="‰" d="M1014 139q0 -40 16 -60q17 -21 54 -21q42 0 70 29q22 22 38 71t16 89q0 41 -20 61q-18 18 -50 18q-44 0 -72 -31q-52 -56 -52 -156zM934 130q0 120 74 200q58 62 147 62q61 0 96 -35q36 -36 36 -104q0 -59 -22.5 -116.5t-56.5 -91.5q-54 -53 -138 -53q-63 0 -99 33 q-37 36 -37 105zM527 133q0 117 74 197q58 62 147 62q61 0 96 -35q36 -36 36 -104q0 -53 -19 -111.5t-60 -96.5q-56 -53 -138 -53q-63 0 -99 33q-37 35 -37 108zM607 139q0 -40 16 -60q17 -21 54 -21q42 0 70 29q22 22 38 71t16 89q0 41 -20 61q-18 18 -50 18q-44 0 -72 -31 q-52 -56 -52 -156zM172 455q0 -40 16 -60q17 -21 54 -21q42 0 70 29q22 22 38 71t16 89q0 41 -20 61q-18 18 -50 18q-44 0 -72 -31q-52 -56 -52 -156zM92 449q0 117 74 197q58 62 147 62q61 0 96 -35q36 -36 36 -104q0 -53 -19 -111.5t-60 -96.5q-56 -53 -138 -53 q-63 0 -99 33q-37 35 -37 108zM154 0l570 700h93l-570 -700h-93z"/>
<glyph glyph-name="guilsinglleft" horiz-adv-x="297" unicode="‹" d="M123 270l78 -81l-22 -106l-121 132l23 110l177 132l-22 -106z"/>
<glyph glyph-name="guilsinglright" horiz-adv-x="295" unicode="›" d="M176 270l-77 81l22 106l121 -132l-23 -110l-177 -132l22 106z"/>
<glyph glyph-name="fraction" horiz-adv-x="55" unicode="⁄" d="M-244 0l577 700h72l-577 -700h-72z"/>
<glyph glyph-name="Euro" d="M530 152l-26 -126q-32 -19 -76 -30q-57 -16 -123 -16q-102 0 -159 57q-65 62 -65 174q0 18 1 27h-84l47 74h44q5 38 17 74h-77l48 74h52q34 101 101 171q85 89 228 89q73 0 117 -21q45 -19 73 -61l-76 -97q-11 31 -42 51q-32 22 -83 22q-73 0 -117 -43t-67 -111h256 l-48 -74h-231q-11 -38 -16 -74h206l-47 -74h-166q-1 -7 -1 -20q0 -56 29 -91q33 -41 104 -41q47 0 99 21q34 13 82 45z" unicode="€"/>
<glyph glyph-name="trademark" horiz-adv-x="973" unicode="™" d="M666 350l-47 261h-2l-8 -45l-46 -216h-98l75 350h132l44 -231l2 -35h2l18 35l142 231h132l-75 -350h-98l46 216l12 45h-2l-159 -261h-70zM237 630h-113l15 70h324l-15 -70h-113l-60 -280h-98z"/>
<glyph glyph-name="partialdiff" horiz-adv-x="601" unicode="∂" d="M257 62q61 0 102 39q38 38 56 99.5t18 116.5q0 57 -25 83t-73 26q-60 0 -102 -45q-32 -35 -50 -89t-18 -112q0 -54 19 -82q25 -36 73 -36zM231 671l23 62q181 -20 261 -97q72 -68 72 -194q0 -102 -31.5 -212.5t-100.5 -175.5q-43 -42 -91 -58t-111 -16q-102 0 -160 54 q-58 55 -58 155q0 149 96 241q80 78 208 78q55 0 93 -19q37 -19 57 -61h2q0 2 0.5 7t0.5 8q0 87 -56 143q-58 58 -205 85z"/>
<glyph glyph-name="product" horiz-adv-x="769" unicode="∏" d="M285 594l-126 -594h-128l126 594h-33l23 106h632l-23 -106h-32l-126 -594h-128l126 594h-311z"/>
<glyph glyph-name="summation" horiz-adv-x="582" unicode="∑" d="M619 700l-23 -106h-330l149 -229l-269 -259h368l-23 -106h-536l19 89l293 276l-164 243l20 92h496z"/>
<glyph glyph-name="minus" d="M63 398h500v-86h-500v86z" unicode="−"/>
<glyph glyph-name="radical" horiz-adv-x="680" unicode="√" d="M252 500l100 -343l110 672h198v-86h-122l-144 -843h-84l-158 514h-132v86h232z"/>
<glyph glyph-name="infinity" horiz-adv-x="1000" unicode="∞" d="M550 371q30 -45 64 -79q58 -58 124 -58q48 0 79 31q33 33 33 90q0 45 -25 73q-31 33 -100 33q-55 0 -99 -25q-43 -26 -76 -65zM446 336q-28 36 -78 86q-17 15 -28 23.5t-30.5 15t-44.5 6.5q-52 0 -83 -31q-32 -32 -32 -84q0 -50 30 -84q27 -29 81 -29q59 0 108 32 q42 26 77 65zM477 287q-42 -51 -91 -79q-60 -36 -134 -36q-87 0 -135 48q-47 47 -47 122q0 77 50 129q58 58 164 58q80 0 133 -30t97 -87q34 48 87 78q65 38 140 38q94 0 144 -50q45 -45 45 -118q0 -84 -56 -136q-54 -52 -155 -52q-81 0 -147 36q-57 32 -95 79z"/>
<glyph glyph-name="approxequal" horiz-adv-x="614" unicode="≈" d="M109 173l-46 19q29 77 60 108q37 34 85 34q41 0 85 -23l103 -55q28 -13 48 -13q30 0 50 20q17 17 37 64l46 -19q-26 -73 -62 -109q-33 -33 -82 -33q-42 0 -86 23l-103 55q-24 13 -48 13q-28 0 -51 -20q-19 -17 -36 -64zM109 383l-46 19q29 77 60 108q37 34 85 34 q41 0 85 -23l103 -55q28 -13 48 -13q30 0 50 20q17 17 37 64l46 -19q-26 -73 -62 -109q-33 -33 -82 -33q-42 0 -86 23l-103 55q-24 13 -48 13q-28 0 -51 -20q-19 -17 -36 -64z"/>
<glyph glyph-name="notequal" d="M63 402v86h284l66 114l70 -42l-42 -72h122v-86h-172l-63 -114h235v-86h-285l-66 -114l-70 42l42 72h-121v86h171l63 114h-234z" unicode="≠"/>
<glyph glyph-name="lessequal" horiz-adv-x="678" unicode="≤" d="M73 220l40 72l494 -278l-40 -72zM174 411l433 -237l-40 -72l-494 278v62l494 278l40 -72z"/>
<glyph glyph-name="greaterequal" horiz-adv-x="678" unicode="≥" d="M631 220l-494 -278l-40 72l494 278zM530 411l-433 237l40 72l494 -278v-62l-494 -278l-40 72z"/>
<glyph glyph-name="dotmath" horiz-adv-x="288" unicode="⋅" d="M64 200l28 135h132l-28 -135h-132z"/>
<glyph glyph-name="lozenge" horiz-adv-x="440" unicode="◊" d="M403 350l-170 -375l-170 375l170 375zM319 350l-86 189l-86 -189l86 -189z"/>
</font>
</defs>
</svg>
